<svg xmlns="http://www.w3.org/2000/svg" width="63" height="63" viewBox="0 0 63 63">
  <g id="Grupo_1106066" data-name="Grupo 1106066" transform="translate(-224 -747)">
    <g id="Grupo_1098742" data-name="Grupo 1098742" transform="translate(224.445 747.445)">
      <rect id="Rect치ngulo_400898" data-name="Rect치ngulo 400898" width="63" height="63" rx="31.5" transform="translate(-0.445 -0.445)" fill="#927d1a"/>
      <rect id="Rect치ngulo_400907" data-name="Rect치ngulo 400907" width="63" height="63" rx="31.5" transform="translate(-0.446 -0.445)" fill="none"/>
    </g>
    <g id="tierra-" transform="translate(203.464 752)">
      <g id="Grupo_1106064" data-name="Grupo 1106064" transform="translate(29.063 0.529)">
        <path id="Trazado_895859" data-name="Trazado 895859" d="M65.495,230.182,53.976,241.739a.461.461,0,0,0,.326.786h30a1.037,1.037,0,0,0,.734-.3L96.56,230.663a.461.461,0,0,0-.326-.786h-30A1.037,1.037,0,0,0,65.495,230.182Z" transform="translate(-51.725 -206.4)" fill="#ffa78f"/>
        <circle id="Elipse_11698" data-name="Elipse 11698" cx="2.701" cy="2.701" r="2.701" transform="translate(19.993 27.61)" fill="#f89580"/>
        <path id="Trazado_895860" data-name="Trazado 895860" d="M328.847,229.877h-3.342a.461.461,0,0,1,.326.786L314.313,242.22a1.037,1.037,0,0,1-.734.3h3.342a1.037,1.037,0,0,0,.734-.3l11.519-11.557a.461.461,0,0,0-.326-.786Z" transform="translate(-284.339 -206.4)" fill="#f89580"/>
        <path id="Trazado_895861" data-name="Trazado 895861" d="M65.495,163.992,53.976,175.549a.461.461,0,0,0,.326.786h30a1.037,1.037,0,0,0,.734-.3L96.56,164.473a.461.461,0,0,0-.326-.786h-30A1.037,1.037,0,0,0,65.495,163.992Z" transform="translate(-51.725 -147.122)" fill="#e8ad8c"/>
        <path id="Trazado_895862" data-name="Trazado 895862" d="M328.847,163.687h-3.342a.461.461,0,0,1,.326.786L314.313,176.03a1.037,1.037,0,0,1-.734.3h3.342a1.037,1.037,0,0,0,.734-.3l11.519-11.557A.461.461,0,0,0,328.847,163.687Z" transform="translate(-284.339 -147.122)" fill="#e19974"/>
        <path id="Trazado_895863" data-name="Trazado 895863" d="M65.495,97.8,53.976,109.359a.461.461,0,0,0,.326.786h30a1.037,1.037,0,0,0,.734-.3L96.56,98.283a.461.461,0,0,0-.326-.786h-30A1.037,1.037,0,0,0,65.495,97.8Z" transform="translate(-51.725 -87.844)" fill="#68ca44"/>
        <path id="Trazado_895864" data-name="Trazado 895864" d="M328.847,97.5h-3.342a.461.461,0,0,1,.326.786L314.313,109.84a1.037,1.037,0,0,1-.734.3h3.342a1.037,1.037,0,0,0,.734-.3l11.519-11.557A.461.461,0,0,0,328.847,97.5Z" transform="translate(-284.339 -87.844)" fill="#4fc123"/>
        <circle id="Elipse_11699" data-name="Elipse 11699" cx="1.737" cy="1.737" r="1.737" transform="matrix(0.987, -0.16, 0.16, 0.987, 0, 0.556)" fill="#2ed1e2"/>
        <circle id="Elipse_11700" data-name="Elipse 11700" cx="1.737" cy="1.737" r="1.737" transform="matrix(0.987, -0.16, 0.16, 0.987, 40.152, 40.044)" fill="#ffe177"/>
        <path id="Trazado_895865" data-name="Trazado 895865" d="M144.5,317.87c-1.607,0-2.911.94-2.911,2.1a1.794,1.794,0,0,0,.692,1.359h4.437a1.794,1.794,0,0,0,.692-1.359C147.407,318.81,146.1,317.87,144.5,317.87Z" transform="translate(-130.307 -285.204)" fill="#f89580"/>
      </g>
      <g id="Grupo_1106065" data-name="Grupo 1106065" transform="translate(28.536 0)">
        <path id="Trazado_895866" data-name="Trazado 895866" d="M29.319,69.993h3.462a.783.783,0,0,0,0-1.566H29.319a.783.783,0,1,0,0,1.566Z" transform="translate(-28.536 -61.281)"/>
        <path id="Trazado_895867" data-name="Trazado 895867" d="M29.319,99.958H35.1a.783.783,0,1,0,0-1.566H29.319a.783.783,0,1,0,0,1.566Z" transform="translate(-28.536 -88.117)"/>
        <path id="Trazado_895868" data-name="Trazado 895868" d="M35.881,129.14a.783.783,0,0,0-.783-.783H29.319a.783.783,0,1,0,0,1.566H35.1A.783.783,0,0,0,35.881,129.14Z" transform="translate(-28.536 -114.953)"/>
        <path id="Trazado_895869" data-name="Trazado 895869" d="M71.219,44.525a2.52,2.52,0,1,0-2.4-3.3H63.452l-3.785-3.785h1.977a1.83,1.83,0,0,0,1.289-.535l2.342-2.35a.783.783,0,0,0-1.109-1.106L61.824,35.8a.25.25,0,0,1-.179.074H58.1l-1.909-1.909a.783.783,0,1,0-1.108,1.108l.8.8H46.873a2.324,2.324,0,0,0,.073-.575c0-1.617-1.623-2.883-3.694-2.883s-3.694,1.267-3.694,2.883a2.324,2.324,0,0,0,.073.575H32.418l5.328-5.346H48.287c-.009.1-.015.209-.015.314a3.484,3.484,0,1,0,6.968,0c0-.106-.006-.21-.015-.314h6.419a1.831,1.831,0,0,0,1.289-.535l2.131-2.138.02-.018.019-.021c3.384-3.514.291-.291,3.013-3.023h4.677l-6.048,6.069a.783.783,0,1,0,1.11,1.106l6.6-6.62a1.244,1.244,0,0,0-.881-2.121H69.677l.826-.828.014-.013.014-.015,3.921-3.934a1.244,1.244,0,0,0-.881-2.121H69.678l4.774-4.79A1.245,1.245,0,0,0,73.571,9.4H60.731a.783.783,0,0,0,0,1.566H72.795L61.824,21.972a.252.252,0,0,1-.18.075H32.417l10.97-11.007a.256.256,0,0,1,.18-.075h3.126l2.141,1.918a.783.783,0,0,0,1.045-1.167l-.839-.752h8.035a.783.783,0,0,0,0-1.566H47.292L38.963,1.937a.784.784,0,0,0-.523-.2h-4.99a2.52,2.52,0,1,0,0,1.566h4.69l6.8,6.1H43.567a1.833,1.833,0,0,0-1.289.535L30.759,21.491a1.244,1.244,0,0,0,.881,2.122h3.893C34.224,24.927,31.8,27.365,30.76,28.4a1.243,1.243,0,0,0,.88,2.122h3.894l-4.774,4.79a1.243,1.243,0,0,0,.88,2.122H57.452l5.122,5.122a.783.783,0,0,0,.554.229h5.7a2.524,2.524,0,0,0,2.395,1.737ZM31.056,3.474a.954.954,0,1,1,.954-.954A.955.955,0,0,1,31.056,3.474ZM43.424,23.613l5.345,5.345H45.54L40.2,23.613Zm5.444,0,5.345,5.345H50.984l-5.345-5.345Zm5.443,0,5.346,5.345H56.428l-5.345-5.345Zm-.636,7.226a1.918,1.918,0,1,1-3.808-.314h3.78A1.927,1.927,0,0,1,53.675,30.839Zm8.149-1.955-.014.012-5.284-5.283h3.229l3.667,3.667Zm4.691-9.4,2.342,2.343-1.611,1.616L64.9,21.1Zm6.279-1.608-2.832,2.841L67.62,18.376l.5-.5Zm-9,4.334,2.342,2.342L64.528,26.17l-2.584-2.584a1.8,1.8,0,0,0,.989-.509Zm-25.818,1.4,5.345,5.345H40.1l-3.846-3.846,1.495-1.5h.235Zm-2.835,2.609,2.736,2.736H32.418Zm5.98,9.073c0-.7.994-1.317,2.127-1.317s2.127.615,2.127,1.317a.9.9,0,0,1-.231.575H41.356A.9.9,0,0,1,41.125,35.3Zm30.094,5.756a.954.954,0,1,1-.954.954A.955.955,0,0,1,71.219,41.051Z" transform="translate(-28.536 0)"/>
        <path id="Trazado_895870" data-name="Trazado 895870" d="M413.913,438.636h3.462a.783.783,0,0,0,0-1.566h-3.462a.783.783,0,0,0,0,1.566Z" transform="translate(-372.967 -391.427)"/>
        <path id="Trazado_895871" data-name="Trazado 895871" d="M413.13,467.818a.783.783,0,0,0,.783.783h5.779a.783.783,0,0,0,0-1.566h-5.779A.783.783,0,0,0,413.13,467.818Z" transform="translate(-372.967 -418.263)"/>
        <path id="Trazado_895872" data-name="Trazado 895872" d="M419.692,497h-5.779a.783.783,0,0,0,0,1.566h5.779a.783.783,0,0,0,0-1.566Z" transform="translate(-372.967 -445.099)"/>
      </g>
    </g>
  </g>
</svg>
