<svg xmlns="http://www.w3.org/2000/svg" width="112.641" height="112.64" viewBox="0 0 112.641 112.64">
  <g id="Grupo_1106224" data-name="Grupo 1106224" transform="translate(-751.051 -3982)">
    <path id="Trazado_895309" data-name="Trazado 895309" d="M56.32,0h0a56.32,56.32,0,0,1,0,112.64h0A56.32,56.32,0,0,1,56.32,0Z" transform="translate(751.051 3982)" fill="#fc685b"/>
    <g id="comida" transform="translate(767.261 3998.964)">
      <path id="Trazado_896850" data-name="Trazado 896850" d="M25.977,11.564,25,5h5.005v6.764" transform="translate(6.031 0.251)" fill="#785349"/>
      <path id="Trazado_896851" data-name="Trazado 896851" d="M32.959,24.12l.367.32a37.816,37.816,0,0,0,11.629,6.952h0a20.984,20.984,0,0,0,7.368,1.336h0a20.989,20.989,0,0,0,9.385-2.215l1.958-.98a5.3,5.3,0,0,1,2.37-.559h0a2.5,2.5,0,0,1,2.5,2.5h0a2.5,2.5,0,0,1-1,2h0a43.1,43.1,0,0,1-20.172,8.245l-2.753.367-7.356-.6L31,28.975Z" transform="translate(7.538 5.056)" fill="#ffeacd"/>
      <path id="Trazado_896852" data-name="Trazado 896852" d="M28.347,26.212l-2.473,5.357a16.165,16.165,0,0,1-8.311,8.086h0a16.155,16.155,0,0,1-6.369,1.308H4.853A2.853,2.853,0,0,0,2,43.815H2a2.852,2.852,0,0,0,2.07,2.743l3.444.985a24.068,24.068,0,0,0,6.623.927h0a24.091,24.091,0,0,0,17.871-7.935" transform="translate(0.251 5.581)" fill="#edbc58"/>
      <path id="Trazado_896853" data-name="Trazado 896853" d="M23,27.957v-12.7A5.255,5.255,0,0,1,28.255,10h0a5.255,5.255,0,0,1,5.228,4.732l.958,9.581a30.156,30.156,0,0,0,8.684,18.325h0a30.163,30.163,0,0,0,17.8,8.626l7.64.9A3.66,3.66,0,0,1,71.8,55.8h0a3.659,3.659,0,0,1-2.944,3.589h0A98.491,98.491,0,0,1,49.527,61.3h0a22.469,22.469,0,0,1-16.979-7.756l0,0A39.08,39.08,0,0,1,23,27.957Z" transform="translate(5.528 1.508)" fill="#f9cb5d"/>
      <path id="Trazado_896854" data-name="Trazado 896854" d="M68.064,52.168l-7.64-.9A30.156,30.156,0,0,1,33.939,24.313l-.958-9.581A5.255,5.255,0,0,0,27.753,10a5.194,5.194,0,0,0-2.236.517A5.193,5.193,0,0,0,25,12.753v12.7a39.076,39.076,0,0,0,9.542,25.583A22.47,22.47,0,0,0,51.527,58.8a98.5,98.5,0,0,0,19.334-1.915h0c.1-.02.191-.056.288-.084a3.619,3.619,0,0,0-3.081-4.633Z" transform="translate(6.031 1.508)" fill="#ffd98c"/>
      <path id="Trazado_896855" data-name="Trazado 896855" d="M31.779,28.754l-.09.114a49.389,49.389,0,0,0-7.678,13.514h0a15.568,15.568,0,0,0-.991,5.463h0a15.563,15.563,0,0,0,.6,4.279h0a34.5,34.5,0,0,0,6.231,12.072l.677.846-.457.457a6.986,6.986,0,0,1-4.94,2.046h0a6.973,6.973,0,0,1-1.694-.209l-2.6-.649a13.112,13.112,0,0,0-3.19-.393h0a13.162,13.162,0,0,0-4.159.674l-.727.243a6.507,6.507,0,0,1-2.058.334h0a6.507,6.507,0,0,1-4.6-1.907L4.251,63.789l.333-.333a25.5,25.5,0,0,0,6.488-11.025h0a17.893,17.893,0,0,0,.687-4.909h0a17.89,17.89,0,0,0-.687-4.907v0A31.268,31.268,0,0,0,5.027,31.186L3,28.754H3a14.9,14.9,0,0,1,8.266-2.5h.2a11.848,11.848,0,0,1,5.3,1.252h0l2.325-1.162A12.7,12.7,0,0,1,24.765,25h0a8.43,8.43,0,0,1,7.015,3.754Z" transform="translate(0.503 5.277)" fill="#ffe1ae"/>
      <path id="Trazado_896856" data-name="Trazado 896856" d="M29.523,65.041l-.677-.846a34.5,34.5,0,0,1-6.231-12.072,15.561,15.561,0,0,1-.6-4.278h0a15.572,15.572,0,0,1,.992-5.47,49.389,49.389,0,0,1,7.677-13.512l.09-.109A8.431,8.431,0,0,0,23.76,25a12.7,12.7,0,0,0-5.674,1.339L15.759,27.5a11.855,11.855,0,0,0-3.061-1.02A14.89,14.89,0,0,0,7,28.754l2.027,2.432a31.268,31.268,0,0,1,6.045,11.428,17.893,17.893,0,0,1,.687,4.909,17.89,17.89,0,0,1-.687,4.907A25.5,25.5,0,0,1,8.584,63.457l-.333.333L10.1,65.636a6.507,6.507,0,0,0,2.127,1.416l.257-.086a13.154,13.154,0,0,1,7.349-.282l2.6.649A6.983,6.983,0,0,0,29.062,65.5Z" transform="translate(1.508 5.277)" fill="#ffeacd"/>
      <path id="Trazado_896857" data-name="Trazado 896857" d="M14.5,29.261l-1.316-3.949A23.134,23.134,0,0,1,12,18h6.256a41.81,41.81,0,0,0-3.6,10.492Z" transform="translate(2.764 3.518)" fill="#916658"/>
      <path id="Trazado_896858" data-name="Trazado 896858" d="M42.959,45.924,64.282,40l1.251,5.005L43.01,50.01" transform="translate(10.543 9.046)" fill="#188d47"/>
      <path id="Trazado_896859" data-name="Trazado 896859" d="M42.959,52.087,64.282,58.01l1.251-5.005L43.01,48" transform="translate(10.543 11.056)" fill="#19ad58"/>
      <path id="Trazado_896860" data-name="Trazado 896860" d="M12.6,33.728l1.778-.751a6.1,6.1,0,0,1,6.672,1.313l.716.721a13.151,13.151,0,0,1,6.783-5.18l3.227-1.076A8.431,8.431,0,0,0,24.765,25a12.7,12.7,0,0,0-5.674,1.339L16.764,27.5a11.847,11.847,0,0,0-5.3-1.251h-.2A14.9,14.9,0,0,0,3,28.754l3.295.549A8.924,8.924,0,0,1,12.6,33.728Z" transform="translate(0.503 5.277)" fill="#e73844"/>
      <path id="Trazado_896861" data-name="Trazado 896861" d="M21.518,53l-.728.364a8.407,8.407,0,0,1-3.754.887h0A4.273,4.273,0,0,1,14.01,53a5.337,5.337,0,0,1-4.022,2.9L4,56.754,5.847,58.6a6.507,6.507,0,0,0,6.662,1.573l.727-.243a13.153,13.153,0,0,1,7.349-.282l2.6.649a6.983,6.983,0,0,0,6.632-1.837l.46-.457-1.832-.367A10.894,10.894,0,0,1,21.518,53Z" transform="translate(0.754 12.312)" fill="#e73844"/>
      <path id="Trazado_896862" data-name="Trazado 896862" d="M30,60.272l6.847,1.141a8.028,8.028,0,0,0,1.33.11h0a8.089,8.089,0,0,0,8.089-8.091V47.089A8.088,8.088,0,0,0,38.176,39h0a8.027,8.027,0,0,0-1.33.11L30,40.251" transform="translate(7.287 8.795)" fill="#f79b31"/>
      <path id="Trazado_896863" data-name="Trazado 896863" d="M38.177,39a8.027,8.027,0,0,0-1.33.11L30,40.251V55.267l6.847,1.141a8.089,8.089,0,0,0,9.42-7.979V47.089A8.088,8.088,0,0,0,38.176,39Z" transform="translate(7.287 8.795)" fill="#fcb732"/>
      <ellipse id="Elipse_11720" data-name="Elipse 11720" cx="2.5" cy="9.5" rx="2.5" ry="9.5" transform="translate(34.79 50.036)" fill="#ec8329"/>
      <path id="Trazado_896864" data-name="Trazado 896864" d="M77.29,53.747l-1.251-5.005a1.253,1.253,0,0,0-1.549-.9l-11.164,3.1a28.876,28.876,0,0,1-7.663-3.022,44.452,44.452,0,0,0,20.163-8.384,3.754,3.754,0,0,0-2.252-6.757,6.583,6.583,0,0,0-2.93.692l-1.957.978a19.944,19.944,0,0,1-15.759.832,36.486,36.486,0,0,1-11.243-6.721l-.034-.03a28.6,28.6,0,0,1-.44-2.829l-.958-9.582a6.484,6.484,0,0,0-2.966-4.839V5.251A1.251,1.251,0,0,0,36.036,4H31.031a1.251,1.251,0,0,0-1.238,1.435l.843,5.668a6.484,6.484,0,0,0-3.36,5.66V29.251a9.742,9.742,0,0,0-2-.225,14.014,14.014,0,0,0-6.205,1.459,40.541,40.541,0,0,1,3.077-8.407,1.251,1.251,0,0,0-1.126-1.811H14.764a1.251,1.251,0,0,0-1.251,1.251,24.316,24.316,0,0,0,1.251,7.708l.5,1.492a13.149,13.149,0,0,0-3.3-.44h-.2A16.1,16.1,0,0,0,2.808,32.99a1.251,1.251,0,0,0-.268,1.842l2.028,2.432a29.81,29.81,0,0,1,4.8,8.028H5.1a4.1,4.1,0,0,0-1.126,8.051l3.446.985a25.276,25.276,0,0,0,3.435.7,16.391,16.391,0,0,1-.488,2.337A24.275,24.275,0,0,1,4.2,67.847l-.334.334a1.251,1.251,0,0,0,0,1.769L5.716,71.8a7.839,7.839,0,0,0,7.942,1.877l.728-.243a11.947,11.947,0,0,1,6.652-.25l2.6.651a8.241,8.241,0,0,0,7.823-2.168l.455-.455a1.251,1.251,0,0,0,.091-1.667l-.677-.851a33.08,33.08,0,0,1-6.006-11.637,14.347,14.347,0,0,1-.551-3.933c0-.02,0-.039,0-.059a25.526,25.526,0,0,0,7.147-4.822,40.882,40.882,0,0,0,2.289,3.82,35.17,35.17,0,0,0-.677,7c0,1.843.183,10.865,3.551,11.228V70.3l6.847,1.141a9.344,9.344,0,0,0,10.532-6.736l20.029,5.563a1.225,1.225,0,0,0,.333.049,1.251,1.251,0,0,0,1.214-.947l1.251-5.005a1.251,1.251,0,0,0-.942-1.525l-2.55-.567c.277-.053.558-.1.833-.15a4.9,4.9,0,0,0,2.671-8.1A1.231,1.231,0,0,0,77.29,53.747Zm-2.739-.638L54.8,57.5V55.905l19.117-5.31ZM52.052,37.62A22.487,22.487,0,0,0,69.8,36.688l1.958-.978a4.06,4.06,0,0,1,1.812-.428,1.251,1.251,0,0,1,.751,2.252,41.961,41.961,0,0,1-19.587,8.008l-2.239.3a28.7,28.7,0,0,1-9.69-13.187,38.987,38.987,0,0,0,9.243,4.966ZM32.482,6.5h2.3V10.35a6.447,6.447,0,0,0-1-.094,6.4,6.4,0,0,0-.731.074ZM19.048,22.769a43.154,43.154,0,0,0-1.985,5.439,21.865,21.865,0,0,1-1.014-5.439Zm-7.082,10.01a10.642,10.642,0,0,1,4.741,1.12c.019.009.041,0,.061.014a1.228,1.228,0,0,0,.5.118h.078a1.234,1.234,0,0,0,.448-.125.054.054,0,0,0,.034-.008l2.326-1.164a11.5,11.5,0,0,1,5.123-1.206,7.164,7.164,0,0,1,4.864,1.9l-1.474.491a14.46,14.46,0,0,0-6.53,4.471A7.436,7.436,0,0,0,14.406,37.1l-.807.338a10.1,10.1,0,0,0-6.031-3.975,13.59,13.59,0,0,1,4.2-.688Zm-7.3,18.157A1.6,1.6,0,0,1,5.1,47.795h5.13c.044.148.1.293.138.442A16.533,16.533,0,0,1,11,52.523a22.877,22.877,0,0,1-2.89-.6ZM24.242,71.4l-2.6-.649a14.39,14.39,0,0,0-8.048.309l-.728.241a5.307,5.307,0,0,1-5.38-1.27l-.078-.078,3.512-.5a6.593,6.593,0,0,0,4.159-2.339,7.633,7.633,0,0,0,6.806-.209,12.034,12.034,0,0,0,6.264,4.079,5.78,5.78,0,0,1-3.91.415Zm3.672-3.122a9.552,9.552,0,0,1-4.6-3.657,1.251,1.251,0,0,0-1.6-.425l-.728.364a7.17,7.17,0,0,1-3.2.751,3,3,0,0,1-2.136-.886,1.251,1.251,0,0,0-2,.327,4.089,4.089,0,0,1-3.078,2.22l-2.579.368a26.8,26.8,0,0,0,4.786-9.281,19.056,19.056,0,0,0,.737-5.255,19.086,19.086,0,0,0-.736-5.255A32.307,32.307,0,0,0,6.616,35.82a7.633,7.633,0,0,1,5.4,3.8,1.251,1.251,0,0,0,1.574.541l1.777-.751a4.909,4.909,0,0,1,5.3,1.044l.716.716a1.251,1.251,0,0,0,.89.372,1.053,1.053,0,0,0,.125-.006,1.251,1.251,0,0,0,.917-.551,11.95,11.95,0,0,1,5.616-4.49,50.521,50.521,0,0,0-5.587,10.722,16.841,16.841,0,0,0-.423,10.529,35.55,35.55,0,0,0,5,10.532ZM25.108,50.108a14.163,14.163,0,0,1,.578-2.016,48.019,48.019,0,0,1,3.307-7.022,40.2,40.2,0,0,0,1.759,4.774A22.981,22.981,0,0,1,25.108,50.108ZM30.8,38.162c.751-1.109,1.53-2.192,2.369-3.24l.09-.113a1.251,1.251,0,0,0,.063-1.474,9.654,9.654,0,0,0-3.531-3.184c0-.228-.013-.455-.013-.683V16.763a4,4,0,0,1,7.987-.4l.957,9.582A31.414,31.414,0,0,0,58.838,52.188L54.458,53.4a9.351,9.351,0,0,0-8.994-6.861,9.229,9.229,0,0,0-1.534.125L37.082,47.81v.016a2.458,2.458,0,0,0-1.782,1.3A37.634,37.634,0,0,1,30.8,38.16Zm6.485,12.475a21.866,21.866,0,0,1,1.251,8.419,21.866,21.866,0,0,1-1.251,8.419,21.866,21.866,0,0,1-1.251-8.419A21.866,21.866,0,0,1,37.287,50.637ZM52.3,62.228a6.841,6.841,0,0,1-7.962,6.746L39.686,68.2c1.264-2.885,1.355-7.83,1.355-9.142s-.091-6.256-1.355-9.142l4.656-.776A6.839,6.839,0,0,1,52.3,55.884Zm21.619,5.289L54.8,62.207V60.615L74.551,65Zm.218-7.848c-2.292.459-4.63.837-6.972,1.126l-7.847-1.739,15.932-3.541a2.392,2.392,0,0,1-1.114,4.154Z"/>
    </g>
  </g>
</svg>
