<svg xmlns="http://www.w3.org/2000/svg" xmlns:xlink="http://www.w3.org/1999/xlink" width="400" height="379.719" viewBox="0 0 400 379.719">
  <defs>
    <clipPath id="clip-path">
      <rect id="Rectángulo_403057" data-name="Rectángulo 403057" width="400" height="379.719" transform="translate(1013.051 1401)" fill="#dceeb6"/>
    </clipPath>
    <clipPath id="clip-path-2">
      <path id="Trazado_896114" data-name="Trazado 896114" d="M16.07,170.632v199.9h399.9V260.4c-41.617-.146-83.361-1.292-124.142-9.285a313.64,313.64,0,0,1-72.548-23.374c-11.132-5.205-21.888-11.06-32.982-16.335q-16.618-7.9-33.74-14.889c-12.94-5.248-26.367-10.135-40.111-14.263-.529-.158-1.059-.313-1.588-.469q-1.262-.373-2.526-.737-1.555-.446-3.118-.878c-.37-.1-.741-.207-1.113-.309q-1.97-.539-3.947-1.057l-.408-.108q-2.161-.56-4.331-1.093c-.051-.013-.1-.027-.155-.039q-2.192-.538-4.393-1.045l-.232-.053q-2.1-.481-4.2-.933l-.578-.123q-1.893-.4-3.792-.781l-1.144-.226q-1.593-.309-3.19-.6-.96-.175-1.92-.344-1.2-.211-2.4-.41-1.448-.242-2.9-.468-.711-.11-1.424-.218-2.031-.3-4.063-.578l-.271-.038a226.65,226.65,0,0,0-29.694-2.02c-6.336,0-12.675.293-19,.912" transform="translate(-16.07 -169.72)" fill="none"/>
    </clipPath>
  </defs>
  <g id="Enmascarar_grupo_1098830" data-name="Enmascarar grupo 1098830" transform="translate(-1013.051 -1401)" clip-path="url(#clip-path)">
    <rect id="Rectángulo_402807" data-name="Rectángulo 402807" width="400" height="379.719" transform="translate(1013.051 1401)" fill="#dceeb6"/>
    <g id="Grupo_1106155" data-name="Grupo 1106155" transform="translate(1000.821 1381.687)">
      <g id="Grupo_1106150" data-name="Grupo 1106150" transform="translate(12.23)">
        <g id="Grupo_1106157" data-name="Grupo 1106157">
          <path id="Trazado_896103" data-name="Trazado 896103" d="M228.75,151.443c2.963-9.1-2.36-20.046-11.408-23.445-8.009-3.009-17.257-.484-25.379-3.177-9.787-3.244-15.551-13.143-19.235-22.671s-6.441-19.876-13.6-27.222c-9.2-9.442-23.546-11.724-36.811-11.969s-26.947.959-39.437-3.461C71.22,55.373,61.844,46.772,51.229,40.476S26.857,30.285,16.069,36.29V169.88H228.876Z" transform="translate(-16.069 -6.667)" fill="#fff"/>
          <path id="Trazado_896104" data-name="Trazado 896104" d="M456.443.672A27.993,27.993,0,0,0,428.2,11.054c-8.268,11.3-7.349,28.356-18.289,37.158-8.253,6.641-20.066,5.914-30.68,5.123s-22.652-.8-30.142,6.673c-6.195,6.181-7.286,15.56-8.955,24.1s-5.188,17.995-13.381,21.179c-7.225,2.808-15.776-.3-22.982,2.551-6.194,2.455-9.99,8.941-11.022,15.456s.227,13.148,1.483,19.625H471.287V0H458.724" transform="translate(-71.382)" fill="#fff"/>
          <path id="Trazado_896105" data-name="Trazado 896105" d="M34.88,206.24a314.328,314.328,0,0,0,60.012-6.579c28.062-5.663,55.326-14.053,82.474-22.531,28.439-8.882,57.151-16.636,86.8-21.454,50.337-8.181,101.862-8.413,151.807.9V381.384H16.069V205.618q9.378.677,18.811.622" transform="translate(-16.069 -29.942)" fill="#72ac78"/>
          <path id="Trazado_896106" data-name="Trazado 896106" d="M64.762,171.74l.271.038q2.032.271,4.062.577l1.424.218q1.449.226,2.9.468,1.2.2,2.4.411.96.169,1.92.344,1.6.294,3.19.6l1.145.226q1.9.379,3.792.781c.194.04.385.082.577.123q2.1.452,4.2.933l.231.053q2.2.509,4.393,1.045l.156.038q2.169.534,4.331,1.094l.407.107q1.977.517,3.948,1.057c.371.1.742.206,1.112.308q1.562.434,3.119.879,1.264.365,2.525.737c.529.157,1.06.311,1.588.469,13.745,4.128,27.171,9.015,40.111,14.262q17.129,6.945,33.74,14.889c11.095,5.276,21.851,11.131,32.982,16.336a313.686,313.686,0,0,0,72.549,23.374c40.781,7.992,82.525,9.139,124.142,9.285V370.529H16.069v-199.9a213,213,0,0,1,48.693,1.109" transform="translate(-16.069 -33.977)" fill="#324241"/>
          <path id="Trazado_896107" data-name="Trazado 896107" d="M64.762,171.74l.271.038q2.032.271,4.062.577l1.424.218q1.449.226,2.9.468,1.2.2,2.4.411.96.169,1.92.344,1.6.294,3.19.6l1.145.226q1.9.379,3.792.781c.194.04.385.082.577.123q2.1.452,4.2.933l.231.053q2.2.509,4.393,1.045l.156.038q2.169.534,4.331,1.094l.407.107q1.977.517,3.948,1.057c.371.1.742.206,1.112.308q1.562.434,3.119.879,1.264.365,2.525.737c.529.157,1.06.311,1.588.469,13.745,4.128,27.171,9.015,40.111,14.262q17.129,6.945,33.74,14.889c11.095,5.276,21.851,11.131,32.982,16.336a313.686,313.686,0,0,0,72.549,23.374c40.781,7.992,82.525,9.139,124.142,9.285V370.529H16.069v-199.9a213,213,0,0,1,48.693,1.109" transform="translate(-16.069 -33.977)" fill="#324241"/>
        </g>
      </g>
      <g id="Grupo_1106152" data-name="Grupo 1106152" transform="translate(12.231 135.743)">
        <g id="Grupo_1106151" data-name="Grupo 1106151" clip-path="url(#clip-path-2)">
          <path id="Trazado_896108" data-name="Trazado 896108" d="M167.982,194.209c-4.335,4.488-8.868,8.783-13.342,13.13-5.822,5.656-11.584,11.374-17.173,17.261-6.787,7.151-13.324,14.54-19.536,22.2-7.418,9.143-14.409,18.635-20.879,28.472a344.633,344.633,0,0,0-19.788,34.246q-1.215,2.41-2.394,4.839a4.085,4.085,0,0,0,1.435,5.471c1.795.948,4.5.574,5.471-1.435a348.166,348.166,0,0,1,19.615-35.123q4.9-7.689,10.218-15.108,2.5-3.484,5.077-6.9.62-.821,1.245-1.639.31-.405.621-.811l.266-.346c.342-.445-.592.761,0,.006q1.232-1.585,2.479-3.158c6.226-7.839,12.792-15.4,19.628-22.716,5.666-6.06,11.52-11.938,17.457-17.732,4.636-4.523,9.342-8.977,13.888-13.59q.689-.7,1.37-1.4a4,4,0,0,0-5.655-5.655" transform="translate(-27.745 -174.393)" fill="#d0e9bb"/>
          <path id="Trazado_896109" data-name="Trazado 896109" d="M123.434,181.038a82.342,82.342,0,0,0-8.209,5.607c-3.887,2.936-7.664,6.015-11.36,9.189-9.055,7.777-17.689,16.048-26.017,24.6-9.654,9.91-18.9,20.235-27.569,31.016a287.041,287.041,0,0,0-24.007,34.077c-6.018,10.224-11.436,21.186-14.253,32.767q-.447,1.84-.791,3.7c-.378,2.051.562,4.412,2.793,4.92,1.961.446,4.514-.593,4.92-2.793a81.47,81.47,0,0,1,4.548-15.291c.238-.6.483-1.195.729-1.79.312-.755-.39.908-.066.155l.172-.4q.239-.553.482-1.1.9-2.041,1.876-4.05c1.328-2.75,2.747-5.456,4.232-8.125,3.178-5.711,6.662-11.249,10.337-16.652q2.86-4.2,5.87-8.3,1.544-2.1,3.121-4.184.792-1.045,1.592-2.083c.136-.177.414-.61-.144.186.1-.142.215-.278.322-.416q.483-.624.971-1.244c8.532-10.889,17.669-21.3,27.219-31.308,8.428-8.828,17.183-17.363,26.343-25.432,3.606-3.176,7.277-6.282,11.057-9.25q.314-.247.631-.493l.25-.194c.512-.4-.755.578-.376.29.425-.323.847-.649,1.273-.97q1.143-.863,2.305-1.7c1.326-.955,2.671-1.884,4.051-2.76q.857-.545,1.734-1.056a4,4,0,1,0-4.037-6.906" transform="translate(-15.084 -171.879)" fill="#d0e9bb"/>
          <path id="Trazado_896110" data-name="Trazado 896110" d="M87.55,170.785c-6.191,3.118-11.8,7.443-17.225,11.717a267.177,267.177,0,0,0-21.277,18.833,280.5,280.5,0,0,0-21.561,23.521A177.432,177.432,0,0,0,9.6,250.666c-4.225,7.64-7.949,15.972-9.177,24.684C.252,276.564.1,277.777.008,279a4.019,4.019,0,0,0,4,4,4.1,4.1,0,0,0,4-4q.048-.666.118-1.331c.022-.209.05-.418.072-.626.066-.613-.075.538-.073.523.026-.15.042-.3.065-.452q.2-1.381.5-2.746a55.1,55.1,0,0,1,1.568-5.755q.5-1.513,1.066-3,.262-.687.537-1.369c.106-.262.217-.523.322-.786.161-.4-.222.518-.2.462.073-.163.14-.329.211-.493.892-2.066,1.867-4.1,2.9-6.094A133.179,133.179,0,0,1,22.5,244.9q2.114-3.174,4.365-6.253,1.164-1.594,2.359-3.166.271-.358.544-.713l.234-.3c.431-.563-.141.142-.154.2.118-.5.951-1.219,1.271-1.624A272.138,272.138,0,0,1,52.19,209.478a278.979,278.979,0,0,1,21.289-19.317q1.2-.979,2.422-1.94.59-.467,1.185-.929c.709-.554-.621.476-.106.082l.7-.533q2.229-1.7,4.516-3.318a85.21,85.21,0,0,1,7.785-4.98q.8-.441,1.612-.853a4.026,4.026,0,0,0,1.435-5.472,4.1,4.1,0,0,0-5.471-1.435" transform="translate(-12.853 -169.833)" fill="#d0e9bb"/>
          <path id="Trazado_896111" data-name="Trazado 896111" d="M54.83,158.122A168.155,168.155,0,0,0,15.7,194.291Q10.92,200.425,6.614,206.9a4.028,4.028,0,0,0,1.435,5.471,4.092,4.092,0,0,0,5.471-1.435Q17.091,205.549,21,200.4l.39-.508c-.59.769.066-.083.158-.2q.441-.566.889-1.127,1.04-1.308,2.105-2.6,2.026-2.447,4.145-4.815a159.133,159.133,0,0,1,18.428-17.515q.774-.625,1.554-1.241l.524-.412c.081-.063.965-.747.246-.194q1.467-1.128,2.958-2.227,3.184-2.343,6.469-4.541a4.076,4.076,0,0,0,1.435-5.471c-1.114-1.728-3.614-2.682-5.471-1.435" transform="translate(-14.067 -167.285)" fill="#d0e9bb"/>
          <path id="Trazado_896112" data-name="Trazado 896112" d="M205.859,214.169a117.858,117.858,0,0,0-15.317,15.072c-6.027,6.868-11.651,14.093-17.075,21.444q-8.54,11.571-16.4,23.622-7.475,11.384-14.423,23.106c-3.756,6.354-7.4,12.782-10.752,19.362q-.5.977-.983,1.958a4.08,4.08,0,0,0,1.435,5.472c1.806.954,4.481.567,5.471-1.435,3.129-6.32,6.576-12.483,10.124-18.576q6.708-11.515,13.974-22.692,7.78-12.011,16.156-23.625,2.08-2.87,4.205-5.707,1.026-1.37,2.065-2.731.493-.647.991-1.292c.082-.107.166-.214.247-.321,0,0-.485.625-.213.276l.577-.743q4.056-5.207,8.332-10.238a135.77,135.77,0,0,1,15.5-15.875q.861-.725,1.746-1.421c1.651-1.3,1.464-4.312,0-5.655a4.121,4.121,0,0,0-5.655,0" transform="translate(-38.962 -178.393)" fill="#d0e9bb"/>
          <path id="Trazado_896113" data-name="Trazado 896113" d="M245.093,230.693c-8.1,10.461-15.432,21.538-22.683,32.6-8.6,13.121-17.006,26.4-24.835,40a188.113,188.113,0,0,0-8.909,16.834c-.853,1.9-.615,4.389,1.435,5.471,1.744.921,4.559.6,5.472-1.435,2.233-4.988,4.9-9.786,7.595-14.535,3.656-6.445,7.479-12.794,11.372-19.1q12.323-19.961,25.588-39.329,3.009-4.378,6.1-8.7,1.338-1.867,2.7-3.714.609-.824,1.227-1.644l.537-.707.261-.341c.53-.694-.577.744-.2.26a4.377,4.377,0,0,0,1.172-2.827,4.069,4.069,0,0,0-1.172-2.828c-1.43-1.313-4.288-1.767-5.655,0" transform="translate(-50.53 -181.694)" fill="#d0e9bb"/>
        </g>
      </g>
      <g id="Grupo_1106154" data-name="Grupo 1106154" transform="translate(12.23 88.147)">
        <g id="Grupo_1106156" data-name="Grupo 1106156">
          <path id="Trazado_896115" data-name="Trazado 896115" d="M415.973,299.677a4.412,4.412,0,0,0-3.925-3.452c-1.835-.09-5.29,2.249-5.858,4.077a16.5,16.5,0,0,0-11.009-9.763c-4.853-1.22-10.692-.362-14.512,3a13.163,13.163,0,0,0-9.646-5.272c-3.735-.214-5.886.218-8.5,3.021a17.029,17.029,0,0,0-12.646-9.4c-5.329-.753-10.881.445-14.5,4.609a14.461,14.461,0,0,0-12.82-7.743,13.971,13.971,0,0,0-12.375,7.919c-8.449-3.432-18.987.44-23.656,8.568a13.164,13.164,0,0,0-9.079-9.081c-4.253-1.1-9.351-.426-12.411,2.855a12.723,12.723,0,0,0-3.625-11.893c-3.14-2.884-8.287-4.176-12.193-2.624-10.319-5.54-24.627-.275-31.232,9.7-3.31-4.945-11.81-6.347-15.7-1.894-3.715-4.053-8.318-7.517-13.611-8.448s-11.69.3-14.329,5.189a19.38,19.38,0,0,0-17.86-6.9c-6.549,1.086-11.779,8.4-14.313,14.807a11.649,11.649,0,0,0-11.868-4.548c-4.344,1.029-8.645,5.583-9.533,10.15a13.3,13.3,0,0,0-11.022-5.9c-4.294.063-7.915,1.58-10.28,5.33-3.23-5.062-7.455-9.8-12.994-11.66s-11.985-1.233-14.585,4.212a11.436,11.436,0,0,0-10.318-6.244c-4.185.146-7.2,3.548-8.917,7.545a12.2,12.2,0,0,0-7.345-8.217c-3.514-1.3-8.169-.144-11.2,2.119a11.618,11.618,0,0,0-8.552-5.622,11.373,11.373,0,0,0-9.487,3.623v56.8h399.9Z" transform="translate(-16.069 -142.58)" fill="#d0e9bb"/>
          <path id="Trazado_896116" data-name="Trazado 896116" d="M415.521,461.436H16.354V332.3s94.185-18.025,198.493-20.561C333.794,308.844,415.521,332.3,415.521,332.3Z" transform="translate(-16.126 -150.505)" fill="#d2984e"/>
          <path id="Trazado_896117" data-name="Trazado 896117" d="M281.185,447.718a5.264,5.264,0,0,1,4.772-.344A5.343,5.343,0,0,1,289,451.1c3.606-4.636,10.5-6.678,15.8-4.217" transform="translate(-69.143 -177.399)" fill="none" stroke="#f3d171" stroke-linecap="round" stroke-linejoin="round" stroke-width="1"/>
          <path id="Trazado_896118" data-name="Trazado 896118" d="M65.057,468.56a7.631,7.631,0,0,1,5.47,2.732,9.274,9.274,0,0,1,9.688-6.976" transform="translate(-25.876 -181.091)" fill="none" stroke="#f3d171" stroke-linecap="round" stroke-linejoin="round" stroke-width="1"/>
          <path id="Trazado_896119" data-name="Trazado 896119" d="M459.405,473.911a7.82,7.82,0,0,1,8.771,3.049c.284-1.27,1.24-1.457,2.479-1.821a3.688,3.688,0,0,1,3.577.919c1.764-4.2,7.393-7.231,11.835-6.359" transform="translate(-104.822 -182.147)" fill="none" stroke="#f3d171" stroke-linecap="round" stroke-linejoin="round" stroke-width="1"/>
          <path id="Trazado_896120" data-name="Trazado 896120" d="M468.279,445.12a6.353,6.353,0,0,1,2.958-4.515,6.24,6.24,0,0,1,5.34-.493,9.037,9.037,0,0,1,4.38-5.947,9.411,9.411,0,0,1,7.532-.713" transform="translate(-106.598 -174.826)" fill="none" stroke="#f3d171" stroke-linecap="round" stroke-linejoin="round" stroke-width="1"/>
          <path id="Trazado_896121" data-name="Trazado 896121" d="M30.548,426.67a14.326,14.326,0,0,1,12.4,6.219,9.441,9.441,0,0,1,12.815-.689" transform="translate(-18.968 -173.56)" fill="none" stroke="#f3d171" stroke-linecap="round" stroke-linejoin="round" stroke-width="1"/>
          <path id="Trazado_896122" data-name="Trazado 896122" d="M34.705,356.193a10.975,10.975,0,0,1,10.621,2.816" transform="translate(-19.8 -159.376)" fill="none" stroke="#f3d171" stroke-linecap="round" stroke-linejoin="round" stroke-width="1"/>
          <path id="Trazado_896123" data-name="Trazado 896123" d="M229.246,377.823a4.711,4.711,0,0,1,4.856,2.109,6.691,6.691,0,0,1,6.657-3.6" transform="translate(-58.745 -163.482)" fill="none" stroke="#f3d171" stroke-linecap="round" stroke-linejoin="round" stroke-width="1"/>
          <path id="Trazado_896124" data-name="Trazado 896124" d="M308.117,348.329A11.27,11.27,0,0,1,318.8,352.2c2.722-3.276,6.873-3.887,10.833-2.367" transform="translate(-74.535 -157.841)" fill="none" stroke="#f3d171" stroke-linecap="round" stroke-linejoin="round" stroke-width="1"/>
          <path id="Trazado_896125" data-name="Trazado 896125" d="M471.867,399.537c0,7.89-34.908,14.286-77.971,14.286s-77.971-6.4-77.971-14.286,34.909-14.286,77.971-14.286,77.971,6.4,77.971,14.286" transform="translate(-76.098 -165.271)"/>
          <path id="Trazado_896126" data-name="Trazado 896126" d="M303,288.1s-11.739-4.092-13.23-4.309-8.116-1.853-8.277-.252,7.777,5.315,7.777,5.315-.622.526-5.113,2.105c-4.02,1.413-18.621,2.006-18.681,3.449-.148,3.572,10.978,1.893,12.579,2.056s3.862-.012,2.54.93-14.559,2.638-15.055,3.3-1.149,3.552,4.756,2.855c0,0-1.342,2.847,2.246,2.406,1.78-.22,5.049.021,9.622-1.061,0,0-7.168,1.952-7.053,3.553s9.159-.745,14.011-1.807,18.44-9.165,18.44-9.165Z" transform="translate(-65.949 -144.77)" fill="#8f7d81"/>
          <path id="Trazado_896127" data-name="Trazado 896127" d="M364.272,274.417c-.075-6.13-3.785-13.255-10.818-11.017-3.362,1.069-13.327,6.559-22.815,12,2.434,4.441,4.572,8.993,6.806,13.4,13.1-4.341,26.88-10.047,26.828-14.379" transform="translate(-79.043 -140.794)" fill="#eec3ae"/>
          <path id="Trazado_896128" data-name="Trazado 896128" d="M271.559,308.306s8.694-1.324,11-1.688" transform="translate(-67.216 -149.53)" fill="none" stroke="#000" stroke-linecap="round" stroke-linejoin="round" stroke-width="1"/>
          <path id="Trazado_896129" data-name="Trazado 896129" d="M283.207,310.86a27.417,27.417,0,0,0,4.114-.888" transform="translate(-69.548 -150.201)" fill="none" stroke="#000" stroke-linecap="round" stroke-linejoin="round" stroke-width="1"/>
          <path id="Trazado_896130" data-name="Trazado 896130" d="M305.419,290.019,309.3,298c.31.238,13.352-2.547,25.017-6.414-2.234-4.4-5.019-10.241-7.454-14.681-10.369,5.945-21.444,13.117-21.444,13.117" transform="translate(-73.995 -143.581)" fill="#8f7d81"/>
          <path id="Trazado_896131" data-name="Trazado 896131" d="M352.6,267.188l4.925,16.507,6.749-3.2Z" transform="translate(-83.44 -141.636)"/>
          <path id="Trazado_896132" data-name="Trazado 896132" d="M354.666,243s-3.512.692-3.786,3.649,9.753,22.442,18.363,19.85,10.975-6.762,10.975-6.762,20.988-27.179,20.761-36.577,7.28-14.486-7.871-28.861-26.891,10.271-27.9,16.363S354.666,243,354.666,243" transform="translate(-83.094 -126.157)" fill="#fff"/>
          <path id="Trazado_896133" data-name="Trazado 896133" d="M369.031,386.121s19.438-7.3,29.054-8.712c19.144-2.8,13.576-2.83,49.094-5.865,1.731-.148,4.433,10.78,2.672,11.619-35.742,17.041-34.689,25.429-76.741,25.143-16.454-6.076-12.337-18.547-4.079-22.185" transform="translate(-85.283 -162.527)"/>
          <path id="Trazado_896134" data-name="Trazado 896134" d="M479.4,368.334s10.086,18.7,9.785,26.677c-2,1.094-5.4,1.544-8.759-4.585-4.027-7.346-15.871-10.467-16.207-9.954-.276.416-25.6,13.246-35.039,18.021L417.816,371.6c11.492-4,41.592-6.451,42.483-10.892.623-3.119,5.983-6.049,9.985-7.832l4.538,10.741Z" transform="translate(-96.496 -158.791)" fill="#f3d171"/>
          <path id="Trazado_896135" data-name="Trazado 896135" d="M424.8,404.948S416.059,384.268,413.412,378a12.384,12.384,0,0,1,3.522-1.712L428.3,403.181l-3.5,1.768" transform="translate(-95.614 -163.477)" fill="#324241"/>
          <path id="Trazado_896136" data-name="Trazado 896136" d="M487.841,350.671l4.069,9.634-1.88.795,4.165,4.611,9.2,21.778s1.732,4.944-.066,6.4a6.848,6.848,0,0,1-1.015.681c.3-7.977-9.784-26.677-9.784-26.677l-4.576-4.714-4.538-10.741c2.471-1.1,4.425-1.765,4.425-1.765" transform="translate(-109.628 -158.349)" fill="#324241"/>
          <path id="Trazado_896137" data-name="Trazado 896137" d="M451.144,328.507c1.88-3.038-12.585-44.632-13.973-45.348s-48.587,11.033-48.587,11.033c.086.26.642,6.666,1.511,14.1-50.957,24.278-68.585,35.054-73.238,44.459-3.206,6.48.17,13.766,4.83,17.892a6.086,6.086,0,0,0,3.442,2.631A133.325,133.325,0,0,0,348.9,377.84c2.856,6.175,9.741,10.441,14.491,9.028a306.051,306.051,0,0,0,30.474-10.826c2.741.162,5.713.417,8.977.793.694.08,1.531-2.455,2.242-5.751,24.612-11.508,37.769-22.007,37.769-22.007a21.618,21.618,0,0,0,8.294-20.572" transform="translate(-76.032 -144.827)"/>
          <path id="Trazado_896138" data-name="Trazado 896138" d="M376.773,218.149c5.544,31.66,22.2,43.279,24.616,67.094.29,2.866,50.341-1.141,56.906-8,4.533-4.736-2.043-61.529-27.468-90.282-9.442-10.678-27.7-10.877-41.037-2.4-12.637,8.029-13.582,30.366-13.018,33.591" transform="translate(-88.255 -123.89)" fill="#fff"/>
          <path id="Trazado_896139" data-name="Trazado 896139" d="M374.624,208.354c-.271.547,3.626,21.887,6.055,28.343" transform="translate(-87.846 -129.858)" fill="none" stroke="#000" stroke-linecap="round" stroke-linejoin="round" stroke-width="1"/>
          <path id="Trazado_896140" data-name="Trazado 896140" d="M355.68,257.157s7.056,11.528,14.47,15.355" transform="translate(-84.057 -139.628)" fill="none" stroke="#000" stroke-linecap="round" stroke-linejoin="round" stroke-width="1"/>
          <path id="Trazado_896141" data-name="Trazado 896141" d="M358,254.327c.989.985,10.139,9.083,19.353,12.147" transform="translate(-84.521 -139.061)" fill="none" stroke="#000" stroke-linecap="round" stroke-linejoin="round" stroke-width="1"/>
          <path id="Trazado_896142" data-name="Trazado 896142" d="M389.346,196.928s9.365,1.6,15.645-3.007" transform="translate(-90.796 -126.969)" fill="none" stroke="#000" stroke-linecap="round" stroke-linejoin="round" stroke-width="1"/>
          <path id="Trazado_896143" data-name="Trazado 896143" d="M369.96,214.734s19.588-2.189,23.989-2.938c13,58.237,44.359,57.025,54.693,65.2,18.636,14.751-76.749,74.305-76.749,74.305a38.977,38.977,0,0,1-16.048-5.6c-6.882-4.362-8.62-8.813-15.787-12.715a34.893,34.893,0,0,0-13.478-4.013,274.115,274.115,0,0,1,23.238-16.13c12.729-8.149,27.677-16.466,36.556-17.138-4.408-.543-2.482-4.733-2.482-4.733s-7.609-9.719-13.933-76.247" transform="translate(-78.231 -130.547)" fill="#87767a"/>
          <path id="Trazado_896144" data-name="Trazado 896144" d="M382.682,212.833a1.312,1.312,0,0,1-1.31-1.248c-.038-.747-.8-18.42,8.432-28.543a1.313,1.313,0,1,1,1.94,1.77c-8.492,9.308-7.757,26.471-7.748,26.643a1.315,1.315,0,0,1-1.248,1.376c-.021,0-.043,0-.065,0" transform="translate(-89.194 -124.705)" fill="#87767a"/>
          <path id="Trazado_896145" data-name="Trazado 896145" d="M409.761,207.632a1.313,1.313,0,0,1-1.223-1.223c-.052-.782-1.178-19.243,7.767-25.543,3.868-2.725,6.606-2.579,12.727.085a19.036,19.036,0,0,1,2.822,1.634c-5.224-2.271-10.969-1.732-14.037.429-7.752,5.459-6.67,23.043-6.658,23.22a1.313,1.313,0,0,1-1.223,1.4,1.277,1.277,0,0,1-.175,0" transform="translate(-94.624 -123.959)" fill="#87767a"/>
          <path id="Trazado_896146" data-name="Trazado 896146" d="M488,314.342c-.072-3.39-7.079-12.351-11.479-17.2l-.118-.131-2.14.7,1.21-1.72-3.683-4.061,4.832,2.428c.134-.188.341-.473.609-.831l-1.662-.451c.438-1.617,4.462-15.841,10.674-17.221,1.388-.3,3.5-.126,5.713,2.491a7.25,7.25,0,0,1,1.953,5.918c1.544,1.4,2.513,3.984,2.945,7.805.407,3.6-.453,6.165-2.555,7.629-3.154,2.2-8.341,1.17-12.254-.141,3.586,4.386,8.5,11.053,8.58,14.736Zm-8.242-18.486c3.7,1.585,10.175,3.68,13.042,1.679,1.249-.871,1.736-2.613,1.445-5.18a13.785,13.785,0,0,0-1.434-5.274c-2.768,4.4-9.76,7.505-13.054,8.775m10.873-10.225c-2.457.012-6.1,3.342-8.925,6.552,3.4-1.58,7.329-3.913,8.925-6.552m-3.361-7.276a1.96,1.96,0,0,0-.456.056c-3.09.685-6.308,7.73-8.064,13.174,2.972-3.61,8.263-9.116,12.6-8.532a5.255,5.255,0,0,0-1.4-3.021c-1.206-1.427-2.128-1.678-2.681-1.678" transform="translate(-107.301 -143.348)" fill="#87767a"/>
          <path id="Trazado_896147" data-name="Trazado 896147" d="M481.933,316.9a35.237,35.237,0,0,0-6.982-13.743l1.973-1.734a37.449,37.449,0,0,1,7.572,14.906Z" transform="translate(-107.934 -148.489)" fill="#87767a"/>
          <path id="Trazado_896148" data-name="Trazado 896148" d="M400.832,316.718s21.121,6.457,40.053,4.049" transform="translate(-93.096 -151.552)" fill="none" stroke="#000" stroke-linecap="round" stroke-linejoin="round" stroke-width="1"/>
          <path id="Trazado_896149" data-name="Trazado 896149" d="M398.643,309.767s31.3,3.776,48.668-3.721" transform="translate(-92.657 -149.415)" fill="none" stroke="#000" stroke-linecap="round" stroke-linejoin="round" stroke-width="1"/>
          <path id="Trazado_896150" data-name="Trazado 896150" d="M469.827,294.094s-12.61-6.894-26.17-9.484" transform="translate(-101.669 -145.124)" fill="none" stroke="#000" stroke-linecap="round" stroke-linejoin="round" stroke-width="1"/>
          <path id="Trazado_896151" data-name="Trazado 896151" d="M476.847,293.147a4.465,4.465,0,0,1,2.168,3.348c.278-.238.673.275.779.625a1.541,1.541,0,0,1-.184,1.055,12.577,12.577,0,0,1-5.424,5.812" transform="translate(-107.781 -146.833)" fill="none" stroke="#000" stroke-linecap="round" stroke-linejoin="round" stroke-width="1"/>
          <path id="Trazado_896152" data-name="Trazado 896152" d="M479.717,301.361a10.758,10.758,0,0,1-1.016,7.5" transform="translate(-108.684 -148.477)" fill="none" stroke="#000" stroke-linecap="round" stroke-linejoin="round" stroke-width="1"/>
          <path id="Trazado_896153" data-name="Trazado 896153" d="M494.379,287.687a4.451,4.451,0,0,1,2.869,2.371" transform="translate(-111.823 -145.74)" fill="none" stroke="#000" stroke-linecap="round" stroke-linejoin="round" stroke-width="1"/>
          <path id="Trazado_896154" data-name="Trazado 896154" d="M496.837,284.924a5.768,5.768,0,0,1,2.471,1.5" transform="translate(-112.315 -145.187)" fill="none" stroke="#000" stroke-linecap="round" stroke-linejoin="round" stroke-width="1"/>
          <path id="Trazado_896155" data-name="Trazado 896155" d="M480.99,303.24a6.339,6.339,0,0,0,3.8,1.579" transform="translate(-109.143 -148.854)" fill="none" stroke="#000" stroke-linecap="round" stroke-linejoin="round" stroke-width="1"/>
          <path id="Trazado_896156" data-name="Trazado 896156" d="M381.127,215.408l2.6-.475" transform="translate(-89.151 -131.175)" fill="none" stroke="#000" stroke-linecap="round" stroke-linejoin="round" stroke-width="1"/>
          <path id="Trazado_896157" data-name="Trazado 896157" d="M408.47,212.142l2.448-.3" transform="translate(-94.625 -130.555)" fill="none" stroke="#000" stroke-linecap="round" stroke-linejoin="round" stroke-width="1"/>
          <path id="Trazado_896158" data-name="Trazado 896158" d="M422.947,195.773c-15.092,7.13-18.482,63-18.231,68.264.176,3.725,3.155,9.878,11.987,3.043,4.791-3.7,14.086-9.5,24.739-59.067.766-3.564-7.692-17.345-18.5-12.24" transform="translate(-93.871 -127.115)" fill="#a5cbee"/>
          <path id="Trazado_896159" data-name="Trazado 896159" d="M413.931,276.523c-1-6.049-5.737-12.535-12.355-9.263-3.352,1.657-13.292,9.343-22.286,16.524,2.373,4.261,5.9,7.643,8.773,11.756,12.733-6.388,26.6-14.568,25.867-19.018" transform="translate(-88.783 -141.475)" fill="#eec3ae"/>
          <path id="Trazado_896160" data-name="Trazado 896160" d="M398.092,272.935s2.654,11.964,7.007,16.472l5.331-3.441L399.98,271.842Z" transform="translate(-92.547 -142.568)"/>
          <path id="Trazado_896161" data-name="Trazado 896161" d="M377.379,299.848c-2.871-4.114-7.6-9.516-9.977-13.777A172.012,172.012,0,0,1,353,296.42c-3.773,0-10.507.1-11.7.1-1.438.01-7.925-.582-7.847.952s8.1,3.9,8.1,3.9-.511.585-4.52,2.72c-3.59,1.911-17.278,4.569-17.128,5.939.373,3.389,10.628.208,12.162.13s3.642-.566,2.531.513-13.357,4.581-13.728,5.277-.573,3.516,4.9,2.01c0,0-.857,2.878,2.463,1.947a51.57,51.57,0,0,0,8.925-2.383s-6.482,2.87-6.144,4.365,8.534-2.02,12.958-3.718a99.152,99.152,0,0,0,16.079-9.331c4.081-1.417,10.408-5.522,17.328-8.994" transform="translate(-76.895 -145.416)" fill="#8f7d81"/>
          <path id="Trazado_896162" data-name="Trazado 896162" d="M327.236,325.15s8.012-2.5,10.132-3.173" transform="translate(-78.362 -152.604)" fill="none" stroke="#000" stroke-linecap="round" stroke-linejoin="round" stroke-width="1"/>
          <path id="Trazado_896163" data-name="Trazado 896163" d="M338.561,326.131a26.132,26.132,0,0,0,3.753-1.428" transform="translate(-80.63 -153.15)" fill="none" stroke="#000" stroke-linecap="round" stroke-linejoin="round" stroke-width="1"/>
          <line id="Línea_966" data-name="Línea 966" x2="9.921" y2="12.828" transform="translate(287.599 143.044)" fill="none" stroke="#000" stroke-linecap="round" stroke-linejoin="round" stroke-width="1"/>
          <path id="Trazado_896164" data-name="Trazado 896164" d="M398.754,245.552s-3.433,1.117-3.433,4.389,11.787,23.626,20.119,19.906,10.3-8.536,10.3-8.536,18.385-31.954,17.29-42.24,5.91-16.634-10.505-30.861S406.7,202.216,406.265,209s-7.511,36.55-7.511,36.55" transform="translate(-91.992 -125.034)" fill="#fff"/>
          <path id="Trazado_896165" data-name="Trazado 896165" d="M418.086,274.37s10.25-1.871,16.445-17.447,14.235-43.482,9.231-52.127" transform="translate(-96.55 -129.146)" fill="none" stroke="#000" stroke-linecap="round" stroke-linejoin="round" stroke-width="1"/>
          <path id="Trazado_896166" data-name="Trazado 896166" d="M400.453,261.168s13.629,4.158,17.745,9.63" transform="translate(-93.02 -140.431)" fill="none" stroke="#000" stroke-linecap="round" stroke-linejoin="round" stroke-width="1"/>
          <path id="Trazado_896167" data-name="Trazado 896167" d="M401.516,257.41s14.117-1.2,21.887,1.641" transform="translate(-93.233 -139.628)" fill="none" stroke="#000" stroke-linecap="round" stroke-linejoin="round" stroke-width="1"/>
          <path id="Trazado_896168" data-name="Trazado 896168" d="M413.518,198.631s9.3-8.8,18.276-4.3" transform="translate(-95.635 -126.794)" fill="none" stroke="#000" stroke-linecap="round" stroke-linejoin="round" stroke-width="1"/>
          <path id="Trazado_896169" data-name="Trazado 896169" d="M383.2,169.825c.162.172,3.81,8.135,5.786,12.463a4.316,4.316,0,0,0,4.581,2.466c3.662-.548,9.592-2.211,13.908-7.237a4.324,4.324,0,0,0,.3-5.248L392.242,149.46Z" transform="translate(-89.566 -118.068)" fill="#eec3ae"/>
          <path id="Trazado_896170" data-name="Trazado 896170" d="M366.683,128.472c-20.641,7.372-6.729,38.719-6.729,38.719l3.1-.952s5.975,13.161,6.614,12.958c8.567-2.73,14.743-9.711,15.183-11.252.231-.691.405-6.25-.793-9.163-.36-.025,10.407-6.842,2.991-23.268-1.828-3.449-13.438-9.515-20.361-7.042" transform="translate(-83.994 -113.751)" fill="#eec3ae"/>
          <path id="Trazado_896171" data-name="Trazado 896171" d="M354.2,139.876c9.245,1.871,5.746,1.641,11.929-.766s4.073,4.111,4.073,4.111,5.31,8.145,6.068,6.723a26.45,26.45,0,0,0,1.495-4.748s1.5-3.006,3.6-1.846,4.731,2.278,4.521,6.753a16.954,16.954,0,0,0,2.087,8.377l7-3.161s-2.295-19.034-4.775-25.182c-12.407-30.751-45.192,7.879-36,9.739" transform="translate(-83.44 -111.828)" fill="#324241"/>
          <path id="Trazado_896172" data-name="Trazado 896172" d="M370.192,177.488a4.167,4.167,0,0,0,3.224-3.034" transform="translate(-86.962 -123.071)" fill="none" stroke="#000" stroke-linecap="round" stroke-linejoin="round" stroke-width="1"/>
          <path id="Trazado_896173" data-name="Trazado 896173" d="M367.525,163.046a.88.88,0,1,1-1.059-.653.88.88,0,0,1,1.059.653" transform="translate(-86.08 -120.652)"/>
          <path id="Trazado_896174" data-name="Trazado 896174" d="M368.35,157.128c-.293.456-1.938-.116-3.66.259s-2.983,1.576-3.438,1.283.489-2.648,3.022-3.2,4.37,1.2,4.077,1.656" transform="translate(-85.15 -119.25)"/>
          <path id="Trazado_896175" data-name="Trazado 896175" d="M387.271,183.426l2.068-2.235s-.555,3.825-.721,4.848c-1.1-2.136-1.347-2.613-1.347-2.613" transform="translate(-90.381 -124.42)" fill="#1c1e23"/>
          <path id="Trazado_896176" data-name="Trazado 896176" d="M385.371,154.768s2.651-5.378,5.208,0" transform="translate(-90.001 -118.652)"/>
          <path id="Trazado_896177" data-name="Trazado 896177" d="M385.371,154.768s2.651-5.378,5.208,0" transform="translate(-90.001 -118.652)" fill="none" stroke="#000" stroke-linecap="round" stroke-linejoin="round" stroke-width="1"/>
          <path id="Trazado_896178" data-name="Trazado 896178" d="M355.368,150.93s.2,3.717.558,5.74l18.416-11.526Z" transform="translate(-83.994 -117.204)" fill="#1c1e23"/>
          <path id="Trazado_896179" data-name="Trazado 896179" d="M384.806,129.3l-2.063-3.992,5.012-2.183c-3.361-5.343-8.1-11.03-12.947-10.854-9.087.328-20.533,3.479-23.5,7.273s-.931,16.687-.931,16.687c4.448,3.97,19.235,3.512,19.235,3.512l22.967-7.545s-.829-1.929-2.238-4.585Z" transform="translate(-82.86 -110.622)" fill="#f3d171"/>
          <path id="Trazado_896180" data-name="Trazado 896180" d="M333.926,150.728c2.535,3.219,8.872,6.143,24.657-.874l7.739-4.114-19.235-3.513L335.54,145.7a3.2,3.2,0,0,0-1.615,5.025" transform="translate(-79.566 -116.62)" fill="#fff"/>
          <path id="Trazado_896181" data-name="Trazado 896181" d="M369.517,114.493s7.373.438,12.68,22.183" transform="translate(-86.827 -111.068)" fill="none" stroke="#000" stroke-linecap="round" stroke-linejoin="round" stroke-width="1"/>
          <path id="Trazado_896182" data-name="Trazado 896182" d="M272.18,317.927s-9.222-29.137,1.531-34,5.332,26.818-1.023,33.773" transform="translate(-66.604 -144.885)" fill="#72ac78"/>
          <path id="Trazado_896183" data-name="Trazado 896183" d="M269.311,336.14s-18.736-9.542-14.258-18.066,17.725,7.163,14.258,18.066" transform="translate(-63.773 -151.334)" fill="#72ac78"/>
          <path id="Trazado_896184" data-name="Trazado 896184" d="M273.281,340.03s12.07-27.929,18.62-15.413-14.245,17.005-18.62,15.413" transform="translate(-67.561 -152.487)" fill="#72ac78"/>
          <path id="Trazado_896185" data-name="Trazado 896185" d="M267.514,348.719s-27.146-3.574-21.986-12.853,21.764,8.656,21.986,12.853" transform="translate(-61.874 -154.858)" fill="#72ac78"/>
          <path id="Trazado_896186" data-name="Trazado 896186" d="M273.837,352.9s22.957-21.708,24.952-7.7c1.556,10.917-19.806,12.681-24.952,7.7" transform="translate(-67.672 -156.31)" fill="#72ac78"/>
          <path id="Trazado_896187" data-name="Trazado 896187" d="M268.143,358.465s-17.78-1.79-21.338-6.175,9.823-2.964,21.338,6.175" transform="translate(-62.144 -158.194)" fill="#72ac78"/>
          <path id="Trazado_896188" data-name="Trazado 896188" d="M276.911,370.419s-7.84-48.683-.183-78.847" transform="translate(-67.579 -146.518)" fill="none" stroke="#324241" stroke-linecap="round" stroke-linejoin="round" stroke-width="1"/>
          <path id="Trazado_896189" data-name="Trazado 896189" d="M274.015,341.087s10.615-4.15,14.774-12.635" transform="translate(-67.708 -153.901)" fill="none" stroke="#324241" stroke-linecap="round" stroke-linejoin="round" stroke-width="1"/>
          <path id="Trazado_896190" data-name="Trazado 896190" d="M259.027,319.759s10.294,9.118,11.5,14.227" transform="translate(-64.707 -152.16)" fill="none" stroke="#324241" stroke-linecap="round" stroke-linejoin="round" stroke-width="1"/>
          <path id="Trazado_896191" data-name="Trazado 896191" d="M274.556,354.813s14.559-1.562,19.156-7.143" transform="translate(-67.816 -157.748)" fill="none" stroke="#324241" stroke-linecap="round" stroke-linejoin="round" stroke-width="1"/>
          <line id="Línea_967" data-name="Línea 967" x2="18.625" y2="11.488" transform="translate(187.484 182.372)" fill="none" stroke="#324241" stroke-linecap="round" stroke-linejoin="round" stroke-width="1"/>
          <line id="Línea_968" data-name="Línea 968" x2="18.759" y2="6.411" transform="translate(187.922 193.86)" fill="none" stroke="#324241" stroke-linecap="round" stroke-linejoin="round" stroke-width="1"/>
          <path id="Trazado_896192" data-name="Trazado 896192" d="M287.485,424.063c0,2.5-9.216,4.526-20.585,4.526s-20.585-2.027-20.585-4.526,9.216-4.526,20.585-4.526,20.585,2.026,20.585,4.526" transform="translate(-62.163 -172.135)"/>
          <path id="Trazado_896193" data-name="Trazado 896193" d="M246.315,370.2h42.974l-4.078,34.531a11.98,11.98,0,0,1-11.9,10.574H262.29a11.98,11.98,0,0,1-11.9-10.574Z" transform="translate(-62.163 -162.258)" fill="#8b6800"/>
          <rect id="Rectángulo_403048" data-name="Rectángulo 403048" width="47.237" height="18.468" rx="7.993" transform="translate(182.021 204.743)" fill="#8b6800"/>
          <line id="Línea_969" data-name="Línea 969" x2="39.367" transform="translate(185.956 223.21)" fill="none" stroke="#000" stroke-linecap="round" stroke-linejoin="round" stroke-width="1"/>
          <path id="Trazado_896194" data-name="Trazado 896194" d="M201.159,401.239c0,7.89-34.908,14.286-77.971,14.286s-77.971-6.4-77.971-14.286,34.909-14.286,77.971-14.286,77.971,6.4,77.971,14.286" transform="translate(-21.904 -165.612)"/>
          <path id="Trazado_896195" data-name="Trazado 896195" d="M166.074,265.642c-2.135-10.74-6.959-32.671-14.472-53.366-3.515-9.7-21.868-10.28-8.232,23.518,1.279,3.173,5.807,27.589,9.171,37.555a8.6,8.6,0,0,0,.7,1.9c.524,1.275,1.009,2.092,1.432,2.279.068.03.135.054.2.082a7.976,7.976,0,0,0,4.25,2.594c4.125.737,17.226-.3,34.648-1.245a84.3,84.3,0,0,1,1.927-11.1c-9.494-1.366-19.855-2.581-29.626-2.216" transform="translate(-40.558 -129.492)" fill="#eec3ae"/>
          <path id="Trazado_896196" data-name="Trazado 896196" d="M163.014,239.975l-29.453,3.5s-21.12-43.223-1.034-46.987c24.085-4.514,30.487,43.489,30.487,43.489" transform="translate(-37.648 -127.422)" fill="#a5cbee"/>
          <path id="Trazado_896197" data-name="Trazado 896197" d="M184.149,280.574l-2.048,14.7-3.008-.217Z" transform="translate(-48.705 -144.316)"/>
          <path id="Trazado_896198" data-name="Trazado 896198" d="M232.65,288.675c.918.3,8.328,2.7,8.908,1.441.611-1.346-.376-1.953-5.329-4.242s-16.123-5.76-16.123-5.76,7.478-3.441,7.253-4.879c-.49-3.138-6.507-1.124-9.256-.193-1.939.649-12.494,4.009-12.68,4-10.823-.621-14.341-.773-20.2-1.416a160.2,160.2,0,0,0-2.367,17.68c8.322-.45,10.4.146,22.179-1.622,0,0,25.625,6.057,28.859,5.609,4.237-.586-.553-2.878-.814-2.982.393.073,6.453,2.845,7.337,1.053.713-1.437-3.713-3.373-4.99-3.68,1.483.285,5.808,2.356,6.56.3.8-2.205-8.434-4.957-9.334-5.306" transform="translate(-49.458 -142.908)" fill="#f3d171"/>
          <line id="Línea_970" data-name="Línea 970" x2="6.712" y2="2.918" transform="translate(179.254 143.807)" fill="none" stroke="#000" stroke-linecap="round" stroke-linejoin="round" stroke-width="1"/>
          <line id="Línea_971" data-name="Línea 971" x1="8.066" y1="3.031" transform="translate(177.9 147.743)" fill="none" stroke="#000" stroke-linecap="round" stroke-linejoin="round" stroke-width="1"/>
          <path id="Trazado_896199" data-name="Trazado 896199" d="M218.577,289.734s8.326,0,8.68-7.976" transform="translate(-56.61 -144.553)" fill="none" stroke="#000" stroke-linecap="round" stroke-linejoin="round" stroke-width="1"/>
          <line id="Línea_972" data-name="Línea 972" x1="6.812" y1="2.567" transform="translate(176.807 150.834)" fill="none" stroke="#000" stroke-linecap="round" stroke-linejoin="round" stroke-width="1"/>
          <line id="Línea_973" data-name="Línea 973" x1="1.684" y2="17.228" transform="translate(137.034 135.018)" fill="none" stroke="#000" stroke-linecap="round" stroke-linejoin="round" stroke-width="1"/>
          <path id="Trazado_896200" data-name="Trazado 896200" d="M118.317,357.66c-11.237-1.875-39.408.61-40.93-3.35-1.068-2.779-6.477-4.639-10.452-5.653-2.455-.626-4.363-.931-4.363-.931l-2.237,9.535,1.861.438-3.116,4.913-5.056,21.552s-.818,4.837,1.071,5.9a6.389,6.389,0,0,0,1.044.47c2.016.7,5.228.573,7.361-5.614,2.558-7.417,13-12.165,13.39-11.745.319.341,25.714,8.188,35.184,11.1l3.509,1.08,6.256-26.669a11.619,11.619,0,0,0-3.522-1.025" transform="translate(-23.632 -157.759)"/>
          <path id="Trazado_896201" data-name="Trazado 896201" d="M173.734,385.2s-25.11-7.226-37.429-8.592c-24.526-2.715-17.432-2.773-62.838-5.652-2.212-.141-.854,16.233,1.55,16.876,46.831,12.527,40.959,20.076,94.538,19.6,10.384-.094,14.869-18.627,4.178-22.232" transform="translate(-27.336 -162.41)" fill="#324241"/>
          <path id="Trazado_896202" data-name="Trazado 896202" d="M41.727,374.857s-6.359,18.851-4.822,26.167c2.016.7,5.228.573,7.361-5.613,2.558-7.417,13-12.166,13.39-11.746.318.342,25.715,8.188,35.184,11.105l6.244-26.614c-11.237-1.876-39.408.609-40.931-3.35-1.067-2.779-6.477-4.639-10.451-5.652l-2.495,10.629Z" transform="translate(-20.192 -160.047)" fill="#f3d171"/>
          <path id="Trazado_896203" data-name="Trazado 896203" d="M110.41,398.1l6.256-26.67a11.644,11.644,0,0,0-3.522-1.024L106.9,397.024l3.509,1.08" transform="translate(-34.253 -162.3)" fill="#324241"/>
          <path id="Trazado_896204" data-name="Trazado 896204" d="M42.825,357.989l-2.237,9.535,1.861.438-3.116,4.913-5.056,21.552s-.818,4.837,1.071,5.9a6.392,6.392,0,0,0,1.044.47c-1.537-7.316,4.822-26.167,4.822-26.167l3.479-5.073,2.495-10.63c-2.455-.627-4.363-.932-4.363-.932" transform="translate(-19.679 -159.814)" fill="#324241"/>
          <path id="Trazado_896205" data-name="Trazado 896205" d="M41.64,407.267l1.53-2.142" transform="translate(-21.188 -169.25)" fill="none" stroke="#000" stroke-linecap="round" stroke-linejoin="round" stroke-width="1"/>
          <path id="Trazado_896206" data-name="Trazado 896206" d="M40.492,404.818l1.224-1.989" transform="translate(-20.958 -168.79)" fill="none" stroke="#000" stroke-linecap="round" stroke-linejoin="round" stroke-width="1"/>
          <path id="Trazado_896207" data-name="Trazado 896207" d="M64.212,386.953l4.59,2.3" transform="translate(-25.707 -165.612)" fill="none" stroke="#000" stroke-linecap="round" stroke-linejoin="round" stroke-width="1"/>
          <path id="Trazado_896208" data-name="Trazado 896208" d="M69.759,387.527l3.519,2.295" transform="translate(-26.817 -165.727)" fill="none" stroke="#000" stroke-linecap="round" stroke-linejoin="round" stroke-width="1"/>
          <path id="Trazado_896209" data-name="Trazado 896209" d="M177.99,339.711c-25.571-14.177-39.523-26.238-44.785-30.6-3.207-8.108-7.053-17.577-9.138-24.15-5.376-16.946-36.86-15.415-41.45.14-1.893,6.413-10.839,27.249-14.277,36.726-3.532,9.738,4.333,18.743,5.65,20.284a26.143,26.143,0,0,0,10.47,7.876,13.85,13.85,0,0,0,2.769,1.857c11.26,5.605,30.03,14.253,47.089,21.979,19.081,8.644,34.66,13.289,36.683,13.634,3.434.589,11.868-2.993,12.789-9.663,2.512.657,4.45.617,6.17-.283,17.22-9.016,8.743-26.318-11.971-37.8" transform="translate(-26.352 -142.767)" fill="#324241"/>
          <path id="Trazado_896210" data-name="Trazado 896210" d="M116.409,383.206s36.847,18.571,46.525,19.884" transform="translate(-36.156 -164.862)" fill="none" stroke="#000" stroke-linecap="round" stroke-linejoin="round" stroke-width="1"/>
          <path id="Trazado_896211" data-name="Trazado 896211" d="M194.2,374.141s16.978,14.112,15.057,23.523" transform="translate(-51.729 -163.047)" fill="none" stroke="#000" stroke-linecap="round" stroke-linejoin="round" stroke-width="1"/>
          <path id="Trazado_896212" data-name="Trazado 896212" d="M123.337,192.237c7.393,2.39,15.939,14.214,19.051,23.019,3.3,9.339,6.771,13.378-6.274,34.441-2.968,19.547-1.773,30.965-5.139,31.6-13.022,2.455-55.168,1.928-46.28-14.211-1.482-12.878-3.311-28.344-3.311-28.344s-3.52-29.319,1.2-37.908c3.5-6.365,13.17-9.217,23.122-10.6a44.242,44.242,0,0,1,17.629,2" transform="translate(-28.892 -126.189)" fill="#a5cbee"/>
          <path id="Trazado_896213" data-name="Trazado 896213" d="M135.387,292.1c1.505-.929-3.64-4.787-3.64-4.787s-4.743-4.886,8.171-42.168c3.743-10.806,6-16.8-4.376-36.77l-.27.013a23.217,23.217,0,0,0-14.911-16.574l-3.467-.254c9.08,3.162,13.656,12.419,15.407,16.966-5.312.242-15.912.716-22.271.918-1.268-4.692-4.515-13.525-11.565-17a9.486,9.486,0,0,0-8.958.1,22.551,22.551,0,0,0-5.6,3.227c5.363-2.851,9.491-2.9,13.39-.977,5.811,2.862,8.756,10.374,10.026,14.769a2.462,2.462,0,0,0-1.946,2.243c-3.514,52.553-16.413,48.365-25.292,54.885-1.552-4.675-5.035-13.343-9.817-14.405-1.386-.3-3.5-.124-5.712,2.491A7.254,7.254,0,0,0,62.6,260.69c-1.543,1.4-2.512,3.984-2.944,7.806-.407,3.6.452,6.165,2.555,7.629,3.154,2.2,8.34,1.168,12.254-.142-3.586,4.386-8.5,11.054-8.58,14.736l2.627.057c.054-2.565,4.086-8.326,7.951-13.08.026.1.051.19.079.285a34.267,34.267,0,0,0-3.9,9.636l2.563.571a29.934,29.934,0,0,1,2.563-6.95c11.275,24.659,69.9,67.208,69.9,67.208a74.562,74.562,0,0,0,36.9-21.3c-6.3-5.213-13.083-10.521-49.181-35.047M66.562,256.469c1.651-1.954,2.771-1.705,3.136-1.623,3.091.685,6.309,7.73,8.064,13.174-2.827-3.435-7.757-8.573-11.959-8.573a4.867,4.867,0,0,0-.64.042,5.246,5.246,0,0,1,1.4-3.02m8.287,12.168c-3.41-1.581-7.366-3.921-8.967-6.573,2.435,0,6.043,3.217,8.967,6.573M63.714,273.97c-1.25-.87-1.736-2.614-1.447-5.18a13.788,13.788,0,0,1,1.435-5.274c2.606,4.14,8.953,7.136,12.435,8.532-.042.182-.083.362-.112.549-3.765,1.528-9.619,3.25-12.311,1.373" transform="translate(-24.776 -126.454)" fill="#63993f"/>
          <path id="Trazado_896214" data-name="Trazado 896214" d="M88.03,300.2s9.857,21.82,51.762,13.938" transform="translate(-30.475 -148.245)" fill="none" stroke="#000" stroke-linecap="round" stroke-linejoin="round" stroke-width="1"/>
          <path id="Trazado_896215" data-name="Trazado 896215" d="M88.03,294.16s9.3,12.658,24.857,12.816" transform="translate(-30.475 -147.036)" fill="none" stroke="#000" stroke-linecap="round" stroke-linejoin="round" stroke-width="1"/>
          <path id="Trazado_896216" data-name="Trazado 896216" d="M148.693,249.762s-8.536,16.962-18.931,25.06" transform="translate(-38.829 -138.148)" fill="none" stroke="#000" stroke-linecap="round" stroke-linejoin="round" stroke-width="1"/>
          <path id="Trazado_896217" data-name="Trazado 896217" d="M82.9,300.771a8.932,8.932,0,0,1,.2-8.78c-.951-1.55.018-3.8,1.44-4.936" transform="translate(-29.237 -145.613)" fill="none" stroke="#000" stroke-linecap="round" stroke-linejoin="round" stroke-width="1"/>
          <path id="Trazado_896218" data-name="Trazado 896218" d="M63.409,277.922a5.427,5.427,0,0,0,1.412,3.206" transform="translate(-25.546 -143.785)" fill="none" stroke="#000" stroke-linecap="round" stroke-linejoin="round" stroke-width="1"/>
          <path id="Trazado_896219" data-name="Trazado 896219" d="M66.689,276.773a4.631,4.631,0,0,0,1.081,2.291" transform="translate(-26.203 -143.555)" fill="none" stroke="#000" stroke-linecap="round" stroke-linejoin="round" stroke-width="1"/>
          <path id="Trazado_896220" data-name="Trazado 896220" d="M77.793,296.707c1.122-.816,3.16-2.071,4.281-2.886a4.108,4.108,0,0,1-2.774-1.532" transform="translate(-28.426 -146.661)" fill="none" stroke="#000" stroke-linecap="round" stroke-linejoin="round" stroke-width="1"/>
          <path id="Trazado_896221" data-name="Trazado 896221" d="M119.493,214.143q1.76-.154,3.519-.306" transform="translate(-36.774 -130.956)" fill="none" stroke="#000" stroke-linecap="round" stroke-linejoin="round" stroke-width="1"/>
          <path id="Trazado_896222" data-name="Trazado 896222" d="M149.335,212.627l3.521-.279" transform="translate(-42.748 -130.658)" fill="none" stroke="#000" stroke-linecap="round" stroke-linejoin="round" stroke-width="1"/>
          <path id="Trazado_896223" data-name="Trazado 896223" d="M155.838,227.419a7.655,7.655,0,0,1,1.53,3.519" transform="translate(-44.05 -133.675)" fill="none" stroke="#000" stroke-linecap="round" stroke-linejoin="round" stroke-width="1"/>
          <path id="Trazado_896224" data-name="Trazado 896224" d="M154.117,230.1a10.282,10.282,0,0,1,.917,4.131" transform="translate(-43.705 -134.211)" fill="none" stroke="#000" stroke-linecap="round" stroke-linejoin="round" stroke-width="1"/>
          <path id="Trazado_896225" data-name="Trazado 896225" d="M196.607,341.853a1.223,1.223,0,0,1-.772-.274c-.2-.162-19.878-16.364-7.052-32.443,2.32-2.908,5.072-4.485,8.18-4.686,2.887-.191,7.574.785,13.464,6.479.082.078.144.14.188.18a1.231,1.231,0,0,1-1.209,2.123,2.1,2.1,0,0,1-.689-.533c-5.242-5.068-9.2-5.947-11.595-5.793a8.945,8.945,0,0,0-6.414,3.765c-11.3,14.164,5.935,28.394,6.674,28.993a1.231,1.231,0,0,1-.775,2.188" transform="translate(-49.777 -149.091)" fill="#d0e9bb"/>
          <path id="Trazado_896226" data-name="Trazado 896226" d="M268.671,334.645l-5.958-18.625-5.235,10.51-31.23,13.408c.551-1.369.916-2.3.951-2.463.168-.762,9.716-16.108,9.716-16.108l-8.137-4.053-8.08-4.025-8.138-4.053s-6.5,16.865-7,17.458-10.477,17.635-10.477,17.635l8.138,4.053,8.08,4.025,8.138,4.053s.776-1.861,1.836-4.415l38.585-21.368Z" transform="translate(-51.905 -150.054)" fill="#d0e9bb"/>
          <rect id="Rectángulo_403049" data-name="Rectángulo 403049" width="1.515" height="30.304" transform="translate(159.044 158.59) rotate(-63.522)" fill="#d0e9bb"/>
          <rect id="Rectángulo_403050" data-name="Rectángulo 403050" width="1.515" height="30.304" transform="translate(141.451 194.262) rotate(-63.522)" fill="#d0e9bb"/>
          <rect id="Rectángulo_403051" data-name="Rectángulo 403051" width="1.515" height="25.254" transform="translate(209.736 163.223) rotate(-17.913)" fill="#d0e9bb"/>
          <line id="Línea_974" data-name="Línea 974" x2="24.429" y2="11.946" transform="translate(160.581 159.367)" fill="none" stroke="#000" stroke-linecap="round" stroke-linejoin="round" stroke-width="1"/>
          <line id="Línea_975" data-name="Línea 975" x2="23.935" y2="11.922" transform="translate(143.755 193.717)" fill="none" stroke="#000" stroke-linecap="round" stroke-linejoin="round" stroke-width="1"/>
          <line id="Línea_976" data-name="Línea 976" x2="5.927" y2="18.336" transform="translate(210.696 166.191)" fill="none" stroke="#000" stroke-linecap="round" stroke-linejoin="round" stroke-width="1"/>
          <path id="Trazado_896227" data-name="Trazado 896227" d="M135.967,276.5c-6.2-3.048-15.431-7.345-24.7-9.909-1.392-11.959-4.546-34.317-10.529-55.811a10.033,10.033,0,0,0-6.837-7.067,6.36,6.36,0,0,0-6.32,1.856c-4.089,4.368-3.865,14.587.629,28.775.516,1.633,1.892,9.742,3.221,17.585,3.326,19.61,4.277,24.345,5.087,25.33a13.483,13.483,0,0,0,2.221,2.178,7.572,7.572,0,0,0,1.97,1.608c3,1.656,11.448,3.981,23.134,7.2,2.131.586,4.369,1.2,6.7,1.849l1.046.29.482-.971a99.694,99.694,0,0,0,4.558-11.293l.393-1.1Z" transform="translate(-29.802 -128.889)" fill="#eec3ae"/>
          <path id="Trazado_896228" data-name="Trazado 896228" d="M109.231,238.133,80.977,240.67S70.132,202,90.447,199.783c24.36-2.653,18.784,38.35,18.784,38.35" transform="translate(-28.484 -128.117)" fill="#a5cbee"/>
          <path id="Trazado_896229" data-name="Trazado 896229" d="M183.488,306.148c-3.825-3.636-3.7-4.343-6.509-4.345a62.246,62.246,0,0,0-8.3,1.361c-6.68-2.974-14.666-9.055-23.733-13.51-2.976,4.5-5.731,14.1-7.244,18.489,7.28,2.02,13.708,1.58,22.3,4.2,0,0,16.091,11.786,18.191,5.837.337.19,2.295.661,3.124-.121a1.862,1.862,0,0,0,.71-2.192,3.036,3.036,0,0,0,3.334-.2c1.4-1.246,1.005-1.792.573-2.85,1.622-.866,1.383-3.026-2.441-6.661" transform="translate(-40.418 -146.134)" fill="#f3d171"/>
          <line id="Línea_977" data-name="Línea 977" x2="7.633" y2="7.501" transform="translate(137.879 158.258)" fill="none" stroke="#000" stroke-linecap="round" stroke-linejoin="round" stroke-width="1"/>
          <line id="Línea_978" data-name="Línea 978" x2="5.79" y2="5.504" transform="translate(135.147 163.829)" fill="none" stroke="#000" stroke-linecap="round" stroke-linejoin="round" stroke-width="1"/>
          <line id="Línea_979" data-name="Línea 979" x2="4.906" y2="4.389" transform="translate(131.542 167.652)" fill="none" stroke="#000" stroke-linecap="round" stroke-linejoin="round" stroke-width="1"/>
          <path id="Trazado_896230" data-name="Trazado 896230" d="M148.015,291.108s-5.967,15.787-6.317,18.079" transform="translate(-41.219 -146.425)" fill="none" stroke="#000" stroke-linecap="round" stroke-linejoin="round" stroke-width="1"/>
          <path id="Trazado_896231" data-name="Trazado 896231" d="M142.2,294.2l-8.551,12.2,3.742,1.031Z" transform="translate(-39.607 -147.044)"/>
          <path id="Trazado_896232" data-name="Trazado 896232" d="M107.1,247.763l-15.8,6.974-.777-4.437Z" transform="translate(-30.975 -137.747)"/>
          <path id="Trazado_896233" data-name="Trazado 896233" d="M81.7,240.717l28.254-2.537s3.423-35.824-12.291-38.288" transform="translate(-29.208 -128.164)" fill="none" stroke="#000" stroke-linecap="round" stroke-linejoin="round" stroke-width="1"/>
          <path id="Trazado_896234" data-name="Trazado 896234" d="M128.22,173.719s-18.276,1.831-23.673-1.524-7.065-2.111-10.505-2.764c-4.079-.774-4.558-7.084-4.079-8.471,1.489-4.315,3.058-2.9,7-6.12s7-15.037,8.9-18.54,6.231-11.964,18.727-12.547,21.848,3.064,27.386,17.217-.3,12.316-1.028,12.359-12.111-2.951-12.111-2.951-10.579,1.059-10.615,1.588,0,21.753,0,21.753" transform="translate(-30.832 -112.91)" fill="#72ac78"/>
          <path id="Trazado_896235" data-name="Trazado 896235" d="M132.885,176.866s-2.619,13.1-2.734,14.172-13.274,3.714-17.048-4.9c.51-1.824,7.01-23.694,7.01-23.694Z" transform="translate(-35.494 -120.666)" fill="#eec3ae"/>
          <path id="Trazado_896236" data-name="Trazado 896236" d="M137.711,128.591c21.935,6.538,10.677,40.466,10.677,40.466l-3.284-.821s-5.034,12.547-5.711,12.372c-9.083-2.371-17.419-9.774-17.962-11.354-.279-.709-1.237-4.99-.15-8.092.378-.05-11.229-6.556-4.41-24.1,1.714-3.7,13.486-10.672,20.84-8.475" transform="translate(-35.818 -113.806)" fill="#eec3ae"/>
          <path id="Trazado_896237" data-name="Trazado 896237" d="M143.638,177.814a3.283,3.283,0,0,0,2.47,3.759" transform="translate(-41.598 -123.744)" fill="none" stroke="#000" stroke-linecap="round" stroke-linejoin="round" stroke-width="1"/>
          <path id="Trazado_896238" data-name="Trazado 896238" d="M150.146,168.084a.9.9,0,1,1-.178-1.265.9.9,0,0,1,.178,1.265" transform="translate(-42.585 -121.507)"/>
          <path id="Trazado_896239" data-name="Trazado 896239" d="M153.3,164.409c-.5.231-1.608-1.174-3.3-1.805s-3.447-.292-3.677-.8,1.888-2.015,4.379-1.086,3.106,3.457,2.6,3.688" transform="translate(-42.141 -120.263)"/>
          <path id="Trazado_896240" data-name="Trazado 896240" d="M130.2,156.778s-.879-1.812-2.195-1.451c-1.28.349-1.6,1.158-2.053,3.13" transform="translate(-38.067 -119.233)"/>
          <path id="Trazado_896241" data-name="Trazado 896241" d="M130.2,156.778s-.879-1.812-2.195-1.451c-1.28.349-1.6,1.158-2.053,3.13" transform="translate(-38.067 -119.233)" fill="none" stroke="#000" stroke-linecap="round" stroke-linejoin="round" stroke-width="1"/>
          <path id="Trazado_896242" data-name="Trazado 896242" d="M134.91,189.142l-4.31-2.693,3.7,5.829Z" transform="translate(-38.997 -125.473)"/>
          <path id="Trazado_896243" data-name="Trazado 896243" d="M146.767,135.023s7.613,12.559,4.159,13.306-9.974-1.487-13.529-1.786-6.722-.6-7.812,1.047.521,5.032-3.022,4.676c0,0-2.33-5.275-4.952-5.125s-5.594,1.934-5.594,5.125c0,3.984,3.256,6.275,3.038,7.457s2.012,14.182-.811,15.911-4.939,0-6.722-1.488C106.175,169.68,96.355,163.9,96.355,163.9l10.9-21.992,7.13-11.37s14.358-4.189,14.533-4.189,11.91,2.693,11.91,2.693Z" transform="translate(-32.142 -113.441)" fill="#72ac78"/>
          <path id="Trazado_896244" data-name="Trazado 896244" d="M114.511,181.579a5.9,5.9,0,0,1-1.91-9.051,8.558,8.558,0,0,1,.917-8.733" transform="translate(-35.123 -120.938)" fill="none" stroke="#000" stroke-linecap="round" stroke-linejoin="round" stroke-width="1"/>
          <path id="Trazado_896245" data-name="Trazado 896245" d="M105.5,157.61a7.09,7.09,0,0,0-1.327,7.573,6.17,6.17,0,0,0-5.824,4.485,6.281,6.281,0,0,0,2.876,6.845" transform="translate(-32.505 -119.699)" fill="none" stroke="#000" stroke-linecap="round" stroke-linejoin="round" stroke-width="1"/>
          <path id="Trazado_896246" data-name="Trazado 896246" d="M105.228,150.709s21.746,4.6,30.917,4.784a155.945,155.945,0,0,0,21.2-1.588l-.657-3.2-50.234-2.294Z" transform="translate(-33.918 -117.859)"/>
          <path id="Trazado_896247" data-name="Trazado 896247" d="M146.185,133.89s13.215,5.147,18.332,6.016,9.336,3.228.019,6.544-29.948,5.795-49.588,2.761-27.832-.543-30.481.078c0,0-.921-1.341,2.247-5.771s16.767-8.711,16.767-8.711,26.83,3.655,42.7-.917" transform="translate(-29.737 -114.951)" fill="#d2984e"/>
          <path id="Trazado_896248" data-name="Trazado 896248" d="M150.975,129.15s-2.32-11.014-7.5-15.439-8.815-.8-20.158-3.325c-7.886-1.759-13.988,10.041-15.048,19.681,0,0,28.439,6.527,42.7-.917" transform="translate(-34.527 -110.21)" fill="#f3d171"/>
          <path id="Trazado_896249" data-name="Trazado 896249" d="M108.272,134.808s32.435,6.21,42.7-.917" transform="translate(-34.527 -114.951)" fill="none" stroke="#000" stroke-linecap="round" stroke-linejoin="round" stroke-width="1"/>
          <path id="Trazado_896250" data-name="Trazado 896250" d="M152,119.8l.789,2.526" transform="translate(-43.281 -112.13)" fill="none" stroke="#000" stroke-linecap="round" stroke-linejoin="round" stroke-width="1"/>
          <path id="Trazado_896251" data-name="Trazado 896251" d="M149.035,120.589q.789,2.21,1.578,4.42" transform="translate(-42.688 -112.288)" fill="none" stroke="#000" stroke-linecap="round" stroke-linejoin="round" stroke-width="1"/>
          <path id="Trazado_896252" data-name="Trazado 896252" d="M91.014,147.783l3.788-2.526" transform="translate(-31.072 -117.226)" fill="none" stroke="#000" stroke-linecap="round" stroke-linejoin="round" stroke-width="1"/>
          <path id="Trazado_896253" data-name="Trazado 896253" d="M99.094,142.684a14.611,14.611,0,0,1,5.852-3.134" transform="translate(-32.69 -116.084)" fill="none" stroke="#000" stroke-linecap="round" stroke-linejoin="round" stroke-width="1"/>
          <path id="Trazado_896254" data-name="Trazado 896254" d="M468.957,433.3c0,2.3-10.176,4.165-22.728,4.165S423.5,435.6,423.5,433.3s10.176-4.165,22.729-4.165S468.957,431,468.957,433.3" transform="translate(-97.634 -174.057)"/>
          <path id="Trazado_896255" data-name="Trazado 896255" d="M427.034,377.967a14.334,14.334,0,0,1,6.07-10.7c6.069-4.472,10.062-2.875,10.062-2.875a32.7,32.7,0,0,1,6.388-2.4c4.473-.8,10.062.319,13.257,5.909a31.509,31.509,0,0,1,3.833,10.062l-17.089,8.624Z" transform="translate(-98.341 -160.57)" fill="#d2984e"/>
          <path id="Trazado_896256" data-name="Trazado 896256" d="M441.852,367.767c0,.149-.254.27-.569.27s-.569-.121-.569-.27.255-.27.569-.27.569.121.569.27" transform="translate(-101.08 -161.717)" fill="#f3d171"/>
          <path id="Trazado_896257" data-name="Trazado 896257" d="M460.393,372.11c0,.4-.549.719-1.228.719s-1.228-.322-1.228-.719.549-.719,1.228-.719,1.228.322,1.228.719" transform="translate(-104.528 -162.497)" fill="#f3d171"/>
          <path id="Trazado_896258" data-name="Trazado 896258" d="M463.464,365.475c0,.165-.349.3-.779.3s-.778-.134-.778-.3.349-.3.778-.3.779.134.779.3" transform="translate(-105.322 -161.252)" fill="#f3d171"/>
          <path id="Trazado_896259" data-name="Trazado 896259" d="M465.271,367.227c0,.1-.183.179-.409.179s-.409-.08-.409-.179.182-.18.409-.18.409.08.409.18" transform="translate(-105.832 -161.627)" fill="#f3d171"/>
          <path id="Trazado_896260" data-name="Trazado 896260" d="M434.633,374.4c0,.132-.282.239-.629.239s-.629-.107-.629-.239.282-.239.629-.239.629.106.629.239" transform="translate(-99.611 -163.052)" fill="#f3d171"/>
          <path id="Trazado_896261" data-name="Trazado 896261" d="M424.513,376.233H468.8l-4.914,41.607a5.518,5.518,0,0,1-5.479,4.871H434.907a5.519,5.519,0,0,1-5.48-4.871Z" transform="translate(-97.837 -163.466)" fill="#72ac78"/>
          <path id="Trazado_896262" data-name="Trazado 896262" d="M445.619,397.619c-23.558,0-25.062-20.012-25.075-20.214a.8.8,0,0,1,.749-.847.789.789,0,0,1,.849.748c.049.764,1.449,18.714,23.478,18.714,22.063,0,23.163-17.939,23.2-18.7a.784.784,0,0,1,.837-.761.8.8,0,0,1,.761.837c-.01.2-1.227,20.226-24.8,20.226" transform="translate(-97.042 -163.53)" fill="#d0e9bb"/>
          <rect id="Rectángulo_403052" data-name="Rectángulo 403052" width="46.837" height="2.117" transform="translate(325.021 212.767)" fill="#324241"/>
          <path id="Trazado_896263" data-name="Trazado 896263" d="M470.874,413.707q-.235,2.563-.469,5.124" transform="translate(-107.024 -170.968)" fill="none" stroke="#000" stroke-linecap="round" stroke-linejoin="round" stroke-width="1"/>
          <line id="Línea_980" data-name="Línea 980" y2="4.38" transform="translate(361.966 244.974)" fill="none" stroke="#000" stroke-linecap="round" stroke-linejoin="round" stroke-width="1"/>
          <line id="Línea_981" data-name="Línea 981" x2="43.33" transform="translate(326.93 214.876)" fill="none" stroke="#000" stroke-linecap="round" stroke-linejoin="round" stroke-width="1"/>
          <path id="Trazado_896264" data-name="Trazado 896264" d="M433.872,415l1.579,6.524" transform="translate(-99.71 -171.226)" fill="none" stroke="#000" stroke-linecap="round" stroke-linejoin="round" stroke-width="1"/>
          <path id="Trazado_896265" data-name="Trazado 896265" d="M434.167,407.527q1.252,6.123,3.047,12.12" transform="translate(-99.769 -169.731)" fill="none" stroke="#000" stroke-linecap="round" stroke-linejoin="round" stroke-width="1"/>
          <path id="Trazado_896266" data-name="Trazado 896266" d="M442.255,371.876a2.573,2.573,0,0,1,3.019-2.31,2.532,2.532,0,0,1,.971-1.773,2.237,2.237,0,0,1,1.823-.542" transform="translate(-101.388 -161.663)" fill="none" stroke="#000" stroke-linecap="round" stroke-linejoin="round" stroke-width="1"/>
          <path id="Trazado_896267" data-name="Trazado 896267" d="M456.415,367.494a3.6,3.6,0,0,1,2.933,3.231" transform="translate(-104.223 -161.717)" fill="none" stroke="#000" stroke-linecap="round" stroke-linejoin="round" stroke-width="1"/>
          <path id="Trazado_896268" data-name="Trazado 896268" d="M143.853,444.155c5.468,4.271,12.437,5.058,16.415,5.116a3.365,3.365,0,0,0,3.41-3.277c.1-3.977-.406-10.972-4.457-16.606a60.4,60.4,0,0,0-10.141-11.039,1.964,1.964,0,0,0-2.966.553l-1.978,3.514a15.984,15.984,0,0,1-6.65,6.389l-3.59,1.836a1.964,1.964,0,0,0-.67,2.942,60.386,60.386,0,0,0,10.625,10.573" transform="translate(-39.442 -171.807)" fill="#a5cbee"/>
          <line id="Línea_982" data-name="Línea 982" x1="17.018" y1="17.712" transform="translate(102.208 254.675)" fill="none" stroke="#000" stroke-linecap="round" stroke-linejoin="round" stroke-width="1"/>
          <rect id="Rectángulo_403053" data-name="Rectángulo 403053" width="2.725" height="11.322" transform="translate(89.815 243.744) rotate(-43.859)" fill="#a5cbee"/>
          <rect id="Rectángulo_403054" data-name="Rectángulo 403054" width="2.725" height="1.75" transform="translate(94.574 248.697) rotate(-43.859)"/>
          <path id="Trazado_896269" data-name="Trazado 896269" d="M141.09,431.2a10.643,10.643,0,0,0,5.37,2.781,2.183,2.183,0,0,0,2.619-2.516,10.655,10.655,0,0,0-2.565-5.477c-2.3-2.4-4.048-2.656-4.76-2.642l-2.981-3.1a1.27,1.27,0,0,0-1.8-.036l-1.283,1.233a1.27,1.27,0,0,0-.036,1.8l2.982,3.1c-.043.71.146,2.464,2.45,4.861" transform="translate(-39.939 -172.199)" fill="#e2a8be"/>
          <path id="Trazado_896270" data-name="Trazado 896270" d="M115.034,404.409c2.2,1.512,6.156,1.812,6.8,4.4a5.933,5.933,0,0,0,3.582,3.613l.609-.586,1.728-1.66.609-.585a5.933,5.933,0,0,0-3.466-3.723c-2.562-.749-2.7-4.715-4.127-6.973s-3.326-4.436-5.906-5.123a4.887,4.887,0,0,0-3.289.229l-.1-.1a18.454,18.454,0,0,0-1.062,1.021l.094.1a4.885,4.885,0,0,0-.36,3.277c.584,2.605,2.683,4.593,4.883,6.106" transform="translate(-34.878 -166.942)" fill="#e2a8be"/>
          <path id="Trazado_896271" data-name="Trazado 896271" d="M115.467,403.159,113.217,401" transform="translate(-35.517 -168.424)" fill="none" stroke="#000" stroke-linecap="round" stroke-linejoin="round" stroke-width="1"/>
          <path id="Trazado_896272" data-name="Trazado 896272" d="M115.765,401.445l-2.077-1.981" transform="translate(-35.612 -168.117)" fill="none" stroke="#000" stroke-linecap="round" stroke-linejoin="round" stroke-width="1"/>
          <path id="Trazado_896273" data-name="Trazado 896273" d="M138.972,425.327l1.382,1.439" transform="translate(-40.673 -173.294)" fill="none" stroke="#000" stroke-linecap="round" stroke-linejoin="round" stroke-width="1"/>
          <path id="Trazado_896274" data-name="Trazado 896274" d="M194.689,454.3c-3.889-4.28-7.874-8.566-12.717-11.725s-10.7-5.128-16.419-4.281-11.019,3.832-12.331,9.464a18.86,18.86,0,0,0-20.366,8.016Z" transform="translate(-39.449 -175.851)" fill="#d2984e"/>
          <path id="Trazado_896275" data-name="Trazado 896275" d="M138.836,456.042a11.376,11.376,0,0,1,15.234-8.061,12.414,12.414,0,0,1,17.88-6.4c.121-2.354,4.143-3.889,6.158-2.665" transform="translate(-40.646 -175.929)" fill="none" stroke="#f3d171" stroke-linecap="round" stroke-linejoin="round" stroke-width="1"/>
          <rect id="Rectángulo_403055" data-name="Rectángulo 403055" width="26.348" height="2.84" transform="matrix(0.594, -0.805, 0.805, 0.594, 282.774, 268.268)" fill="#a5cbee"/>
          <rect id="Rectángulo_403056" data-name="Rectángulo 403056" width="1.824" height="2.84" transform="translate(288.787 260.117) rotate(-53.601)"/>
          <path id="Trazado_896276" data-name="Trazado 896276" d="M393.5,403.7c-1.165,2.526-.776,6.642-3.322,7.763a6.182,6.182,0,0,0-3.078,4.315l.709.523,2.01,1.482.709.523a6.184,6.184,0,0,0,3.213-4.217c.318-2.764,4.365-3.608,6.434-5.468s3.97-4.2,4.221-6.969a5.1,5.1,0,0,0-.814-3.338l.083-.117a3.164,3.164,0,0,0-.609-.469,3.122,3.122,0,0,0-.627-.442l-.088.114a5.1,5.1,0,0,0-3.43.208c-2.572,1.059-4.245,3.566-5.41,6.091" transform="translate(-90.347 -167.662)" fill="#e2a8be"/>
          <path id="Trazado_896277" data-name="Trazado 896277" d="M398.569,403.785l1.824-2.691" transform="translate(-92.643 -168.443)" fill="none" stroke="#000" stroke-linecap="round" stroke-linejoin="round" stroke-width="1"/>
          <path id="Trazado_896278" data-name="Trazado 896278" d="M400.421,403.79q.835-1.24,1.669-2.483" transform="translate(-93.013 -168.486)" fill="none" stroke="#000" stroke-linecap="round" stroke-linejoin="round" stroke-width="1"/>
          <path id="Trazado_896279" data-name="Trazado 896279" d="M351.577,443.83a22.665,22.665,0,0,0-1.812,4.759,1.09,1.09,0,0,0,1.956.886c.226-.336.455-.672.69-1,1.188-1.674,6.522-8.7,8.354-9.625a5.376,5.376,0,0,1,5.8.345s-7.12,9.854-9.131,15.507a1.089,1.089,0,0,0,1.673,1.234c4.806-3.593,12.116-13.306,12.116-13.306a5.378,5.378,0,0,1,2.043,5.439c-.345,2.024-5.479,9.195-6.726,10.824-.248.323-.5.641-.755.957a1.09,1.09,0,0,0,1.425,1.607,22.686,22.686,0,0,0,4.01-3.137c2.336-2.354,7.964-10.99,7.629-14.289-.356-3.5-3.214-6.7-6.269-8.443-2.563-2.4-6.163-3.959-9.609-3.266-3.25.654-9.838,8.584-11.4,11.511" transform="translate(-82.864 -174.661)" fill="#a5cbee"/>
          <path id="Trazado_896280" data-name="Trazado 896280" d="M383.624,449.913a7.823,7.823,0,0,0,.3-4.111" transform="translate(-89.651 -177.393)" fill="none" stroke="#000" stroke-linecap="round" stroke-linejoin="round" stroke-width="1"/>
          <path id="Trazado_896281" data-name="Trazado 896281" d="M382.644,448.2a3.353,3.353,0,0,0-.307-2.323" transform="translate(-89.393 -177.409)" fill="none" stroke="#000" stroke-linecap="round" stroke-linejoin="round" stroke-width="1"/>
          <path id="Trazado_896282" data-name="Trazado 896282" d="M372.2,441.752l-1.241-.835" transform="translate(-87.115 -176.415)" fill="none" stroke="#000" stroke-linecap="round" stroke-linejoin="round" stroke-width="1"/>
          <path id="Trazado_896283" data-name="Trazado 896283" d="M358.378,440.636a9.9,9.9,0,0,1,2.713-3.17" transform="translate(-84.597 -175.725)" fill="none" stroke="#000" stroke-linecap="round" stroke-linejoin="round" stroke-width="1"/>
          <path id="Trazado_896284" data-name="Trazado 896284" d="M343.788,469.877h38.623c-3.063-3.919-6.711-7.609-11.35-9.4s-10.553-1.925-13.983,1.678a9.081,9.081,0,0,0-13.069-9.24Z" transform="translate(-81.676 -178.631)" fill="#d2984e"/>
          <path id="Trazado_896285" data-name="Trazado 896285" d="M340.56,452.227a12.926,12.926,0,0,1,15.375,10.234c2.2-2.681,5.933-4.592,9.385-4.245a16.914,16.914,0,0,1,9.263,4.369,40.49,40.49,0,0,1,6.616,8c.917-1.361,2.25-1.532,3.892-1.548a5.176,5.176,0,0,1,4.21,2.165" transform="translate(-81.03 -178.625)" fill="none" stroke="#f3d171" stroke-linecap="round" stroke-linejoin="round" stroke-width="1"/>
        </g>
      </g>
    </g>
  </g>
</svg>
