<svg id="Grupo_1099020" data-name="Grupo 1099020" xmlns="http://www.w3.org/2000/svg" xmlns:xlink="http://www.w3.org/1999/xlink" width="319.752" height="310.29" viewBox="0 0 319.752 310.29">
  <defs>
    <clipPath id="clip-path">
      <rect id="Rectángulo_401289" data-name="Rectángulo 401289" width="63.627" height="15.808" fill="#12263f"/>
    </clipPath>
    <clipPath id="clip-path-2">
      <rect id="Rectángulo_401290" data-name="Rectángulo 401290" width="65.057" height="79.728" fill="#727997"/>
    </clipPath>
    <clipPath id="clip-path-3">
      <rect id="Rectángulo_401291" data-name="Rectángulo 401291" width="65.057" height="13.955" fill="#12263f"/>
    </clipPath>
  </defs>
  <g id="Grupo_1099281" data-name="Grupo 1099281" transform="translate(0 0)">
    <path id="Trazado_873129" data-name="Trazado 873129" d="M277.141,138.556V310.289H0V138.556q0-4.352.28-8.615c.1-1.959.265-3.9.471-5.846.044-.471.1-.942.162-1.4.28-2.548.633-5.08,1.075-7.584q.817-4.882,1.988-9.631A138.8,138.8,0,0,1,45.591,35.843c3.092-2.813,6.332-5.493,9.675-8.011a137.768,137.768,0,0,1,32.22-18.1c2.106-.839,4.256-1.635,6.42-2.371A138.159,138.159,0,0,1,220.785,27.037c.707.515,1.4,1.031,2.076,1.561a138.57,138.57,0,0,1,52.7,89.106,139.145,139.145,0,0,1,1.576,20.852" fill="#fcfaee"/>
    <path id="Trazado_873130" data-name="Trazado 873130" d="M119.633,248.611c-.265.839-.574,1.679-.913,2.489a39.517,39.517,0,0,1-5.935,10.161,42.991,42.991,0,0,1-10.47,9.2H0V98.731q0-4.351.28-8.615c.1-1.959.265-3.9.471-5.846q1.657.751,3.269,1.635A44.1,44.1,0,0,1,8.35,88.6a42.989,42.989,0,0,1,9.41,8.924v.015c.751.957,1.443,1.959,2.091,2.975.059.088.118.191.177.295a34.321,34.321,0,0,1,2.533,4.9,1.35,1.35,0,0,1,.133.339,26.568,26.568,0,0,1,1,2.813,8.251,8.251,0,0,1,.25.8c.059.191.1.4.147.589.044.147.088.28.118.427.177.677.324,1.369.442,2.062.088.442.162.884.221,1.34.162,1.031.265,2.062.339,3.107l.044.707a50.2,50.2,0,0,1-.059,5.154c-.486,7.23-2.533,14.505-4.845,21.426-1.37,4.064-2.842,8.143-4.167,12.237-2.341,7.245-4.2,14.579-4.182,22.133a26.277,26.277,0,0,0,.221,3.372c.589,4.285,2.386,8.453,6.214,10.117a9.376,9.376,0,0,0,4.4.692,24.556,24.556,0,0,0,7.407-1.973c3.137-1.252,6.244-2.592,9.366-3.947,4.182-1.8,8.379-3.608,12.65-5.169.9-.339,1.8-.648,2.71-.957,2.179-.736,4.388-1.414,6.627-1.973a60.154,60.154,0,0,1,10.75-1.738,50.243,50.243,0,0,1,5.154-.088,38.012,38.012,0,0,1,13.813,2.975,29.58,29.58,0,0,1,2.989,1.473c6.3,3.549,11.192,9.174,15.241,15.153,1,1.458,1.944,2.96,2.857,4.491.633,1.09,1.252,2.179,1.841,3.3.236.427.456.869.692,1.311a63.716,63.716,0,0,1,6.892,22.869,48.765,48.765,0,0,1-2.194,19.865" transform="translate(0 39.825)" fill="#ecdb9f"/>
    <path id="Trazado_873131" data-name="Trazado 873131" d="M250.391,138.556v30.63c-1.5.574-3.034,1.09-4.565,1.576-22.015,6.877-46.166,4.918-67.96-2.577-16.979-5.846-34.473-17.2-37.566-34.886-1.3-7.5.206-15.153.722-22.751s-.206-15.845-5.11-21.677c-4.182-4.948-10.72-7.3-17.141-8.188-13.71-1.885-28.362,1.811-41.07-3.652C63.785,71.052,56.112,54.942,56.628,39.8c.4-11.707,5.036-22.339,10.529-32.441A138.159,138.159,0,0,1,194.035,27.037c.707.515,1.4,1.031,2.076,1.561a138.571,138.571,0,0,1,52.7,89.106,139.151,139.151,0,0,1,1.576,20.852" transform="translate(26.752)" fill="#ecdb9f"/>
    <path id="Trazado_873132" data-name="Trazado 873132" d="M277.141,155.83v80.816H0v-61.26Z" transform="translate(0 73.644)" fill="#736a33"/>
  </g>
  <g id="Grupo_1099280" data-name="Grupo 1099280" transform="translate(149.829 30.364)">
    <path id="Trazado_873137" data-name="Trazado 873137" d="M166.121,42.647a45.231,45.231,0,0,0-23.783,81.638L126.43,150.544l26.7-20.419a45.235,45.235,0,1,0,12.995-87.478" transform="translate(-123.817 -42.55)" fill="#736a33"/>
    <rect id="Rectángulo_401286" data-name="Rectángulo 401286" width="1.914" height="36.988" transform="translate(46.353 27.559)" fill="#502750"/>
    <path id="Trazado_873138" data-name="Trazado 873138" d="M152.716,101.36a1.488,1.488,0,0,1-1.49-1.488V58.29a1.49,1.49,0,0,1,2.979,0V99.872a1.488,1.488,0,0,1-1.49,1.488" transform="translate(-105.404 -32.976)" fill="#fff"/>
    <path id="Trazado_873139" data-name="Trazado 873139" d="M157.869,94.137a1.487,1.487,0,0,1-1.49-1.488V61.328a1.49,1.49,0,0,1,2.979,0V92.649a1.487,1.487,0,0,1-1.489,1.488" transform="translate(-101.944 -30.935)" fill="#fff"/>
    <path id="Trazado_873140" data-name="Trazado 873140" d="M146.958,94.137a1.487,1.487,0,0,1-1.49-1.488V61.328a1.49,1.49,0,0,1,2.979,0V92.649a1.487,1.487,0,0,1-1.49,1.488" transform="translate(-109.271 -30.935)" fill="#fff"/>
    <path id="Trazado_873141" data-name="Trazado 873141" d="M163.022,88.875a1.489,1.489,0,0,1-1.491-1.488V63.573a1.49,1.49,0,0,1,2.979,0V87.387a1.488,1.488,0,0,1-1.488,1.488" transform="translate(-98.481 -29.427)" fill="#fff"/>
    <path id="Trazado_873142" data-name="Trazado 873142" d="M142.108,88.875a1.488,1.488,0,0,1-1.49-1.488V63.573a1.49,1.49,0,0,1,2.979,0V87.387a1.488,1.488,0,0,1-1.49,1.488" transform="translate(-112.528 -29.427)" fill="#fff"/>
    <path id="Trazado_873143" data-name="Trazado 873143" d="M167.567,82.194a1.488,1.488,0,0,1-1.49-1.488V66.424a1.49,1.49,0,0,1,2.979,0V80.706a1.488,1.488,0,0,1-1.49,1.488" transform="translate(-95.426 -27.512)" fill="#fff"/>
    <path id="Trazado_873144" data-name="Trazado 873144" d="M136.956,82.194a1.488,1.488,0,0,1-1.49-1.488V66.424a1.49,1.49,0,0,1,2.979,0V80.706a1.488,1.488,0,0,1-1.49,1.488" transform="translate(-115.991 -27.512)" fill="#fff"/>
  </g>
  <g id="Grupo_1099277" data-name="Grupo 1099277" transform="translate(11.315 63.578)">
    <rect id="Rectángulo_401288" data-name="Rectángulo 401288" width="44.848" height="7.06" transform="translate(29.67 141.191)" fill="#12263f"/>
    <path id="Trazado_873157" data-name="Trazado 873157" d="M20.908,133.8H8.035a6.022,6.022,0,0,1-6.022-6.022v-4.983a6.02,6.02,0,0,1,6.022-6.02H20.908Z" transform="translate(1.081 -31.848)" fill="#12263f"/>
    <path id="Trazado_873158" data-name="Trazado 873158" d="M46.924,133.8H59.8a6.022,6.022,0,0,0,6.022-6.022v-4.983a6.02,6.02,0,0,0-6.022-6.02H46.924Z" transform="translate(32.373 -31.848)" fill="#12263f"/>
    <path id="Trazado_873159" data-name="Trazado 873159" d="M75.4,113.459v.017c0,1.675-.017,3.22-.064,4.569,0,.244-.017.472-.017.7-.049,1.546-.114,2.815-.146,3.709-.032.635-.049,1.074-.066,1.284v.148s-1.447.015-3.919.048c-.163,0-.324.017-.487.017-1.985.015-4.554.049-7.515.1H62.7c-1.042.017-2.131.032-3.254.049-.244,0-.487.017-.731.017l-3.529.048h-.489c-2.423.034-4.959.066-7.513.1a.172.172,0,0,1-.081.017h-.748c-2.391.048-4.8.081-7.174.114h-.47c-1.351.015-2.684.048-4,.064h-.747l-2.766.049c-.163,0-.309.015-.472.015-2.684.032-5.221.081-7.515.131h-.926c-.26.017-.5.017-.748.017-5.937.114-9.905.21-9.955.26,0,0-.015-.227-.015-.65,0-.163-.017-.343,0-.553a4.4,4.4,0,0,1-.017-.489c-.015-1.642.032-4.374.277-7.757.017-.163.017-.343.032-.5.148-1.758.343-3.694.6-5.726.032-.2.066-.39.081-.6.017-.066.017-.115.032-.18.081-.568.163-1.138.244-1.724.032-.178.049-.358.081-.553.309-2.2.65-4.488,1.057-6.814.032-.18.064-.375.114-.57.066-.358.131-.731.2-1.106a5.276,5.276,0,0,0,.114-.551,64.227,64.227,0,0,1,1.709-6.685,4.379,4.379,0,0,1,.163-.5c.227-.733.487-1.447.748-2.163.1-.212.178-.439.26-.652A36.682,36.682,0,0,1,19.2,83.029c.081-.131.146-.26.227-.39a26.666,26.666,0,0,1,4.035-5.317,3.981,3.981,0,0,1,.292-.277,22.525,22.525,0,0,1,5.092-3.758c.114-.064.227-.129.356-.2a26.833,26.833,0,0,1,6.083-2.245c.131-.032.277-.064.424-.1a36.8,36.8,0,0,1,7.041-.83H43.1a.215.215,0,0,1,.146,0c.2-.017.407-.017.6-.017h.114a36.591,36.591,0,0,1,7.335.716c.212.049.407.1.585.146.5.115.993.244,1.48.392a2.785,2.785,0,0,1,.5.146,25.273,25.273,0,0,1,6.685,3.139c.131.081.244.163.358.244a24.742,24.742,0,0,1,4.831,4.359c.081.1.178.2.26.309a30.212,30.212,0,0,1,3.514,5.253c.064.114.131.227.2.358a42.075,42.075,0,0,1,2.487,5.92c.034.131.083.277.131.407a53.037,53.037,0,0,1,1.642,6.488c.034.148.066.277.1.424.439,2.358.748,4.7.943,6.96.015.114.015.227.032.326,0,.049.017.081.017.131v.015c.015.244.032.472.048.7.2,2.358.261,4.6.277,6.653a4.384,4.384,0,0,1,.017.472" transform="translate(7.72 -64.503)" fill="#727997"/>
    <g id="Grupo_1099282" data-name="Grupo 1099282" transform="translate(19.261 5.353)">
      <path id="Trazado_873160" data-name="Trazado 873160" d="M41,69.939c.2-.017.407-.017.6-.017l-.422.277-.343.227-5.253,3.5-.341.229-5.255,3.512-.324.212L24.4,81.389l-.326.212-5.253,3.5-.326.227-3.74,2.489c.1-.212.178-.439.26-.652L18.266,85l.341-.227,5.255-3.5.324-.227,5.253-3.5.343-.227,5.253-3.5.341-.227,5.238-3.5.244-.163.1-.064Z" transform="translate(-9.306 -69.875)" fill="#12263f"/>
      <path id="Trazado_873161" data-name="Trazado 873161" d="M52.747,70.788l-1.123.748-.343.227-5.253,3.5-.339.227-5.253,3.5-.343.227-5.236,3.5-.343.229L29.259,86.45l-.341.212-5.236,3.5-.341.227L18.088,93.9l-.341.212-4.6,3.074a5.4,5.4,0,0,0,.114-.553l4.26-2.847.343-.227,5.253-3.5.341-.227,5.251-3.5.327-.227,5.251-3.5.343-.227,5.255-3.5.341-.227,5.236-3.514.341-.227,5.253-3.5.341-.227.848-.553a2.971,2.971,0,0,1,.5.146" transform="translate(-10.427 -69.341)" fill="#12263f"/>
      <path id="Trazado_873162" data-name="Trazado 873162" d="M60.383,72.821l-4.44,2.961-.341.227-5.238,3.5-.341.227-5.253,3.5-.343.227-5.253,3.5-.341.227-5.253,3.5-.326.227L28,94.4l-.343.227-5.253,3.5-.341.229-5.253,3.5-.343.227-4.179,2.8c.032-.178.049-.356.081-.551l3.87-2.586.343-.229,5.253-3.5.341-.227,5.253-3.5.343-.227,5.253-3.5.324-.227,5.255-3.5.341-.227,5.253-3.5.341-.227,5.255-3.5.341-.229,5.238-3.5.341-.229,4.31-2.862c.131.081.244.163.358.244" transform="translate(-11.021 -67.992)" fill="#12263f"/>
      <path id="Trazado_873163" data-name="Trazado 873163" d="M65.882,75.6l-5.806,3.872-.341.227-5.253,3.5-.343.227L48.9,86.92l-.343.227L43.307,90.66l-.341.212-5.253,3.514-.343.21L32.133,98.11l-.341.21-5.253,3.514-.341.227-5.253,3.5-.343.227-5.236,3.5-.343.227-3.317,2.213c.015-.163.015-.341.032-.5l3.057-2.05.341-.227,5.255-3.5.341-.227,5.238-3.5.341-.227L31.564,98l.341-.229,5.255-3.5.324-.229,5.253-3.5.343-.227,5.251-3.5.341-.227,5.255-3.5.343-.227,5.253-3.5.341-.227,5.757-3.855c.081.1.18.2.261.309" transform="translate(-11.425 -66.102)" fill="#12263f"/>
      <path id="Trazado_873164" data-name="Trazado 873164" d="M69.7,78.927l-5.789,3.855-.343.227-5.236,3.5-.343.227-5.253,3.5-.341.227-5.253,3.5-.343.227L41.55,97.7l-.326.212-5.253,3.512-.341.212-5.253,3.512-.343.227-5.236,3.5-.341.229-5.255,3.5-.341.229-7.3,4.863a4.386,4.386,0,0,1-.017-.489l7.092-4.717.341-.227,5.253-3.5.343-.227,5.253-3.5.326-.227,5.253-3.5.341-.227L41,97.582l.326-.227,5.253-3.514.341-.212,5.255-3.512.341-.227,5.253-3.5.341-.227,5.255-3.5.341-.227,5.806-3.872c.064.114.131.227.2.358" transform="translate(-11.541 -63.818)" fill="#12263f"/>
      <path id="Trazado_873165" data-name="Trazado 873165" d="M68.221,82.674l-4.668,3.108-.341.227-5.255,3.514-.341.227-5.253,3.5-.341.227-5.255,3.5-.341.227-5.253,3.5v.017l-.326.21-5.253,3.5-.341.227L30,108.163l-.326.21-5.253,3.514-.343.212-5.253,3.512-.635.422h-.015c-.261.017-.5.017-.748.017l.83-.553.341-.229,5.253-3.514.341-.21,5.255-3.514.324-.21,5.255-3.514.341-.226,5.253-3.5.326-.212v-.015l5.27-3.5.324-.227,5.253-3.5.343-.229,5.253-3.5.341-.229,5.253-3.512.343-.227,4.764-3.173a3.632,3.632,0,0,0,.131.406" transform="translate(-7.443 -61.24)" fill="#12263f"/>
      <path id="Trazado_873166" data-name="Trazado 873166" d="M64.859,86.755l-2.684,1.79-.341.227-5.253,3.512-.341.227-5.255,3.5-.341.229-5.253,3.5-.326.229-5.253,3.5-.341.227-5.253,3.5-.326.227-5.27,3.512-.326.212-2.8,1.87h-.748l3.317-2.211.326-.212,5.27-3.512.324-.229,5.253-3.5.343-.229,5.253-3.5.326-.227,5.253-3.5.341-.227,5.253-3.5.343-.227,5.253-3.514.341-.227,2.815-1.87c.032.146.064.277.1.423" transform="translate(-2.337 -58.409)" fill="#12263f"/>
      <path id="Trazado_873167" data-name="Trazado 873167" d="M60.812,91.107l-.051.032v.017l-.29.178-5.255,3.5-.341.227-5.238,3.514-.343.227-5.253,3.5-.339.227-5.253,3.5-.343.227-5.253,3.5-.049.049h-.748l.244-.163.326-.227,5.251-3.5.341-.227,5.255-3.5.341-.227,5.255-3.5.341-.227,5.236-3.514.341-.227,5.253-3.5.343-.227.131-.081c.017.114.017.227.032.326Z" transform="translate(2.751 -55.376)" fill="#12263f"/>
      <path id="Trazado_873168" data-name="Trazado 873168" d="M56.028,95.768v.017l-2.163,1.43-.341.227-5.253,3.5-.343.229-5.236,3.5-.343.229L40.072,106.4c-.244,0-.487.017-.731.017l2.781-1.854.341-.227,5.255-3.514.341-.227,5.253-3.5.341-.227L56.011,95.3a4.383,4.383,0,0,1,.017.472" transform="translate(7.825 -52.164)" fill="#12263f"/>
      <path id="Trazado_873169" data-name="Trazado 873169" d="M58.732,105.342c.017.244.032.472.049.7l-.343-.521-.227-.341-3.5-5.253-.227-.341-3.5-5.255-.227-.341-3.514-5.236-.21-.343-3.514-5.253-.21-.326L39.8,77.578l-.227-.341-3.5-5.253-.227-.343-.879-1.317c.212.049.407.1.585.146l.635.943.227.343,3.5,5.253.227.341L43.655,82.6l.212.326,3.512,5.253.212.341L51.1,93.762l.227.341,3.5,5.255.229.341,3.5,5.253.161.244.066.1-.049.032Z" transform="translate(4.782 -69.562)" fill="#12263f"/>
      <path id="Trazado_873170" data-name="Trazado 873170" d="M62.515,118.065c0,.244-.017.472-.017.7l-2.423-3.611-.212-.341-3.512-5.253-.227-.343-3.5-5.236-.227-.343-3.5-5.253-.229-.341-3.5-5.253-.227-.343L41.437,87.2l-.212-.324-3.5-5.255-.227-.341-3.514-5.253-.227-.341-3.5-5.255-.227-.324-.1-.163h.341l.1-.064.048.064.18.26,3.5,5.253.227.343,3.512,5.253.227.341,3.5,5.253.212.326,3.514,5.253.227.343,3.5,5.253.227.341,3.5,5.253.227.343,3.5,5.236.227.341,3.514,5.255.21.341Z" transform="translate(1.276 -69.875)" fill="#12263f"/>
      <path id="Trazado_873171" data-name="Trazado 873171" d="M61.433,123.585c-.163,0-.326.017-.489.017l-3.4-5.092-.212-.341-3.5-5.238-.227-.341L50.1,107.338,49.87,107l-3.5-5.255-.227-.341-3.5-5.253-.227-.341-3.5-5.255-.227-.324-3.5-5.255-.227-.341-3.514-5.253-.21-.326-3.514-5.27-.21-.324L25.537,70.5c.131-.032.277-.064.424-.1l1.9,2.83.212.324,3.512,5.27.212.326L35.312,84.4l.229.341L39.038,90l.227.326,3.5,5.253.227.343,3.5,5.253.227.341,3.5,5.253.227.343,3.514,5.253.227.341,3.5,5.238.21.341Z" transform="translate(-1.79 -69.508)" fill="#12263f"/>
      <path id="Trazado_873172" data-name="Trazado 873172" d="M56.076,122.738h-.489l-.976-1.464-.227-.326-3.5-5.253-.227-.341-3.5-5.253-.227-.343L43.422,104.5l-.21-.341L39.7,98.911l-.227-.341-3.5-5.255-.227-.324-3.5-5.255-.227-.341-3.5-5.253-.227-.326-3.5-5.268-.229-.326-2.83-4.245c.115-.066.229-.131.358-.2l2.815,4.213.21.341,3.514,5.253.227.326,3.5,5.253.227.341,3.5,5.253.227.343,3.5,5.253.227.326,3.5,5.253.229.341,3.5,5.253.227.343L51,115.126l.227.341,3.5,5.253.229.326Z" transform="translate(-4.438 -68.547)" fill="#12263f"/>
      <path id="Trazado_873173" data-name="Trazado 873173" d="M50.284,121.229H49.8L47.5,117.8l-.227-.341-3.5-5.253-.229-.341-3.5-5.255-.229-.341-3.5-5.253-.227-.326-3.512-5.268-.212-.326-3.5-5.253-.227-.343-3.514-5.253-.21-.326L21.414,78.65l-.21-.326-2.635-3.936c.1-.1.2-.2.292-.277L21.528,78.1l.212.341,3.512,5.253.229.341,3.5,5.238.227.341,3.5,5.255.227.341,3.5,5.253.227.341,3.5,5.238v.017l.227.324v.017l3.514,5.236.227.343,3.5,5.253Z" transform="translate(-6.645 -66.924)" fill="#12263f"/>
      <path id="Trazado_873174" data-name="Trazado 873174" d="M44.032,119.029a.169.169,0,0,1-.081.017h-.39l-.114-.163-3.5-5.253-.227-.343-3.514-5.253-.227-.341-3.5-5.253-.227-.326-3.5-5.27-.227-.326-3.5-5.253-.227-.341-3.5-5.253-.229-.326-3.5-5.27-.227-.324-1.3-1.953c.081-.129.148-.26.229-.39L17.7,79.523l.21.326,3.514,5.27.227.324,3.5,5.255.227.341,3.5,5.253.227.341,3.5,5.253.227.343,3.5,5.236.227.343,3.5,5.253.229.341,3.5,5.255L44,119Z" transform="translate(-8.398 -64.626)" fill="#12263f"/>
      <path id="Trazado_873175" data-name="Trazado 873175" d="M37.313,116.154h-.472l-1.2-1.805-.229-.341-3.5-5.255-.229-.341-3.512-5.238-.212-.341L24.448,97.58l-.227-.341-3.5-5.255-.229-.341L17,86.391l-.227-.326-2.554-3.838a4.866,4.866,0,0,1,.163-.5l2.732,4.115.229.341,3.5,5.238.227.341,3.5,5.255.227.341,3.5,5.253.227.341,3.5,5.255.227.341,3.5,5.253.227.341Z" transform="translate(-9.677 -61.621)" fill="#12263f"/>
      <path id="Trazado_873176" data-name="Trazado 873176" d="M30.2,112.635c-.163,0-.309.017-.472.017l-2.537-3.806-.229-.343-3.5-5.236-.227-.343-3.512-5.253-.212-.341L16,92.077l-.229-.343-2.813-4.228c.032-.178.064-.373.114-.568l3.042,4.569.227.341L19.856,97.1l.212.341,3.512,5.253.229.341,3.5,5.255.227.341Z" transform="translate(-10.554 -57.987)" fill="#12263f"/>
      <path id="Trazado_873177" data-name="Trazado 873177" d="M22.829,108.74h-.489l-.129-.2-.227-.341-3.5-5.253-.229-.343-3.5-5.253-.229-.341-2.455-3.677c.032-.2.064-.39.081-.6l2.716,4.048.227.343,3.5,5.253.227.341,3.5,5.253.227.343Z" transform="translate(-11.168 -53.946)" fill="#12263f"/>
      <g id="Grupo_1099262" data-name="Grupo 1099262" transform="translate(0 38.61)" opacity="0.27">
        <g id="Grupo_1099261" data-name="Grupo 1099261">
          <g id="Grupo_1099260" data-name="Grupo 1099260" clip-path="url(#clip-path)">
            <path id="Trazado_873178" data-name="Trazado 873178" d="M75.169,106.619c-.032.635-.049,1.074-.064,1.284l-63.545.538a101.759,101.759,0,0,1,1.01-15.81Z" transform="translate(-11.542 -92.631)" fill="#12263f"/>
          </g>
        </g>
      </g>
    </g>
    <path id="Trazado_873179" data-name="Trazado 873179" d="M76.043,103.6v72.115a7.6,7.6,0,0,1-7.611,7.611H18.6a7.61,7.61,0,0,1-7.611-7.611V103.6Z" transform="translate(7.332 -41.028)" fill="#a284a3"/>
    <g id="Grupo_1099265" data-name="Grupo 1099265" transform="translate(18.318 62.569)">
      <g id="Grupo_1099264" data-name="Grupo 1099264">
        <g id="Grupo_1099263" data-name="Grupo 1099263" clip-path="url(#clip-path-2)">
          <path id="Trazado_873180" data-name="Trazado 873180" d="M76.043,103.6v72.115a7.6,7.6,0,0,1-7.611,7.611H18.6a7.61,7.61,0,0,1-7.611-7.611V103.6Z" transform="translate(-10.987 -103.597)" fill="#727997"/>
        </g>
      </g>
    </g>
    <g id="Grupo_1099268" data-name="Grupo 1099268" transform="translate(18.318 62.569)" opacity="0.27">
      <g id="Grupo_1099267" data-name="Grupo 1099267">
        <g id="Grupo_1099266" data-name="Grupo 1099266" clip-path="url(#clip-path-3)">
          <path id="Trazado_873181" data-name="Trazado 873181" d="M76.043,103.792v.748l-20.9,4.181-4.065.813-40.092,8.019V103.6h56.5Z" transform="translate(-10.986 -103.597)" fill="#12263f"/>
        </g>
      </g>
    </g>
    <path id="Trazado_873182" data-name="Trazado 873182" d="M81.743,106.971h-71.1a3,3,0,1,1,0-6h71.1a3,3,0,1,1,0,6" transform="translate(5.003 -42.857)" fill="#12263f"/>
    <rect id="Rectángulo_401292" data-name="Rectángulo 401292" width="65.057" height="0.813" transform="translate(18.318 67.693)" fill="#12263f"/>
    <path id="Trazado_873183" data-name="Trazado 873183" d="M38.838,136.217c0,5.333-2.464,9.654-5.5,9.654s-5.5-4.322-5.5-9.654,2.464-9.654,5.5-9.654,5.5,4.321,5.5,9.654" transform="translate(19.069 -25.027)" fill="#12263f"/>
    <rect id="Rectángulo_401293" data-name="Rectángulo 401293" width="2.906" height="42.564" transform="translate(50.645 146.798)" fill="#12263f"/>
    <path id="Trazado_873184" data-name="Trazado 873184" d="M63.083,183.42H29.241a22.225,22.225,0,0,1-22.2-22.2V125.508H8.668V161.22a20.6,20.6,0,0,0,20.573,20.573H63.083A20.6,20.6,0,0,0,83.656,161.22V125.094h1.627V161.22a22.225,22.225,0,0,1-22.2,22.2" transform="translate(4.586 -26.051)" fill="#12263f"/>
    <rect id="Rectángulo_401294" data-name="Rectángulo 401294" width="35.667" height="3.466" transform="translate(33.649 187.866)" fill="#12263f"/>
    <g id="Grupo_1099276" data-name="Grupo 1099276">
      <path id="Trazado_873185" data-name="Trazado 873185" d="M50.184,94.879,72.277,66.72l9.965,11.264Z" transform="translate(34.64 -66.72)" fill="#12263f"/>
      <path id="Trazado_873186" data-name="Trazado 873186" d="M50.648,88.782l34.8-8.344.813,15.016Z" transform="translate(34.964 -57.164)" fill="#12263f"/>
      <path id="Trazado_873187" data-name="Trazado 873187" d="M20.116,92.618,1.35,82.726q.942-5.625,2.291-11.1Z" transform="translate(0.618 -63.3)" fill="#12263f"/>
      <path id="Trazado_873188" data-name="Trazado 873188" d="M20.126,87.935,9.488,89.92.19,91.668c.119-2.257.305-4.5.543-6.736.051-.543.119-1.086.187-1.612Z" transform="translate(-0.19 -55.156)" fill="#12263f"/>
    </g>
  </g>
  <g id="Grupo_1099279" data-name="Grupo 1099279" transform="translate(6.044 145.091)">
    <g id="Grupo_1099278" data-name="Grupo 1099278" transform="translate(0)">
      <path id="Trazado_873133" data-name="Trazado 873133" d="M330.583,110.8,297.194,248.878l-.8,3.3L251.264,253.2l-.05-.017L69.517,257.3,18.111,237.123a1.938,1.938,0,0,1-.887-2.93,1.824,1.824,0,0,1,1.591-.82h57.4L110.558,110.8Z" transform="translate(-16.875 -110.389)" fill="#353a40"/>
      <path id="Trazado_873134" data-name="Trazado 873134" d="M48.694,256.609a.431.431,0,0,1-.112-.015.42.42,0,0,1-.291-.516L88.976,110.861a.419.419,0,0,1,.807.226L49.1,256.3a.419.419,0,0,1-.4.306" transform="translate(4.301 -110.555)" fill="#becce3"/>
    </g>
    <path id="Trazado_873135" data-name="Trazado 873135" d="M139.375,194.631a9.4,9.4,0,0,1-2.485-.33c-8.516-2.329-12.135-16.334-8.068-31.219,1.949-7.13,5.345-13.419,9.561-17.711,4.34-4.417,9.061-6.211,13.267-5.06s7.358,5.1,8.848,11.105c1.445,5.839,1.169,12.982-.78,20.112-3.679,13.461-12.406,23.1-20.343,23.1m9.73-52.983c-3.061,0-6.371,1.686-9.528,4.9-4.019,4.091-7.264,10.12-9.139,16.979-3.826,13.994-.732,27.076,6.894,29.161s16.944-7.6,20.77-21.6c1.875-6.859,2.148-13.7.77-19.266-1.338-5.4-4.059-8.908-7.664-9.893a7.917,7.917,0,0,0-2.1-.28" transform="translate(57.5 -90.715)" fill="#becce3"/>
    <path id="Trazado_873136" data-name="Trazado 873136" d="M297.194,199.176l-.8,3.3L251.264,203.5l-.05-.017L69.517,207.6,18.111,187.421a1.938,1.938,0,0,1-.887-2.93l52.968,20.442Z" transform="translate(-16.875 -60.688)" fill="#becce3"/>
  </g>
  <path id="Trazado_873151" data-name="Trazado 873151" d="M104.255,86.512l1.227.359a.3.3,0,0,1,0,.583l-1.2.371a6.393,6.393,0,0,0-4.148,4.009l-.556,1.6a.3.3,0,0,1-.58-.014l-.376-1.285a6.392,6.392,0,0,0-4.34-4.34l-1.2-.351a.3.3,0,0,1,0-.585l1.2-.35a6.394,6.394,0,0,0,4.34-4.34l.351-1.2a.3.3,0,0,1,.584,0l.351,1.2a6.392,6.392,0,0,0,4.34,4.34" transform="translate(134.606 57.603)" fill="#fff"/>
  <path id="Trazado_873152" data-name="Trazado 873152" d="M120.5,11.8l1.41.413a.349.349,0,0,1,0,.67l-1.376.426a7.347,7.347,0,0,0-4.766,4.606l-.639,1.842a.35.35,0,0,1-.666-.016l-.431-1.476a7.344,7.344,0,0,0-4.986-4.986l-1.38-.4a.35.35,0,0,1,0-.672l1.38-.4a7.346,7.346,0,0,0,4.986-4.987l.4-1.377a.349.349,0,0,1,.671,0l.4,1.377A7.345,7.345,0,0,0,120.5,11.8" transform="translate(-28.922 43.591)" fill="#fff"/>
  <path id="Trazado_873154" data-name="Trazado 873154" d="M172.12,195.123l1.2.35a.3.3,0,0,1,0,.567l-1.166.361a6.221,6.221,0,0,0-4.037,3.9l-.542,1.56a.3.3,0,0,1-.564-.013l-.366-1.25a6.219,6.219,0,0,0-4.223-4.223l-1.168-.342a.3.3,0,0,1,0-.569l1.168-.341a6.22,6.22,0,0,0,4.223-4.224l.342-1.167a.3.3,0,0,1,.568,0l.342,1.167a6.22,6.22,0,0,0,4.223,4.224" transform="translate(82.151 73.413)" fill="#fff"/>
  <path id="Trazado_873156" data-name="Trazado 873156" d="M18.758,197.336l1.2.35a.3.3,0,0,1,0,.567l-1.166.361a6.221,6.221,0,0,0-4.037,3.9l-.542,1.561a.3.3,0,0,1-.564-.014l-.366-1.25a6.219,6.219,0,0,0-4.223-4.223l-1.168-.342a.3.3,0,0,1,0-.569l1.168-.341a6.22,6.22,0,0,0,4.223-4.223l.342-1.168a.3.3,0,0,1,.568,0l.342,1.168a6.22,6.22,0,0,0,4.223,4.223" transform="translate(16.771 68.774)" fill="#fff"/>
</svg>
