<svg xmlns="http://www.w3.org/2000/svg" width="105" height="105" viewBox="0 0 105 105">
  <g id="Grupo_1106140" data-name="Grupo 1106140" transform="translate(-661.288 -1097)">
    <circle id="Elipse_11674" data-name="Elipse 11674" cx="52.5" cy="52.5" r="52.5" transform="translate(661.288 1097)" fill="#fdc2bd"/>
    <g id="mineral_1_" data-name="mineral (1)" transform="translate(680.288 1116)">
      <path id="Trazado_896103" data-name="Trazado 896103" d="M185.5,485.825a25.2,25.2,0,0,1-10.021-2.056.981.981,0,1,1,.776-1.8,23.483,23.483,0,0,0,18.494,0,.981.981,0,0,1,.776,1.8A25.2,25.2,0,0,1,185.5,485.825Z" transform="translate(-151.996 -418.825)"/>
      <path id="Trazado_896104" data-name="Trazado 896104" d="M309.683,91.254a1.2,1.2,0,0,1-1.137-.817l-1.853-6.28-1.122,6.215a.981.981,0,0,1-1.932-.349l1.694-9.388a1.2,1.2,0,0,1,2.316-.166l2.02,6.845,1.938-6.8a1.2,1.2,0,0,1,2.326.1l1.8,9.4a.981.981,0,0,1-1.928.368l-1.191-6.231-1.779,6.241a1.208,1.208,0,0,1-1.145.863Z" transform="translate(-263.892 -69.228)"/>
      <path id="Línea_966" data-name="Línea 966" d="M-6.519,5.7A.981.981,0,0,1-7.5,4.716V-6.519A.981.981,0,0,1-6.519-7.5a.981.981,0,0,1,.981.981V4.716A.981.981,0,0,1-6.519,5.7Z" transform="translate(54.073 51.677)"/>
      <path id="Trazado_896105" data-name="Trazado 896105" d="M365.712,351.728a.978.978,0,0,1-.681-.275l-6.083-5.868a.981.981,0,0,1,.017-1.429l5.684-5.225a.981.981,0,1,1,1.328,1.445l-4.917,4.519,5.333,5.145a.981.981,0,0,1-.682,1.688Z" transform="translate(-311.716 -294.354)"/>
      <g id="Grupo_1106136" data-name="Grupo 1106136" transform="translate(6.349 44.38)">
        <path id="Trazado_896106" data-name="Trazado 896106" d="M54.484,351.082a5.969,5.969,0,1,1,3.338-10.918.981.981,0,0,1-1.1,1.626,4.006,4.006,0,1,0-2.239,7.329,2.946,2.946,0,0,0,2.39-1.057.981.981,0,1,1,1.5,1.261,4.905,4.905,0,0,1-3.894,1.759Z" transform="translate(-48.515 -339.144)"/>
      </g>
      <g id="Grupo_1106137" data-name="Grupo 1106137" transform="translate(18.178 48.457)">
        <path id="Elipse_11709" data-name="Elipse 11709" d="M-3.539-7.5A3.965,3.965,0,0,1,.422-3.539,3.965,3.965,0,0,1-3.539.422,3.965,3.965,0,0,1-7.5-3.539,3.965,3.965,0,0,1-3.539-7.5Zm0,5.959a2,2,0,0,0,2-2,2,2,0,0,0-2-2,2,2,0,0,0-2,2A2,2,0,0,0-3.539-1.541Z" transform="translate(7.5 7.896)"/>
        <path id="Línea_967" data-name="Línea 967" d="M-6.519,1.214A.981.981,0,0,1-7.5.233V-6.519A.981.981,0,0,1-6.519-7.5a.981.981,0,0,1,.981.981V.233A.981.981,0,0,1-6.519,1.214Z" transform="translate(13.459 7.5)"/>
      </g>
      <g id="Grupo_1106138" data-name="Grupo 1106138" transform="translate(54.036 12.429)">
        <path id="Trazado_896107" data-name="Trazado 896107" d="M416.426,106.87a4.628,4.628,0,0,1-3.054-.976.982.982,0,0,1-.18-.177l0,0,0,0,0,0,0,0a1.075,1.075,0,0,1-.23-.413.982.982,0,0,1,.519-1.123,1.064,1.064,0,0,1,1.17.238h0a2.7,2.7,0,0,0,1.963.493c1.506-.062,1.483-1.744,1.475-1.935V95.961a.981.981,0,1,1,1.963,0v6.967a3.592,3.592,0,0,1-3.356,3.936C416.605,106.868,416.515,106.87,416.426,106.87Z" transform="translate(-412.933 -94.98)"/>
      </g>
      <path id="Elipse_11710" data-name="Elipse 11710" d="M-3.539-7.5A3.965,3.965,0,0,1,.422-3.539,3.965,3.965,0,0,1-3.539.422,3.965,3.965,0,0,1-7.5-3.539,3.965,3.965,0,0,1-3.539-7.5Zm0,5.959a2,2,0,0,0,2-2,2,2,0,0,0-2-2,2,2,0,0,0-2,2A2,2,0,0,0-3.539-1.541Z" transform="translate(60.735 19.929)"/>
      <path id="Trazado_896108" data-name="Trazado 896108" d="M16.225,296.481a16.224,16.224,0,1,1,8.48-30.059.981.981,0,0,1-1.027,1.673,14.273,14.273,0,1,0,3.345,2.844.981.981,0,1,1,1.485-1.283,16.225,16.225,0,0,1-12.283,26.825Z" transform="translate(0 -229.481)"/>
      <path id="Elipse_11711" data-name="Elipse 11711" d="M8.724-7.5A16.224,16.224,0,1,1-7.5,8.724,16.243,16.243,0,0,1,8.724-7.5Zm0,30.486A14.262,14.262,0,1,0-5.537,8.724,14.278,14.278,0,0,0,8.724,22.986Z" transform="translate(42.051 42.051)"/>
      <path id="Trazado_896109" data-name="Trazado 896109" d="M280.256,32.449a16.162,16.162,0,0,1-8.85-2.624.981.981,0,0,1,1.072-1.644,14.269,14.269,0,1,0-3.227-2.885.981.981,0,0,1-1.514,1.249,16.225,16.225,0,1,1,12.519,5.9Z" transform="translate(-229.481 0)"/>
      <path id="Trazado_896110" data-name="Trazado 896110" d="M16.224,32.449A16.243,16.243,0,0,1,0,16.224,16.077,16.077,0,0,1,3.322,6.386a.981.981,0,1,1,1.56,1.191,14.13,14.13,0,0,0-2.919,8.647A14.258,14.258,0,1,0,8.024,4.555a.981.981,0,1,1-1.13-1.6,16.225,16.225,0,1,1,9.331,29.5Z" transform="translate(0 0)"/>
      <path id="Elipse_11712" data-name="Elipse 11712" d="M-3.539-7.5A3.965,3.965,0,0,1,.422-3.539,3.965,3.965,0,0,1-3.539.422,3.965,3.965,0,0,1-7.5-3.539,3.965,3.965,0,0,1-3.539-7.5Zm0,5.959a2,2,0,0,0,2-2,2,2,0,0,0-2-2,2,2,0,0,0-2,2A2,2,0,0,0-3.539-1.541Z" transform="translate(25.861 22.293)"/>
      <path id="Línea_968" data-name="Línea 968" d="M-6.519,1.214A.981.981,0,0,1-7.5.233V-6.519A.981.981,0,0,1-6.519-7.5a.981.981,0,0,1,.981.981V.233A.981.981,0,0,1-6.519,1.214Z" transform="translate(31.82 21.897)"/>
      <g id="Grupo_1106139" data-name="Grupo 1106139" transform="translate(6.166 9.337)">
        <path id="Trazado_896111" data-name="Trazado 896111" d="M48.1,84.919a.981.981,0,0,1-.981-.981V72.358a.981.981,0,0,1,1.789-.558l6.315,9.145-.083-8.6a.981.981,0,0,1,1.963-.019l.108,11.211a1.2,1.2,0,0,1-.8,1.2,1.143,1.143,0,0,1-1.286-.486l-6.041-8.747v8.431A.981.981,0,0,1,48.1,84.919Z" transform="translate(-47.122 -71.355)"/>
      </g>
      <path id="Trazado_896112" data-name="Trazado 896112" d="M67.548,236.292a.982.982,0,0,1-.959-1.2,44.6,44.6,0,0,1,1.955-6.262.981.981,0,0,1,1.83.709,42.651,42.651,0,0,0-1.87,5.983A.982.982,0,0,1,67.548,236.292Z" transform="translate(-57.855 -198.343)"/>
      <path id="Trazado_896113" data-name="Trazado 896113" d="M201.121,6.491a.981.981,0,0,1-.721-1.647C203.369,1.63,205.74,0,207.45,0s4.068,1.621,7.024,4.817a.981.981,0,1,1-1.441,1.333c-3.593-3.885-5.182-4.187-5.583-4.187s-2,.3-5.607,4.213A.979.979,0,0,1,201.121,6.491Z" transform="translate(-173.95 0)"/>
      <path id="Trazado_896114" data-name="Trazado 896114" d="M418.693,236.252a.982.982,0,0,1-.957-.767,42.667,42.667,0,0,0-1.871-5.982.981.981,0,1,1,1.83-.709,44.631,44.631,0,0,1,1.956,6.261.982.982,0,0,1-.959,1.2Z" transform="translate(-361.388 -198.31)"/>
    </g>
  </g>
</svg>
