<svg xmlns="http://www.w3.org/2000/svg" width="86" height="86" viewBox="0 0 86 86">
  <g id="Grupo_1106292" data-name="Grupo 1106292" transform="translate(-296.051 -2746)">
    <circle id="Elipse_11679" data-name="Elipse 11679" cx="43" cy="43" r="43" transform="translate(296.051 2746)" fill="#f7f0d8"/>
    <g id="tierra-para-macetas" transform="translate(316.951 2760)">
      <path id="Trazado_895873" data-name="Trazado 895873" d="M41.7,61.049A3.9,3.9,0,0,0,45.428,58.3a72.015,72.015,0,0,0,1.181-37.423L44.6,12.378l1.666-3.124A1.425,1.425,0,0,0,45.174,7.1a7.884,7.884,0,0,0-4.166,1.8c-3.055,2.246-6.619,2.106-10.276,2.106H25.8c-3.657,0-7.268.208-10.3-2.106a8.41,8.41,0,0,0-5.161-1.782A1.434,1.434,0,0,0,9.255,9.277L10.921,12.4,8.908,20.895a71.778,71.778,0,0,0,1.18,37.423,3.9,3.9,0,0,0,3.726,2.755H41.7Zm0,0" transform="translate(-5.288 -5.458)" fill="#fe8e46"/>
      <path id="Trazado_895874" data-name="Trazado 895874" d="M20.025,58.217a72.025,72.025,0,0,1-1.181-37.423L20.857,12.3l-.879-1.666A9.728,9.728,0,0,1,15.6,8.782,8.408,8.408,0,0,0,10.443,7,1.434,1.434,0,0,0,9.355,9.153l1.666,3.124L9.008,20.77a71.787,71.787,0,0,0,1.181,37.423,3.9,3.9,0,0,0,3.726,2.755H23.75A3.875,3.875,0,0,1,20.025,58.217Zm0,0" transform="translate(-5.366 -5.38)" fill="#e56823"/>
      <path id="Trazado_895875" data-name="Trazado 895875" d="M36.414,57.211H8.549A5.505,5.505,0,0,1,3.273,53.3a73.562,73.562,0,0,1-1.2-38.28L3.943,7.128,2.555,4.537a3.194,3.194,0,0,1,.07-3.124A2.837,2.837,0,0,1,5.054,0,10.133,10.133,0,0,1,11.21,2.129c2.361,1.805,5.185,1.805,8.471,1.782h6.434c3.332,0,6.225.024,8.655-1.782A8.931,8.931,0,0,1,39.886,0a2.837,2.837,0,0,1,2.43,1.412,3.14,3.14,0,0,1,.07,3.124L41,7.128l1.874,7.891a73.082,73.082,0,0,1-1.2,38.28A5.437,5.437,0,0,1,36.414,57.211ZM5.54,3.264,7.091,6.157A1.614,1.614,0,0,1,7.23,7.29L5.216,15.784A70.014,70.014,0,0,0,6.35,52.351a2.237,2.237,0,0,0,2.176,1.6H36.391a2.286,2.286,0,0,0,2.176-1.6A70.021,70.021,0,0,0,39.7,15.784L37.687,7.29a1.6,1.6,0,0,1,.138-1.134L39.353,3.31a7.573,7.573,0,0,0-2.685,1.435c-3.309,2.43-7.012,2.43-10.6,2.407H19.658c-3.54.024-7.221.024-10.461-2.453A6.711,6.711,0,0,0,5.54,3.264Zm0,0" transform="translate(0)"/>
      <path id="Trazado_895876" data-name="Trazado 895876" d="M49.669,111.072a7.208,7.208,0,0,1,10.415,6.873,7.209,7.209,0,0,1-10.415-6.873Zm0,0" transform="translate(-38.088 -84.781)" fill="#7dac51"/>
      <path id="Trazado_895877" data-name="Trazado 895877" d="M107.994,101.49a9.165,9.165,0,0,0-13.238,8.748,9.165,9.165,0,0,0,13.238-8.748Zm0,0" transform="translate(-72.737 -77.259)" fill="#7dac51"/>
      <g id="Grupo_1106067" data-name="Grupo 1106067" transform="translate(9.946 21.645)">
        <path id="Trazado_895878" data-name="Trazado 895878" d="M93.46,107.43a10.732,10.732,0,0,1-4.814-1.135,1.685,1.685,0,0,1-.9-1.365,10.774,10.774,0,0,1,15.575-10.276,1.687,1.687,0,0,1,.9,1.366A10.767,10.767,0,0,1,93.46,107.43Zm-2.476-3.657a7.526,7.526,0,0,0,9.974-6.6,7.524,7.524,0,0,0-9.974,6.6Zm0,0" transform="translate(-77.291 -93.526)"/>
        <path id="Trazado_895879" data-name="Trazado 895879" d="M51.475,114.926a8.733,8.733,0,0,1-4.86-1.458,8.872,8.872,0,0,1-3.958-7.892,1.623,1.623,0,0,1,.9-1.365,8.843,8.843,0,0,1,12.776,8.424,1.625,1.625,0,0,1-.9,1.366A8.939,8.939,0,0,1,51.475,114.926Zm-5.554-8.17a5.535,5.535,0,0,0,2.476,4,5.623,5.623,0,0,0,4.651.694,5.533,5.533,0,0,0-2.476-4A5.691,5.691,0,0,0,45.92,106.756Zm0,0" transform="translate(-42.642 -101.023)"/>
        <path id="Trazado_895880" data-name="Trazado 895880" d="M89.327,148.345a1.61,1.61,0,0,1-1.62-1.62v-7.406a1.62,1.62,0,1,1,3.24,0v7.406A1.625,1.625,0,0,1,89.327,148.345Zm0,0" transform="translate(-77.277 -127.476)"/>
        <path id="Trazado_895881" data-name="Trazado 895881" d="M80.386,172.939H72.726a1.62,1.62,0,0,1,0-3.24h7.661a1.62,1.62,0,0,1,0,3.24Zm0,0" transform="translate(-64.518 -152.07)"/>
      </g>
      <path id="Trazado_895882" data-name="Trazado 895882" d="M145.456,71.776c-.254-1.319-.579-2.685-.948-4.074l2.245-.6c.371,1.435.718,2.846.972,4.212Zm0,0" transform="translate(-110.987 -51.572)" fill="#fff"/>
      <path id="Trazado_895883" data-name="Trazado 895883" d="M136.8,42.583a37.55,37.55,0,0,0-1.3-3.726L137.66,38c.023.07.625,1.55,1.342,3.911Zm0,0" transform="translate(-104.07 -29.205)" fill="#fff"/>
    </g>
  </g>
</svg>
