<svg xmlns="http://www.w3.org/2000/svg" width="86" height="86" viewBox="0 0 86 86">
  <g id="Grupo_1106291" data-name="Grupo 1106291" transform="translate(-611.051 -2747)">
    <circle id="Elipse_11680" data-name="Elipse 11680" cx="43" cy="43" r="43" transform="translate(611.051 2747)" fill="#f7f0d8"/>
    <g id="lombriz" transform="translate(623.051 2740.999)">
      <g id="Grupo_1106256" data-name="Grupo 1106256" transform="translate(29.334 20.789)">
        <g id="Grupo_1106251" data-name="Grupo 1106251">
          <g id="Grupo_1106248" data-name="Grupo 1106248" transform="translate(0)">
            <path id="Trazado_896960" data-name="Trazado 896960" d="M239.872,26.032a3.31,3.31,0,0,0-2.847,3.542c.635,7.759-1.276,14.922-7.969,20.013-5.985,4.552-7.857,10.041-3.882,16.649a17.929,17.929,0,0,1,2.155,5.533,3.313,3.313,0,0,0,4.891,2.179,3.278,3.278,0,0,0,1.585-3.525,24.06,24.06,0,0,0-2.889-7.394c-2.394-3.981-1.172-5.728,2.28-8.354,5.379-4.091,8.977-9.007,10.171-15.745a37.186,37.186,0,0,0,.3-9.932A3.329,3.329,0,0,0,239.872,26.032Z" transform="translate(-223.074 -25.999)" fill="#ffe0b2"/>
          </g>
          <g id="Grupo_1106249" data-name="Grupo 1106249" transform="translate(0 0)">
            <path id="Trazado_896961" data-name="Trazado 896961" d="M229.432,72.559a17.922,17.922,0,0,0-2.155-5.533c-3.975-6.608-2.1-12.1,3.882-16.649,6.694-5.091,8.6-12.254,7.969-20.013a3.31,3.31,0,0,1,2.847-3.542,3.388,3.388,0,0,1,.528-.033,3.346,3.346,0,0,0-2.632-.756,3.31,3.31,0,0,0-2.847,3.542c.635,7.759-1.276,14.922-7.969,20.013-5.985,4.552-7.857,10.041-3.882,16.649a17.929,17.929,0,0,1,2.155,5.533,3.313,3.313,0,0,0,3.2,2.621A3.276,3.276,0,0,1,229.432,72.559Z" transform="translate(-223.073 -25.999)" fill="#ffc06e"/>
          </g>
          <g id="Grupo_1106250" data-name="Grupo 1106250" transform="translate(16.167 2.805)">
            <ellipse id="Elipse_11725" data-name="Elipse 11725" cx="0.991" cy="1.126" rx="0.991" ry="1.126" fill="#333"/>
          </g>
        </g>
        <g id="Grupo_1106255" data-name="Grupo 1106255" transform="translate(8.799 19.678)">
          <g id="Grupo_1106252" data-name="Grupo 1106252">
            <path id="Trazado_896962" data-name="Trazado 896962" d="M293.361,198.9c-.194-.071-.516-.19-.9-.336a3.736,3.736,0,1,1,2.643-6.988c2.037.782,4.355,1.456,5.2.846a9.8,9.8,0,0,0,.791-3,34.447,34.447,0,0,1,4.359-11.954,3.866,3.866,0,0,1,5.775-.928,3.792,3.792,0,0,1,.816,4.9,26.809,26.809,0,0,0-3.377,9.385C307.162,199.168,301.173,201.746,293.361,198.9Z" transform="translate(-289.982 -175.641)" fill="#ffe0b2"/>
          </g>
          <g id="Grupo_1106253" data-name="Grupo 1106253" transform="translate(9.745 0)">
            <path id="Trazado_896963" data-name="Trazado 896963" d="M369.812,177.477a34.451,34.451,0,0,0-4.359,11.954,9.809,9.809,0,0,1-.791,3,1.3,1.3,0,0,1-.574.208c1.22.32,2.291.428,2.81.055a9.8,9.8,0,0,0,.791-3,34.451,34.451,0,0,1,4.359-11.954,3.817,3.817,0,0,1,2.6-1.772A3.86,3.86,0,0,0,369.812,177.477Z" transform="translate(-364.088 -175.645)" fill="#ffc06e"/>
          </g>
          <g id="Grupo_1106254" data-name="Grupo 1106254" transform="translate(17.122 3.23)">
            <ellipse id="Elipse_11726" data-name="Elipse 11726" cx="1.052" cy="1.184" rx="1.052" ry="1.184" fill="#333"/>
          </g>
        </g>
      </g>
      <g id="Grupo_1106272" data-name="Grupo 1106272" transform="translate(0.789 21.869)">
        <g id="Grupo_1106261" data-name="Grupo 1106261" transform="translate(7.002)">
          <g id="Grupo_1106257" data-name="Grupo 1106257">
            <path id="Trazado_896964" data-name="Trazado 896964" d="M73.379,43.281c2.128-1.262,3.225-3.26,2.458-4.537s-3.114-1.362-5.315-.221c-.073-2.4-1.324-4.315-2.857-4.315s-2.784,1.913-2.857,4.316c-2.2-1.141-4.548-1.055-5.315.222s.33,3.275,2.458,4.537c-2.128,1.262-3.225,3.26-2.458,4.537s3.114,1.362,5.315.221c.073,2.4,1.324,4.315,2.857,4.315s2.784-1.913,2.857-4.316c2.2,1.141,4.548,1.055,5.315-.222s-.33-3.275-2.458-4.537Z" transform="translate(-59.249 -34.208)" fill="#fc83a6"/>
          </g>
          <g id="Grupo_1106258" data-name="Grupo 1106258" transform="translate(0 3.516)">
            <path id="Trazado_896965" data-name="Trazado 896965" d="M66.746,66.5a18.169,18.169,0,0,1-1.934-4.8c0,.016,0,.031,0,.047-2.2-1.14-4.548-1.055-5.315.222s.33,3.275,2.458,4.537c-2.128,1.262-3.225,3.26-2.458,4.537s3.114,1.362,5.315.221c.073,2.4,1.324,4.315,2.857,4.315s2.784-1.913,2.857-4.315c.179.093.358.176.538.253A18.027,18.027,0,0,1,66.746,66.5Z" transform="translate(-59.25 -60.947)" fill="#ff4d88"/>
          </g>
          <g id="Grupo_1106259" data-name="Grupo 1106259" transform="translate(0 3.517)">
            <path id="Trazado_896966" data-name="Trazado 896966" d="M63.592,64.473a13.4,13.4,0,0,1,.092-3.2c-1.827-.6-3.553-.363-4.189.7-.767,1.277.33,3.275,2.458,4.537-2.128,1.262-3.225,3.26-2.458,4.537s3.114,1.362,5.315.221c.073,2.4,1.324,4.315,2.857,4.315a2.3,2.3,0,0,0,1.773-.977A14.84,14.84,0,0,1,63.592,64.473Z" transform="translate(-59.25 -60.952)" fill="#f2307a"/>
          </g>
          <g id="Grupo_1106260" data-name="Grupo 1106260" transform="translate(6.234 6.92)">
            <ellipse id="Elipse_11727" data-name="Elipse 11727" cx="2.182" cy="2.153" rx="2.182" ry="2.153" fill="#fff"/>
          </g>
        </g>
        <g id="Grupo_1106271" data-name="Grupo 1106271" transform="translate(0 20.884)">
          <g id="Grupo_1106264" data-name="Grupo 1106264" transform="translate(12.385)">
            <g id="Grupo_1106262" data-name="Grupo 1106262" transform="translate(0 0)">
              <path id="Trazado_896967" data-name="Trazado 896967" d="M107.434,195.223c2.234-1.611,5.431-2.706,5.994-1.963.51.673-1.447,2.457-3.047,5.389-1.956,3.586-3.765,8.5-3.813,11.269l-6.388-1.12C100.471,205.7,102.854,198.525,107.434,195.223Z" transform="translate(-100.18 -193.023)" fill="#a2d962"/>
            </g>
            <g id="Grupo_1106263" data-name="Grupo 1106263" transform="translate(0)">
              <path id="Trazado_896968" data-name="Trazado 896968" d="M109.012,196.8a14.058,14.058,0,0,1,3.851-1.937c.52-.765.8-1.3.565-1.6-.563-.743-3.76.352-5.994,1.963-4.579,3.3-6.963,10.475-7.254,13.576l1.772.31C102.648,205.623,104.977,199.71,109.012,196.8Z" transform="translate(-100.18 -193.022)" fill="#77bc4d"/>
            </g>
          </g>
          <g id="Grupo_1106267" data-name="Grupo 1106267" transform="translate(0 7.957)">
            <g id="Grupo_1106265" data-name="Grupo 1106265" transform="translate(0)">
              <path id="Trazado_896969" data-name="Trazado 896969" d="M12.325,254.052c-2.653-.754-6.034-.7-6.308.193-.248.806,2.2,1.817,4.718,4.029a21.482,21.482,0,0,1,5.772,8.5l5.617-3.224C20.785,260.74,17.765,255.6,12.325,254.052Z" transform="translate(-6 -253.528)" fill="#a2d962"/>
            </g>
            <g id="Grupo_1106266" data-name="Grupo 1106266" transform="translate(0 0)">
              <path id="Trazado_896970" data-name="Trazado 896970" d="M6.879,255.4a13.881,13.881,0,0,1,4.526.5c4.834,1.374,7.756,5.587,9.287,8.483l1.432-.822c-1.34-2.815-4.36-7.956-9.8-9.5-2.653-.754-6.034-.7-6.308.193-.1.328.246.69.861,1.153Z" transform="translate(-6 -253.529)" fill="#77bc4d"/>
            </g>
          </g>
          <g id="Grupo_1106270" data-name="Grupo 1106270" transform="translate(5.81 1.315)">
            <g id="Grupo_1106268" data-name="Grupo 1106268" transform="translate(0 0)">
              <path id="Trazado_896971" data-name="Trazado 896971" d="M56.256,205.223c-2.234-1.611-5.431-2.706-5.994-1.963-.51.673,1.447,2.457,3.047,5.389,1.956,3.586,3.765,8.5,3.813,11.269l6.388-1.12C63.22,215.7,60.836,208.525,56.256,205.223Z" transform="translate(-50.18 -203.023)" fill="#77bc4d"/>
            </g>
            <g id="Grupo_1106269" data-name="Grupo 1106269" transform="translate(0)">
              <path id="Trazado_896972" data-name="Trazado 896972" d="M54.679,206.669c4.084,2.945,6.421,8.968,7.084,12.436l1.747-.306c-.291-3.1-2.674-10.274-7.254-13.576-2.234-1.611-5.431-2.706-5.994-1.963-.214.283.008.763.455,1.441A13.958,13.958,0,0,1,54.679,206.669Z" transform="translate(-50.181 -203.022)" fill="#479838"/>
            </g>
          </g>
        </g>
      </g>
      <g id="Grupo_1106282" data-name="Grupo 1106282" transform="translate(2.63 49.432)">
        <g id="Grupo_1106276" data-name="Grupo 1106276">
          <g id="Grupo_1106273" data-name="Grupo 1106273">
            <path id="Trazado_896973" data-name="Trazado 896973" d="M68.847,251.451a7.241,7.241,0,0,0-3.241.763,7.424,7.424,0,0,0-6.719-4.366,7.248,7.248,0,0,0-3.741,1.039,7.371,7.371,0,0,0-14.009,0,7.248,7.248,0,0,0-3.741-1.039,7.424,7.424,0,0,0-6.719,4.366,7.241,7.241,0,0,0-3.241-.763A7.539,7.539,0,0,0,20,259.091v5.26H76.282v-5.26A7.539,7.539,0,0,0,68.847,251.451Z" transform="translate(-20 -243.812)" fill="#df9768"/>
          </g>
          <g id="Grupo_1106274" data-name="Grupo 1106274" transform="translate(0 4.036)">
            <path id="Trazado_896974" data-name="Trazado 896974" d="M38.111,281.279a14.757,14.757,0,0,1-.423-6.768c-.1,0-.195-.006-.293-.006a7.424,7.424,0,0,0-6.719,4.366,7.242,7.242,0,0,0-3.241-.763A7.539,7.539,0,0,0,20,285.747v5.26H47.069C42.655,288.777,39.378,285.277,38.111,281.279Z" transform="translate(-20 -274.504)" fill="#d1743f"/>
          </g>
          <g id="Grupo_1106275" data-name="Grupo 1106275" transform="translate(0 7.639)">
            <path id="Trazado_896975" data-name="Trazado 896975" d="M28.753,302.027a7.272,7.272,0,0,0-1.318-.121A7.539,7.539,0,0,0,20,309.545v5.26h2.63v-5.26A7.585,7.585,0,0,1,28.753,302.027Z" transform="translate(-20 -301.906)" fill="#bf5d2c"/>
          </g>
        </g>
        <g id="Grupo_1106277" data-name="Grupo 1106277" transform="translate(23.15 5.336)">
          <path id="Trazado_896976" data-name="Trazado 896976" d="M205.155,290.131a.789.789,0,0,1-.789-.789,3.371,3.371,0,1,0-6.742,0,.789.789,0,0,1-1.578,0,4.949,4.949,0,1,1,9.9,0A.789.789,0,0,1,205.155,290.131Z" transform="translate(-196.046 -284.393)"/>
        </g>
        <g id="Grupo_1106278" data-name="Grupo 1106278" transform="translate(47.076 11.191)">
          <path id="Trazado_896977" data-name="Trazado 896977" d="M382.939,334.649a.789.789,0,0,1-.789-.789,3.375,3.375,0,0,0-3.371-3.371.789.789,0,0,1,0-1.578,4.955,4.955,0,0,1,4.949,4.949A.789.789,0,0,1,382.939,334.649Z" transform="translate(-377.99 -328.911)"/>
        </g>
        <g id="Grupo_1106279" data-name="Grupo 1106279" transform="translate(4.601 11.191)">
          <path id="Trazado_896978" data-name="Trazado 896978" d="M55.78,334.649a.789.789,0,0,1-.789-.789,4.955,4.955,0,0,1,4.949-4.949.789.789,0,0,1,0,1.578,3.375,3.375,0,0,0-3.371,3.371A.789.789,0,0,1,55.78,334.649Z" transform="translate(-54.991 -328.911)"/>
        </g>
        <g id="Grupo_1106280" data-name="Grupo 1106280" transform="translate(14.716 11.937)">
          <path id="Trazado_896979" data-name="Trazado 896979" d="M132.789,339.495a.79.79,0,0,1-.762-.585,3.546,3.546,0,0,1,2.478-4.293.789.789,0,0,1,.408,1.524,1.955,1.955,0,0,0-1.363,2.36A.8.8,0,0,1,132.789,339.495Z" transform="translate(-131.912 -334.59)"/>
        </g>
        <g id="Grupo_1106281" data-name="Grupo 1106281" transform="translate(39.078 11.937)">
          <path id="Trazado_896980" data-name="Trazado 896980" d="M319.882,339.494a.8.8,0,0,1-.763-.994,1.955,1.955,0,0,0-1.362-2.36.789.789,0,0,1,.408-1.524,3.546,3.546,0,0,1,2.478,4.293A.79.79,0,0,1,319.882,339.494Z" transform="translate(-317.172 -334.59)"/>
        </g>
      </g>
      <g id="Grupo_1106289" data-name="Grupo 1106289" transform="translate(22.954 74.705)">
        <g id="Grupo_1106285" data-name="Grupo 1106285">
          <g id="Grupo_1106283" data-name="Grupo 1106283">
            <path id="Trazado_896981" data-name="Trazado 896981" d="M184.488,437.578h-9.147a.789.789,0,0,1,0-1.578h9.147a.789.789,0,0,1,0,1.578Z" transform="translate(-174.552 -436)"/>
          </g>
          <g id="Grupo_1106284" data-name="Grupo 1106284" transform="translate(12.829)">
            <path id="Trazado_896982" data-name="Trazado 896982" d="M274.13,437.578H272.9a.789.789,0,0,1,0-1.578h1.227a.789.789,0,0,1,0,1.578Z" transform="translate(-272.114 -436)"/>
          </g>
        </g>
        <g id="Grupo_1106288" data-name="Grupo 1106288" transform="translate(19.725)">
          <g id="Grupo_1106286" data-name="Grupo 1106286">
            <path id="Trazado_896983" data-name="Trazado 896983" d="M334.488,437.578h-9.147a.789.789,0,0,1,0-1.578h9.147a.789.789,0,0,1,0,1.578Z" transform="translate(-324.552 -436)"/>
          </g>
          <g id="Grupo_1106287" data-name="Grupo 1106287" transform="translate(12.829)">
            <path id="Trazado_896984" data-name="Trazado 896984" d="M424.13,437.578H422.9a.789.789,0,1,1,0-1.578h1.227a.789.789,0,0,1,0,1.578Z" transform="translate(-422.114 -436)"/>
          </g>
        </g>
      </g>
      <path id="Trazado_896985" data-name="Trazado 896985" d="M60.747,69.181H59.7V64.71a8.5,8.5,0,0,0-2.78-6.31,17.659,17.659,0,0,0,.671-2.6,25.952,25.952,0,0,1,3.273-9.112,4.56,4.56,0,0,0-.983-5.922,4.7,4.7,0,0,0-6.953,1.122,35.383,35.383,0,0,0-4.462,12.227c-.082.452-.235,1.3-.384,1.921a8.2,8.2,0,0,0-9.9-2.631,8.432,8.432,0,0,0-.651-1.139,13.91,13.91,0,0,1,2.408-2.173,26.51,26.51,0,0,0,9.282-11.857c1.754-4.557,1.94-9.7,1.491-14.522a4.16,4.16,0,0,0-4.686-3.673A4.106,4.106,0,0,0,42.5,24.428c.7,8.549-1.806,14.869-7.659,19.321A18.363,18.363,0,0,0,30.2,48.663,8.246,8.246,0,0,0,23.367,53.4a8.077,8.077,0,0,0-1.257-.451A34.02,34.02,0,0,1,25.978,45.8c1.037-1.461,1.723-2.427,1.073-3.284-.511-.674-1.573-.731-3.248-.173A14.26,14.26,0,0,0,17,47.261V40.686c1.351-.414,2.4-1.88,2.742-3.83,2.278.824,4.452.467,5.316-.971,1.063-1.771-.393-3.844-1.753-4.943,1.361-1.1,2.817-3.171,1.753-4.943-.863-1.438-3.037-1.795-5.315-.971-.4-2.315-1.809-3.948-3.53-3.948s-3.125,1.634-3.531,3.949C10.4,24.2,8.229,24.56,7.365,26c-1.063,1.771.393,3.844,1.753,4.943-1.36,1.1-2.817,3.171-1.753,4.943.863,1.439,3.038,1.8,5.315.971.341,1.95,1.391,3.415,2.742,3.83v7.05a14.023,14.023,0,0,0-6.116-4.081c-1.675-.558-2.737-.5-3.248.173-.65.858.036,1.823,1.073,3.284a31.275,31.275,0,0,1,2.617,4.332,13.755,13.755,0,0,0-6.695-1.521c-1.767.046-2.746.461-2.995,1.27-.316,1.027.66,1.7,2.136,2.721a24.856,24.856,0,0,1,4.053,3.336,8.464,8.464,0,0,0-4.4,7.46v4.471H.8a.789.789,0,0,0,0,1.578H60.747a.789.789,0,0,0,0-1.578ZM54.27,42.711a3.112,3.112,0,0,1,4.6-.734,2.992,2.992,0,0,1,.649,3.885,24.03,24.03,0,0,0-2.157,4.57,25.265,25.265,0,0,0-5.7-2.222,30.264,30.264,0,0,1,2.614-5.5Zm-3.117,7a23.267,23.267,0,0,1,5.71,2.258,34.528,34.528,0,0,0-.829,3.553,16.655,16.655,0,0,1-.451,1.889,8.123,8.123,0,0,0-5.995-.906c.565-2.263.87-4.558,1.565-6.794ZM46.24,21.6a2.561,2.561,0,0,1,2.895,2.257,40.156,40.156,0,0,1,.109,6.416,23.146,23.146,0,0,0-5.173-.61,31.42,31.42,0,0,0,0-5.366A2.526,2.526,0,0,1,46.24,21.6Zm-2.36,9.64a21.453,21.453,0,0,1,5.218.623,23.576,23.576,0,0,1-2.64,8.611A21.529,21.529,0,0,0,42,37.5a21.988,21.988,0,0,0,1.885-6.256Zm-2.625,7.65a19.555,19.555,0,0,1,4.379,2.967A26.313,26.313,0,0,1,40.6,47.523a20.8,20.8,0,0,0-4.365-2.867,20.612,20.612,0,0,0,5.017-5.763Zm-6.382,6.85a20.512,20.512,0,0,1,4.49,2.8A20.126,20.126,0,0,0,36.5,51.028l-.016-.013a8.177,8.177,0,0,0-4.41-2.265c-.013,0-.025-.007-.039-.009A16.747,16.747,0,0,1,34.873,45.743Zm-9.281-2.206c-.194.353-.576.891-.9,1.347a35.831,35.831,0,0,0-4.176,7.811c-.162-.01-.325-.016-.488-.016a7.933,7.933,0,0,0-1.4.125,24.273,24.273,0,0,0-1.553-2.85C18.818,47.06,21.973,43.779,25.592,43.537ZM14.143,35.676A.8.8,0,0,0,12.992,35c-1.97,1.021-3.8.862-4.274.073C7.948,33.792,10,32.154,10.9,31.62a.8.8,0,0,0,0-1.357c-.894-.53-2.954-2.168-2.183-3.452.474-.789,2.3-.949,4.274.073a.8.8,0,0,0,1.151-.677c.058-1.924,1.005-3.55,2.068-3.551s2.009,1.626,2.067,3.55a.8.8,0,0,0,1.152.677c1.97-1.022,3.8-.862,4.274-.073.769,1.281-1.284,2.918-2.184,3.452a.8.8,0,0,0,0,1.357c.894.53,2.954,2.168,2.183,3.452-.474.789-2.3.949-4.274-.073a.8.8,0,0,0-1.151.677c-.058,1.925-1.005,3.55-2.068,3.55S14.2,37.6,14.143,35.676ZM8.418,46.2c-.324-.456-.706-.994-.9-1.347,4.443.3,7.833,4.73,9.574,8.389a8.322,8.322,0,0,0-3.727,2.933A36.243,36.243,0,0,0,8.418,46.2ZM3.092,52.616c-.461-.318-1-.693-1.308-.959,3.009-.857,6.8.586,9.146,2.429.325.8.621,1.608.874,2.385a8.023,8.023,0,0,0-4,.14,25.751,25.751,0,0,0-4.711-3.994ZM58.118,69.181H3.425V64.71c0-4.811,5.08-8.391,9.533-6.171a.8.8,0,0,0,1.068-.375,6.632,6.632,0,0,1,9.336-2.982.8.8,0,0,0,1.151-.418,6.58,6.58,0,0,1,12.515,0,.8.8,0,0,0,1.151.418,6.633,6.633,0,0,1,9.336,2.982.8.8,0,0,0,1.068.375c4.452-2.22,9.533,1.358,9.533,6.171v4.471Z"/>
      <g id="Grupo_1106290" data-name="Grupo 1106290" transform="translate(13.241 27.999)">
        <path id="Trazado_896986" data-name="Trazado 896986" d="M103.66,86.708a2.942,2.942,0,1,1,2.97-2.942A2.983,2.983,0,0,1,103.66,86.708Zm0-4.306a1.364,1.364,0,1,0,1.392,1.364A1.38,1.38,0,0,0,103.66,82.4Z" transform="translate(-100.69 -80.824)" fill="#333"/>
      </g>
    </g>
  </g>
</svg>
