<svg xmlns="http://www.w3.org/2000/svg" xmlns:xlink="http://www.w3.org/1999/xlink" width="190" height="110" viewBox="0 0 190 110">
  <defs>
    <clipPath id="clip-path">
      <rect id="Rect치ngulo_403086" data-name="Rect치ngulo 403086" width="155.296" height="110" transform="translate(0 0)" fill="none"/>
    </clipPath>
  </defs>
  <g id="Grupo_1106316" data-name="Grupo 1106316" transform="translate(-515 -2119)">
    <rect id="Rect치ngulo_402881" data-name="Rect치ngulo 402881" width="190" height="72" rx="12" transform="translate(515 2140)" fill="#65802c"/>
    <g id="Grupo_1106246" data-name="Grupo 1106246" transform="translate(529.403 2119.004)">
      <g id="Grupo_1106245" data-name="Grupo 1106245" transform="translate(0 -0.004)" clip-path="url(#clip-path)">
        <path id="Trazado_896922" data-name="Trazado 896922" d="M152.933,97.489a26.71,26.71,0,0,0-9.526-11.018,190.4,190.4,0,0,0-9.105-49.39c.492-.337,1.318-1.326,1.683-1.568,1.025-.682,1.985-1,2.066-1.913l-.038-1.033-.535-7.919c.21-2.374-5.93-3.673-14.728-5.309l-6.917-4.08A8.411,8.411,0,0,0,111.95,8.3a7.26,7.26,0,0,0-7.678-.249,1.66,1.66,0,0,1-.967.34,20.355,20.355,0,0,0-6.389-1.529,26.773,26.773,0,0,0-9.8,1.684A10.01,10.01,0,0,0,80.1,5.529a8.459,8.459,0,0,0-7.816,3.52A8.366,8.366,0,0,0,70.88,11.72c-2.329-.346-4.618-1.091-6.927-1.466A46.671,46.671,0,0,0,56.656,6a18.436,18.436,0,0,0-.3,4.185c.027.373-.3.714-.228,1.083a32.712,32.712,0,0,0-7.873,5.89c-.3.281-.673.617-1.091,1a9.76,9.76,0,0,0-9.239,2.5c-.492.478-.563.795-.083,1.275a1.01,1.01,0,0,0,1.552.055,6.7,6.7,0,0,1,5.5-1.7c-3.046,2.95-6.753,7.019-7.607,10.574-3.681,2.408-5.44,3.318-6.619,4.459l-.721.8.388,9.23c1,1.773,2.6,2.24,4.961,3.409.123,4.6,1.551,10.584,1.829,13.969.361,4.394,1.606,8.951,1.829,13.193a7.346,7.346,0,0,1-1.979,5.154,2.626,2.626,0,0,0-.427-.354,11.385,11.385,0,0,0-2.925-1.34c-.2-.959-.949-1.685-1.293-2.6a24.04,24.04,0,0,0-3.575-6.069c-.209-.273-.262-.762-.582-.638-.275.107-.253.177-.277.471a23.906,23.906,0,0,0,.859,8.176c.011.044-.407.266-.4.311a11.48,11.48,0,0,0-8.474,5.644c-.462-.314-1.322-.3-1.746-.661-2.211-1.882-3.2-4.83-4.24-7.5a11.448,11.448,0,0,1,.783-3c-1.273-.761-2.782.483-3.852,1.213a6.781,6.781,0,0,0-3.2,4.777,4.693,4.693,0,0,1-.9,2.237A14.187,14.187,0,0,1,.374,73.475a.19.19,0,0,0-.367.1A14.574,14.574,0,0,0,6.5,82.054a11.642,11.642,0,0,1-2.043,2.092,8.676,8.676,0,0,0-3.109,5.11A6.5,6.5,0,0,0,2.194,94.6c-.113-.171,1.367-1.153,1.534-1.294.089-.076.18-.148.272-.217a11.17,11.17,0,0,1,6.8-.685A17.626,17.626,0,0,0,.693,101.347c4.229,3.28,10.038,3.373,15.388,3.246,4.114-.1,8.227-.241,12.339-.408.284.732,1.129.786,1.688,1.332a12.341,12.341,0,0,0,4.624,2.367c18.366,6.727,37.672,5.62,56.976,5.065,4.1-.118,8.147-.771,12.257.542a2.784,2.784,0,0,0-.108,1.545q21.668.038,43.272-2.029c.857-.082-3.285-3.372-3.869-3.643l-.17-.076a12.027,12.027,0,0,1,5.444-2.5c2.1-.548,4.006-1.111,5.165-2.946,1.369-2.169.3-4.019-.765-6.351M73.473,11.91c.15-.416-.077-1.017.173-1.42a6.6,6.6,0,0,1,1.136-1.3c.123-.121.174-.386.3-.5.029-.026.53-.272.5-.25a9.868,9.868,0,0,1,.887-.61,6.2,6.2,0,0,1,3.243-.914c.153,0,.346.155.5.166.066,0,.184.022.25.028.021,0,.376.055.388.055.17.027.54.1.776.166a7.463,7.463,0,0,1,.776.333,6.638,6.638,0,0,1,.776.36,6.862,6.862,0,0,1,.776.582l.489.837C80.823,10.68,77.2,11.894,73.473,11.91m39.708,1.784L111,12.408c-1.565-.923-3.158-1.855-4.791-2.686l.053-.018.345-.332a4.707,4.707,0,0,1,1.84-.223,5.721,5.721,0,0,1,3.032,1.164,4.8,4.8,0,0,1,1.14,1.2,9.233,9.233,0,0,1,.725,1.751l-.177.369c0,.019.009.038.014.057" transform="translate(0.001 -5.037)" fill="#421517"/>
        <path id="Trazado_896923" data-name="Trazado 896923" d="M41.323,828.442a.778.778,0,0,0-.531-.375.478.478,0,0,0-.3.084,1.335,1.335,0,0,0-.407.535l-.027.057a17.918,17.918,0,0,1-7.88-2.9,15.537,15.537,0,0,1-1.329-1.012,17.416,17.416,0,0,1-4.656-7.151,11.438,11.438,0,0,1,.783-3c-1.273-.761-2.782.483-3.852,1.213a6.781,6.781,0,0,0-3.2,4.777,4.424,4.424,0,0,1-.679,2.183,7.245,7.245,0,0,0,.749.343,2.14,2.14,0,0,0,.229-1.055c.009-.244.644-.143.635.1a3.575,3.575,0,0,1-1.6,2.706c-.213.121-.581-.425-.369-.546a2.323,2.323,0,0,0,.75-.584,8.915,8.915,0,0,1-.851-.318,11.039,11.039,0,0,1-2.033,1.809,8.675,8.675,0,0,0-3.109,5.11,6.5,6.5,0,0,0,.849,5.338c-.113-.171,1.367-1.153,1.534-1.294.089-.076.18-.148.272-.217a36.928,36.928,0,0,1,6.8-.685,11.35,11.35,0,0,1,1.866.251,10.078,10.078,0,0,1,4.561,2.523,9.7,9.7,0,0,1,3.7-.845l.17,0a42.58,42.58,0,0,0-6.331-5.247c-.2-.137-.011-.466.192-.328a43.072,43.072,0,0,1,6.671,5.573h.17a5.416,5.416,0,0,0,1.77-.223c1.244-.444,1.645-1.564,2.532-2.334a4.783,4.783,0,0,1,2.825-1,2.538,2.538,0,0,0,.094-3.482" transform="translate(-12.302 -746.197)" fill="#f79e67"/>
        <path id="Trazado_896924" data-name="Trazado 896924" d="M27.626,826.679a44.785,44.785,0,0,1-5.915-4.516q.256-.268.526-.523c.875-.822,1.593-1.2.782-2.315a3.783,3.783,0,0,1-.924-2.708,5.944,5.944,0,0,1,.086-.819A13.542,13.542,0,0,1,23.3,812.62c-1.273-.761-3.2.5-4.27,1.232a7.207,7.207,0,0,0-3.315,4.925,4.674,4.674,0,0,1-.711,2.246q.488.292,1,.545a2.5,2.5,0,0,0,.32-1.125c.009-.244.39-.245.381,0a2.94,2.94,0,0,1-1.468,2.425.19.19,0,0,1-.192-.329,2.517,2.517,0,0,0,.748-.652q-.518-.256-1.013-.553a12.609,12.609,0,0,1-2.172,1.935,9.166,9.166,0,0,0-3.426,5.113,7.826,7.826,0,0,0,1.3,5.816c-.113-.17,1.364-1.477,1.53-1.618.089-.076.18-.148.272-.217.529-.4,1.1-.716,1.657-1.076a10.313,10.313,0,0,1,3.9-1.184,1.484,1.484,0,0,0,.7-.271,14.813,14.813,0,0,1,7.109,2.605c.2.141.391-.189.192-.329a15.142,15.142,0,0,0-7.082-2.639c.019-.059.034-.12.049-.18.249-.989-.056-1.849.222-2.823A8.918,8.918,0,0,1,20.5,823.6c.3-.4.616-.789.951-1.161a45.3,45.3,0,0,0,5.981,4.565c.207.132.4-.2.192-.329" transform="translate(-8.289 -744.316)" fill="#e1312c"/>
        <path id="Trazado_896925" data-name="Trazado 896925" d="M698.634,217.744a5.472,5.472,0,0,0-3.609,1.9,10.875,10.875,0,0,0-1.859,4.324c-.694,2.607,3.434,1.965,4.013.359.131-.362.142-.8.424-1.057a1.692,1.692,0,0,1,.891-.3,4.248,4.248,0,0,0,2.051-1.028,7.767,7.767,0,0,0,2-3.041,5.474,5.474,0,0,0-3.913-1.16" transform="translate(-635.014 -199.477)" fill="#e1312c"/>
        <path id="Trazado_896926" data-name="Trazado 896926" d="M231.57,962.561a.478.478,0,0,0-.3.084,1.334,1.334,0,0,0-.406.535l-.027.057c-.4.843-.73,1.721-1.15,2.553l-.017-.007a22.66,22.66,0,0,1-7.689-4.5c-.182-.162-.453.106-.269.269a23.12,23.12,0,0,0,7.8,4.578c-.03.054-.06.107-.091.161l-.046.08a6.933,6.933,0,0,1-.671.954,4.328,4.328,0,0,1-1.887,1.359,11.381,11.381,0,0,0-1.179.368,1.208,1.208,0,0,0-.753.908c0,.006,0,.011,0,.017a5.419,5.419,0,0,0,1.77-.223c1.244-.443,1.645-1.564,2.532-2.334a4.784,4.784,0,0,1,2.825-1,2.538,2.538,0,0,0,.094-3.481.778.778,0,0,0-.531-.375" transform="translate(-203.08 -880.692)" fill="#e1312c"/>
        <path id="Trazado_896927" data-name="Trazado 896927" d="M675.747,10.208C673.693,8,670.839,6.69,668.075,5.447a22.841,22.841,0,0,0-.3,4.659,9.965,9.965,0,0,0,.143,1.115,12.534,12.534,0,0,1,4.288-1.2,14.382,14.382,0,0,1,3.543.184" transform="translate(-611.793 -4.99)" fill="#89a243"/>
        <path id="Trazado_896928" data-name="Trazado 896928" d="M461.451,248.758a28.9,28.9,0,0,0-9.732-11.626,186.814,186.814,0,0,0-9.221-48.879c.491-.337.924-.63,1.289-.873,1.025-.681,2.112-1.447,2.192-2.36a1.165,1.165,0,0,0-.009-.277l-.305-9.231c.209-2.374-6.823-3.869-15.592-4.821l4.56,2.69c1.2.708,2.586,1.869,2.147,3.191a3.127,3.127,0,0,1-1.684,1.541c-9.179,4.881-18.5,9.813-28.634,12.114-10.6,2.407-21.638,1.829-32.469.889q-7.291-.632-14.561-1.474c-3.7-.429-10.272.011-13.3-2.476a4.56,4.56,0,0,1-1.533-4.949c-3.921,1.966-6.9,3.705-8.076,4.847l.315,9.508a11.755,11.755,0,0,0,5.231,4.365c.123,4.6,1.428,9.773,1.706,13.158.361,4.394,1.684,9.058,1.908,13.3a10.069,10.069,0,0,1-1.394,5.04c-1,1.98-2.2,3.93-2.432,6.1a13.112,13.112,0,0,0-.021,2.16c.136,2.352.579,4.747-.676,6.661-1.421,2.167-4.613,2.9-5.514,5.332a4,4,0,0,0,.1,2.848,5.621,5.621,0,0,0,1.3,1.959,12.6,12.6,0,0,0,4.609,2.525c18.366,6.727,38.009,5.775,57.313,5.22,4.1-.118,8.212-.237,12.322-.4,1.116-3.154,7.387-5.517,9.692-6.217a23.888,23.888,0,0,1,3.174-.732,23.194,23.194,0,0,1,10.907.786,12.776,12.776,0,0,1,4.336,2.673c1.656,1.379,2.454.7,4.321-.406a7.492,7.492,0,0,1,6.695-.308q2.974-.635,5.922-1.4c2.1-.548,4.371-1.284,5.53-3.118,1.369-2.169.654-5.029-.415-7.36" transform="translate(-307.323 -156.387)" fill="#ffdeb2"/>
        <path id="Trazado_896929" data-name="Trazado 896929" d="M539.847,453.171c5.162-2.559,12.166-10.156,17.628-16.689-8.334,5.69-19.991,13.3-25.649,14.438-8.154,1.642-16.861.755-25.291.259-8.855-.522-17.9-.6-26.367-2.177a97.738,97.738,0,0,1-11.791-2.766c6.289,5.028,33.584,10.929,41.645,11.663,10.087.918,20.661-.186,29.825-4.729" transform="translate(-429.133 -399.91)" fill="#421517"/>
        <path id="Trazado_896930" data-name="Trazado 896930" d="M674.055,1016.559a.656.656,0,0,0,.443-.781.639.639,0,0,0-.781-.443,151.175,151.175,0,0,1-15.69,5.469,153.384,153.384,0,0,1-49.309,5.821,149.433,149.433,0,0,1-16.528-1.661q-1.022-.161-2.041-.336c-.8-.137-1.142,1.086-.337,1.224a152.519,152.519,0,0,0,33.375,2.011,156.016,156.016,0,0,0,16.7-1.732,153.482,153.482,0,0,0,16.329-3.5,151.046,151.046,0,0,0,15.923-5.3q.961-.381,1.917-.775" transform="translate(-539.973 -930.231)" fill="#421517"/>
        <path id="Trazado_896931" data-name="Trazado 896931" d="M1458.268,1001.57a76.736,76.736,0,0,1-14.431,9.7q-2.221,1.151-4.512,2.157c-.746.328-.1,1.422.641,1.1a77.415,77.415,0,0,0,15.293-8.932q2-1.5,3.906-3.124c.623-.53-.279-1.424-.9-.9" transform="translate(-1318.423 -917.503)" fill="#421517"/>
        <path id="Trazado_896932" data-name="Trazado 896932" d="M532.114,894.963a82.318,82.318,0,0,1-25.819-2.067q-3.575-.87-7.062-2.057c-.775-.263-1.108.962-.337,1.224a83.461,83.461,0,0,0,25.781,4.417q3.722.044,7.437-.248c.809-.062.816-1.332,0-1.269" transform="translate(-456.693 -816.163)" fill="#421517"/>
        <path id="Trazado_896933" data-name="Trazado 896933" d="M855.237.021a9.082,9.082,0,0,0-8,3.912,8.433,8.433,0,0,0-1.288,2.746c.384.057.77.1,1.157.135q.721.059,1.436.055a6.461,6.461,0,0,1,.6-1.226,5.641,5.641,0,0,1,1.013-1.251q.185-.182.381-.351c.03-.025.211-.175.18-.153a7.3,7.3,0,0,1,.773-.512,6.048,6.048,0,0,1,3.221-.841c.154,0,.307.007.46.018.065,0,.131.01.2.016.021,0,.186.021.2.021.169.027.592.113.828.175a8.848,8.848,0,0,1,.882.282,4.747,4.747,0,0,1,.666.3,9.151,9.151,0,0,1,.969.58l.163.114.107.078c-.062-.051-.061-.049.007,0,.112.088.221.18.328.274.889-.3,1.779-.608,2.67-.9A10.345,10.345,0,0,0,855.237.021" transform="translate(-775.07 0.004)" fill="#f29680"/>
        <path id="Trazado_896934" data-name="Trazado 896934" d="M1213.663,23.178a8.013,8.013,0,0,0-11.24,3.054,1.3,1.3,0,0,0,.455,1.736,1.282,1.282,0,0,0,1.736-.455,6.553,6.553,0,0,1,.416-.7c.033-.049.068-.1.1-.146.091-.112.187-.221.285-.327a6.768,6.768,0,0,1,.59-.559l.1-.083.038-.027c.119-.085.24-.168.363-.246a7.159,7.159,0,0,1,.714-.4l.167-.078q.173-.069.35-.129l.053-.018a7.065,7.065,0,0,1,.788-.209l.264-.049.079-.01c.083-.007.166-.015.249-.021a6.572,6.572,0,0,1,.812,0l.267.022.079.012c.082.016.164.03.246.048a5.814,5.814,0,0,1,.795.232l.123.046.049.024c.135.065.27.132.4.2a5.466,5.466,0,0,1,2.127,2.1c.124.21.32.6.367.714a8.451,8.451,0,0,1,.26.824l.014.057q.045.191.079.383l.022.128c0,.016.005.067.007.108a8.681,8.681,0,0,1,0,1.03,1.28,1.28,0,0,0,1.269,1.269,1.3,1.3,0,0,0,1.269-1.269c0-.028,0-.057.006-.085a8.211,8.211,0,0,0-3.7-7.181" transform="translate(-1101.53 -20.137)" fill="#f29680"/>
        <path id="Trazado_896935" data-name="Trazado 896935" d="M869.607,188.649a7.785,7.785,0,0,0-7.349-.92,7.719,7.719,0,0,0-4.272,9.86,1.31,1.31,0,0,0,1.562.887,1.278,1.278,0,0,0,.886-1.561,6.263,6.263,0,0,1-.31-.975q-.037-.168-.066-.337a3.05,3.05,0,0,0-.029-.336,6.573,6.573,0,0,1,.011-.895c0-.06.011-.12.017-.18,0-.017.01-.056.019-.118.035-.168.066-.335.108-.5a6.423,6.423,0,0,1,.264-.816c-.028.073.135-.279.154-.315q.088-.17.186-.335a4.68,4.68,0,0,1,1.112-1.3l.071-.058c.066-.048.132-.094.2-.139q.167-.111.343-.211a3.242,3.242,0,0,1,.8-.361,8.184,8.184,0,0,1,.909-.232c.09-.014.134-.022.134-.022.065-.007.129-.014.194-.019.134-.01.268-.017.4-.02a4.589,4.589,0,0,1,1.782.251,4.874,4.874,0,0,1,1.595.846,1.277,1.277,0,0,0,1.737-.455,1.3,1.3,0,0,0-.455-1.737" transform="translate(-785.642 -171.514)" fill="#f29680"/>
        <path id="Trazado_896936" data-name="Trazado 896936" d="M456.988,153.373a9.059,9.059,0,0,0-2.831-1.473,9.7,9.7,0,0,0-9.575,2.29,1.269,1.269,0,0,0,1.795,1.795,6.912,6.912,0,0,1,5.506-1.953,7.4,7.4,0,0,1,3.825,1.533,1.276,1.276,0,0,0,1.737-.456,1.3,1.3,0,0,0-.456-1.736" transform="translate(-406.997 -138.779)" fill="#f29680"/>
        <path id="Trazado_896937" data-name="Trazado 896937" d="M867.855,42.356a.345.345,0,0,0,.224.093.318.318,0,0,0,.318-.317.308.308,0,0,0-.093-.224,4.553,4.553,0,0,1-.723-.741l.007.009a.312.312,0,0,0-.416-.091.317.317,0,0,0-.146.19.305.305,0,0,0,.032.244,4.895,4.895,0,0,0,.8.838" transform="translate(-794.368 -37.602)" fill="#421517"/>
        <path id="Trazado_896938" data-name="Trazado 896938" d="M900.963,16.873a.331.331,0,0,0,.19.146.324.324,0,0,0,.244-.032.317.317,0,0,0,.114-.434l-.439-.682a.335.335,0,0,0-.19-.146.317.317,0,0,0-.359.466l.44.682" transform="translate(-825.031 -14.397)" fill="#421517"/>
        <path id="Trazado_896939" data-name="Trazado 896939" d="M988.649,17.816a.317.317,0,0,0,.244.032.333.333,0,0,0,.19-.146l.314-.524a.317.317,0,0,0-.114-.434.32.32,0,0,0-.245-.032.334.334,0,0,0-.19.146l-.314.525a.326.326,0,0,0-.032.244.322.322,0,0,0,.146.19" transform="translate(-905.668 -15.3)" fill="#421517"/>
        <path id="Trazado_896940" data-name="Trazado 896940" d="M1003.278,28.265a.319.319,0,0,0,.244.032.339.339,0,0,0,.19-.146l.321-.52a.316.316,0,0,0-.114-.434.318.318,0,0,0-.244-.032.337.337,0,0,0-.19.146l-.321.52a.317.317,0,0,0,.114.434" transform="translate(-919.072 -24.877)" fill="#421517"/>
        <path id="Trazado_896941" data-name="Trazado 896941" d="M864.011,263.32l-.874-.379a.347.347,0,0,0-.245-.032.322.322,0,0,0-.189.146.317.317,0,0,0-.032.245.306.306,0,0,0,.145.19l.874.379a.346.346,0,0,0,.244.032.323.323,0,0,0,.19-.146.319.319,0,0,0,.032-.244.305.305,0,0,0-.146-.19" transform="translate(-790.378 -240.871)" fill="#421517"/>
        <path id="Trazado_896942" data-name="Trazado 896942" d="M873.475,235.473l-.838-.566a.318.318,0,0,0-.434.114.325.325,0,0,0,.114.434l.838.566a.317.317,0,0,0,.32-.548" transform="translate(-799.086 -215.185)" fill="#421517"/>
        <path id="Trazado_896943" data-name="Trazado 896943" d="M932.43,191.988a.317.317,0,0,0-.612.169l.234.923a.32.32,0,0,0,.39.221.324.324,0,0,0,.222-.39q-.118-.461-.234-.923" transform="translate(-853.733 -175.687)" fill="#421517"/>
        <path id="Trazado_896944" data-name="Trazado 896944" d="M974.474,198.39a.321.321,0,0,0-.244.032.313.313,0,0,0-.146.189q-.075.382-.15.763a.338.338,0,0,0,.032.245.324.324,0,0,0,.189.146.32.32,0,0,0,.245-.032.315.315,0,0,0,.146-.19q.075-.381.149-.763a.337.337,0,0,0-.032-.244.322.322,0,0,0-.189-.146" transform="translate(-892.321 -181.758)" fill="#421517"/>
        <path id="Trazado_896945" data-name="Trazado 896945" d="M1221.319,55.187a.317.317,0,1,0,.548-.32l-.391-.727a.317.317,0,0,0-.548.32l.391.726" transform="translate(-1118.591 -49.46)" fill="#421517"/>
        <path id="Trazado_896946" data-name="Trazado 896946" d="M1250.646,34.805a.318.318,0,0,0,.391-.222.371.371,0,0,0-.032-.244q-.255-.583-.509-1.167a.318.318,0,0,0-.19-.146.317.317,0,0,0-.39.221.372.372,0,0,0,.032.244l.509,1.168a.318.318,0,0,0,.189.146" transform="translate(-1145.179 -30.249)" fill="#421517"/>
        <path id="Trazado_896947" data-name="Trazado 896947" d="M1316.683,35.945a.325.325,0,0,0,.317-.317c0-.026,0-.051.006-.077a1.458,1.458,0,0,1,.075-.273,1.523,1.523,0,0,1,.137-.238l.058-.068a.317.317,0,0,0-.449-.449,1.766,1.766,0,0,0-.462,1.1.319.319,0,0,0,.317.317" transform="translate(-1206.069 -31.547)" fill="#421517"/>
        <path id="Trazado_896948" data-name="Trazado 896948" d="M1356.142,93.82c.1-.054.193-.105.292-.152l.14-.064.024-.01.063-.026a5,5,0,0,1,.607-.2.317.317,0,1,0-.168-.612,5.258,5.258,0,0,0-1.278.513.317.317,0,0,0,.32.548" transform="translate(-1242.076 -84.977)" fill="#421517"/>
        <path id="Trazado_896949" data-name="Trazado 896949" d="M471.552,169.872a.344.344,0,0,0-.19-.146.317.317,0,0,0-.358.466,4.636,4.636,0,0,1,.353.551c.051.094.1.19.144.288l.034.076,0,.009,0,.011c.021.051.041.1.06.155a.339.339,0,0,0,.146.19.317.317,0,0,0,.466-.358,4.892,4.892,0,0,0-.663-1.242" transform="translate(-431.496 -155.495)" fill="#421517"/>
        <path id="Trazado_896950" data-name="Trazado 896950" d="M522.231,154.658a.347.347,0,0,0-.146-.19.326.326,0,0,0-.244-.032.321.321,0,0,0-.222.39l.479,1.243a.345.345,0,0,0,.146.19.318.318,0,0,0,.466-.358l-.479-1.243" transform="translate(-477.899 -141.485)" fill="#421517"/>
        <path id="Trazado_896951" data-name="Trazado 896951" d="M566.063,163.576a.322.322,0,0,0-.221.39,1.464,1.464,0,0,1,.074.337c0-.082,0,.032,0,.047l.007.079c0,.058.005.115,0,.173s0,.115-.006.173l-.007.079,0,.037a3.17,3.17,0,0,1-.078.347.318.318,0,0,0,.612.169,2.886,2.886,0,0,0,.005-1.609.322.322,0,0,0-.39-.222" transform="translate(-518.415 -149.858)" fill="#421517"/>
        <path id="Trazado_896952" data-name="Trazado 896952" d="M1195.377,194.615a22.792,22.792,0,0,0-3.234,3.368,7.653,7.653,0,0,0-1.6,4.317,5.9,5.9,0,0,0,3.317,2.154,7.28,7.28,0,0,0,4.325-.772c-.017-3.192-1.428-6.19-2.81-9.067" transform="translate(-1090.791 -178.308)" fill="#89a243"/>
        <path id="Trazado_896953" data-name="Trazado 896953" d="M1086.679,64.758a3.955,3.955,0,0,0,1.316-.326,1.342,1.342,0,0,0,.777-1.045c.042-.662-.549-1.163-.974-1.673a4.029,4.029,0,0,1-.9-2.945c.059-.587.179-1.335-.331-1.632a1.316,1.316,0,0,0-.922-.037,4.911,4.911,0,0,0-1.659.551,5.349,5.349,0,0,0-1.773,2.768,4.06,4.06,0,0,1-2.02,2.54l6.391,1.723a.1.1,0,0,0,.095.076" transform="translate(-989.686 -52.256)" fill="#fda322"/>
        <path id="Trazado_896954" data-name="Trazado 896954" d="M122.408,1016.653a14.813,14.813,0,0,1,7.109,2.606c.2.141.391-.19.192-.329a15.144,15.144,0,0,0-7.082-2.639.871.871,0,0,1-.126.262.664.664,0,0,1-.093.1" transform="translate(-112.152 -931.138)" fill="#421517"/>
        <path id="Trazado_896955" data-name="Trazado 896955" d="M163.092,933.935c.207.132.4-.2.192-.329a44.779,44.779,0,0,1-5.915-4.515q-.131.137-.259.279a45.29,45.29,0,0,0,5.981,4.565" transform="translate(-143.947 -851.244)" fill="#421517"/>
        <path id="Trazado_896956" data-name="Trazado 896956" d="M229.671,965.784a22.662,22.662,0,0,1-7.689-4.5c-.182-.162-.453.106-.269.269a23.12,23.12,0,0,0,7.8,4.578q.092-.168.179-.339l-.017-.007" transform="translate(-203.08 -880.692)" fill="#421517"/>
        <path id="Trazado_896957" data-name="Trazado 896957" d="M33.949,955.988A6.448,6.448,0,0,1,36.24,951.1c.188-.158-.083-.427-.269-.27a6.818,6.818,0,0,0-2.4,5.154.19.19,0,0,0,.381,0" transform="translate(-30.755 -871.121)" fill="#ffdeb2"/>
        <path id="Trazado_896958" data-name="Trazado 896958" d="M98.213,910.044c.017-.244-.364-.243-.381,0a3.221,3.221,0,0,1-1.73,2.6c-.218.112-.026.44.192.328a3.6,3.6,0,0,0,1.919-2.933" transform="translate(-87.962 -833.626)" fill="#ffdeb2"/>
        <path id="Trazado_896959" data-name="Trazado 896959" d="M330.237,783.833c.367.277,1.291.276,1.75.424a9.669,9.669,0,0,1,1.76.766.17.17,0,0,0,.116.032c.055-.013.081-.075.1-.129a7.735,7.735,0,0,0,.555-1.581,6.453,6.453,0,0,0-.093-1.809q-.026-.153-.057-.3a18.6,18.6,0,0,0-.869-2.791,27.584,27.584,0,0,0-3.943-6.434c-.209-.273-.524-.576-.844-.452-.275.107-.345.458-.369.752a25.37,25.37,0,0,0,.727,8.441l.035.133c.125.47.267.937.432,1.395.145.4.352,1.291.7,1.555" transform="translate(-300.752 -706.883)" fill="#89a243"/>
      </g>
    </g>
  </g>
</svg>
