<svg xmlns="http://www.w3.org/2000/svg" width="86" height="86" viewBox="0 0 86 86">
  <g id="Grupo_1106323" data-name="Grupo 1106323" transform="translate(-656.051 -1109)">
    <circle id="Elipse_11676" data-name="Elipse 11676" cx="43" cy="43" r="43" transform="translate(656.051 1109)" fill="#edf6db"/>
    <g id="ceniza" transform="translate(671.155 1124.12)">
      <path id="Trazado_896874" data-name="Trazado 896874" d="M61.182,286.473a4.2,4.2,0,0,0-1.9-3.529,4.447,4.447,0,0,0,.167-1.2c0-2.956-2.917-5.352-6.515-5.352a7.946,7.946,0,0,0-1.411.127,6.477,6.477,0,0,0-6.353-4.16,7.4,7.4,0,0,0-3.515.867,12.16,12.16,0,0,0-6.692-1.8,13.735,13.735,0,0,0-4.624.765c-.186-4.22-4.023-7.59-8.732-7.59-4.828,0-8.741,3.542-8.741,7.911a7.377,7.377,0,0,0,1.619,4.584c-3.83.414-6.722,2.3-6.722,4.568a3.69,3.69,0,0,0,1.846,2.923A3.326,3.326,0,0,0,7,287.481c0,1.756,1.993,3.18,4.452,3.18h45.93v-.014A4.163,4.163,0,0,0,61.182,286.473Zm0,0" transform="translate(-6.24 -235.871)" fill="#4c5770"/>
      <path id="Trazado_896875" data-name="Trazado 896875" d="M114.145,282.944a4.453,4.453,0,0,0,.167-1.2c0-2.956-2.917-5.352-6.515-5.352a7.946,7.946,0,0,0-1.411.127,6.477,6.477,0,0,0-6.353-4.16,7.4,7.4,0,0,0-3.515.867,12.16,12.16,0,0,0-6.692-1.8,13.735,13.735,0,0,0-4.624.765c-.186-4.22-4.023-7.59-8.732-7.59a8.839,8.839,0,0,0-7.921,4.566,9.34,9.34,0,0,1,4.989-1.417c4.709,0,8.546,3.37,8.732,7.59a13.736,13.736,0,0,1,4.624-.765,12.159,12.159,0,0,1,6.692,1.8,7.4,7.4,0,0,1,3.515-.867,6.478,6.478,0,0,1,6.353,4.16,7.951,7.951,0,0,1,1.411-.127c3.6,0,6.515,2.4,6.515,5.352a4.452,4.452,0,0,1-.167,1.2,4.2,4.2,0,0,1,1.9,3.529,4.274,4.274,0,0,1-.094.887,4.212,4.212,0,0,0,1.121-7.565Zm0,0" transform="translate(-61.107 -235.871)" fill="#394154"/>
      <path id="Trazado_896876" data-name="Trazado 896876" d="M301.352,411.282a12.16,12.16,0,0,0,.564-1.411c.121-.371.221-.742.3-1.113a6.541,6.541,0,0,0,1.909,1,7.016,7.016,0,0,0,5.177-.395,11.264,11.264,0,0,0-.1,4.05,8.852,8.852,0,0,0-2.956,2.03,8.129,8.129,0,0,0-4.8-4.137Zm0,0" transform="translate(-268.631 -364.375)" fill="#e86140"/>
      <path id="Trazado_896877" data-name="Trazado 896877" d="M92.475,411.285a1.738,1.738,0,1,0-1.737,1.683A1.711,1.711,0,0,0,92.475,411.285Zm0,0" transform="translate(-79.336 -365.127)" fill="#a8b3cc"/>
      <path id="Trazado_896878" data-name="Trazado 896878" d="M172.429,435.067c0-.81-1.215-1.466-2.715-1.466s-2.715.656-2.715,1.466,1.215,1.466,2.715,1.466S172.429,435.877,172.429,435.067Zm0,0" transform="translate(-148.867 -386.521)" fill="#a8b3cc"/>
      <path id="Trazado_896879" data-name="Trazado 896879" d="M300.006,409.973a.76.76,0,0,1-.683-.427,7.411,7.411,0,0,0-4.356-3.747l-.026-.008-.059-.017a.76.76,0,0,1-.457-1.05,11.357,11.357,0,0,0,.528-1.323c.109-.332.2-.673.285-1.042a.76.76,0,0,1,1.2-.439,5.8,5.8,0,0,0,1.688.888,6.237,6.237,0,0,0,4.621-.363.76.76,0,0,1,1.064.842,10.466,10.466,0,0,0-.1,3.776.76.76,0,0,1-.458.822,8.038,8.038,0,0,0-2.7,1.856A.76.76,0,0,1,300.006,409.973Zm-3.876-5.362A8.977,8.977,0,0,1,300.192,408a9.481,9.481,0,0,1,1.942-1.273,11.812,11.812,0,0,1-.011-2.427,7.49,7.49,0,0,1-4.47-.047,7.209,7.209,0,0,1-1.208-.523c-.016.049-.031.1-.047.146q-.122.372-.268.738Zm0,0" transform="translate(-262.39 -358.141)"/>
      <path id="Trazado_896880" data-name="Trazado 896880" d="M84.5,407.488a2.444,2.444,0,1,1,2.5-2.443A2.473,2.473,0,0,1,84.5,407.488Zm0-3.366a.924.924,0,1,0,.977.923A.952.952,0,0,0,84.5,404.122Zm0,0" transform="translate(-73.096 -358.887)"/>
      <path id="Trazado_896881" data-name="Trazado 896881" d="M163.475,431.053c-1.981,0-3.475-.957-3.475-2.226s1.494-2.226,3.475-2.226,3.475.957,3.475,2.226S165.455,431.053,163.475,431.053Zm0-2.932c-1.261,0-1.954.53-1.954.706s.693.706,1.954.706,1.954-.53,1.954-.706S164.736,428.122,163.475,428.122Zm0,0" transform="translate(-142.627 -380.281)"/>
      <path id="Trazado_896882" data-name="Trazado 896882" d="M382.761,37.175a.76.76,0,0,1-.406-1.4c.03-.019,3.06-1.969,3.414-4.557a4.279,4.279,0,0,0-1.293-3.477,7.3,7.3,0,0,1-2.164-5.347,7.131,7.131,0,0,1,2.228-4.572.76.76,0,0,1,1,1.142,5.661,5.661,0,0,0-1.714,3.536,5.859,5.859,0,0,0,1.776,4.224,5.721,5.721,0,0,1,1.669,4.708c-.455,3.291-3.959,5.535-4.108,5.63A.755.755,0,0,1,382.761,37.175Zm0,0" transform="translate(-340.523 -15.72)"/>
      <path id="Trazado_896883" data-name="Trazado 896883" d="M408.736,176.184c-.259,0-.423-.012-.451-.015a.76.76,0,1,1,.123-1.515c.023,0,2.438.173,3.646-1.051a2.744,2.744,0,0,0,.671-2.308,5.327,5.327,0,0,1,1.087-4.07,5.24,5.24,0,0,1,3.324-1.7.76.76,0,0,1,.118,1.516,3.73,3.73,0,0,0-2.292,1.183,3.888,3.888,0,0,0-.724,2.94,4.222,4.222,0,0,1-1.107,3.518A6.4,6.4,0,0,1,408.736,176.184Zm0,0" transform="translate(-363.33 -147.546)"/>
      <path id="Trazado_896884" data-name="Trazado 896884" d="M80.606,24.14a.759.759,0,0,1-.4-.117c-.149-.094-3.654-2.339-4.108-5.63a5.721,5.721,0,0,1,1.669-4.708,5.86,5.86,0,0,0,1.776-4.224,5.66,5.66,0,0,0-1.714-3.536.76.76,0,0,1,1-1.142,7.129,7.129,0,0,1,2.228,4.572A7.3,7.3,0,0,1,78.892,14.7,4.278,4.278,0,0,0,77.6,18.18c.354,2.588,3.384,4.539,3.415,4.558a.76.76,0,0,1-.407,1.4Zm0,0" transform="translate(-67.788 -4.096)"/>
      <path id="Trazado_896885" data-name="Trazado 896885" d="M13.236,163.186a6.4,6.4,0,0,1-4.394-1.508,4.221,4.221,0,0,1-1.107-3.518,3.887,3.887,0,0,0-.724-2.94,3.73,3.73,0,0,0-2.293-1.183.76.76,0,0,1,.119-1.515,5.237,5.237,0,0,1,3.324,1.7,5.326,5.326,0,0,1,1.088,4.07,2.745,2.745,0,0,0,.674,2.311c1.2,1.21,3.618,1.05,3.642,1.048a.76.76,0,0,1,.123,1.515C13.66,163.174,13.495,163.186,13.236,163.186Zm0,0" transform="translate(-3.585 -135.959)"/>
      <path id="Trazado_896886" data-name="Trazado 896886" d="M142.639,43.714c-3.923,3.475-12.442,6.744-19.787,3.479a8.5,8.5,0,0,1-4.422-4.4,6.843,6.843,0,0,1,1.034-7.153c.131-.176.274-.354.427-.532A11.981,11.981,0,0,0,122.6,29.87c.506-2.11.472-3.933,1.606-5.646a8.416,8.416,0,0,1,2.812-2.521c3.7-2.218,4.326-6.7,4.32-10.141,0-2.279-.287-4.1-.14-4.491a.119.119,0,0,1,.13-.073.318.318,0,0,1,.089.014c1.49.391,9.588,8.764,6.052,16.29-3.812,8.115-.737,11.313-.492,11.313s3.319-5.164,6.024-6.025c-.046.09-2.071,4.087-.491,6.64C144.115,37.812,146.943,39.9,142.639,43.714Zm0,0" transform="translate(-105.056 -6.237)" fill="#ffa52e"/>
      <path id="Trazado_896887" data-name="Trazado 896887" d="M143.792,20.1c-5.429,3.257-1.846,6.623-6.3,11.835s.76,9.664.76,9.664a13.479,13.479,0,0,0,5.522,2.05A14.085,14.085,0,0,1,135,41.489s-2.868-2.449-2.531-5.843a6.9,6.9,0,0,1,1.771-3.821,11.9,11.9,0,0,0,1.369-1.948c1.2-2.161,1.205-3.99,1.606-5.646a8.416,8.416,0,0,1,2.812-2.521c3.7-2.218,4.326-6.7,4.32-10.141.048-2.259-.26-4.123-.118-4.5A.1.1,0,0,1,144.334,7a.318.318,0,0,1,.089.014,9.828,9.828,0,0,1,3.16,3.045C147.708,13.168,147.46,17.9,143.792,20.1Zm0,0" transform="translate(-118.058 -6.244)" fill="#ff991f"/>
      <path id="Trazado_896888" data-name="Trazado 896888" d="M181.506,232.89s-3.443-2.214-2.705-5.042,3.812-6.763,2.951-8.854,2.952,3.32,2.583,5.9.861,4.18,1.967,4.18,3.812-3.935,5.656-3.074c0,0-.615-.123-1.23,3.443S186.425,236.21,181.506,232.89Zm0,0" transform="translate(-159.294 -194.797)" fill="#ff661a"/>
      <path id="Trazado_896889" data-name="Trazado 896889" d="M184.088,232.029s-3.443-2.213-2.705-5.041a39.686,39.686,0,0,1,2.285-5.161c-.954-2.243-2.5-4.241-1.916-2.832.861,2.091-2.213,6.025-2.951,8.854s2.705,5.042,2.705,5.042c2.751,1.856,5.117,1.675,6.775.53A7.05,7.05,0,0,1,184.088,232.029Zm0,0" transform="translate(-159.294 -194.797)" fill="#b23b00"/>
      <path id="Trazado_896890" data-name="Trazado 896890" d="M53.887,46.756a5.187,5.187,0,0,0,.077-.884c0-3.37-3.264-6.112-7.275-6.112a8.666,8.666,0,0,0-.914.049A7.21,7.21,0,0,0,40.006,35.8c1.426-2.509.049-4.43-1.106-6.041-.273-.38-.554-.773-.794-1.162-1.35-2.181.5-5.856.521-5.892a.761.761,0,0,0-.907-1.073c-2.248.716-4.5,3.791-5.715,5.443l-.088.121a5.527,5.527,0,0,1-.578-1.959c-.322-2.688.783-5.75,1.767-7.845a10.682,10.682,0,0,0,.548-7.408A18.5,18.5,0,0,0,30.631,3.87a18.972,18.972,0,0,0-2.439-2.744C27.008.056,26.488-.038,26.137.011a.86.86,0,0,0-.7.557,5.352,5.352,0,0,0-.027,1.946c.21,3.121.645,9.616-3.833,12.3-3.615,2.168-4.01,4.47-4.428,6.906A12.06,12.06,0,0,1,14.565,28c-4.867.371-8.7,4.1-8.7,8.641a8.014,8.014,0,0,0,1.076,4.011C3.246,41.368.76,43.388.76,45.794a3.943,3.943,0,0,0,1.2,2.729A3.686,3.686,0,0,0,0,51.61c0,2.172,2.338,3.94,5.212,3.94h45.93a.777.777,0,0,0,.218-.031,4.965,4.965,0,0,0,2.527-8.764ZM18.644,21.979c.405-2.351.7-4.05,3.712-5.859a9.673,9.673,0,0,0,4.366-6.909,26.818,26.818,0,0,0,.2-6.8c-.01-.133-.018-.271-.027-.4a18.848,18.848,0,0,1,4.577,6.321c1.34,3.091,1.426,5.923.256,8.415C28.561,23.491,29.987,27,30.748,28.2c.6.937,1.034.937,1.178.937.448,0,.612-.224,1.305-1.167a25.593,25.593,0,0,1,3.226-3.794,6.7,6.7,0,0,0,.356,5.217c.268.433.565.847.851,1.247,1.244,1.738,2.2,3.066.537,5.118a9.691,9.691,0,0,1-1.123,1.151,14.746,14.746,0,0,1-1.563,1.2,21.219,21.219,0,0,1-6.719,2.9,19.246,19.246,0,0,1-4.441.537,15.286,15.286,0,0,1-6.25-1.281,7.713,7.713,0,0,1-4.033-4A6.225,6.225,0,0,1,15.3,29.493c.035-.042.071-.086.108-.128a15.308,15.308,0,0,0,1.026-1.339A13.8,13.8,0,0,0,18.644,21.979Zm32.437,32.04a.752.752,0,0,0-.087.012H5.212c-2,0-3.692-1.109-3.692-2.42,0-.906.816-1.758,2.082-2.171a.76.76,0,0,0,.2-1.347,2.983,2.983,0,0,1-1.518-2.3c0-1.8,2.6-3.439,6.045-3.812a.759.759,0,0,0,.514-1.226,6.606,6.606,0,0,1-1.456-4.113,7.34,7.34,0,0,1,5.871-6.9,7.479,7.479,0,0,0-.581,7.107,9.233,9.233,0,0,0,4.814,4.8,16.8,16.8,0,0,0,6.865,1.412,20.853,20.853,0,0,0,4.8-.579,21.617,21.617,0,0,0,8.938-4.438q.463-.409.826-.8h.013a5.723,5.723,0,0,1,5.627,3.624.761.761,0,0,0,.862.523,7.213,7.213,0,0,1,1.275-.115c3.173,0,5.755,2.06,5.755,4.592a3.71,3.71,0,0,1-.139,1,.76.76,0,0,0,.317.842,3.443,3.443,0,0,1-1.541,6.307Zm0,0" transform="translate(0 -0.001)"/>
      <path id="Trazado_896891" data-name="Trazado 896891" d="M244.937,320.723c-.448.026-.892.072-1.328.136a1.974,1.974,0,0,0,.556.08A1.657,1.657,0,0,0,244.937,320.723Zm0,0" transform="translate(-217.158 -285.899)"/>
      <path id="Trazado_896892" data-name="Trazado 896892" d="M319.913,296.985c-.483-.164-1.069.278-1.311.988s-.045,1.418.437,1.582,1.069-.279,1.311-.988S320.4,297.149,319.913,296.985Zm0,0" transform="translate(-283.917 -264.708)" fill="#fff"/>
      <path id="Trazado_896893" data-name="Trazado 896893" d="M307.963,329.814a.691.691,0,1,0,.378.855A.662.662,0,0,0,307.963,329.814Zm0,0" transform="translate(-273.757 -293.975)" fill="#fff"/>
      <path id="Trazado_896894" data-name="Trazado 896894" d="M186.024,219.071c-1.584-.739-3.274.746-4.631,1.94a7.537,7.537,0,0,1-1.373,1.062.97.97,0,0,1-.6-.371,3.781,3.781,0,0,1-.59-2.941,8.43,8.43,0,0,0-1.113-4.331c-.012-.024-1.212-2.43-1.926-2.809a.8.8,0,0,0-.92.1c-.451.409-.208,1-.078,1.316.407.99-.574,2.978-1.448,4.739a.268.268,0,0,1-.012.025c-.221.446-.445.9-.654,1.344a13.637,13.637,0,0,0-.87,2.263c-.855,3.28,2.774,5.707,3.022,5.868a7.857,7.857,0,0,0,4.4,1.526,5.628,5.628,0,0,0,2.222-.452,6.344,6.344,0,0,0,3.188-3.184,7.181,7.181,0,0,0,.5-1.444c.03-.131.056-.262.079-.394a8.779,8.779,0,0,1,.8-2.88.76.76,0,0,0,.006-1.38Zm-2.963,5.858a4.7,4.7,0,0,1-2.2,2.026c-1.521.649-3.315.324-5.187-.939l-.013-.009c-.029-.02-2.971-1.955-2.382-4.211a11.406,11.406,0,0,1,.664-1.758c.211-.464.444-.939.678-1.411.025-.049.05-.1.074-.148a20.474,20.474,0,0,0,1.532-3.623,7.684,7.684,0,0,1,1.1,3.688,5.206,5.206,0,0,0,.947,4.152,2.57,2.57,0,0,0,1.217.816,1.976,1.976,0,0,0,.556.08,1.657,1.657,0,0,0,.772-.216,9.266,9.266,0,0,0,1.579-1.225,13.174,13.174,0,0,1,1.875-1.458,17.717,17.717,0,0,0-.548,2.379q-.034.2-.081.39A5.615,5.615,0,0,1,183.061,224.929Zm0,0" transform="translate(-153.038 -188.553)"/>
    </g>
  </g>
</svg>
