<svg id="bolsa-de-semillas" xmlns="http://www.w3.org/2000/svg" width="82.419" height="83.574" viewBox="0 0 82.419 83.574">
  <g id="Grupo_1105507" data-name="Grupo 1105507" transform="translate(1.329 2.485)">
    <g id="Grupo_1105495" data-name="Grupo 1105495" transform="translate(2.659)">
      <path id="Trazado_895311" data-name="Trazado 895311" d="M51.856,2V15.293H4V2l7.976,5.317L19.952,2l7.976,5.317L35.9,2,43.88,7.317Z" transform="translate(-4 -2)" fill="#cf9e76"/>
    </g>
    <g id="Grupo_1105496" data-name="Grupo 1105496" transform="translate(0 13.293)">
      <path id="Trazado_895312" data-name="Trazado 895312" d="M4.659,12V58.048A13.2,13.2,0,0,1,3.25,63.99l-.6,1.2A6.316,6.316,0,0,0,2,67.965a6.152,6.152,0,0,0,.439,2.3l1.555,3.868a2.654,2.654,0,0,0,2.459,1.675H53.844L52.515,12Z" transform="translate(-2 -12)" fill="#dfb28b"/>
    </g>
    <g id="Grupo_1105497" data-name="Grupo 1105497" transform="translate(7.976 21.269)">
      <path id="Trazado_895313" data-name="Trazado 895313" d="M37.245,31.293A10.632,10.632,0,0,0,47.88,41.928H40.874a2.671,2.671,0,0,0-2.632,2.286l-1.1,7.737A18.6,18.6,0,1,1,36.594,20.9a25.61,25.61,0,0,1,.651,5.7Z" transform="translate(-8 -18)" fill="#e6e9ed"/>
    </g>
    <g id="Grupo_1105498" data-name="Grupo 1105498" transform="translate(15.952 29.245)">
      <path id="Trazado_895314" data-name="Trazado 895314" d="M28.982,27.257l-.173.372a14.231,14.231,0,0,0-1.515,6.394,14.417,14.417,0,0,0,.425,3.47,13.979,13.979,0,0,0-2.366-.2,14.231,14.231,0,0,0-6.394,1.515l-1.316.651A15.8,15.8,0,0,1,14,29.317V26.659A2.666,2.666,0,0,1,16.659,24h2.659a15.883,15.883,0,0,1,9.664,3.257Z" transform="translate(-14 -24)" fill="#fcd770"/>
    </g>
    <g id="Grupo_1105499" data-name="Grupo 1105499" transform="translate(55.154 21.269)">
      <path id="Trazado_895315" data-name="Trazado 895315" d="M45.285,25.6a13.4,13.4,0,0,0-1.795.744,3.39,3.39,0,0,1,.173-.386A13.263,13.263,0,0,1,55.826,18h9.611V28.635A13.3,13.3,0,0,1,52.144,41.928l.253-.386A14.29,14.29,0,0,0,54.138,29.3c-.027-.066-.04-.146-.066-.213l-1.928-5.769Z" transform="translate(-43.49 -18)" fill="#b4dd7f"/>
    </g>
    <g id="Grupo_1105500" data-name="Grupo 1105500" transform="translate(34.563 18.611)">
      <path id="Trazado_895316" data-name="Trazado 895316" d="M43.208,31.992a13.31,13.31,0,0,0-1.914,6.886v3.709A10.632,10.632,0,0,1,30.659,31.952V27.259a25.61,25.61,0,0,0-.651-5.7A25.256,25.256,0,0,0,28,16h4.666A17.532,17.532,0,0,1,48.751,26.608l.013.013a3.388,3.388,0,0,0-.173.386v.013A13.227,13.227,0,0,0,43.208,31.992Z" transform="translate(-28 -16)" fill="#b4dd7f"/>
    </g>
    <g id="Grupo_1105501" data-name="Grupo 1105501" transform="translate(47.856 26.587)">
      <path id="Trazado_895317" data-name="Trazado 895317" d="M43.317,40.611H38V36.9a13.232,13.232,0,0,1,7.3-11.858v-.013a13.4,13.4,0,0,1,1.795-.744L53.952,22l1.928,5.769c.027.066.04.146.066.213A14.29,14.29,0,0,1,54.2,40.225l-.253.386Z" transform="translate(-38 -22)" fill="#a0d468"/>
    </g>
    <g id="Grupo_1105502" data-name="Grupo 1105502" transform="translate(34.563 45.197)">
      <path id="Trazado_895318" data-name="Trazado 895318" d="M73.144,63.53a5.012,5.012,0,0,1,.053.771,5.461,5.461,0,0,1-1.608,3.882l-1.6,1.6a2.667,2.667,0,0,1-1.888.784H33.091a2.667,2.667,0,0,1-1.888-.784l-1.6-1.6c-.093-.093-.173-.186-.266-.279A5.5,5.5,0,0,1,28,64.3a5.012,5.012,0,0,1,.053-.771l.891-6.261,1.608-11.246,1.1-7.737A2.671,2.671,0,0,1,34.288,36H66.91a2.671,2.671,0,0,1,2.632,2.286Z" transform="translate(-28 -36)" fill="#d3a06c"/>
    </g>
    <g id="Grupo_1105503" data-name="Grupo 1105503" transform="translate(45.197 50.515)">
      <path id="Trazado_895319" data-name="Trazado 895319" d="M47.964,40A11.964,11.964,0,1,1,36,51.964,11.965,11.965,0,0,1,47.964,40Z" transform="translate(-36 -40)" fill="#e6e9ed"/>
    </g>
    <g id="Grupo_1105504" data-name="Grupo 1105504" transform="translate(50.515 55.832)">
      <path id="Trazado_895320" data-name="Trazado 895320" d="M41.861,55.765A5.749,5.749,0,0,1,40,51.524a5.23,5.23,0,0,1,3.283-4.852l1.622-.638A9.313,9.313,0,0,0,47.976,44l1.688.837A6.585,6.585,0,0,1,52.31,47.27a6.464,6.464,0,0,1,.984,3.456,6.564,6.564,0,0,1-6.567,6.567h-.957a5.682,5.682,0,0,1-3.908-1.529Z" transform="translate(-40 -44)" fill="#b4dd7f"/>
    </g>
    <g id="Grupo_1105505" data-name="Grupo 1105505" transform="translate(29.245 32.502)">
      <path id="Trazado_895321" data-name="Trazado 895321" d="M31.976,39.145a5.351,5.351,0,0,1-1.555,3.762,5.138,5.138,0,0,1-1.582,1.077l-.651-.651a14.289,14.289,0,0,1-2.672-16.51l.173-.372a15.935,15.935,0,0,1,6.288,12.7Z" transform="translate(-24 -26.45)" fill="#a0d468"/>
    </g>
    <g id="Grupo_1105506" data-name="Grupo 1105506" transform="translate(19.594 42.539)">
      <path id="Trazado_895322" data-name="Trazado 895322" d="M26.816,34.2a14.362,14.362,0,0,0,3.762,6.647l.651.651a5.226,5.226,0,0,1-2.18.479,15.885,15.885,0,0,1-12.31-5.809l1.316-.651A14.231,14.231,0,0,1,24.45,34a13.979,13.979,0,0,1,2.366.2Z" transform="translate(-16.74 -34)" fill="#b4dd7f"/>
    </g>
  </g>
  <g id="Grupo_1105508" data-name="Grupo 1105508">
    <path id="Trazado_895323" data-name="Trazado 895323" d="M50.584,44.054l-2.54-1.271-.678.678a7.783,7.783,0,0,1-2.631,1.733l-1.62.649A6.515,6.515,0,0,0,39,51.921a7.109,7.109,0,0,0,7.1,7.1h.948a7.9,7.9,0,0,0,3.533-14.97ZM47.05,56.365H46.1a4.334,4.334,0,0,1-1.1-.154,13.485,13.485,0,0,0,4.08-3.936l.327-.491L47.2,50.31l-.327.491a10.817,10.817,0,0,1-4.339,3.742,4.4,4.4,0,0,1-.876-2.621A3.868,3.868,0,0,1,44.1,48.312l1.62-.649A10.41,10.41,0,0,0,48.526,46l.868.435a5.243,5.243,0,0,1-2.344,9.933Z" transform="translate(11.515 13.916)"/>
    <path id="Trazado_895324" data-name="Trazado 895324" d="M48.293,39A13.293,13.293,0,1,0,61.587,52.293,13.308,13.308,0,0,0,48.293,39Zm0,23.928A10.635,10.635,0,1,1,58.928,52.293,10.647,10.647,0,0,1,48.293,62.928Z" transform="translate(10.197 12.67)"/>
    <path id="Trazado_895325" data-name="Trazado 895325" d="M83.351,75.154,79.743,49.906A4.007,4.007,0,0,0,75.8,46.483H74.519A14.609,14.609,0,0,0,80.76,34.519V22.555H69.821a14.536,14.536,0,0,0-12.131,6.461,18.774,18.774,0,0,0-3.515-4.274V.131l-9.305,6.2L36.893,1.018,28.917,6.335,20.941,1.018,12.965,6.335,3.659.131V61.957A12.011,12.011,0,0,1,2.4,67.306l-.6,1.2a7.534,7.534,0,0,0-.257,6.165l1.546,3.868a3.972,3.972,0,0,0,3.7,2.5H37.67l1.49,1.49A3.964,3.964,0,0,0,41.981,83.7H77a3.964,3.964,0,0,0,2.82-1.168l1.6-1.6a6.818,6.818,0,0,0,1.926-5.777ZM60.959,37.913l-.137.273a33.35,33.35,0,0,1-5.9,8.3H51.515V44.1A11.952,11.952,0,0,1,59.7,32.75l5.6-1.866L66.8,35.4a12.9,12.9,0,0,1-1.4,11.085H58.518A36.039,36.039,0,0,0,63.2,39.374l.137-.273ZM38.221,32.488v4.69a11.932,11.932,0,0,0,.133,1.686A17.27,17.27,0,0,0,23.6,30.531H20.94a3.993,3.993,0,0,0-3.988,3.988v2.659A17.3,17.3,0,0,0,34.233,54.459a6.618,6.618,0,0,0,4.623-1.888l-.639,4.477a17.281,17.281,0,1,1-.51-29.422,23.82,23.82,0,0,1,.514,4.861Zm-10,11.419L24.814,40.5l2.108-2.108,3.333,3.333c0,.053-.009.106-.009.158a15.659,15.659,0,0,0,.138,1.973,15.691,15.691,0,0,0-2.164.051Zm2.434-5.542L28.8,36.513l1.623-1.623q.6.321,1.174.7A15.662,15.662,0,0,0,30.653,38.365Zm-3.731-3.731L25.638,33.35a14.506,14.506,0,0,1,2.118.451Zm-5.2-1.444,3.323,3.323-2.108,2.108L19.611,35.3v-.779A1.331,1.331,0,0,1,20.94,33.19ZM21.054,40.5l-.833.833a14.506,14.506,0,0,1-.451-2.118Zm1.88,1.88,2.136,2.136a15.46,15.46,0,0,0-2.427.958l-.316.158A14.766,14.766,0,0,1,21.312,44Zm8.024,4.175a15.5,15.5,0,0,0,2.813,5.22,14.558,14.558,0,0,1-9.643-4.056A13.116,13.116,0,0,1,30.958,46.557Zm5.672,4.424a12.888,12.888,0,0,1-3.726-9.1,13.02,13.02,0,0,1,.844-4.577,14.573,14.573,0,0,1,4.473,10.5A3.975,3.975,0,0,1,36.63,50.981Zm4.222-3.717a17.2,17.2,0,0,0-.372-3.117,12.043,12.043,0,0,0,2.257,2.378A3.968,3.968,0,0,0,40.852,47.264Zm28.969-22.05H78.1v9.305a11.982,11.982,0,0,1-9.5,11.706,15.54,15.54,0,0,0,1.018-10.648l4.106-4.106-1.88-1.88-3.132,3.132-1.733-5.2-6.487,2.163a11.892,11.892,0,0,1,9.328-4.469ZM56.032,31.526a14.571,14.571,0,0,0-3.557,2.951,17.554,17.554,0,0,0-6.921-7.745l-1.368,2.28a14.9,14.9,0,0,1,6.471,8.074,14.568,14.568,0,0,0-1.8,7.015v2.276a9.313,9.313,0,0,1-7.976-9.2v-4.69a26.668,26.668,0,0,0-1.932-9.933h2.613A16.136,16.136,0,0,1,56.032,31.526Zm-43.068-22L20.94,4.213l7.976,5.317,7.976-5.317,7.976,5.317L51.515,5.1V14.58H6.317V5.1ZM5.554,77.553,4.008,73.684a4.819,4.819,0,0,1-.35-1.808,4.912,4.912,0,0,1,.514-2.18l.6-1.2a14.7,14.7,0,0,0,1.543-6.539V17.238h45.2V22.75A18.791,18.791,0,0,0,41.562,19.9H34.741L35.7,21.82a23.852,23.852,0,0,1,1,2.328,19.936,19.936,0,1,0,1.033,36.228l-1.053,7.376H19.611v2.659h16.7l-.678,4.746a6.843,6.843,0,0,0-.068.961,6.772,6.772,0,0,0,.42,2.269H6.788a1.322,1.322,0,0,1-1.234-.835Zm73.991,1.5-1.6,1.6a1.336,1.336,0,0,1-.94.389H41.981a1.334,1.334,0,0,1-.94-.389l-1.6-1.6a4.179,4.179,0,0,1-1.215-2.934,4.3,4.3,0,0,1,.041-.586L41.87,50.284a1.334,1.334,0,0,1,1.315-1.142h32.61a1.334,1.334,0,0,1,1.315,1.141l3.608,25.245a4.145,4.145,0,0,1-1.172,3.524Z" transform="translate(-1 -0.131)"/>
    <path id="Trazado_895326" data-name="Trazado 895326" d="M7,51h7.976v2.659H7Z" transform="translate(0.976 16.622)"/>
  </g>
</svg>
