<svg xmlns="http://www.w3.org/2000/svg" width="79" height="79" viewBox="0 0 79 79">
  <g id="Grupo_1106230" data-name="Grupo 1106230" transform="translate(-656.051 -1109)">
    <circle id="Elipse_11676" data-name="Elipse 11676" cx="39.5" cy="39.5" r="39.5" transform="translate(656.051 1109)" fill="#edf6db"/>
    <g id="ceniza" transform="translate(669.926 1122.889)">
      <path id="Trazado_896874" data-name="Trazado 896874" d="M56.772,284.693a3.857,3.857,0,0,0-1.749-3.242,4.085,4.085,0,0,0,.154-1.1c0-2.715-2.679-4.916-5.985-4.916a7.3,7.3,0,0,0-1.3.117,5.95,5.95,0,0,0-5.836-3.821,6.8,6.8,0,0,0-3.229.8,11.17,11.17,0,0,0-6.147-1.652,12.618,12.618,0,0,0-4.247.7c-.171-3.877-3.7-6.973-8.021-6.973-4.435,0-8.029,3.254-8.029,7.267a6.777,6.777,0,0,0,1.487,4.211c-3.518.381-6.175,2.114-6.175,4.2a3.39,3.39,0,0,0,1.7,2.685A3.056,3.056,0,0,0,7,285.619c0,1.613,1.831,2.921,4.089,2.921H53.281v-.013A3.825,3.825,0,0,0,56.772,284.693Zm0,0" transform="translate(-6.302 -238.209)" fill="#4c5770"/>
      <path id="Trazado_896875" data-name="Trazado 896875" d="M110.434,281.451a4.09,4.09,0,0,0,.154-1.1c0-2.715-2.679-4.916-5.985-4.916a7.3,7.3,0,0,0-1.3.117,5.95,5.95,0,0,0-5.836-3.821,6.8,6.8,0,0,0-3.229.8,11.17,11.17,0,0,0-6.147-1.652,12.618,12.618,0,0,0-4.247.7c-.171-3.877-3.7-6.973-8.021-6.973a8.12,8.12,0,0,0-7.276,4.194,8.58,8.58,0,0,1,4.583-1.3c4.326,0,7.85,3.1,8.021,6.973a12.617,12.617,0,0,1,4.247-.7,11.17,11.17,0,0,1,6.147,1.652,6.8,6.8,0,0,1,3.229-.8,5.95,5.95,0,0,1,5.836,3.821,7.3,7.3,0,0,1,1.3-.117c3.305,0,5.985,2.2,5.985,4.916a4.09,4.09,0,0,1-.154,1.1,3.857,3.857,0,0,1,1.749,3.242,3.926,3.926,0,0,1-.086.815,3.869,3.869,0,0,0,1.03-6.949Zm0,0" transform="translate(-61.713 -238.209)" fill="#394154"/>
      <path id="Trazado_896876" data-name="Trazado 896876" d="M301.352,411.076a11.171,11.171,0,0,0,.518-1.3c.111-.341.2-.682.28-1.022a6.009,6.009,0,0,0,1.754.922,6.445,6.445,0,0,0,4.756-.363,10.347,10.347,0,0,0-.1,3.72,8.132,8.132,0,0,0-2.716,1.865,7.467,7.467,0,0,0-4.412-3.8Zm0,0" transform="translate(-271.294 -367.987)" fill="#e86140"/>
      <path id="Trazado_896877" data-name="Trazado 896877" d="M92.192,411.148a1.6,1.6,0,1,0-1.6,1.546A1.572,1.572,0,0,0,92.192,411.148Zm0,0" transform="translate(-80.123 -368.746)" fill="#a8b3cc"/>
      <path id="Trazado_896878" data-name="Trazado 896878" d="M171.987,434.948c0-.744-1.116-1.347-2.494-1.347s-2.494.6-2.494,1.347,1.116,1.346,2.494,1.346S171.987,435.692,171.987,434.948Zm0,0" transform="translate(-150.343 -390.352)" fill="#a8b3cc"/>
      <path id="Trazado_896879" data-name="Trazado 896879" d="M299.546,409.3a.7.7,0,0,1-.628-.392,6.808,6.808,0,0,0-4-3.442l-.024-.007-.054-.016a.7.7,0,0,1-.42-.965,10.437,10.437,0,0,0,.485-1.215c.1-.305.186-.618.262-.957a.7.7,0,0,1,1.1-.4,5.331,5.331,0,0,0,1.551.815,5.729,5.729,0,0,0,4.245-.333.7.7,0,0,1,.978.774,9.614,9.614,0,0,0-.09,3.469.7.7,0,0,1-.42.755,7.383,7.383,0,0,0-2.482,1.7A.7.7,0,0,1,299.546,409.3Zm-3.561-4.925a8.247,8.247,0,0,1,3.732,3.111,8.71,8.71,0,0,1,1.784-1.169,10.851,10.851,0,0,1-.01-2.23,6.88,6.88,0,0,1-4.107-.043,6.622,6.622,0,0,1-1.11-.48c-.014.045-.028.09-.043.134q-.112.341-.246.678Zm0,0" transform="translate(-264.992 -361.691)"/>
      <path id="Trazado_896880" data-name="Trazado 896880" d="M84.294,407.09a2.245,2.245,0,1,1,2.294-2.244A2.272,2.272,0,0,1,84.294,407.09Zm0-3.092a.849.849,0,1,0,.9.848A.875.875,0,0,0,84.294,404Zm0,0" transform="translate(-73.821 -362.444)"/>
      <path id="Trazado_896881" data-name="Trazado 896881" d="M163.192,430.691c-1.82,0-3.192-.879-3.192-2.045s1.372-2.045,3.192-2.045,3.192.879,3.192,2.045S165.011,430.691,163.192,430.691Zm0-2.693c-1.159,0-1.8.487-1.8.648s.637.648,1.8.648,1.8-.487,1.8-.648S164.351,428,163.192,428Zm0,0" transform="translate(-144.041 -384.051)"/>
      <path id="Trazado_896882" data-name="Trazado 896882" d="M382.7,35.585a.7.7,0,0,1-.373-1.289c.027-.017,2.811-1.809,3.136-4.186a3.93,3.93,0,0,0-1.188-3.194A6.705,6.705,0,0,1,382.287,22a6.55,6.55,0,0,1,2.046-4.2.7.7,0,0,1,.922,1.049A5.2,5.2,0,0,0,383.68,22.1a5.382,5.382,0,0,0,1.632,3.88,5.255,5.255,0,0,1,1.533,4.324c-.418,3.023-3.637,5.085-3.774,5.171A.693.693,0,0,1,382.7,35.585Zm0,0" transform="translate(-343.899 -15.875)"/>
      <path id="Trazado_896883" data-name="Trazado 896883" d="M408.643,175.316c-.238,0-.389-.011-.415-.014a.7.7,0,1,1,.113-1.392c.021,0,2.24.159,3.349-.966a2.521,2.521,0,0,0,.616-2.12,4.893,4.893,0,0,1,1-3.739,4.814,4.814,0,0,1,3.054-1.566.7.7,0,1,1,.109,1.392A3.427,3.427,0,0,0,414.362,168a3.571,3.571,0,0,0-.665,2.7,3.878,3.878,0,0,1-1.017,3.232A5.883,5.883,0,0,1,408.643,175.316Zm0,0" transform="translate(-366.932 -149.008)"/>
      <path id="Trazado_896884" data-name="Trazado 896884" d="M80.235,22.549a.7.7,0,0,1-.372-.108c-.137-.086-3.356-2.149-3.774-5.171a5.255,5.255,0,0,1,1.533-4.324,5.383,5.383,0,0,0,1.632-3.88A5.2,5.2,0,0,0,77.68,5.817.7.7,0,0,1,78.6,4.768a6.548,6.548,0,0,1,2.046,4.2A6.7,6.7,0,0,1,78.66,13.88a3.929,3.929,0,0,0-1.188,3.194c.325,2.377,3.109,4.169,3.137,4.187a.7.7,0,0,1-.374,1.288Zm0,0" transform="translate(-68.46 -4.136)"/>
      <path id="Trazado_896885" data-name="Trazado 896885" d="M12.486,162.318a5.883,5.883,0,0,1-4.036-1.385A3.878,3.878,0,0,1,7.433,157.7a3.571,3.571,0,0,0-.665-2.7,3.427,3.427,0,0,0-2.106-1.087.7.7,0,0,1,.109-1.392,4.81,4.81,0,0,1,3.054,1.566,4.893,4.893,0,0,1,1,3.739,2.522,2.522,0,0,0,.619,2.123c1.1,1.111,3.323.965,3.346.963A.7.7,0,0,1,12.9,162.3C12.875,162.307,12.724,162.318,12.486,162.318Zm0,0" transform="translate(-3.62 -137.307)"/>
      <path id="Trazado_896886" data-name="Trazado 896886" d="M140.622,40.726c-3.6,3.192-11.429,6.2-18.176,3.2a7.809,7.809,0,0,1-4.062-4.043,6.286,6.286,0,0,1,.949-6.571c.12-.162.252-.325.392-.489a11.006,11.006,0,0,0,2.492-4.811c.465-1.938.434-3.613,1.475-5.187a7.731,7.731,0,0,1,2.584-2.316c3.4-2.038,3.974-6.157,3.969-9.316,0-2.094-.263-3.765-.129-4.125a.109.109,0,0,1,.12-.067.292.292,0,0,1,.082.013c1.368.359,8.807,8.05,5.559,14.965-3.5,7.455-.677,10.392-.452,10.392s3.049-4.744,5.534-5.535c-.042.083-1.9,3.754-.451,6.1C141.977,35.3,144.575,37.224,140.622,40.726Zm0,0" transform="translate(-106.098 -6.298)" fill="#ffa52e"/>
      <path id="Trazado_896887" data-name="Trazado 896887" d="M142.867,19.033c-4.987,2.992-1.7,6.084-5.785,10.872s.7,8.877.7,8.877a12.382,12.382,0,0,0,5.073,1.883,12.939,12.939,0,0,1-8.065-1.983s-2.634-2.25-2.325-5.367a6.339,6.339,0,0,1,1.627-3.51,10.93,10.93,0,0,0,1.258-1.79c1.1-1.986,1.107-3.666,1.475-5.187a7.731,7.731,0,0,1,2.584-2.316c3.4-2.038,3.974-6.157,3.969-9.316.044-2.075-.238-3.787-.109-4.133a.094.094,0,0,1,.1-.059.292.292,0,0,1,.082.013,9.028,9.028,0,0,1,2.9,2.8C146.465,12.666,146.238,17.011,142.867,19.033Zm0,0" transform="translate(-119.228 -6.305)" fill="#ff991f"/>
      <path id="Trazado_896888" data-name="Trazado 896888" d="M181.278,231.721s-3.163-2.033-2.485-4.631,3.5-6.212,2.711-8.133,2.711,3.05,2.372,5.422.791,3.84,1.807,3.84,3.5-3.615,5.2-2.824c0,0-.565-.113-1.13,3.163S185.8,234.771,181.278,231.721Zm0,0" transform="translate(-160.874 -196.728)" fill="#ff661a"/>
      <path id="Trazado_896889" data-name="Trazado 896889" d="M183.65,230.93s-3.163-2.033-2.485-4.631a36.456,36.456,0,0,1,2.1-4.741c-.877-2.06-2.293-3.9-1.76-2.6.791,1.92-2.033,5.535-2.711,8.133s2.485,4.631,2.485,4.631c2.527,1.705,4.7,1.539,6.224.487A6.476,6.476,0,0,1,183.65,230.93Zm0,0" transform="translate(-160.874 -196.728)" fill="#b23b00"/>
      <path id="Trazado_896890" data-name="Trazado 896890" d="M49.5,42.95a4.765,4.765,0,0,0,.071-.812c0-3.1-3-5.614-6.683-5.614a7.961,7.961,0,0,0-.84.045,6.623,6.623,0,0,0-5.3-3.685c1.31-2.3.045-4.07-1.016-5.55-.251-.349-.509-.71-.729-1.067-1.241-2,.462-5.379.479-5.412a.7.7,0,0,0-.833-.985c-2.065.657-4.137,3.482-5.25,5l-.081.111a5.077,5.077,0,0,1-.531-1.8c-.3-2.469.719-5.282,1.623-7.206a9.813,9.813,0,0,0,.5-6.805,16.99,16.99,0,0,0-2.777-5.613,17.428,17.428,0,0,0-2.24-2.52C24.81.052,24.332-.035,24.009.01a.79.79,0,0,0-.644.512,4.917,4.917,0,0,0-.025,1.787c.192,2.867.593,8.833-3.521,11.3-3.32,1.992-3.683,4.107-4.067,6.344a11.078,11.078,0,0,1-2.372,5.769c-4.47.341-7.993,3.77-7.993,7.937a7.361,7.361,0,0,0,.988,3.685C2.981,38,.7,39.856.7,42.066a3.622,3.622,0,0,0,1.1,2.506A3.386,3.386,0,0,0,0,47.41c0,2,2.148,3.62,4.788,3.62H46.979a.714.714,0,0,0,.2-.029A4.561,4.561,0,0,0,49.5,42.95ZM17.127,20.19c.372-2.159.639-3.72,3.41-5.382a8.885,8.885,0,0,0,4.011-6.347,24.635,24.635,0,0,0,.185-6.246c-.009-.122-.017-.249-.025-.371a17.314,17.314,0,0,1,4.2,5.806,9.117,9.117,0,0,1,.235,7.73c-2.912,6.2-1.6,9.426-.9,10.526.547.861.95.861,1.082.861.412,0,.563-.205,1.2-1.072a23.51,23.51,0,0,1,2.963-3.485A6.153,6.153,0,0,0,33.817,27c.247.4.519.778.782,1.145,1.143,1.6,2.018,2.817.493,4.7a8.9,8.9,0,0,1-1.031,1.057,13.546,13.546,0,0,1-1.435,1.1,19.492,19.492,0,0,1-6.172,2.663,17.679,17.679,0,0,1-4.08.494,14.041,14.041,0,0,1-5.741-1.177,7.086,7.086,0,0,1-3.7-3.676,5.718,5.718,0,0,1,1.131-6.217c.032-.039.065-.079.1-.118a14.062,14.062,0,0,0,.942-1.23A12.679,12.679,0,0,0,17.127,20.19Zm29.8,29.432a.69.69,0,0,0-.08.011H4.788c-1.838,0-3.391-1.018-3.391-2.223,0-.832.75-1.615,1.912-1.994a.7.7,0,0,0,.18-1.238,2.741,2.741,0,0,1-1.394-2.111c0-1.654,2.387-3.159,5.553-3.5a.7.7,0,0,0,.473-1.126A6.069,6.069,0,0,1,6.782,33.66a6.743,6.743,0,0,1,5.393-6.336,6.87,6.87,0,0,0-.534,6.528,8.482,8.482,0,0,0,4.423,4.41,15.43,15.43,0,0,0,6.306,1.3,19.156,19.156,0,0,0,4.405-.531,19.857,19.857,0,0,0,8.211-4.077q.425-.376.759-.735h.012a5.257,5.257,0,0,1,5.169,3.329.7.7,0,0,0,.792.481,6.625,6.625,0,0,1,1.171-.106c2.914,0,5.286,1.892,5.286,4.218a3.408,3.408,0,0,1-.128.917.7.7,0,0,0,.291.773,3.163,3.163,0,0,1-1.415,5.794Zm0,0"/>
      <path id="Trazado_896891" data-name="Trazado 896891" d="M244.829,320.723c-.412.024-.82.066-1.22.125a1.813,1.813,0,0,0,.511.074A1.522,1.522,0,0,0,244.829,320.723Zm0,0" transform="translate(-219.311 -288.732)"/>
      <path id="Trazado_896892" data-name="Trazado 896892" d="M319.8,296.982c-.443-.151-.982.256-1.2.908s-.042,1.3.4,1.453.982-.256,1.2-.908S320.242,297.133,319.8,296.982Zm0,0" transform="translate(-286.732 -267.331)" fill="#fff"/>
      <path id="Trazado_896893" data-name="Trazado 896893" d="M307.893,329.811a.635.635,0,1,0,.347.785A.608.608,0,0,0,307.893,329.811Zm0,0" transform="translate(-276.472 -296.889)" fill="#fff"/>
      <path id="Trazado_896894" data-name="Trazado 896894" d="M184.856,218.456c-1.455-.679-3.007.685-4.254,1.783a6.924,6.924,0,0,1-1.261.975.891.891,0,0,1-.552-.341,3.473,3.473,0,0,1-.542-2.7,7.744,7.744,0,0,0-1.022-3.979c-.011-.022-1.113-2.232-1.769-2.58a.733.733,0,0,0-.845.1c-.415.376-.191.918-.072,1.209.374.909-.528,2.736-1.331,4.354a.248.248,0,0,1-.011.023c-.2.41-.409.823-.6,1.235a12.528,12.528,0,0,0-.8,2.079c-.786,3.013,2.548,5.243,2.776,5.39a7.218,7.218,0,0,0,4.045,1.4,5.17,5.17,0,0,0,2.042-.415,5.828,5.828,0,0,0,2.929-2.924,6.6,6.6,0,0,0,.456-1.326c.028-.12.052-.24.072-.362a8.065,8.065,0,0,1,.732-2.646.7.7,0,0,0,.005-1.268Zm-2.722,5.381a4.317,4.317,0,0,1-2.02,1.861c-1.4.6-3.045.3-4.765-.863l-.012-.008c-.027-.018-2.729-1.8-2.188-3.868a10.477,10.477,0,0,1,.61-1.615c.194-.426.408-.863.623-1.3.023-.045.046-.091.068-.136a18.808,18.808,0,0,0,1.407-3.328,7.059,7.059,0,0,1,1.008,3.388,4.782,4.782,0,0,0,.87,3.814,2.361,2.361,0,0,0,1.118.749,1.815,1.815,0,0,0,.511.074,1.522,1.522,0,0,0,.709-.2,8.511,8.511,0,0,0,1.45-1.125,12.1,12.1,0,0,1,1.723-1.34,16.278,16.278,0,0,0-.5,2.185c-.021.121-.046.24-.075.358A5.158,5.158,0,0,1,182.135,223.837Zm0,0" transform="translate(-154.556 -190.422)"/>
    </g>
  </g>
</svg>
