<svg xmlns="http://www.w3.org/2000/svg" width="62" height="62" viewBox="0 0 62 62">
  <g id="Grupo_1106630" data-name="Grupo 1106630" transform="translate(-192.051 -7977)">
    <g id="Soil_and_shovel" data-name="Soil and shovel" transform="translate(199.058 7984)">
      <path id="Trazado_897062" data-name="Trazado 897062" d="M38,22c0,7.79.81,12-2.91,15.61A6,6,0,0,0,30.71,36,7,7,0,0,0,24,31V22Z" fill="#dad7e5"/>
      <path id="Trazado_897063" data-name="Trazado 897063" d="M38,22c0,8.92.54,11.46-2.12,14.74A5.88,5.88,0,0,0,32.71,36,7,7,0,0,0,26,31c0-.16,0-1.12,0-9Z" fill="#edebf2"/>
      <path id="Trazado_897064" data-name="Trazado 897064" d="M33,7c0,17.83.22,17.44-.54,18.66A3.44,3.44,0,0,1,31,27a3.61,3.61,0,0,1-2-3.24V7Z" fill="#a87e6b"/>
      <path id="Trazado_897065" data-name="Trazado 897065" d="M33,7c0,17.83.22,17.44-.54,18.66A3.61,3.61,0,0,1,31,22.76V7Z" fill="#be927c"/>
      <path id="Trazado_897066" data-name="Trazado 897066" d="M36.37,36.07a9.43,9.43,0,0,1-1.28,1.54A6,6,0,0,0,30.71,36,7,7,0,0,0,24,31V29a9.05,9.05,0,0,1,8.1,5.08,7.94,7.94,0,0,1,4.27,1.99Z" fill="#dad7e5"/>
      <path id="Trazado_897067" data-name="Trazado 897067" d="M43,47H5a5,5,0,0,1,3-4.6,7,7,0,0,1,9.17-6c1.64-6.91,11.5-7.2,13.51-.34a6,6,0,0,1,6,4A7,7,0,0,1,43,47Z" fill="#a87e6b"/>
      <path id="Trazado_897068" data-name="Trazado 897068" d="M43,47H8a4.88,4.88,0,0,1,2-1.6,7,7,0,0,1,9.17-6A7,7,0,0,1,26,34c2.4,0,4.48,1.35,4.7,2a6,6,0,0,1,6,4A7,7,0,0,1,43,47Z" fill="#be927c"/>
      <path id="Trazado_897069" data-name="Trazado 897069" d="M33,8c-4.34,0-4.32.1-4.71-.29C26.05,5.47,26,3.08,26,1a1,1,0,0,1,1-1h8a1,1,0,0,1,1,1V2.17C36,4.91,34.18,8,33,8ZM29.43,6h3.14A5.9,5.9,0,0,0,34,2.17c0-.25.7-.17-6-.17a5.92,5.92,0,0,0,1.43,4Z" fill="#a87e6b"/>
      <path id="Trazado_897070" data-name="Trazado 897070" d="M36,2H26a1,1,0,0,1,0-2H36a1,1,0,0,1,0,2Z" fill="#a87e6b"/>
      <path id="Trazado_897071" data-name="Trazado 897071" d="M37.38,39.13a6.94,6.94,0,0,0-.94-1.51C39.66,33.89,39,30.65,39,22a1,1,0,0,0-1-1H34V7.38A7.87,7.87,0,0,0,36,2a1,1,0,1,0,0-2H26a1,1,0,1,0,0,2,7.87,7.87,0,0,0,2,5.38V21H24a1,1,0,0,0-1,1v8.08a7.92,7.92,0,0,0-6.47,5.06,8,8,0,0,0-9.43,6.6C4.12,43.39,3,48,5,48H43a1,1,0,0,0,1-1A7.94,7.94,0,0,0,37.38,39.13ZM30,8h2V23.76a2.61,2.61,0,0,1-1,2.07,2.61,2.61,0,0,1-1-2.07Zm4-6a5.92,5.92,0,0,1-1.43,4H29.43A5.9,5.9,0,0,1,28,2.17C28,1.92,27.3,2,34,2ZM28,23v.76a4.6,4.6,0,0,0,2.56,4.14c.94.46,3.44-1.32,3.44-4.14V23h3c0,7.93.52,10.25-2,13.26A6.84,6.84,0,0,0,31.42,35,8,8,0,0,0,25,30.08V23ZM6.13,46a4,4,0,0,1,2.3-2.68,1,1,0,0,0,.6-.84,6,6,0,0,1,7.85-5.18,1,1,0,0,0,1.29-.72,6,6,0,0,1,11.58-.29,1,1,0,0,0,1.07.71,5,5,0,0,1,4.9,3.37,1,1,0,0,0,.86.67,5.94,5.94,0,0,1,5.34,5Z"/>
    </g>
    <rect id="Rectángulo_403102" data-name="Rectángulo 403102" width="62" height="62" transform="translate(192.051 7977)" fill="none"/>
  </g>
</svg>
