<svg xmlns="http://www.w3.org/2000/svg" width="62" height="62" viewBox="0 0 62 62">
  <g id="Grupo_1106631" data-name="Grupo 1106631" transform="translate(-192.051 -8379)">
    <rect id="Rectángulo_403107" data-name="Rectángulo 403107" width="62" height="62" transform="translate(192.051 8379)" fill="none"/>
    <g id="tierra_2_" data-name="tierra (2)" transform="translate(175.298 8272.645)">
      <g id="Grupo_1106233" data-name="Grupo 1106233" transform="translate(21.753 122.355)">
        <path id="Trazado_896911" data-name="Trazado 896911" d="M27.318,156.46a.565.565,0,0,1-.561-.641c.019-.141.49-3.472,2.692-5.066a3,3,0,0,0,1.152-1.187,8.2,8.2,0,0,1,2.353-2.586,10.085,10.085,0,0,1,3.254-1.89c.938-.357,1.19-.453,1.348-1.6.287-2.084,1.926-4.177,3.372-6.023.491-.627.955-1.22,1.338-1.774a4.991,4.991,0,0,1,3.316-2.048,6.59,6.59,0,0,0,2.393-1,.577.577,0,0,1,.052-.034,13.157,13.157,0,0,0,3.683-2.931,6.11,6.11,0,0,1,3.88-2.247,3.047,3.047,0,0,1,.661-.072c2.012,0,4,1.924,4.847,2.746l.009.009a4.2,4.2,0,0,1,.875,1.635,5.807,5.807,0,0,0,2,2.995,7.039,7.039,0,0,1,2.727,4.032c.069.226.135.44.205.621.38.971,2.614,3.658,4.322,4.063,1.341.318,2.2,2.172,3.193,4.319a14.041,14.041,0,0,0,2.377,4.032c2.395,2.231,1.729,4.195,1.7,4.277a.566.566,0,0,1-.533.375H27.318Z" transform="translate(-26.187 -126.791)" fill="#733619"/>
        <path id="Trazado_896912" data-name="Trazado 896912" d="M51.816,123.486c1.79,0,3.648,1.807,4.462,2.6.9.868.717,3.005,2.926,4.675s2.329,3.339,2.747,4.408,2.747,3.94,4.718,4.408,3.165,6.21,5.315,8.214,1.553,3.673,1.553,3.673H22.884s.432-3.213,2.463-4.683.447-1.195,3.537-3.8,4.439-1.241,4.8-3.845,3.092-5.349,4.615-7.553,3.458-1.378,5.576-2.916c4.748-2.7,3.466-4.239,7.406-5.118a2.464,2.464,0,0,1,.538-.058m0-1.131a3.61,3.61,0,0,0-.785.085,6.645,6.645,0,0,0-4.175,2.419,12.509,12.509,0,0,1-3.545,2.82,1.132,1.132,0,0,0-.1.068,6.046,6.046,0,0,1-2.2.915,5.528,5.528,0,0,0-3.638,2.273c-.374.541-.833,1.127-1.318,1.747-1.49,1.9-3.179,4.059-3.487,6.295a1.658,1.658,0,0,1-.245.8,2.728,2.728,0,0,1-.744.35,10.729,10.729,0,0,0-3.417,1.986,8.907,8.907,0,0,0-2.485,2.748c-.165.3-.257.471-.987,1-2.4,1.734-2.9,5.3-2.921,5.449a1.131,1.131,0,0,0,1.121,1.282H73.537a1.131,1.131,0,0,0,1.065-.75c.087-.243.772-2.441-1.847-4.881a14.039,14.039,0,0,1-2.249-3.855c-1.056-2.281-1.968-4.25-3.576-4.632-1.486-.353-3.6-2.877-3.926-3.719-.063-.161-.122-.355-.191-.58a7.631,7.631,0,0,0-2.927-4.318,5.263,5.263,0,0,1-1.808-2.738,4.611,4.611,0,0,0-1.013-1.846l-.009-.009c-.973-.943-3-2.906-5.24-2.906Z" transform="translate(-21.753 -122.355)"/>
      </g>
      <path id="Trazado_896913" data-name="Trazado 896913" d="M282.8,160.327h-3.537a4.991,4.991,0,0,0-1.521-2.316c-2.15-2-3.345-7.746-5.315-8.214s-4.3-3.338-4.718-4.407-.537-2.739-2.746-4.408-2.031-3.806-2.926-4.674c-.794-.77-2.582-2.507-4.33-2.593a5.7,5.7,0,0,1,2.835-1.3c1.942-.432,4.1,1.67,5,2.538s.716,3,2.926,4.674,2.329,3.339,2.746,4.408,2.748,3.94,4.718,4.407,3.165,6.211,5.315,8.214S282.8,160.327,282.8,160.327Z" transform="translate(-209.263 -8.868)" opacity="0.2"/>
      <g id="Grupo_1106234" data-name="Grupo 1106234" transform="translate(42.156 136.517)">
        <path id="Trazado_896914" data-name="Trazado 896914" d="M208.163,249.465a.562.562,0,0,1-.269-.069,5.518,5.518,0,0,0-4.938-.241.566.566,0,0,1-.521-1,6.656,6.656,0,0,1,6,.251.566.566,0,0,1-.27,1.063Z" transform="translate(-202.131 -247.559)"/>
      </g>
      <g id="Grupo_1106235" data-name="Grupo 1106235" transform="translate(47.604 145.062)">
        <path id="Trazado_896915" data-name="Trazado 896915" d="M256.322,325a.562.562,0,0,1-.269-.069,5.564,5.564,0,0,0-4.936-.242.566.566,0,0,1-.523-1,6.657,6.657,0,0,1,6,.251.566.566,0,0,1-.27,1.063Z" transform="translate(-250.289 -323.096)"/>
      </g>
      <g id="Grupo_1106236" data-name="Grupo 1106236" transform="translate(49.415 130.276)">
        <path id="Trazado_896916" data-name="Trazado 896916" d="M272.337,194.284a.563.563,0,0,1-.269-.069,5.566,5.566,0,0,0-4.936-.242.566.566,0,1,1-.523-1,6.655,6.655,0,0,1,6,.251.566.566,0,0,1-.27,1.063Z" transform="translate(-266.304 -192.377)"/>
      </g>
      <g id="Grupo_1106237" data-name="Grupo 1106237" transform="translate(31.164 145.834)">
        <path id="Trazado_896917" data-name="Trazado 896917" d="M110.984,331.831a.562.562,0,0,1-.269-.069,5.519,5.519,0,0,0-4.938-.241.566.566,0,0,1-.521-1,6.657,6.657,0,0,1,6,.251.566.566,0,0,1-.27,1.063Z" transform="translate(-104.952 -329.924)"/>
      </g>
      <g id="Grupo_1106238" data-name="Grupo 1106238" transform="translate(39.57 141.615)">
        <path id="Trazado_896918" data-name="Trazado 896918" d="M180.291,294.665a1.02,1.02,0,1,1,1.02-1.02A1.022,1.022,0,0,1,180.291,294.665Zm0-1.131a.111.111,0,1,0,.111.111A.111.111,0,0,0,180.291,293.534Z" transform="translate(-179.271 -292.624)"/>
      </g>
      <g id="Grupo_1106239" data-name="Grupo 1106239" transform="translate(52.616 137.882)">
        <path id="Trazado_896919" data-name="Trazado 896919" d="M295.625,261.665a1.02,1.02,0,1,1,1.02-1.02A1.022,1.022,0,0,1,295.625,261.665Zm0-1.131a.111.111,0,1,0,.111.111A.111.111,0,0,0,295.625,260.534Z" transform="translate(-294.605 -259.624)"/>
      </g>
      <g id="Grupo_1106240" data-name="Grupo 1106240" transform="translate(44.889 131.051)">
        <path id="Trazado_896920" data-name="Trazado 896920" d="M227.312,201.276a1.02,1.02,0,1,1,1.02-1.02A1.022,1.022,0,0,1,227.312,201.276Zm0-1.131a.111.111,0,1,0,.111.111A.111.111,0,0,0,227.312,200.145Z" transform="translate(-226.292 -199.235)"/>
      </g>
      <g id="Grupo_1106241" data-name="Grupo 1106241" transform="translate(61.852 141.615)">
        <path id="Trazado_896921" data-name="Trazado 896921" d="M377.27,294.665a1.02,1.02,0,1,1,1.02-1.02A1.022,1.022,0,0,1,377.27,294.665Zm0-1.131a.111.111,0,1,0,.111.111A.111.111,0,0,0,377.27,293.534Z" transform="translate(-376.25 -292.624)"/>
      </g>
    </g>
  </g>
</svg>
