<svg xmlns="http://www.w3.org/2000/svg" width="86" height="86" viewBox="0 0 86 86">
  <g id="Grupo_1106635" data-name="Grupo 1106635" transform="translate(-599.051 -9556)">
    <circle id="Elipse_11691" data-name="Elipse 11691" cx="43" cy="43" r="43" transform="translate(599.051 9556)" fill="#a8d549"/>
    <g id="campo" transform="translate(518.385 9475.333)">
      <path id="Trazado_897118" data-name="Trazado 897118" d="M163.662,1066.67l30.326,15.163L163.662,1097l-30.326-15.163Z" transform="translate(-40.316 -943.323)" fill="#723700" fill-rule="evenodd"/>
      <path id="Trazado_897119" data-name="Trazado 897119" d="M123.951,1025.144l30.326,15.163a1.354,1.354,0,0,1,0,2.422l-30.326,15.163a1.355,1.355,0,0,1-1.211,0l-30.326-15.163a1.354,1.354,0,0,1,0-2.422l30.326-15.163A1.354,1.354,0,0,1,123.951,1025.144Zm-.605,2.724-27.3,13.649,27.3,13.649,27.3-13.649Z" transform="translate(0 -903.008)" fill-rule="evenodd"/>
      <path id="Trazado_897120" data-name="Trazado 897120" d="M558.3,1261.281a1.354,1.354,0,0,1,1.214-2.42l30.276,15.188a1.354,1.354,0,1,1-1.214,2.42Z" transform="translate(-450.754 -1129.13)" fill-rule="evenodd"/>
      <path id="Trazado_897121" data-name="Trazado 897121" d="M559.519,1274.92a1.354,1.354,0,0,1-1.214-2.42l30.276-15.188a1.354,1.354,0,1,1,1.214,2.42Z" transform="translate(-450.754 -1127.631)" fill-rule="evenodd"/>
      <circle id="Elipse_11763" data-name="Elipse 11763" cx="1.354" cy="1.354" r="1.354" transform="translate(106.804 137.131)"/>
      <circle id="Elipse_11764" data-name="Elipse 11764" cx="1.354" cy="1.354" r="1.354" transform="translate(121.942 129.537)"/>
      <circle id="Elipse_11765" data-name="Elipse 11765" cx="1.354" cy="1.354" r="1.354" transform="translate(121.992 144.725)"/>
      <circle id="Elipse_11766" data-name="Elipse 11766" cx="1.354" cy="1.354" r="1.354" transform="translate(136.342 137.131)"/>
      <path id="Trazado_897122" data-name="Trazado 897122" d="M709.635,156.845a11.863,11.863,0,1,1,4.5,0l-2.25,3.056Z" transform="translate(-588.589 -40.312)" fill="#ffb74d" fill-rule="evenodd"/>
      <path id="Trazado_897123" data-name="Trazado 897123" d="M668.537,117.749a13.217,13.217,0,1,1,6.071,0l-1.945,2.643a1.354,1.354,0,0,1-2.181,0Zm1.876-2.019,1.159,1.575,1.159-1.575a1.354,1.354,0,0,1,.835-.527,10.509,10.509,0,1,0-3.988,0A1.354,1.354,0,0,1,670.413,115.731Z" transform="translate(-548.277)" fill-rule="evenodd"/>
      <path id="Trazado_897124" data-name="Trazado 897124" d="M954.371,287.545c2.294,1.427,3.771,2.651,3.771,5.154a4.575,4.575,0,1,1-7.543,0C950.6,290.2,952.077,288.972,954.371,287.545Z" transform="translate(-831.026 -189.513)" fill="#159cff" fill-rule="evenodd"/>
      <path id="Trazado_897125" data-name="Trazado 897125" d="M908.933,252.866a9.314,9.314,0,0,0,4.41,8.314,1.354,1.354,0,0,0,1.43,0,9.314,9.314,0,0,0,4.41-8.314c0-3.015-.723-6.243-5.125-6.2S908.933,249.851,908.933,252.866Zm5.125-3.551c2.383-.019,2.417,1.83,2.417,3.551a3.283,3.283,0,1,1-4.835,0C911.641,251.145,911.675,249.333,914.058,249.314Z" transform="translate(-790.712 -149.68)" fill-rule="evenodd"/>
    </g>
  </g>
</svg>
