<svg xmlns="http://www.w3.org/2000/svg" width="86" height="86" viewBox="0 0 86 86">
  <g id="Grupo_1106636" data-name="Grupo 1106636" transform="translate(-914.051 -9556)">
    <circle id="Elipse_11692" data-name="Elipse 11692" cx="43" cy="43" r="43" transform="translate(914.051 9556)" fill="#a8d549"/>
    <g id="cemento" transform="translate(877.6 9568)">
      <g id="Grupo_1106627" data-name="Grupo 1106627" transform="translate(56.343 0.893)">
        <path id="Trazado_897072" data-name="Trazado 897072" d="M106.954,37.088q0,10.4-.647,20.8c-.127,2.024,2.712,2.647,2.614,4.945-.078,1.82-1.74,2.357-2.8,2.5a152.479,152.479,0,0,1-20.179,1.344,152.458,152.458,0,0,1-20.179-1.344c-1.065-.144-2.727-.681-2.8-2.5-.1-2.3,2.74-2.922,2.614-4.945q-.652-10.4-.647-20.8t.647-20.8c.127-2.024-2.712-2.647-2.614-4.945.078-1.82,1.74-2.357,2.8-2.5a152.17,152.17,0,0,1,40.358,0c1.065.144,2.727.681,2.8,2.5.1,2.3-2.74,2.922-2.614,4.945Q106.959,26.689,106.954,37.088Z" transform="translate(-62.951 -7.5)" fill="#ffe09c"/>
        <path id="Trazado_897073" data-name="Trazado 897073" d="M163.085,258.92l-4.659,9.319a1.909,1.909,0,0,0,2.232,2.689l12.231-3.495a1.909,1.909,0,0,0,.639-3.349l-7.571-5.824A1.909,1.909,0,0,0,163.085,258.92Z" transform="translate(-146.875 -228.054)" fill="#ffd18d"/>
        <path id="Trazado_897074" data-name="Trazado 897074" d="M275.692,151.656a1.981,1.981,0,0,0-2.54-.116l-6.345,4.615a1.909,1.909,0,0,0-.421,2.666h0a1.909,1.909,0,0,0,2.666.421l6.429-4.675A1.91,1.91,0,0,0,275.692,151.656Z" transform="translate(-241.842 -134.033)" fill="#ffd18d"/>
        <path id="Trazado_897075" data-name="Trazado 897075" d="M173.031,292.214a1.909,1.909,0,0,0,.64-3.349l-3.733-2.871-1.9,2.155,1.627,1.252a.48.48,0,0,1-.161.842L158.442,293.4a1.9,1.9,0,0,0,2.357,2.3Z" transform="translate(-147.018 -252.834)" fill="#fbbd80"/>
        <path id="Trazado_897076" data-name="Trazado 897076" d="M311.488,151.656a1.981,1.981,0,0,0-2.54-.116l-2.293,1.671a1.98,1.98,0,0,1,2.54.116A1.909,1.909,0,0,1,309,156.22l2.274-1.654A1.911,1.911,0,0,0,311.488,151.656Z" transform="translate(-277.638 -134.033)" fill="#fbbd80"/>
        <path id="Trazado_897077" data-name="Trazado 897077" d="M106.956,46.1q0-10.4-.647-20.8c-.127-2.024,2.712-2.647,2.613-4.945-.078-1.82-1.74-2.357-2.8-2.5-.358-.048-.716-.08-1.074-.125l.465.69a2.623,2.623,0,0,1,.567,1.631c-.019.176-.281.473-.679.907a5.865,5.865,0,0,0-1.946,4.523c.428,6.819.643,13.756.641,20.62s-.214,13.8-.641,20.618a4.847,4.847,0,0,0,.805,3,1.343,1.343,0,0,1-.043,1.5h0a1.375,1.375,0,0,1-.964.575A149.975,149.975,0,0,1,85.92,72.83a155.273,155.273,0,0,1-19.8-1.322,22.206,22.206,0,0,1-2.911-.621l-.1-.025a2.45,2.45,0,0,0-.161.985c.078,1.82,1.74,2.357,2.8,2.5a152.435,152.435,0,0,0,20.179,1.344,152.483,152.483,0,0,0,20.179-1.344c1.065-.144,2.727-.681,2.8-2.5.1-2.3-2.74-2.922-2.613-4.945Q106.961,56.5,106.956,46.1Z" transform="translate(-62.953 -16.516)" fill="#ffd18d"/>
      </g>
      <g id="Grupo_1106628" data-name="Grupo 1106628" transform="translate(55.45 0)">
        <path id="Trazado_897078" data-name="Trazado 897078" d="M79.343,60.963h-.026a154.057,154.057,0,0,1-20.284-1.352c-2.165-.293-3.5-1.545-3.579-3.349a4.317,4.317,0,0,1,1.627-3.3c.654-.667,1.022-1.072.987-1.632-.432-6.894-.65-13.91-.649-20.854s.217-13.959.649-20.853c.035-.56-.333-.965-.987-1.632a4.317,4.317,0,0,1-1.627-3.3c.077-1.8,1.414-3.055,3.577-3.348Q60.436,1.165,61.837,1a.893.893,0,0,1,.2,1.774q-1.386.159-2.772.344c-1.307.177-1.991.734-2.031,1.654-.032.755.4,1.24,1.118,1.969A3.9,3.9,0,0,1,59.851,9.74c-.43,6.857-.647,13.835-.645,20.742s.216,13.885.645,20.742a3.9,3.9,0,0,1-1.494,2.994c-.714.729-1.15,1.214-1.118,1.969.039.921.723,1.477,2.032,1.655a152.594,152.594,0,0,0,20.059,1.336A151.993,151.993,0,0,0,99.39,57.841c1.307-.177,1.991-.734,2.03-1.654.032-.755-.4-1.24-1.118-1.969a3.9,3.9,0,0,1-1.494-2.994c.43-6.857.647-13.835.645-20.742S99.238,16.6,98.808,9.74A3.9,3.9,0,0,1,100.3,6.745c.714-.729,1.15-1.214,1.118-1.969-.039-.921-.723-1.477-2.032-1.655A152.275,152.275,0,0,0,79.343,1.786h-.028c-4.5,0-9.059.206-13.559.611A.893.893,0,1,1,65.6.618C70.153.208,74.772,0,79.33,0a154.078,154.078,0,0,1,20.3,1.352c2.165.293,3.5,1.545,3.579,3.349A4.317,4.317,0,0,1,101.578,8c-.654.667-1.022,1.072-.987,1.632.432,6.894.65,13.91.649,20.854s-.217,13.959-.649,20.853c-.035.56.333.965.987,1.632a4.317,4.317,0,0,1,1.627,3.3c-.077,1.8-1.414,3.055-3.577,3.348A154.125,154.125,0,0,1,79.343,60.963Z" transform="translate(-55.45 0)"/>
        <path id="Trazado_897079" data-name="Trazado 897079" d="M153.5,265.289a2.806,2.806,0,0,1-2.488-4.059l4.659-9.319a2.8,2.8,0,0,1,4.215-.968l.252.194a.893.893,0,1,1-1.089,1.416l-.251-.193a1.016,1.016,0,0,0-1.528.351l-4.659,9.319a1.016,1.016,0,0,0,1.188,1.431l12.231-3.495a1.016,1.016,0,0,0,.34-1.782l-3.5-2.695a.893.893,0,1,1,1.089-1.416l3.5,2.695a2.8,2.8,0,0,1-.939,4.915l-12.231,3.495A2.866,2.866,0,0,1,153.5,265.289Z" transform="translate(-139.367 -220.552)"/>
        <path id="Trazado_897080" data-name="Trazado 897080" d="M217.211,221.61a.893.893,0,0,1-.537-1.607l3.461-2.6v-5.245a4.725,4.725,0,0,1,1.94-3.81.893.893,0,1,1,1.051,1.444,2.934,2.934,0,0,0-1.2,2.366v5.692a.893.893,0,0,1-.357.714l-3.818,2.863A.889.889,0,0,1,217.211,221.61Z" transform="translate(-197.163 -183.394)"/>
        <path id="Trazado_897081" data-name="Trazado 897081" d="M267.79,143.636a2.722,2.722,0,0,1,1.932.778,2.8,2.8,0,0,1-.314,4.268l-6.429,4.675a2.782,2.782,0,0,1-1.646.536,2.8,2.8,0,0,1-1.65-5.068l6.345-4.615A3.018,3.018,0,0,1,267.79,143.636Zm-6.457,8.471a1.007,1.007,0,0,0,.6-.194l6.429-4.675a1.017,1.017,0,0,0,.108-1.554.948.948,0,0,0-.675-.262,1.219,1.219,0,0,0-.711.233l-6.345,4.615a1.017,1.017,0,0,0-.224,1.419A1.007,1.007,0,0,0,261.333,152.107Z" transform="translate(-234.35 -126.533)"/>
        <path id="Trazado_897082" data-name="Trazado 897082" d="M145.481,42.994a.9.9,0,0,1-.124-.009,116.669,116.669,0,0,0-32.234,0,.893.893,0,1,1-.246-1.769,118.455,118.455,0,0,1,32.726,0,.893.893,0,0,1-.122,1.778Z" transform="translate(-105.361 -35.309)"/>
        <path id="Trazado_897083" data-name="Trazado 897083" d="M129.253,450.365h-.023a119.284,119.284,0,0,1-16.352-1.135.893.893,0,0,1,.246-1.769,116.67,116.67,0,0,0,32.234,0,.893.893,0,0,1,.246,1.769A119.266,119.266,0,0,1,129.253,450.365Z" transform="translate(-105.361 -394.175)"/>
      </g>
    </g>
  </g>
</svg>
