<svg xmlns="http://www.w3.org/2000/svg" width="86" height="86" viewBox="0 0 86 86">
  <g id="Grupo_1106669" data-name="Grupo 1106669" transform="translate(-915.051 -9769)">
    <circle id="Elipse_11695" data-name="Elipse 11695" cx="43" cy="43" r="43" transform="translate(915.051 9769)" fill="#a8d549"/>
    <g id="levadura" transform="translate(930.051 9784)">
      <g id="Grupo_1106331" data-name="Grupo 1106331" transform="translate(0.893 0.893)">
        <g id="Grupo_1106324" data-name="Grupo 1106324" transform="translate(0 26.802)">
          <path id="Trazado_897017" data-name="Trazado 897017" d="M57.894,254.273a14.107,14.107,0,0,1-2.363,9.973,3.577,3.577,0,0,0-4.566,2.651,3.6,3.6,0,0,0-.975-.135,3.556,3.556,0,0,0-1.81.492,3.573,3.573,0,0,0-3.55-3.173,3.574,3.574,0,1,0-7.147,0,3.574,3.574,0,0,0-3.574,3.574c0,.038,0,.075,0,.112a3.58,3.58,0,0,0-2.571,2.569H22.106A14.106,14.106,0,0,1,8.543,252.354L9.787,248c0,3.454,10.4,6.254,23.228,6.254s23.228-2.8,23.228-6.254l1.244,4.354a14.335,14.335,0,0,1,.406,1.919Z" transform="translate(-8 -248)" fill="#aab2bd"/>
        </g>
        <g id="Grupo_1106325" data-name="Grupo 1106325" transform="translate(1.787 24.622)">
          <path id="Trazado_897018" data-name="Trazado 897018" d="M32.092,231.684a62.865,62.865,0,0,0,15.136,1.656,61.673,61.673,0,0,0,15.621-1.785c3.01-.824,5.19-1.885,6.157-3.076a2.87,2.87,0,0,1,1.451,2.18c0,3.454-10.4,6.254-23.228,6.254S24,234.114,24,230.66a2.871,2.871,0,0,1,1.451-2.18C26.469,229.733,28.832,230.843,32.092,231.684Z" transform="translate(-24 -228.48)" fill="#ccd1d9"/>
        </g>
        <g id="Grupo_1106326" data-name="Grupo 1106326" transform="translate(36.066 21.3)">
          <path id="Trazado_897019" data-name="Trazado 897019" d="M330.95,198.73c4.913.717,8.758,1.9,10.728,3.322-.967,1.19-3.147,2.251-6.157,3.076a8.165,8.165,0,0,0-4.007-4.469A3.556,3.556,0,0,0,330.95,198.73Z" transform="translate(-330.95 -198.73)" fill="#e6e9ed"/>
        </g>
        <g id="Grupo_1106327" data-name="Grupo 1106327" transform="translate(3.237 21.229)">
          <path id="Trazado_897020" data-name="Trazado 897020" d="M48.217,198.1h0a4.441,4.441,0,0,0-1.064,2.891l-.19.048a4.464,4.464,0,0,0-3.332,3.656c-3.26-.841-5.623-1.951-6.641-3.2C39.025,200.019,43.065,198.808,48.217,198.1Z" transform="translate(-36.99 -198.1)" fill="#e6e9ed"/>
        </g>
        <g id="Grupo_1106328" data-name="Grupo 1106328" transform="translate(9.827)">
          <path id="Trazado_897021" data-name="Trazado 897021" d="M101.222,9.833l5.2,14.277a5.474,5.474,0,0,0-.46.338,5.541,5.541,0,0,0-1.925,3.207,4.445,4.445,0,0,0-1.875.412L96.136,11.528a2.68,2.68,0,0,1,5.086-1.7Z" transform="translate(-95.999 -8)" fill="#fcd770"/>
        </g>
        <g id="Grupo_1106329" data-name="Grupo 1106329" transform="translate(23.228 39.31)">
          <path id="Trazado_897022" data-name="Trazado 897022" d="M242.8,367.147a3.574,3.574,0,1,1,0,7.147H219.574a3.574,3.574,0,0,1-.89-7.036c0-.037,0-.074,0-.112a3.574,3.574,0,0,1,3.574-3.574,3.574,3.574,0,0,1,7.147,0,3.573,3.573,0,0,1,3.55,3.173,3.556,3.556,0,0,1,1.81-.492,3.6,3.6,0,0,1,.975.135,3.573,3.573,0,0,1,7.066.758Z" transform="translate(-216 -360)" fill="#dfb28b"/>
        </g>
        <g id="Grupo_1106330" data-name="Grupo 1106330" transform="translate(9.879 15.188)">
          <path id="Trazado_897023" data-name="Trazado 897023" d="M127.218,156.51a61.673,61.673,0,0,1-15.621,1.785,62.865,62.865,0,0,1-15.136-1.656,4.464,4.464,0,0,1,3.332-3.656l.19-.048a4.441,4.441,0,0,1,1.064-2.891c.077-.093.159-.181.245-.267a4.457,4.457,0,0,1,3.158-1.309,5.541,5.541,0,0,1,1.925-3.207A5.579,5.579,0,0,1,109.9,144h.016a5.559,5.559,0,0,1,3.083.934l1.28.853h.748a3.92,3.92,0,0,1,3.719,2.68h.893a3.57,3.57,0,0,1,3.009,1.645h0a3.556,3.556,0,0,1,.564,1.929,8.165,8.165,0,0,1,4.007,4.469Z" transform="translate(-96.46 -144)" fill="#dfb28b"/>
        </g>
      </g>
      <g id="Grupo_1106332" data-name="Grupo 1106332" transform="translate(0 0)">
        <path id="Trazado_897024" data-name="Trazado 897024" d="M127.587,407.809l-.118,1.783c.253.017.51.025.764.025h1.082V407.83h-1.082C128.018,407.83,127.8,407.823,127.587,407.809Z" transform="translate(-113.234 -362.267)"/>
        <path id="Trazado_897025" data-name="Trazado 897025" d="M33.787,304.643a9.668,9.668,0,0,1,.171-1.808L32.2,302.5a11.44,11.44,0,0,0,8.52,13.246l.423-1.736a9.615,9.615,0,0,1-7.359-9.366Z" transform="translate(-28.426 -268.718)"/>
        <path id="Trazado_897026" data-name="Trazado 897026" d="M51.742,46.532a4.478,4.478,0,0,0-2.019-2.964A15,15,0,0,0,51.24,31.8l-1.215-4.251c-.2-3.835-8.546-5.573-12.564-6.188a4.462,4.462,0,0,0-3.513-1.71h-.3a4.807,4.807,0,0,0-4.315-2.68h-.478l-1.055-.7a6.431,6.431,0,0,0-3.578-1.083H24.21a6.408,6.408,0,0,0-2.576.541L16.787,2.43A3.574,3.574,0,0,0,10.011,4.7l5.778,15.853a5.4,5.4,0,0,0-.869.725C10.773,21.876,2,23.6,1.792,27.552L.577,31.8A15,15,0,0,0,15,50.924h8.229A4.472,4.472,0,0,0,27.7,55.391H50.924a4.467,4.467,0,0,0,.818-8.859ZM4.079,26.73c1.81,1.56,5.054,2.553,7.608,3.131a66.023,66.023,0,0,0,14.221,1.408A66.03,66.03,0,0,0,40.13,29.861c2.556-.578,5.8-1.573,7.614-3.135a1.463,1.463,0,0,1,.5.97c0,.879-1.609,2.339-6.142,3.559a65.18,65.18,0,0,1-16.193,1.8,65.18,65.18,0,0,1-16.193-1.8c-4.534-1.221-6.142-2.68-6.142-3.559a1.471,1.471,0,0,1,.505-.965Zm42.134-1.07a14.716,14.716,0,0,1-4.171,1.852,9.02,9.02,0,0,0-3.66-3.944c-.01-.084-.024-.167-.039-.249A28.114,28.114,0,0,1,46.213,25.66ZM24.226,16.975a4.649,4.649,0,0,1,2.587.783l1.505,1h1.019a3.022,3.022,0,0,1,2.871,2.069l.2.611h1.537a2.683,2.683,0,0,1,2.68,2.68v.552l.494.247a7.248,7.248,0,0,1,3.158,3.069c-.179.043-.361.086-.546.128a65.165,65.165,0,0,1-13.827,1.364,65.163,65.163,0,0,1-13.827-1.364l-.212-.049a3.564,3.564,0,0,1,2.452-2.139l.866-.217v-.7a3.578,3.578,0,0,1,3.574-3.574h.732l.144-.718a4.676,4.676,0,0,1,4.573-3.749ZM11.7,4.129A1.787,1.787,0,0,1,15.1,3.008L20.082,16.69A6.448,6.448,0,0,0,18.058,19.7a5.335,5.335,0,0,0-.635.124Zm1.987,19.154a5.314,5.314,0,0,0-.244,1.044,5.34,5.34,0,0,0-3.313,3.292,15.384,15.384,0,0,1-4.53-1.96q.434-.231.948-.453a32.347,32.347,0,0,1,7.139-1.923ZM23.6,49.137H15A13.212,13.212,0,0,1,2.3,32.3l.645-2.258c1.2,1.143,3.324,2.139,6.311,2.943a66.975,66.975,0,0,0,16.657,1.863A66.981,66.981,0,0,0,42.566,32.98c2.987-.8,5.111-1.8,6.311-2.943l.645,2.258a13.211,13.211,0,0,1-1.5,10.639,4.461,4.461,0,0,0-4.767,2.645,4.484,4.484,0,0,0-1.564.148,4.463,4.463,0,0,0-3.345-2.769,4.468,4.468,0,0,0-8.784,0,4.478,4.478,0,0,0-3.617,3.856,4.464,4.464,0,0,0-2.34,2.323ZM50.924,53.6H27.7a2.681,2.681,0,0,1-.668-5.277l.694-.178-.024-.742c0-.019,0-.038,0-.058a2.683,2.683,0,0,1,2.68-2.68h.893v-.893a2.68,2.68,0,1,1,5.36,0v.893h.893a2.675,2.675,0,0,1,2.663,2.378l.153,1.37,1.188-.7a2.7,2.7,0,0,1,2.088-.267l.916.259.2-.93a2.68,2.68,0,0,1,5.3.569v.893h.893a2.68,2.68,0,0,1,0,5.36Z" transform="translate(0 0)"/>
        <circle id="Elipse_11728" data-name="Elipse 11728" cx="1" cy="1" r="1" transform="translate(22 18.391)"/>
        <circle id="Elipse_11729" data-name="Elipse 11729" cx="1" cy="1" r="1" transform="translate(18 24.391)"/>
        <circle id="Elipse_11730" data-name="Elipse 11730" cx="1" cy="1" r="1" transform="translate(29 21.391)"/>
        <ellipse id="Elipse_11731" data-name="Elipse 11731" cx="1" cy="0.5" rx="1" ry="0.5" transform="translate(27 26.391)"/>
        <circle id="Elipse_11732" data-name="Elipse 11732" cx="1" cy="1" r="1" transform="translate(22 23.391)"/>
        <circle id="Elipse_11733" data-name="Elipse 11733" cx="1" cy="1" r="1" transform="translate(33 42.391)"/>
        <circle id="Elipse_11734" data-name="Elipse 11734" cx="0.5" cy="0.5" r="0.5" transform="translate(28 50.391)"/>
        <circle id="Elipse_11735" data-name="Elipse 11735" cx="1" cy="1" r="1" transform="translate(33 47.391)"/>
        <ellipse id="Elipse_11736" data-name="Elipse 11736" cx="0.5" cy="1" rx="0.5" ry="1" transform="translate(37 46.391)"/>
        <circle id="Elipse_11737" data-name="Elipse 11737" cx="1" cy="1" r="1" transform="translate(46 46.391)"/>
        <ellipse id="Elipse_11738" data-name="Elipse 11738" cx="1" cy="0.5" rx="1" ry="0.5" transform="translate(42 50.391)"/>
        <ellipse id="Elipse_11739" data-name="Elipse 11739" cx="1" cy="0.5" rx="1" ry="0.5" transform="translate(33 25.391)"/>
      </g>
    </g>
  </g>
</svg>
