<svg xmlns="http://www.w3.org/2000/svg" width="112.641" height="112.64" viewBox="0 0 112.641 112.64">
  <g id="Grupo_1106228" data-name="Grupo 1106228" transform="translate(-751.051 -4178)">
    <path id="Trazado_895309" data-name="Trazado 895309" d="M56.32,0h0a56.32,56.32,0,0,1,0,112.64h0A56.32,56.32,0,0,1,56.32,0Z" transform="translate(751.051 4178)" fill="#fc685b"/>
    <g id="control-de-plagas" transform="translate(759.101 4195.366)">
      <g id="Grupo_1106226" data-name="Grupo 1106226" transform="translate(8.195 -3.366)">
        <path id="Trazado_896865" data-name="Trazado 896865" d="M199.921,323.014c5.581,5.477,12.565.941,13.347-6.532a1.323,1.323,0,0,0-.763-1.338c-5.19-2.393-14.772-1.242-12.6,7.839A.065.065,0,0,0,199.921,323.014Z" transform="translate(-168.837 -261.336)" fill="#68ca44"/>
        <path id="Trazado_896866" data-name="Trazado 896866" d="M33.742,234.664a.167.167,0,0,1-.045.08c-8.04,7.868-18.089,1.352-19.234-9.4a1.936,1.936,0,0,1,1.1-1.965,17.946,17.946,0,0,1,12.2-.866.446.446,0,0,1,.28.592l-.777,1.916a.413.413,0,0,0,.441.564l3.977-.568a.442.442,0,0,1,.39.137C33.933,227.21,34.779,230.3,33.742,234.664Z" transform="translate(-14.452 -184.414)" fill="#68ca44"/>
        <path id="Trazado_896867" data-name="Trazado 896867" d="M114.975,444.049a10.913,10.913,0,0,0-10.785,9.261.676.676,0,0,0,.666.78h20.239a.676.676,0,0,0,.666-.78A10.913,10.913,0,0,0,114.975,444.049Z" transform="translate(-89.277 -369.73)" fill="#e8ad8c"/>
        <path id="Trazado_896868" data-name="Trazado 896868" d="M168.688,453.311a10.908,10.908,0,0,0-13.028-9.027,10.919,10.919,0,0,1,8.543,9.027.676.676,0,0,1-.666.78h4.485A.676.676,0,0,0,168.688,453.311Z" transform="translate(-132.204 -369.731)" fill="#e19974"/>
        <path id="Trazado_896869" data-name="Trazado 896869" d="M192.78,7.506a24.717,24.717,0,0,0-23.455,30.617,1.467,1.467,0,0,1-.4,1.4l-6.341,6.192a.789.789,0,0,0,.629,1.349l8.834-.879a1.462,1.462,0,0,1,1.324.592,24.7,24.7,0,1,0,19.4-39.274Z" transform="translate(-137.782 -5.695)" fill="#fd8087"/>
        <path id="Trazado_896870" data-name="Trazado 896870" d="M337.437,7.506c-.543.012-1.082.043-1.617.089a24.709,24.709,0,0,1,0,49.228,24.708,24.708,0,1,0,1.615-49.317Z" transform="translate(-282.439 -5.695)" fill="#fe646f"/>
        <circle id="Elipse_11721" data-name="Elipse 11721" cx="18.753" cy="18.753" r="18.753" transform="translate(29.01 26.517) rotate(-45)" fill="#f2fbff"/>
        <g id="Grupo_1106225" data-name="Grupo 1106225" transform="translate(45.9 15.959)">
          <circle id="Elipse_11722" data-name="Elipse 11722" cx="3.739" cy="3.739" r="3.739" transform="translate(9.611 5.287) rotate(-45)" fill="#678d98"/>
          <ellipse id="Elipse_11723" data-name="Elipse 11723" cx="6.205" cy="6.084" rx="6.205" ry="6.084" transform="translate(0 11.582) rotate(-45)" fill="#ae6c6c"/>
        </g>
      </g>
      <g id="Grupo_1106227" data-name="Grupo 1106227" transform="translate(6.949 -2.807)">
        <path id="Trazado_896871" data-name="Trazado 896871" d="M207.9,10.511a1.246,1.246,0,1,0-2,1.485,23.478,23.478,0,0,1-18.115,37.409,23.5,23.5,0,0,1-19.673-9.617,2.719,2.719,0,0,0-2.452-1.1l-7.536.75,5.408-5.281a2.724,2.724,0,0,0,.735-2.592A23.455,23.455,0,0,1,202.143,8a1.246,1.246,0,0,0,1.6-1.906,25.952,25.952,0,0,0-41.9,26.07.221.221,0,0,1-.057.213l-6.34,6.192a2.034,2.034,0,0,0,1.623,3.48l8.834-.879a.218.218,0,0,1,.2.089A25.961,25.961,0,0,0,213,26.545a25.693,25.693,0,0,0-5.1-16.033Z" transform="translate(-130.27 0.001)"/>
        <path id="Trazado_896872" data-name="Trazado 896872" d="M248.393,35.856a20,20,0,1,0,20,20A20.024,20.024,0,0,0,248.393,35.856Zm-17.508,20a17.434,17.434,0,0,1,4.284-11.462l7.161,7.161-.06.057a7.6,7.6,0,0,0-1.225,1.605l-1.251-.337a2.314,2.314,0,0,0-2.239.6l-2.9,2.9a1.246,1.246,0,1,0,1.762,1.762l2.831-2.831.944.254a7.262,7.262,0,0,0,8.5,8.495l.253.944-2.831,2.831a1.246,1.246,0,0,0,1.762,1.762l2.9-2.9a2.317,2.317,0,0,0,.6-2.237l-.337-1.254a7.6,7.6,0,0,0,1.6-1.225c.02-.02.038-.04.057-.06l7.161,7.161a17.5,17.5,0,0,1-28.97-13.224Zm24.543-7.035a2.491,2.491,0,0,1-1.534,4.245,7.19,7.19,0,0,0-2.712-2.712,2.469,2.469,0,0,1,.721-1.534A2.5,2.5,0,0,1,255.428,48.82Zm-6.311,12.541a4.825,4.825,0,0,1-5.17-1.061,4.9,4.9,0,0,1,.085-6.927l.06-.057,6.84,6.84-.057.06A5.049,5.049,0,0,1,249.118,61.361Zm1.843-8.074A4.817,4.817,0,0,1,252.2,57.9l-5.846-5.846A4.813,4.813,0,0,1,250.961,53.288Zm10.657,14.029-6.645-6.645.143.039a2.315,2.315,0,0,0,2.237-.6l2.9-2.9a1.246,1.246,0,0,0-1.761-1.762l-2.832,2.831-.946-.254a7.45,7.45,0,0,0,.021-2.574,4.962,4.962,0,0,0,3.649-3.271,2.9,2.9,0,0,0,2.637-.519l1.111-1.111a1.246,1.246,0,1,0-1.762-1.762l-.991.991-.815-.086a4.968,4.968,0,0,0-4.009-4.009l-.087-.816.991-.991a1.246,1.246,0,1,0-1.762-1.762l-1.111,1.111a2.119,2.119,0,0,0-.614,1.738l.1.9a4.965,4.965,0,0,0-3.271,3.65,7.448,7.448,0,0,0-2.575.021l-.255-.949,2.831-2.829a1.246,1.246,0,1,0-1.761-1.762l-2.907,2.9a2.322,2.322,0,0,0-.6,2.234l.039.146-6.646-6.646a17.5,17.5,0,0,1,24.685,24.685Z" transform="translate(-191.611 -29.9)"/>
        <path id="Trazado_896873" data-name="Trazado 896873" d="M52.386,230.833c-3.458-1.595-8.891-1.849-12.148.821-1.5,1.23-3.067,3.524-2.366,7.574l-1.172.738a8.756,8.756,0,0,0-1.561,1.258v-3.607a10.43,10.43,0,0,0-4.841-8.832l-1.425-.909c.572-2.983.55-6.855-2.14-9.818a1.683,1.683,0,0,0-1.488-.533l-2.543.363.232-.573a1.692,1.692,0,0,0-1.055-2.247,19.13,19.13,0,0,0-13.1.921,3.174,3.174,0,0,0-1.815,3.228c.654,6.145,4.157,11.339,8.923,13.231a1.246,1.246,0,0,0,.919-2.316c-3.917-1.555-6.807-5.943-7.365-11.179a.693.693,0,0,1,.38-.7,16.991,16.991,0,0,1,10.463-1.042l-.44,1.086a1.658,1.658,0,0,0,1.772,2.265l3.542-.506a8.175,8.175,0,0,1,1.423,6.362l-8.256-5.267a1.246,1.246,0,0,0-1.34,2.1l8.414,5.368a9.918,9.918,0,0,1-3.651,1.849,1.246,1.246,0,1,0,.611,2.415,12.735,12.735,0,0,0,5.248-2.856l1.347.86a7.949,7.949,0,0,1,3.69,6.732V251.3a12.153,12.153,0,0,0-10.771,10.253,1.922,1.922,0,0,0,1.9,2.213H44.013a1.922,1.922,0,0,0,1.9-2.213A12.152,12.152,0,0,0,35.139,251.3v-3.989a6.154,6.154,0,0,1,2.889-5.233l1.1-.7a8.1,8.1,0,0,0,8.057,1.661c3.579-1.287,6.2-5.059,6.675-9.607a2.567,2.567,0,0,0-1.48-2.6ZM43.325,261.27H24.462a9.666,9.666,0,0,1,18.863,0Zm3.023-20.575a5.394,5.394,0,0,1-4.958-.738l5.44-3.427a1.246,1.246,0,0,0-1.328-2.108l-5.3,3.336a4.73,4.73,0,0,1,1.612-4.177c2.352-1.928,6.775-1.753,9.525-.485a.077.077,0,0,1,.045.077c-.377,3.6-2.356,6.557-5.04,7.522Z" transform="translate(-6.949 -178.715)"/>
      </g>
    </g>
  </g>
</svg>
