<svg xmlns="http://www.w3.org/2000/svg" xmlns:xlink="http://www.w3.org/1999/xlink" width="176" height="101.318" viewBox="0 0 176 101.318">
  <defs>
    <clipPath id="clip-path">
      <rect id="Rect치ngulo_403086" data-name="Rect치ngulo 403086" width="143.04" height="101.318" transform="translate(0 0)" fill="none"/>
    </clipPath>
  </defs>
  <g id="Grupo_1106606" data-name="Grupo 1106606" transform="translate(-514.502 -2119)">
    <rect id="Rect치ngulo_402881" data-name="Rect치ngulo 402881" width="176" height="66" rx="12" transform="translate(514.502 2138.659)" fill="#65802c"/>
    <g id="Grupo_1106246" data-name="Grupo 1106246" transform="translate(528.266 2119)">
      <g id="Grupo_1106245" data-name="Grupo 1106245" transform="translate(0 0)" clip-path="url(#clip-path)">
        <path id="Trazado_896922" data-name="Trazado 896922" d="M140.863,90.228a24.6,24.6,0,0,0-8.774-10.148A175.371,175.371,0,0,0,123.7,34.589c.453-.31,1.214-1.221,1.55-1.445.944-.628,1.829-.92,1.9-1.762l-.035-.951-.493-7.294c.193-2.187-5.462-3.383-13.565-4.89l-6.371-3.758a7.747,7.747,0,0,0-3.576-6.409,6.687,6.687,0,0,0-7.072-.23,1.529,1.529,0,0,1-.891.313,18.748,18.748,0,0,0-5.885-1.408A24.66,24.66,0,0,0,80.24,8.305a9.22,9.22,0,0,0-6.458-2.778,7.792,7.792,0,0,0-7.2,3.242,7.706,7.706,0,0,0-1.3,2.46c-2.145-.319-4.254-1-6.38-1.35a42.987,42.987,0,0,0-6.721-3.918A16.981,16.981,0,0,0,51.9,9.815c.025.343-.274.658-.21,1a30.131,30.131,0,0,0-7.252,5.425c-.279.259-.62.569-1,.921a8.99,8.99,0,0,0-8.51,2.307c-.453.44-.519.732-.077,1.174a.93.93,0,0,0,1.43.051,6.172,6.172,0,0,1,5.062-1.568c-2.805,2.717-6.22,6.465-7.007,9.74-3.391,2.218-5.011,3.056-6.1,4.107l-.664.74.358,8.5c.921,1.633,2.392,2.064,4.57,3.14.113,4.233,1.429,9.749,1.685,12.866.332,4.047,1.479,8.245,1.685,12.152a6.766,6.766,0,0,1-1.823,4.747,2.419,2.419,0,0,0-.394-.326,10.487,10.487,0,0,0-2.694-1.234,17.2,17.2,0,0,0-1.191-2.4,22.143,22.143,0,0,0-3.293-5.59c-.193-.251-.241-.7-.536-.587-.254.1-.233.163-.255.434a22.02,22.02,0,0,0,.791,7.531c.011.041-.375.245-.364.286a10.574,10.574,0,0,0-7.8,5.2c-.425-.289-1.218-.277-1.608-.609-2.037-1.733-2.95-4.449-3.9-6.91a10.544,10.544,0,0,1,.721-2.766c-1.173-.7-2.562.445-3.548,1.117a6.246,6.246,0,0,0-2.947,4.4,4.323,4.323,0,0,1-.831,2.061A13.067,13.067,0,0,1,.345,68.11a.175.175,0,0,0-.338.093,13.423,13.423,0,0,0,5.977,7.809A10.723,10.723,0,0,1,4.1,77.939a7.991,7.991,0,0,0-2.864,4.707,5.982,5.982,0,0,0,.782,4.917c-.1-.157,1.259-1.062,1.413-1.192.082-.07.166-.136.251-.2a10.288,10.288,0,0,1,6.268-.631A16.235,16.235,0,0,0,.638,93.782c3.9,3.021,9.245,3.107,14.173,2.99,3.789-.09,7.578-.222,11.365-.376.262.674,1.04.724,1.555,1.227a11.367,11.367,0,0,0,4.259,2.18c16.916,6.2,34.7,5.176,52.479,4.665,3.778-.109,7.5-.71,11.29.5a2.564,2.564,0,0,0-.1,1.424q19.958.035,39.856-1.869c.789-.075-3.026-3.106-3.564-3.356l-.157-.07a11.078,11.078,0,0,1,5.014-2.305c1.934-.5,3.69-1.023,4.757-2.713,1.261-2,.279-3.7-.705-5.85M67.674,11.4c.138-.383-.071-.937.16-1.308a6.083,6.083,0,0,1,1.047-1.2c.114-.112.16-.356.281-.459.027-.024.488-.25.459-.23a9.089,9.089,0,0,1,.817-.562A5.71,5.71,0,0,1,73.425,6.8c.141,0,.318.143.459.153.061,0,.169.02.23.026.019,0,.347.051.357.051.156.025.5.1.715.153a6.875,6.875,0,0,1,.715.306,6.114,6.114,0,0,1,.715.332,6.321,6.321,0,0,1,.715.536l.45.771c-3.337,1.139-6.674,2.258-10.107,2.272m36.574,1.644-2.009-1.185c-1.442-.85-2.909-1.709-4.413-2.474l.049-.016.318-.306a4.335,4.335,0,0,1,1.695-.206,5.27,5.27,0,0,1,2.793,1.072,4.419,4.419,0,0,1,1.05,1.11,8.5,8.5,0,0,1,.668,1.613l-.163.34c0,.018.008.035.013.052" transform="translate(0.001 -5.074)" fill="#421517"/>
        <path id="Trazado_896923" data-name="Trazado 896923" d="M39.121,827.337a.717.717,0,0,0-.489-.346.44.44,0,0,0-.275.078,1.23,1.23,0,0,0-.374.493l-.025.052a16.5,16.5,0,0,1-7.258-2.672,14.312,14.312,0,0,1-1.225-.932,16.041,16.041,0,0,1-4.289-6.586,10.535,10.535,0,0,1,.721-2.766c-1.173-.7-2.562.445-3.548,1.117a6.246,6.246,0,0,0-2.947,4.4,4.075,4.075,0,0,1-.625,2.011,6.679,6.679,0,0,0,.69.316,1.971,1.971,0,0,0,.211-.971c.008-.225.594-.132.585.094a3.293,3.293,0,0,1-1.475,2.493c-.2.112-.535-.392-.339-.5a2.139,2.139,0,0,0,.691-.538,8.229,8.229,0,0,1-.784-.293,10.167,10.167,0,0,1-1.872,1.666,7.99,7.99,0,0,0-2.864,4.707,5.982,5.982,0,0,0,.782,4.917c-.1-.157,1.259-1.062,1.413-1.192.082-.07.166-.136.251-.2a34.01,34.01,0,0,1,6.268-.631,10.456,10.456,0,0,1,1.719.231,9.284,9.284,0,0,1,4.2,2.324,8.936,8.936,0,0,1,3.405-.778l.156,0a39.217,39.217,0,0,0-5.832-4.832c-.186-.126-.01-.43.177-.3a39.674,39.674,0,0,1,6.144,5.133h.157a4.989,4.989,0,0,0,1.63-.2c1.146-.409,1.515-1.441,2.332-2.15a4.406,4.406,0,0,1,2.6-.922,2.338,2.338,0,0,0,.087-3.207" transform="translate(-12.391 -751.583)" fill="#f79e67"/>
        <path id="Trazado_896924" data-name="Trazado 896924" d="M26.16,825.551a41.256,41.256,0,0,1-5.448-4.159q.236-.247.484-.482c.806-.757,1.467-1.1.72-2.132a3.485,3.485,0,0,1-.851-2.494,5.473,5.473,0,0,1,.08-.754,12.471,12.471,0,0,1,1.035-2.927c-1.173-.7-2.948.462-3.933,1.135a6.638,6.638,0,0,0-3.053,4.536,4.305,4.305,0,0,1-.654,2.068q.449.269.921.5a2.3,2.3,0,0,0,.295-1.037c.008-.225.359-.226.351,0a2.708,2.708,0,0,1-1.352,2.234.175.175,0,0,1-.177-.3,2.319,2.319,0,0,0,.689-.6q-.478-.236-.933-.509a11.613,11.613,0,0,1-2,1.783,8.442,8.442,0,0,0-3.156,4.71,7.209,7.209,0,0,0,1.2,5.357c-.1-.157,1.256-1.361,1.41-1.49.082-.07.166-.136.251-.2.487-.369,1.009-.659,1.527-.991a9.5,9.5,0,0,1,3.588-1.09,1.367,1.367,0,0,0,.648-.25,13.644,13.644,0,0,1,6.548,2.4c.185.13.361-.174.177-.3A13.947,13.947,0,0,0,18,828.121c.017-.055.032-.111.046-.166.229-.911-.052-1.7.2-2.6a8.215,8.215,0,0,1,1.351-2.637c.276-.369.567-.727.876-1.07a41.724,41.724,0,0,0,5.509,4.205c.191.121.367-.182.177-.3" transform="translate(-8.349 -749.688)" fill="#e1312c"/>
        <path id="Trazado_896925" data-name="Trazado 896925" d="M698.2,217.742a5.04,5.04,0,0,0-3.325,1.753,10.016,10.016,0,0,0-1.713,3.983c-.639,2.4,3.163,1.81,3.7.331.12-.333.131-.733.39-.974a1.558,1.558,0,0,1,.82-.277,3.912,3.912,0,0,0,1.889-.947,7.154,7.154,0,0,0,1.845-2.8,5.042,5.042,0,0,0-3.6-1.068" transform="translate(-639.598 -200.916)" fill="#e1312c"/>
        <path id="Trazado_896926" data-name="Trazado 896926" d="M230.787,962.457a.44.44,0,0,0-.275.078,1.228,1.228,0,0,0-.374.493l-.025.052c-.369.776-.672,1.585-1.059,2.351l-.015-.006a20.87,20.87,0,0,1-7.082-4.146c-.168-.149-.417.1-.248.248a21.3,21.3,0,0,0,7.181,4.217c-.027.05-.055.1-.083.148l-.042.073a6.391,6.391,0,0,1-.618.879,3.987,3.987,0,0,1-1.738,1.252,10.468,10.468,0,0,0-1.086.339,1.112,1.112,0,0,0-.694.836c0,.005,0,.01,0,.015a4.991,4.991,0,0,0,1.63-.205c1.146-.408,1.515-1.441,2.332-2.15a4.407,4.407,0,0,1,2.6-.922,2.338,2.338,0,0,0,.087-3.207.717.717,0,0,0-.489-.346" transform="translate(-204.546 -887.049)" fill="#e1312c"/>
        <path id="Trazado_896927" data-name="Trazado 896927" d="M675.115,9.832c-1.891-2.034-4.52-3.24-7.066-4.385a21.045,21.045,0,0,0-.278,4.291,9.184,9.184,0,0,0,.132,1.027,11.545,11.545,0,0,1,3.949-1.1,13.247,13.247,0,0,1,3.263.169" transform="translate(-616.209 -5.026)" fill="#89a243"/>
        <path id="Trazado_896928" data-name="Trazado 896928" d="M451.5,242.6a26.621,26.621,0,0,0-8.964-10.709,172.07,172.07,0,0,0-8.493-45.022c.452-.31.851-.581,1.187-.8.944-.627,1.945-1.332,2.019-2.174a1.074,1.074,0,0,0-.008-.255l-.281-8.5c.193-2.186-6.285-3.564-14.362-4.441l4.2,2.478c1.1.652,2.382,1.721,1.978,2.939a2.88,2.88,0,0,1-1.551,1.419c-8.455,4.5-17.036,9.038-26.374,11.158-9.766,2.217-19.93,1.684-29.907.819q-6.716-.582-13.412-1.358c-3.41-.4-9.461.01-12.249-2.281a4.2,4.2,0,0,1-1.412-4.559,36.927,36.927,0,0,0-7.438,4.464l.29,8.758a10.827,10.827,0,0,0,4.818,4.02c.114,4.233,1.315,9,1.572,12.119.333,4.047,1.551,8.343,1.757,12.249a9.274,9.274,0,0,1-1.284,4.643c-.918,1.824-2.024,3.62-2.24,5.621a12.075,12.075,0,0,0-.02,1.989c.125,2.166.533,4.372-.622,6.135-1.308,2-4.249,2.674-5.079,4.911a3.684,3.684,0,0,0,.089,2.623,5.178,5.178,0,0,0,1.2,1.8,11.6,11.6,0,0,0,4.245,2.326c16.916,6.2,35.01,5.319,52.789,4.808,3.778-.109,7.564-.219,11.35-.367,1.028-2.905,6.8-5.081,8.927-5.726a22,22,0,0,1,2.923-.674,21.364,21.364,0,0,1,10.046.724,11.768,11.768,0,0,1,3.994,2.462c1.525,1.27,2.26.646,3.98-.374a6.9,6.9,0,0,1,6.167-.284q2.739-.585,5.455-1.291c1.934-.5,4.026-1.183,5.093-2.872,1.261-2,.6-4.632-.382-6.779" transform="translate(-309.541 -157.516)" fill="#fff7eb"/>
        <path id="Trazado_896929" data-name="Trazado 896929" d="M534.207,451.854c4.754-2.357,11.205-9.354,16.237-15.372-7.676,5.241-18.413,12.249-23.624,13.3-7.511,1.512-15.531.7-23.3.238-8.157-.481-16.49-.555-24.286-2a90.025,90.025,0,0,1-10.861-2.547c5.793,4.631,30.933,10.066,38.358,10.743,9.291.846,19.03-.171,27.471-4.356" transform="translate(-432.23 -402.796)" fill="#421517"/>
        <path id="Trazado_896930" data-name="Trazado 896930" d="M667.37,1016.46a.6.6,0,0,0,.409-.719.589.589,0,0,0-.719-.408,139.239,139.239,0,0,1-14.452,5.037,141.279,141.279,0,0,1-45.417,5.362,137.633,137.633,0,0,1-15.223-1.53q-.941-.149-1.88-.31c-.736-.126-1.052,1-.311,1.127a140.486,140.486,0,0,0,30.74,1.853,143.718,143.718,0,0,0,15.38-1.6,141.381,141.381,0,0,0,15.04-3.225,139.119,139.119,0,0,0,14.667-4.878q.886-.351,1.766-.714" transform="translate(-543.87 -936.945)" fill="#421517"/>
        <path id="Trazado_896931" data-name="Trazado 896931" d="M1456.747,1001.558a70.678,70.678,0,0,1-13.292,8.936q-2.045,1.06-4.156,1.986c-.687.3-.093,1.31.59,1.009a71.308,71.308,0,0,0,14.086-8.227q1.843-1.383,3.6-2.878c.573-.488-.257-1.312-.826-.827" transform="translate(-1327.939 -924.125)" fill="#421517"/>
        <path id="Trazado_896932" data-name="Trazado 896932" d="M529.457,894.634a75.82,75.82,0,0,1-23.781-1.9q-3.293-.8-6.5-1.895c-.714-.242-1.02.886-.311,1.128a76.873,76.873,0,0,0,23.747,4.068q3.429.041,6.85-.229c.745-.058.751-1.227,0-1.168" transform="translate(-459.989 -822.054)" fill="#421517"/>
        <path id="Trazado_896933" data-name="Trazado 896933" d="M854.5.019a8.365,8.365,0,0,0-7.368,3.6,7.769,7.769,0,0,0-1.186,2.529c.354.052.709.1,1.065.124q.664.055,1.323.051a5.954,5.954,0,0,1,.553-1.129,5.2,5.2,0,0,1,.933-1.152q.17-.167.351-.323c.027-.023.194-.161.166-.141a6.723,6.723,0,0,1,.712-.472,5.571,5.571,0,0,1,2.967-.774q.212,0,.424.017l.181.015c.02,0,.171.019.182.019.156.025.545.1.763.161a8.146,8.146,0,0,1,.813.26,4.374,4.374,0,0,1,.613.28,8.43,8.43,0,0,1,.893.534l.15.105.1.072c-.057-.047-.056-.046.006,0,.1.081.2.165.3.252.819-.28,1.638-.56,2.459-.827A9.529,9.529,0,0,0,854.5.019" transform="translate(-780.664 0.004)" fill="#f29680"/>
        <path id="Trazado_896934" data-name="Trazado 896934" d="M1212.764,23.083a7.381,7.381,0,0,0-10.353,2.813,1.2,1.2,0,0,0,.419,1.6,1.18,1.18,0,0,0,1.6-.419,6.039,6.039,0,0,1,.383-.645c.031-.045.063-.09.095-.135.084-.1.172-.2.262-.3a6.225,6.225,0,0,1,.543-.515l.092-.076.035-.024c.11-.078.221-.155.335-.227a6.586,6.586,0,0,1,.658-.364l.154-.072c.106-.042.214-.082.322-.118l.049-.016a6.508,6.508,0,0,1,.726-.193l.243-.045.073-.009c.076-.007.153-.014.229-.019a6.053,6.053,0,0,1,.747,0l.246.02.073.011c.075.015.151.028.227.044a5.348,5.348,0,0,1,.732.213l.113.042.045.022c.125.06.249.121.369.188a5.035,5.035,0,0,1,1.959,1.932c.114.194.295.551.338.658a7.806,7.806,0,0,1,.24.759l.013.052q.042.175.073.353l.02.118c0,.015.005.062.007.1a7.987,7.987,0,0,1,0,.949A1.179,1.179,0,0,0,1215,30.945a1.192,1.192,0,0,0,1.169-1.169c0-.026,0-.052.005-.078a7.563,7.563,0,0,0-3.407-6.614" transform="translate(-1109.48 -20.282)" fill="#f29680"/>
        <path id="Trazado_896935" data-name="Trazado 896935" d="M868.651,188.534a7.171,7.171,0,0,0-6.769-.848,7.11,7.11,0,0,0-3.935,9.082,1.206,1.206,0,0,0,1.438.817,1.177,1.177,0,0,0,.816-1.438,5.777,5.777,0,0,1-.285-.9q-.034-.155-.06-.311a2.79,2.79,0,0,0-.027-.309,6.068,6.068,0,0,1,.01-.824c0-.055.01-.111.016-.166,0-.016.009-.052.017-.109.033-.154.061-.309.1-.462a5.926,5.926,0,0,1,.243-.752c-.025.067.124-.257.141-.291q.081-.157.171-.309a4.312,4.312,0,0,1,1.024-1.2l.065-.053c.061-.044.122-.087.185-.128q.154-.1.316-.194a2.986,2.986,0,0,1,.733-.332,7.544,7.544,0,0,1,.837-.214c.083-.013.124-.02.124-.021.06-.007.119-.013.179-.017.124-.009.247-.016.371-.018a4.227,4.227,0,0,1,1.641.231,4.49,4.49,0,0,1,1.469.779,1.177,1.177,0,0,0,1.6-.419,1.2,1.2,0,0,0-.419-1.6" transform="translate(-791.313 -172.752)" fill="#f29680"/>
        <path id="Trazado_896936" data-name="Trazado 896936" d="M455.98,153.223a8.344,8.344,0,0,0-2.608-1.357,8.934,8.934,0,0,0-8.82,2.11,1.169,1.169,0,0,0,1.653,1.653,6.366,6.366,0,0,1,5.072-1.8,6.812,6.812,0,0,1,3.523,1.412,1.176,1.176,0,0,0,1.6-.42,1.2,1.2,0,0,0-.42-1.6" transform="translate(-409.935 -139.78)" fill="#f29680"/>
        <path id="Trazado_896937" data-name="Trazado 896937" d="M867.789,42.252a.318.318,0,0,0,.207.086.293.293,0,0,0,.292-.292.283.283,0,0,0-.086-.206,4.2,4.2,0,0,1-.666-.683l.006.008a.287.287,0,0,0-.383-.084.292.292,0,0,0-.134.175.281.281,0,0,0,.029.225,4.507,4.507,0,0,0,.735.772" transform="translate(-800.102 -37.873)" fill="#421517"/>
        <path id="Trazado_896938" data-name="Trazado 896938" d="M900.925,16.782a.305.305,0,0,0,.175.134.3.3,0,0,0,.225-.029.292.292,0,0,0,.1-.4l-.4-.628a.309.309,0,0,0-.175-.134.292.292,0,0,0-.33.429l.4.628" transform="translate(-830.986 -14.501)" fill="#421517"/>
        <path id="Trazado_896939" data-name="Trazado 896939" d="M988.636,17.728a.292.292,0,0,0,.225.03.307.307,0,0,0,.175-.134l.289-.483a.292.292,0,0,0-.105-.4A.3.3,0,0,0,989,16.71a.308.308,0,0,0-.175.134l-.289.483a.3.3,0,0,0-.03.225.3.3,0,0,0,.134.175" transform="translate(-912.205 -15.41)" fill="#421517"/>
        <path id="Trazado_896940" data-name="Trazado 896940" d="M1003.266,28.177a.294.294,0,0,0,.225.03.313.313,0,0,0,.175-.134l.3-.479a.291.291,0,0,0-.1-.4.293.293,0,0,0-.225-.03.311.311,0,0,0-.175.134l-.3.479a.292.292,0,0,0,.1.4" transform="translate(-925.705 -25.057)" fill="#421517"/>
        <path id="Trazado_896941" data-name="Trazado 896941" d="M863.9,263.287l-.8-.349a.319.319,0,0,0-.225-.029.3.3,0,0,0-.174.134.292.292,0,0,0-.029.225.282.282,0,0,0,.134.175l.8.349a.319.319,0,0,0,.225.03.3.3,0,0,0,.175-.134.294.294,0,0,0,.029-.225.281.281,0,0,0-.134-.175" transform="translate(-796.083 -242.609)" fill="#421517"/>
        <path id="Trazado_896942" data-name="Trazado 896942" d="M873.372,235.425l-.772-.521a.293.293,0,0,0-.4.1.3.3,0,0,0,.1.4l.772.521a.292.292,0,0,0,.295-.5" transform="translate(-804.853 -216.738)" fill="#421517"/>
        <path id="Trazado_896943" data-name="Trazado 896943" d="M932.381,191.969a.292.292,0,0,0-.564.156l.216.85a.3.3,0,0,0,.359.2.3.3,0,0,0,.2-.359q-.109-.425-.216-.85" transform="translate(-859.895 -176.955)" fill="#421517"/>
        <path id="Trazado_896944" data-name="Trazado 896944" d="M974.43,198.39a.3.3,0,0,0-.225.03.288.288,0,0,0-.134.174q-.069.352-.138.7a.311.311,0,0,0,.03.226.3.3,0,0,0,.174.134.294.294,0,0,0,.226-.03.29.29,0,0,0,.135-.175q.069-.351.138-.7a.311.311,0,0,0-.03-.225.3.3,0,0,0-.174-.134" transform="translate(-898.762 -183.07)" fill="#421517"/>
        <path id="Trazado_896945" data-name="Trazado 896945" d="M1221.285,55.092a.292.292,0,1,0,.5-.295l-.36-.669a.292.292,0,0,0-.5.3l.36.669" transform="translate(-1126.665 -49.817)" fill="#421517"/>
        <path id="Trazado_896946" data-name="Trazado 896946" d="M1250.587,34.664a.293.293,0,0,0,.36-.2.342.342,0,0,0-.03-.225l-.468-1.075a.293.293,0,0,0-.175-.134.292.292,0,0,0-.36.2.343.343,0,0,0,.03.225l.469,1.076a.293.293,0,0,0,.174.134" transform="translate(-1153.444 -30.467)" fill="#421517"/>
        <path id="Trazado_896947" data-name="Trazado 896947" d="M1316.658,35.826a.3.3,0,0,0,.292-.292c0-.024,0-.047.006-.071a1.338,1.338,0,0,1,.069-.252,1.4,1.4,0,0,1,.126-.219l.053-.062a.292.292,0,0,0-.413-.413,1.627,1.627,0,0,0-.425,1.017.294.294,0,0,0,.292.292" transform="translate(-1214.774 -31.775)" fill="#421517"/>
        <path id="Trazado_896948" data-name="Trazado 896948" d="M1356.1,93.736c.088-.05.178-.1.269-.14l.129-.059.022-.01.058-.024a4.613,4.613,0,0,1,.559-.181.292.292,0,1,0-.155-.563,4.843,4.843,0,0,0-1.177.472.292.292,0,0,0,.295.5" transform="translate(-1251.041 -85.591)" fill="#421517"/>
        <path id="Trazado_896949" data-name="Trazado 896949" d="M471.5,169.86a.316.316,0,0,0-.175-.134.292.292,0,0,0-.33.429,4.27,4.27,0,0,1,.325.507c.047.087.091.175.133.266l.031.07,0,.008,0,.01c.019.047.038.095.055.143a.312.312,0,0,0,.134.175.292.292,0,0,0,.429-.33,4.506,4.506,0,0,0-.611-1.144" transform="translate(-434.611 -156.618)" fill="#421517"/>
        <path id="Trazado_896950" data-name="Trazado 896950" d="M522.182,154.639a.32.32,0,0,0-.134-.175.3.3,0,0,0-.225-.029.3.3,0,0,0-.2.36l.441,1.145a.318.318,0,0,0,.134.175.292.292,0,0,0,.429-.33l-.441-1.145" transform="translate(-481.348 -142.507)" fill="#421517"/>
        <path id="Trazado_896951" data-name="Trazado 896951" d="M566.044,163.575a.3.3,0,0,0-.2.359,1.347,1.347,0,0,1,.068.311c0-.075,0,.03,0,.044l.006.073c0,.053,0,.106,0,.159s0,.106-.006.159l-.006.073,0,.034a2.91,2.91,0,0,1-.072.319.293.293,0,0,0,.564.155,2.659,2.659,0,0,0,0-1.482.3.3,0,0,0-.36-.2" transform="translate(-522.157 -150.94)" fill="#421517"/>
        <path id="Trazado_896952" data-name="Trazado 896952" d="M1195,194.615a20.986,20.986,0,0,0-2.979,3.1,7.049,7.049,0,0,0-1.472,3.976,5.436,5.436,0,0,0,3.055,1.984,6.706,6.706,0,0,0,3.984-.711c-.016-2.94-1.316-5.7-2.588-8.351" transform="translate(-1098.664 -179.595)" fill="#89a243"/>
        <path id="Trazado_896953" data-name="Trazado 896953" d="M1086.167,64.149a3.643,3.643,0,0,0,1.213-.3,1.236,1.236,0,0,0,.716-.963c.039-.61-.506-1.071-.9-1.541a3.711,3.711,0,0,1-.83-2.713c.055-.541.165-1.229-.3-1.5a1.211,1.211,0,0,0-.849-.034,4.524,4.524,0,0,0-1.528.508,4.927,4.927,0,0,0-1.633,2.549,3.74,3.74,0,0,1-1.861,2.34l5.887,1.587a.087.087,0,0,0,.087.07" transform="translate(-996.829 -52.633)" fill="#fda322"/>
        <path id="Trazado_896954" data-name="Trazado 896954" d="M122.408,1016.625a13.644,13.644,0,0,1,6.548,2.4c.185.13.361-.175.177-.3a13.949,13.949,0,0,0-6.523-2.431.8.8,0,0,1-.116.241.611.611,0,0,1-.086.093" transform="translate(-112.961 -937.858)" fill="#421517"/>
        <path id="Trazado_896955" data-name="Trazado 896955" d="M162.62,933.553c.191.122.367-.182.177-.3a41.239,41.239,0,0,1-5.448-4.159q-.121.127-.238.257a41.713,41.713,0,0,0,5.509,4.205" transform="translate(-144.986 -857.388)" fill="#421517"/>
        <path id="Trazado_896956" data-name="Trazado 896956" d="M229.038,965.424a20.872,20.872,0,0,1-7.082-4.146c-.168-.149-.417.1-.248.248a21.3,21.3,0,0,0,7.181,4.217q.085-.155.165-.312l-.015-.006" transform="translate(-204.546 -887.049)" fill="#421517"/>
        <path id="Trazado_896957" data-name="Trazado 896957" d="M33.919,955.577a5.939,5.939,0,0,1,2.111-4.5c.173-.146-.076-.393-.248-.248a6.279,6.279,0,0,0-2.214,4.747.175.175,0,0,0,.351,0" transform="translate(-30.977 -877.409)" fill="#ffdeb2"/>
        <path id="Trazado_896958" data-name="Trazado 896958" d="M98.039,910.03c.016-.225-.335-.224-.351,0a2.967,2.967,0,0,1-1.593,2.4c-.2.1-.024.405.177.3a3.32,3.32,0,0,0,1.767-2.7" transform="translate(-88.597 -839.642)" fill="#ffdeb2"/>
        <path id="Trazado_896959" data-name="Trazado 896959" d="M330.081,782.862c.338.255,1.189.254,1.612.391a8.9,8.9,0,0,1,1.621.706.157.157,0,0,0,.107.029c.051-.012.075-.069.091-.118a7.125,7.125,0,0,0,.511-1.456,5.944,5.944,0,0,0-.086-1.666q-.024-.141-.053-.28a17.131,17.131,0,0,0-.8-2.571,25.406,25.406,0,0,0-3.632-5.927c-.193-.251-.483-.531-.778-.416-.254.1-.318.422-.34.693a23.367,23.367,0,0,0,.67,7.775l.033.123c.115.433.246.863.4,1.285.133.369.324,1.189.646,1.432" transform="translate(-302.923 -711.985)" fill="#89a243"/>
      </g>
    </g>
  </g>
</svg>
