<svg xmlns="http://www.w3.org/2000/svg" width="94.693" height="94.693" viewBox="0 0 94.693 94.693">
  <g id="Grupo_1106132" data-name="Grupo 1106132" transform="translate(-752.288 -517)">
    <path id="Trazado_895688" data-name="Trazado 895688" d="M47.346,0h0a47.346,47.346,0,1,1,0,94.693h0A47.346,47.346,0,0,1,47.346,0Z" transform="translate(752.288 517)" fill="#a8d549"/>
    <g id="evolucion" transform="translate(762.289 526.997)">
      <g id="Grupo_1106131" data-name="Grupo 1106131" transform="translate(9.793 9.796)">
        <g id="Grupo_1106129" data-name="Grupo 1106129" transform="translate(5.774 5.143)">
          <path id="Trazado_896046" data-name="Trazado 896046" d="M70.117,428.192a6.79,6.79,0,0,1,.955,3.018,6.579,6.579,0,0,1-2.918-1.228,3.983,3.983,0,0,1-.991-1.836l-.233-.951C68.407,426.968,69.08,426.867,70.117,428.192Z" transform="translate(-66.93 -385.598)" fill="#c6ea94" fill-rule="evenodd"/>
          <path id="Trazado_896047" data-name="Trazado 896047" d="M360.139,76.878c1.439-2.154,3.229-4.77,3.429-7.42a10.984,10.984,0,0,0-3.43-8.1,11.362,11.362,0,0,0-3.429,8.1c.161,2.73,2.084,5.3,3.43,7.419Z" transform="translate(-323.846 -61.36)" fill="#c6ea94" fill-rule="evenodd"/>
          <path id="Trazado_896048" data-name="Trazado 896048" d="M290.533,193.984c.6-1.738,1.7-5.337,3.826-7.223a10.984,10.984,0,0,1,8.521-2.177,11.362,11.362,0,0,1-4.366,7.635c-2.269,1.526-5.476,1.55-7.981,1.766-.6-1.738-1.7-5.337-3.826-7.223a10.983,10.983,0,0,0-8.521-2.177,11.362,11.362,0,0,0,4.366,7.635C284.821,193.744,288.028,193.769,290.533,193.984Z" transform="translate(-254.236 -170.503)" fill="#afe269" fill-rule="evenodd"/>
          <path id="Trazado_896049" data-name="Trazado 896049" d="M290.533,285.81c.6-1.738,1.7-5.337,3.826-7.223a10.984,10.984,0,0,1,8.521-2.177,11.362,11.362,0,0,1-4.366,7.635c-2.269,1.526-5.476,1.55-7.981,1.766-.6-1.738-1.7-5.337-3.826-7.223a10.984,10.984,0,0,0-8.521-2.177,11.362,11.362,0,0,0,4.366,7.635C284.821,285.57,288.028,285.594,290.533,285.81Z" transform="translate(-254.236 -251.919)" fill="#9acd68" fill-rule="evenodd"/>
          <path id="Trazado_896050" data-name="Trazado 896050" d="M188.4,314.793c1.031-1.539,2.316-3.428,2.458-5.319a7.874,7.874,0,0,0-2.459-5.806,8.145,8.145,0,0,0-2.458,5.806C186.055,311.431,187.434,313.27,188.4,314.793Z" transform="translate(-172.44 -276.197)" fill="#c6ea94" fill-rule="evenodd"/>
          <path id="Trazado_896051" data-name="Trazado 896051" d="M138.5,398.743c.428-1.246,1.22-3.826,2.742-5.178A7.875,7.875,0,0,1,147.35,392a8.146,8.146,0,0,1-3.13,5.473c-1.627,1.094-3.925,1.111-5.721,1.266-.428-1.246-1.22-3.826-2.743-5.178A7.874,7.874,0,0,0,129.648,392a8.146,8.146,0,0,0,3.13,5.473C134.4,398.572,136.7,398.589,138.5,398.743Z" transform="translate(-122.538 -354.44)" fill="#afe269" fill-rule="evenodd"/>
        </g>
        <g id="Grupo_1106130" data-name="Grupo 1106130" transform="translate(0 0)">
          <path id="Trazado_896052" data-name="Trazado 896052" d="M30.88,17.327a3.151,3.151,0,0,0,3.631,3.631,3.151,3.151,0,0,0,1.329,4.96,3.151,3.151,0,0,0-1.329,4.96,3.151,3.151,0,0,0-3.631,3.631,3.151,3.151,0,0,0-4.96,1.329,3.151,3.151,0,0,0-4.96-1.329,3.151,3.151,0,0,0-3.631-3.631A3.151,3.151,0,0,0,16,25.918a3.151,3.151,0,0,0,1.329-4.96,3.151,3.151,0,0,0,3.631-3.631A3.151,3.151,0,0,0,25.92,16a3.151,3.151,0,0,0,4.96,1.329Z" transform="translate(-16 -15.998)" fill="#fdcd56" fill-rule="evenodd"/>
          <circle id="Elipse_11708" data-name="Elipse 11708" cx="5.059" cy="5.059" r="5.059" transform="translate(2.764 9.92) rotate(-45)" fill="#f5b945"/>
        </g>
      </g>
      <path id="Trazado_896053" data-name="Trazado 896053" d="M18.129,58.584a3.789,3.789,0,0,1,.585,1.437,3.419,3.419,0,0,1-1.369-.7,3.333,3.333,0,0,1-.833-1.714A3.157,3.157,0,0,1,18.129,58.584Zm11.73-10.415a7.265,7.265,0,0,1,1.67-4.586,6.834,6.834,0,0,1,1.664,4.572,9.186,9.186,0,0,1-1.66,3.93A8.768,8.768,0,0,1,29.859,48.169ZM26.25,57.318a7.268,7.268,0,0,1-2.637-4.108,6.833,6.833,0,0,1,4.646,1.447,9.488,9.488,0,0,1,2.125,3.7A8.756,8.756,0,0,1,26.25,57.318ZM34.8,54.657a6.739,6.739,0,0,1,4.35-1.453c.1,0,.2,0,.3.006a7.271,7.271,0,0,1-2.637,4.108,8.757,8.757,0,0,1-4.134,1.04A9.491,9.491,0,0,1,34.8,54.657ZM49.222,22.991a10.386,10.386,0,0,1,2.639-6.9A9.974,9.974,0,0,1,54.5,22.978c-.155,2.052-1.422,4.194-2.629,6.032C50.669,27.168,49.346,25.092,49.222,22.991Zm-4.9,23.415a10.386,10.386,0,0,1-3.892-6.28A9.973,9.973,0,0,1,47.511,42.2c1.577,1.4,2.594,3.978,3.212,5.747-2.194-.162-4.649-.367-6.4-1.542Zm0-10.41a10.39,10.39,0,0,1-3.892-6.281,9.975,9.975,0,0,1,7.078,2.075c1.577,1.4,2.594,3.977,3.212,5.747-2.194-.161-4.649-.365-6.4-1.541Zm11.891-4.206a9.739,9.739,0,0,1,6.283-2.1c.265,0,.531.009.8.028A10.392,10.392,0,0,1,59.4,36c-1.748,1.175-4.2,1.38-6.4,1.541C53.622,35.766,54.639,33.191,56.216,31.789Zm0,10.411A9.734,9.734,0,0,1,62.5,40.1c.265,0,.531.009.8.029a10.387,10.387,0,0,1-3.893,6.28c-1.748,1.175-4.2,1.38-6.4,1.542.618-1.769,1.635-4.347,3.212-5.747Zm7.994,21.221H52.653V49.564l.308-.023c2.431-.178,5.186-.379,7.326-1.819A12.192,12.192,0,0,0,65,39.523a.793.793,0,0,0-.669-.879,11.811,11.811,0,0,0-9.167,2.368,11.264,11.264,0,0,0-2.509,3.56V39.154l.308-.022c2.431-.178,5.186-.38,7.326-1.819A12.2,12.2,0,0,0,65,29.114a.794.794,0,0,0-.669-.88A11.815,11.815,0,0,0,55.163,30.6a11.268,11.268,0,0,0-2.509,3.56V30.7c1.44-2.153,3.218-4.826,3.427-7.6a11.817,11.817,0,0,0-3.669-8.729.794.794,0,0,0-1.1,0,12.2,12.2,0,0,0-3.669,8.716c.151,2.575,1.66,4.889,2.992,6.93.15.23.3.453.437.675v3.456a11.234,11.234,0,0,0-2.5-3.543A11.815,11.815,0,0,0,39.4,28.234a.794.794,0,0,0-.669.88,12.2,12.2,0,0,0,4.711,8.2c2.14,1.439,4.9,1.64,7.326,1.819l.3.021v5.4a11.231,11.231,0,0,0-2.5-3.543A11.811,11.811,0,0,0,39.4,38.645a.793.793,0,0,0-.669.879,12.191,12.191,0,0,0,4.711,8.2c2.14,1.44,4.9,1.64,7.326,1.819l.3.023V63.421H32.319V59.977h.012a11.028,11.028,0,0,0,5.362-1.342A8.981,8.981,0,0,0,41.167,52.6a.794.794,0,0,0-.669-.879,8.583,8.583,0,0,0-6.754,1.752,7.277,7.277,0,0,0-1.425,1.812V53.776c1.04-1.557,2.3-3.477,2.456-5.5a8.582,8.582,0,0,0-2.7-6.435.794.794,0,0,0-1.1,0,8.982,8.982,0,0,0-2.7,6.422c.112,1.9,1.259,3.664,2.18,5.078l.277.426v1.506a7.294,7.294,0,0,0-1.419-1.8,8.584,8.584,0,0,0-6.754-1.752.794.794,0,0,0-.669.879,8.98,8.98,0,0,0,3.475,6.037,11.028,11.028,0,0,0,5.361,1.342h.006v3.444H13.9c-.051-.324-.127-.672-.209-1.047-.442-2.018-.67-3.632.707-4.52a2.73,2.73,0,0,1,.509-.26,5,5,0,0,0,1.332,2.86,6.246,6.246,0,0,0,2.882,1.325c.131.033.258.067.381.1a.779.779,0,0,0,.209.028.793.793,0,0,0,.785-.913l-.023-.156a6.974,6.974,0,0,0-1.092-3.232,5.018,5.018,0,0,0-3.7-1.726A3.932,3.932,0,0,0,12.2,57.955c-.776,1.516-.365,3.394-.067,4.758.054.246.106.485.148.707H9.793a.794.794,0,1,0,0,1.587H64.211a.794.794,0,0,0,0-1.587ZM19.713,15.45a4.266,4.266,0,1,1-4.265,4.266A4.271,4.271,0,0,1,19.713,15.45Zm0,10.118a5.853,5.853,0,1,1,5.853-5.852A5.859,5.859,0,0,1,19.713,25.568Zm-7.218-7.786a3.931,3.931,0,0,0-.057-2.265,3.979,3.979,0,0,0,3.076-3.074,3.98,3.98,0,0,0,4.2-1.127,4,4,0,0,0,4.2,1.124,3.979,3.979,0,0,0,3.074,3.077,3.979,3.979,0,0,0,1.127,4.2,4,4,0,0,0-1.125,4.2,3.978,3.978,0,0,0-3.076,3.074,3.974,3.974,0,0,0-4.2,1.127,3.931,3.931,0,0,0-1.933-1.183,4.058,4.058,0,0,0-1.046-.138,3.843,3.843,0,0,0-1.219.2,3.979,3.979,0,0,0-3.074-3.077,3.98,3.98,0,0,0-1.127-4.2,3.928,3.928,0,0,0,1.182-1.932ZM9.515,20.459a.793.793,0,0,1,0-1.486,2.37,2.37,0,0,0,.994-3.712.794.794,0,0,1,.743-1.288,2.359,2.359,0,0,0,2.717-2.716.794.794,0,0,1,1.288-.744,2.36,2.36,0,0,0,3.711-.994.794.794,0,0,1,1.487,0,2.369,2.369,0,0,0,3.711.994.794.794,0,0,1,1.288.744,2.359,2.359,0,0,0,2.717,2.716.794.794,0,0,1,.743,1.288,2.36,2.36,0,0,0,.994,3.712.793.793,0,0,1,0,1.486,2.37,2.37,0,0,0-.994,3.712.793.793,0,0,1-.743,1.288,2.36,2.36,0,0,0-2.717,2.716.794.794,0,0,1-1.288.744,2.361,2.361,0,0,0-3.711.994.793.793,0,0,1-1.487,0,2.37,2.37,0,0,0-3.711-.994.794.794,0,0,1-1.288-.744,2.36,2.36,0,0,0-2.717-2.716.793.793,0,0,1-.743-1.288,2.36,2.36,0,0,0-.994-3.712Z" fill-rule="evenodd"/>
    </g>
  </g>
</svg>
