<svg xmlns="http://www.w3.org/2000/svg" width="86" height="86" viewBox="0 0 86 86">
  <g id="Grupo_1106321" data-name="Grupo 1106321" transform="translate(-442.051 -4328)">
    <circle id="Elipse_11681" data-name="Elipse 11681" cx="43" cy="43" r="43" transform="translate(442.051 4328)" fill="#edf6db"/>
    <g id="bote-de-basura-" transform="translate(405.953 4340)">
      <g id="Grupo_1106319" data-name="Grupo 1106319" transform="translate(55.012 0.917)">
        <path id="Trazado_896987" data-name="Trazado 896987" d="M238.124,10.958h-1.21l-4.62,2.512-.4.856.04.346a9.263,9.263,0,0,1,11.972,6.892l.612.648h2.608l.5-.648A12.971,12.971,0,0,0,238.124,10.958Z" transform="translate(-211.071 -10.535)" fill="#dbedff"/>
        <g id="Grupo_1106317" data-name="Grupo 1106317" transform="translate(10.975)">
          <path id="Trazado_896988" data-name="Trazado 896988" d="M167.414,7.923a12.938,12.938,0,0,0-16.077,10.605l.523.541h2.724l.478-.541a9.3,9.3,0,0,1,6.164-6.892A12.944,12.944,0,0,1,167.414,7.923Z" transform="translate(-151.337 -7.5)" fill="#b5dcff"/>
        </g>
        <path id="Trazado_896989" data-name="Trazado 896989" d="M153.195,185.333H118.635l-.989,2.466,4.035,35.64,1.952.917h25.626a3.21,3.21,0,0,0,3.2-2.92l3.162-34.85Z" transform="translate(-110.79 -163.59)" fill="#b5dcff"/>
        <g id="Grupo_1106318" data-name="Grupo 1106318" transform="translate(2.709 21.743)">
          <path id="Trazado_896990" data-name="Trazado 896990" d="M92.159,221.436,89,186.586l1.7-1.252h-5.27l-1.7,1.252,3.162,34.85a3.211,3.211,0,0,0,3.2,2.92h5.27A3.211,3.211,0,0,1,92.159,221.436Z" transform="translate(-83.727 -185.334)" fill="#8bcaff"/>
          <path id="Trazado_896991" data-name="Trazado 896991" d="M160.357,243.54a2.153,2.153,0,0,0-2.153,2.153v20.05a2.153,2.153,0,1,0,4.306,0v-20.05A2.153,2.153,0,0,0,160.357,243.54Z" transform="translate(-149.098 -236.423)" fill="#8bcaff"/>
          <path id="Trazado_896992" data-name="Trazado 896992" d="M240.517,243.54a2.153,2.153,0,0,0-2.153,2.153v20.05a2.153,2.153,0,1,0,4.306,0v-20.05a2.153,2.153,0,0,0-2.153-2.153Z" transform="translate(-219.457 -236.423)" fill="#8bcaff"/>
          <path id="Trazado_896993" data-name="Trazado 896993" d="M320.678,243.54a2.153,2.153,0,0,0-2.153,2.153v20.05a2.153,2.153,0,1,0,4.306,0v-20.05A2.153,2.153,0,0,0,320.678,243.54Z" transform="translate(-289.817 -236.423)" fill="#8bcaff"/>
        </g>
        <path id="Trazado_896994" data-name="Trazado 896994" d="M160.357,346.881a2.153,2.153,0,0,1-2.153-2.153v9.831a2.153,2.153,0,1,0,4.306,0v-9.831A2.153,2.153,0,0,1,160.357,346.881Z" transform="translate(-146.389 -303.497)" fill="#60b9fe"/>
        <path id="Trazado_896995" data-name="Trazado 896995" d="M240.517,346.881a2.153,2.153,0,0,1-2.153-2.153v9.831a2.153,2.153,0,1,0,4.306,0v-9.831a2.153,2.153,0,0,1-2.153,2.153Z" transform="translate(-216.748 -303.497)" fill="#60b9fe"/>
        <path id="Trazado_896996" data-name="Trazado 896996" d="M320.678,346.881a2.153,2.153,0,0,1-2.153-2.153v9.831a2.153,2.153,0,1,0,4.306,0v-9.831A2.153,2.153,0,0,1,320.678,346.881Z" transform="translate(-287.108 -303.497)" fill="#60b9fe"/>
        <path id="Trazado_896997" data-name="Trazado 896997" d="M168.816,97.7H141.945l-1.658,1.368-.747,3.682h32.087l1.509-1.015A4.331,4.331,0,0,0,168.816,97.7Z" transform="translate(-130.007 -86.67)" fill="#b5dcff"/>
        <path id="Trazado_896998" data-name="Trazado 896998" d="M107.822,97.7h-5.881a4.331,4.331,0,0,0-4.32,4.035l1.5,1.015H105l-1.5-1.015A4.331,4.331,0,0,1,107.822,97.7Z" transform="translate(-93.213 -86.67)" fill="#8bcaff"/>
        <path id="Trazado_896999" data-name="Trazado 896999" d="M151.9,130.7H113.311l-1.165.852v5.828l.7,1.252H151.9a1.6,1.6,0,0,0,1.6-1.6v-4.74A1.6,1.6,0,0,0,151.9,130.7Z" transform="translate(-105.962 -115.635)" fill="#dbedff"/>
        <path id="Trazado_897000" data-name="Trazado 897000" d="M68.185,137.034v-4.74a1.6,1.6,0,0,1,1.6-1.6H63.167a1.6,1.6,0,0,0-1.6,1.6v4.74a1.6,1.6,0,0,0,1.6,1.6h6.614A1.6,1.6,0,0,1,68.185,137.034Z" transform="translate(-61.571 -115.635)" fill="#b5dcff"/>
      </g>
      <g id="Grupo_1106320" data-name="Grupo 1106320" transform="translate(54.098 0)">
        <path id="Trazado_897001" data-name="Trazado 897001" d="M56.611,24.829h.275l3.086,34.016A4.108,4.108,0,0,0,64.083,62.6h29.4a4.108,4.108,0,0,0,4.111-3.755l1.525-16.808a.917.917,0,0,0-1.827-.166L95.768,58.68a2.282,2.282,0,0,1-2.284,2.086h-29.4A2.282,2.282,0,0,1,61.8,58.68L58.728,24.829H98.839L97.681,37.592a.917.917,0,1,0,1.827.166l1.173-12.929h.275a2.516,2.516,0,0,0,2.513-2.513v-4.74a2.516,2.516,0,0,0-2.513-2.513H98.928a5.264,5.264,0,0,0-5.1-4.035H92.342a13.848,13.848,0,0,0-27.116,0H63.743a5.264,5.264,0,0,0-5.1,4.035H56.611A2.516,2.516,0,0,0,54.1,17.576v4.74a2.516,2.516,0,0,0,2.513,2.513ZM78.784,1.834a12.1,12.1,0,0,1,11.681,9.194h-1.9a10.228,10.228,0,0,0-7.432-7.084.917.917,0,0,0-.424,1.784,8.389,8.389,0,0,1,5.928,5.3H70.928a8.389,8.389,0,0,1,5.928-5.3.917.917,0,0,0-.424-1.784A10.228,10.228,0,0,0,69,11.028H67.1A12.1,12.1,0,0,1,78.784,1.834ZM63.743,12.862H93.824a3.426,3.426,0,0,1,3.191,2.2H60.552A3.425,3.425,0,0,1,63.743,12.862Zm-7.811,4.714a.68.68,0,0,1,.679-.679h44.345a.68.68,0,0,1,.679.679v4.74a.68.68,0,0,1-.679.679H56.611a.68.68,0,0,1-.679-.679Z" transform="translate(-54.098 0)"/>
        <path id="Trazado_897002" data-name="Trazado 897002" d="M150.731,239.11v20.05a3.07,3.07,0,1,0,6.14,0V239.11a3.07,3.07,0,1,0-6.14,0Zm4.306,0v20.05a1.236,1.236,0,1,1-2.472,0V239.11a1.236,1.236,0,1,1,2.472,0Z" transform="translate(-138.916 -207.181)"/>
        <path id="Trazado_897003" data-name="Trazado 897003" d="M230.892,239.11v20.05a3.07,3.07,0,1,0,6.14,0V239.11a3.07,3.07,0,1,0-6.14,0Zm4.306,0v20.05a1.236,1.236,0,1,1-2.472,0V239.11a1.236,1.236,0,1,1,2.472,0Z" transform="translate(-209.276 -207.181)"/>
        <path id="Trazado_897004" data-name="Trazado 897004" d="M311.052,239.11v20.05a3.07,3.07,0,1,0,6.14,0V239.11a3.07,3.07,0,1,0-6.14,0Zm4.306,0v20.05a1.236,1.236,0,1,1-2.472,0V239.11a1.236,1.236,0,1,1,2.472,0Z" transform="translate(-279.635 -207.181)"/>
      </g>
    </g>
  </g>
</svg>
