<svg xmlns="http://www.w3.org/2000/svg" width="86" height="86" viewBox="0 0 86 86">
  <g id="Grupo_1106322" data-name="Grupo 1106322" transform="translate(-757.051 -4328)">
    <circle id="Elipse_11686" data-name="Elipse 11686" cx="43" cy="43" r="43" transform="translate(757.051 4328)" fill="#edf6db"/>
    <g id="melaza" transform="translate(707.551 4338)">
      <path id="Trazado_897005" data-name="Trazado 897005" d="M317,52.5h7.832V64.248H317Z" transform="translate(-216.062 -45.647)" fill="#ffbcca"/>
      <path id="Trazado_897006" data-name="Trazado 897006" d="M136,52.5h27.543V64.248H136Z" transform="translate(-58.689 -45.647)" fill="#ffe3de"/>
      <path id="Trazado_897007" data-name="Trazado 897007" d="M349.916,112.5H346v51.17h3.916a7.832,7.832,0,0,0,7.832-7.832V120.332A7.832,7.832,0,0,0,349.916,112.5Z" transform="translate(-241.277 -97.815)" fill="#ffe3de"/>
      <path id="Trazado_897008" data-name="Trazado 897008" d="M111.244,112.5H83.832A7.832,7.832,0,0,0,76,120.332v35.506a7.832,7.832,0,0,0,7.832,7.832h27.412a7.832,7.832,0,0,0,7.832-7.832l-3.916-15.86,3.916-15.86v-3.786A7.832,7.832,0,0,0,111.244,112.5Z" transform="translate(-6.521 -97.815)" fill="#fff9f0"/>
      <path id="Trazado_897009" data-name="Trazado 897009" d="M316,7.5l1.958,8.485h5.874V11.416A3.916,3.916,0,0,0,319.916,7.5Z" transform="translate(-215.193 -6.521)" fill="#ff9a42"/>
      <path id="Trazado_897010" data-name="Trazado 897010" d="M136,11.416v4.569h27.412V11.416A3.916,3.916,0,0,0,159.5,7.5h-19.58A3.916,3.916,0,0,0,136,11.416Z" transform="translate(-58.689 -6.521)" fill="#ffba48"/>
      <path id="Trazado_897011" data-name="Trazado 897011" d="M349.916,52.5H346v3.916h3.916a1.958,1.958,0,1,0,0-3.916Z" transform="translate(-241.277 -45.647)" fill="#ffe3de"/>
      <path id="Trazado_897012" data-name="Trazado 897012" d="M152.328,54.458A1.958,1.958,0,0,0,150.37,52.5H122.958a1.958,1.958,0,0,0,0,3.916H150.37A1.958,1.958,0,0,0,152.328,54.458Z" transform="translate(-45.647 -45.647)" fill="#fff9f0"/>
      <path id="Trazado_897013" data-name="Trazado 897013" d="M349.916,202.105,346,237.136h3.916a3.92,3.92,0,0,0,3.916-3.916V201.5A11.167,11.167,0,0,0,349.916,202.105Z" transform="translate(-241.277 -175.197)" fill="#7f221c"/>
      <path id="Trazado_897014" data-name="Trazado 897014" d="M135.37,203.458c-4.9,0-4.895-1.958-9.79-1.958s-4.9,1.958-9.79,1.958-4.9-1.958-9.79-1.958v31.72a3.92,3.92,0,0,0,3.916,3.916h27.412a3.92,3.92,0,0,0,3.916-3.916V202.105A13.544,13.544,0,0,1,135.37,203.458Z" transform="translate(-32.605 -175.197)" fill="#a41910"/>
      <path id="Trazado_897015" data-name="Trazado 897015" d="M138.64,194a12.252,12.252,0,0,0-5.259,1.049,11.749,11.749,0,0,1-9.063,0,13.706,13.706,0,0,0-10.517,0,11.749,11.749,0,0,1-9.063,0A12.251,12.251,0,0,0,99.479,194a.979.979,0,0,0-.979.979V226.7a4.9,4.9,0,0,0,4.9,4.9.979.979,0,1,0,0-1.958,2.94,2.94,0,0,1-2.937-2.937v-30.71a10.284,10.284,0,0,1,3.553.878,13.705,13.705,0,0,0,10.517,0,11.749,11.749,0,0,1,9.063,0,13.706,13.706,0,0,0,10.517,0,10.288,10.288,0,0,1,3.552-.878V226.7a2.94,2.94,0,0,1-2.937,2.937H107.311a.979.979,0,1,0,0,1.958h27.412a4.9,4.9,0,0,0,4.9-4.9v-31.72A.979.979,0,0,0,138.64,194Z" transform="translate(-26.084 -168.676)"/>
      <path id="Trazado_897016" data-name="Trazado 897016" d="M109.619,13.762V11.58a2.936,2.936,0,0,0,0-5.537V4.9a4.9,4.9,0,0,0-4.9-4.9h-23.5a4.9,4.9,0,0,0-4.9,4.9V6.042a2.937,2.937,0,0,0,0,5.538v2.182A8.823,8.823,0,0,0,68.5,22.517V58.023a8.821,8.821,0,0,0,8.811,8.811H108.64a8.821,8.821,0,0,0,8.811-8.811V22.517A8.823,8.823,0,0,0,109.619,13.762ZM81.227,1.958h23.5A2.94,2.94,0,0,1,107.661,4.9v.979H78.29V4.9A2.94,2.94,0,0,1,81.227,1.958ZM77.311,7.832H108.64a.979.979,0,0,1,0,1.958H81.227a.979.979,0,0,0,0,1.958h26.433v1.958H78.29V10.769a.979.979,0,0,0-.979-.979.979.979,0,0,1,0-1.958Zm38.182,50.191a6.861,6.861,0,0,1-6.853,6.853H77.311a6.861,6.861,0,0,1-6.853-6.853V22.517a6.861,6.861,0,0,1,6.853-6.853H108.64a6.861,6.861,0,0,1,6.853,6.853Z"/>
    </g>
  </g>
</svg>
