<svg xmlns="http://www.w3.org/2000/svg" width="86" height="86" viewBox="0 0 86 86">
  <g id="Grupo_1106345" data-name="Grupo 1106345" transform="translate(-757.051 -4569)">
    <circle id="Elipse_11689" data-name="Elipse 11689" cx="43" cy="43" r="43" transform="translate(757.051 4569)" fill="#edf6db"/>
    <g id="tarro-de-leche" transform="translate(752.267 4583)">
      <g id="Grupo_1106334" data-name="Grupo 1106334" transform="translate(33.803 0.856)">
        <path id="Trazado_897027" data-name="Trazado 897027" d="M139.243,15.344l.274.114h21.107l.319-.114,1.5-3.34a.571.571,0,0,0-.442-.8l-26.417-3.7a.571.571,0,0,0-.65.566V10.8a.571.571,0,0,0,.167.4Z" transform="translate(-134.931 -7.501)" fill="#99e6fc"/>
        <path id="Trazado_897028" data-name="Trazado 897028" d="M139.243,15.344h4.728L139.826,11.2a.571.571,0,0,1-.167-.4V8.077l-4.077-.571a.571.571,0,0,0-.65.566V10.8a.571.571,0,0,0,.167.4Z" transform="translate(-134.931 -7.501)" fill="#62dbfb"/>
      </g>
      <path id="Trazado_897029" data-name="Trazado 897029" d="M369.814,122.606h-6.831v4.173h6.831a2.77,2.77,0,0,1,2.767,2.767v14.218a2.771,2.771,0,0,1-2.292,2.726,27.778,27.778,0,0,1,.206,3.38c0,.269-.005.536-.013.8a6.94,6.94,0,0,0,6.272-6.908V129.546A6.94,6.94,0,0,0,369.814,122.606Z" transform="translate(-303.168 -108.621)" fill="#99e6fc"/>
      <path id="Trazado_897030" data-name="Trazado 897030" d="M183.256,93.325a11.958,11.958,0,0,1-2.485-7.306V76.264h-21.7v9.755a11.981,11.981,0,0,1-1.122,5.06,2.423,2.423,0,0,1,3.108,3.7l-3.746,3.746h3.63a.7.7,0,0,1,.692.768l-2.7,25.821H182.6a26.295,26.295,0,0,0,.653-31.784Z" transform="translate(-120.956 -67.565)" fill="#c8effe"/>
      <g id="Grupo_1106335" data-name="Grupo 1106335" transform="translate(36.994 8.699)">
        <path id="Trazado_897031" data-name="Trazado 897031" d="M165.913,91.259a14.875,14.875,0,0,0,.961-5.24h1.843V76.264h-4.7v9.755a11.982,11.982,0,0,1-1.122,5.06A2.421,2.421,0,0,1,165.913,91.259Z" transform="translate(-162.901 -76.264)" fill="#99e6fc"/>
      </g>
      <path id="Trazado_897032" data-name="Trazado 897032" d="M181,170.837a14.885,14.885,0,0,1-3.079-9.048h-16a14.873,14.873,0,0,1-.961,5.24c.032.029.065.056.1.087a2.424,2.424,0,0,1,0,3.429l-3.746,3.746h3.63a.7.7,0,0,1,.692.768l-2.4,22.97h22a22.86,22.86,0,0,0,4.2-13.444A22.537,22.537,0,0,0,181,170.837Z" transform="translate(-120.957 -143.335)" fill="#fff3de"/>
      <g id="Grupo_1106336" data-name="Grupo 1106336" transform="translate(36.356 18.454)">
        <path id="Trazado_897033" data-name="Trazado 897033" d="M174.132,424.947h4.079a21.346,21.346,0,0,1-3.344-7.024Z" transform="translate(-172.214 -388.708)" fill="#ffe5c2"/>
        <path id="Trazado_897034" data-name="Trazado 897034" d="M161.924,161.79a14.873,14.873,0,0,1-.961,5.24c.032.029.065.056.1.087a2.424,2.424,0,0,1,0,3.429l-3.746,3.746h3.63a.691.691,0,0,1,.4.128,20.009,20.009,0,0,1,2.195-3.582,14.884,14.884,0,0,0,3.079-9.048Z" transform="translate(-157.313 -161.79)" fill="#ffe5c2"/>
      </g>
      <path id="Trazado_897035" data-name="Trazado 897035" d="M39.691,210.148H50.883l3.746-3.746a2.424,2.424,0,1,0-3.429-3.429l-3.563,3.563a3.323,3.323,0,0,1-4.7,0l-1.618-1.618a2.424,2.424,0,1,0-3.429,3.429Z" transform="translate(-14.527 -179.193)" fill="#fff3de"/>
      <path id="Trazado_897036" data-name="Trazado 897036" d="M39.691,225.254H43.3l-1.8-1.8a2.422,2.422,0,0,1-.085-3.335l-.094-.094a2.424,2.424,0,1,0-3.429,3.429Z" transform="translate(-14.526 -194.299)" fill="#ffe5c2"/>
      <g id="Grupo_1106337" data-name="Grupo 1106337" transform="translate(21.639 30.955)">
        <path id="Trazado_897037" data-name="Trazado 897037" d="M44.621,297.978H31.615a.7.7,0,0,1-.692-.623l-2.636-25.2a.7.7,0,0,1,.692-.768H46.631a.7.7,0,0,1,.692.768Z" transform="translate(-28.283 -271.389)" fill="#c8effe"/>
      </g>
      <path id="Trazado_897038" data-name="Trazado 897038" d="M35.686,297.354l-.233-2.228h-1.9L31.371,274.24h1.9l-.218-2.084a.7.7,0,0,1,.692-.768H28.978a.7.7,0,0,0-.692.768l2.637,25.2a.7.7,0,0,0,.692.623h4.764a.7.7,0,0,1-.692-.623Z" transform="translate(-6.643 -240.433)" fill="#99e6fc"/>
      <g id="Grupo_1106338" data-name="Grupo 1106338" transform="translate(24.728 33.807)">
        <path id="Trazado_897039" data-name="Trazado 897039" d="M57.549,317.274l-2.185-20.886H68.229l-2.185,20.886Z" transform="translate(-55.364 -296.388)" fill="#fff3de"/>
      </g>
      <g id="Grupo_1106339" data-name="Grupo 1106339" transform="translate(24.728 33.807)">
        <path id="Trazado_897040" data-name="Trazado 897040" d="M55.364,296.388l2.185,20.886h3.608l-2.185-20.886Z" transform="translate(-55.364 -296.388)" fill="#ffe5c2"/>
      </g>
      <g id="Grupo_1106340" data-name="Grupo 1106340" transform="translate(28.906 20.211)">
        <circle id="Elipse_11740" data-name="Elipse 11740" cx="2.156" cy="2.156" r="2.156" fill="#fff3de"/>
      </g>
      <g id="Grupo_1106341" data-name="Grupo 1106341" transform="translate(28.906 20.211)">
        <path id="Trazado_897041" data-name="Trazado 897041" d="M93.96,179.35a2.154,2.154,0,0,1,1.175-1.919,2.156,2.156,0,1,0,0,3.837A2.154,2.154,0,0,1,93.96,179.35Z" transform="translate(-91.999 -177.194)" fill="#ffe5c2"/>
      </g>
      <g id="Grupo_1106342" data-name="Grupo 1106342" transform="translate(23.203 18.136)">
        <circle id="Elipse_11741" data-name="Elipse 11741" cx="1.426" cy="1.426" r="1.426" transform="translate(0)" fill="#fff3de"/>
      </g>
      <g id="Grupo_1106343" data-name="Grupo 1106343" transform="translate(23.203 18.136)">
        <path id="Trazado_897042" data-name="Trazado 897042" d="M43.254,160.426a1.424,1.424,0,0,1,.8-1.279,1.426,1.426,0,1,0,0,2.558A1.424,1.424,0,0,1,43.254,160.426Z" transform="translate(-41.999 -159)" fill="#ffe5c2"/>
      </g>
      <g id="Grupo_1106344" data-name="Grupo 1106344" transform="translate(20.784 0)">
        <path id="Trazado_897043" data-name="Trazado 897043" d="M66.646,13.129H60.671V8.882l1.422-3.173a1.427,1.427,0,0,0-1.1-2l-6.069-.85a.856.856,0,0,0-.237,1.694l5.694.8L59.261,7.844H38.47L34.659,4.033V1.754L50.708,4a.856.856,0,1,0,.237-1.694L34.572.014a1.427,1.427,0,0,0-1.624,1.413V4.15a1.417,1.417,0,0,0,.418,1.009L37.26,9.054v9.4a11.174,11.174,0,0,1-.958,4.51c-.081.066-.159.137-.234.212l-3.563,3.563a2.468,2.468,0,0,1-3.49,0L27.4,25.121a3.28,3.28,0,1,0-4.638,4.638l.34.34h-.765a1.551,1.551,0,0,0-1.543,1.712l2.636,25.2A1.548,1.548,0,0,0,24.971,58.4H61.647a.855.855,0,0,0,.651-.3A25.575,25.575,0,0,0,68.14,42.79a7.805,7.805,0,0,0,6.3-7.648V20.925a7.8,7.8,0,0,0-7.8-7.8Zm-42.677,13.2a1.569,1.569,0,0,1,2.219,0l1.618,1.618a4.178,4.178,0,0,0,5.909,0l3.563-3.563A1.569,1.569,0,0,1,39.5,26.6L36,30.1H25.519l-1.55-1.55a1.571,1.571,0,0,1,0-2.219Zm17.017-2.836A15.74,15.74,0,0,0,41.8,19.31H56.132a15.748,15.748,0,0,0,3.233,8.715h0A21.678,21.678,0,0,1,63.62,41.248a21.979,21.979,0,0,1-3.786,12.589H39.224l2.3-22.025A1.551,1.551,0,0,0,39.986,30.1H38.421l2.285-2.285a3.284,3.284,0,0,0,.279-4.319ZM25.115,56.689l-2.6-24.878h17.3l-2.6,24.878Zm36.132,0H38.926l.119-1.141H60.272a.855.855,0,0,0,.688-.347,23.584,23.584,0,0,0,4.37-13.952,23.394,23.394,0,0,0-4.611-14.27h0a14.024,14.024,0,0,1-2.9-8.525.855.855,0,0,0-.855-.855h-16a.855.855,0,0,0-.855.855,13.957,13.957,0,0,1-.581,3.968,3.291,3.291,0,0,0-1.126-.2,12.848,12.848,0,0,0,.567-3.763v-8.9H58.96v8.9a12.878,12.878,0,0,0,2.663,7.828,24.54,24.54,0,0,1,4.848,14.966,24.26,24.26,0,0,1-5.224,15.44ZM72.731,35.143A6.094,6.094,0,0,1,68.18,41.03q-.01-1.285-.131-2.549a3.627,3.627,0,0,0,2.22-3.339V29.77a.855.855,0,1,0-1.711,0v5.373a1.906,1.906,0,0,1-.747,1.512,25.38,25.38,0,0,0-4.833-11.418,11.157,11.157,0,0,1-2.291-6.224h5.959a1.914,1.914,0,0,1,1.912,1.912v4.853a.855.855,0,1,0,1.711,0V20.925A3.627,3.627,0,0,0,66.646,17.3H60.671V14.84h5.975a6.092,6.092,0,0,1,6.085,6.085V35.143Z" transform="translate(-20.784 0)"/>
        <path id="Trazado_897044" data-name="Trazado 897044" d="M60.377,301.291a.856.856,0,0,0,.94-.762l1.119-10.7a.855.855,0,0,0-.851-.944H48.72a.855.855,0,0,0-.851.944l2.185,20.886a.855.855,0,0,0,.851.766H59.4a.855.855,0,0,0,.851-.766L60.9,304.5a.855.855,0,1,0-1.7-.178l-.571,5.452H51.676L49.669,290.6H60.635l-1.02,9.752A.855.855,0,0,0,60.377,301.291Z" transform="translate(-44.775 -255.937)"/>
        <path id="Trazado_897045" data-name="Trazado 897045" d="M87.511,175.718a3.011,3.011,0,1,0-3.011-3.012A3.015,3.015,0,0,0,87.511,175.718Zm0-4.312a1.3,1.3,0,1,1-1.3,1.3A1.3,1.3,0,0,1,87.511,171.406Z" transform="translate(-77.232 -150.339)"/>
        <path id="Trazado_897046" data-name="Trazado 897046" d="M36.78,156.062a2.281,2.281,0,1,0-2.281-2.281A2.284,2.284,0,0,0,36.78,156.062Zm0-2.852a.57.57,0,1,1-.57.57A.571.571,0,0,1,36.78,153.211Z" transform="translate(-32.935 -134.22)"/>
      </g>
    </g>
  </g>
</svg>
