<svg xmlns="http://www.w3.org/2000/svg" width="79" height="79" viewBox="0 0 79 79">
  <g id="Grupo_1106229" data-name="Grupo 1106229" transform="translate(-446.051 -1109)">
    <circle id="Elipse_11675" data-name="Elipse 11675" cx="39.5" cy="39.5" r="39.5" transform="translate(446.051 1109)" fill="#edf6db"/>
    <g id="comida" transform="translate(459.05 1122)">
      <path id="Trazado_896850" data-name="Trazado 896850" d="M25.63,9.235,25,5h3.229V9.364" transform="translate(-4.627 -0.193)" fill="#785349"/>
      <path id="Trazado_896851" data-name="Trazado 896851" d="M32.264,24.12l.237.207A24.4,24.4,0,0,0,40,28.811h0a13.537,13.537,0,0,0,4.753.862h0a13.54,13.54,0,0,0,6.054-1.429l1.263-.632a3.418,3.418,0,0,1,1.529-.361h0a1.614,1.614,0,0,1,1.614,1.614h0a1.614,1.614,0,0,1-.646,1.292h0a27.8,27.8,0,0,1-13.013,5.319l-1.776.237-4.745-.389L31,27.252Z" transform="translate(-5.784 -3.879)" fill="#ffeacd"/>
      <path id="Trazado_896852" data-name="Trazado 896852" d="M19,26.212l-1.6,3.456a10.428,10.428,0,0,1-5.361,5.216h0a10.422,10.422,0,0,1-4.109.844H3.84A1.84,1.84,0,0,0,2,37.568H2a1.84,1.84,0,0,0,1.335,1.769l2.222.635a15.526,15.526,0,0,0,4.272.6h0a15.541,15.541,0,0,0,11.529-5.119" transform="translate(-0.193 -4.283)" fill="#edbc58"/>
      <path id="Trazado_896853" data-name="Trazado 896853" d="M23,21.584V13.39A3.39,3.39,0,0,1,26.39,10h0a3.39,3.39,0,0,1,3.372,3.053l.618,6.181a19.453,19.453,0,0,0,5.6,11.821h0A19.458,19.458,0,0,0,47.466,36.62l4.929.58a2.361,2.361,0,0,1,2.086,2.344h0a2.36,2.36,0,0,1-1.9,2.315h0a63.536,63.536,0,0,1-12.47,1.237h0a14.5,14.5,0,0,1-10.953-5v0A25.21,25.21,0,0,1,23,21.584Z" transform="translate(-4.242 -1.157)" fill="#f9cb5d"/>
      <path id="Trazado_896854" data-name="Trazado 896854" d="M52.78,37.2l-4.929-.58A19.453,19.453,0,0,1,30.767,19.233l-.618-6.181A3.39,3.39,0,0,0,26.776,10a3.351,3.351,0,0,0-1.442.333A3.35,3.35,0,0,0,25,11.776V19.97a25.208,25.208,0,0,0,6.156,16.5,14.5,14.5,0,0,0,10.957,5.007,63.545,63.545,0,0,0,12.473-1.236h0c.065-.013.123-.036.186-.054A2.334,2.334,0,0,0,52.78,37.2Z" transform="translate(-4.627 -1.157)" fill="#ffd98c"/>
      <path id="Trazado_896855" data-name="Trazado 896855" d="M21.565,27.422l-.058.073a31.861,31.861,0,0,0-4.953,8.718h0a10.043,10.043,0,0,0-.639,3.524h0A10.039,10.039,0,0,0,16.3,42.5h0a22.256,22.256,0,0,0,4.02,7.788l.437.546-.295.295a4.507,4.507,0,0,1-3.187,1.32h0a4.5,4.5,0,0,1-1.093-.135l-1.677-.419a8.458,8.458,0,0,0-2.058-.253h0a8.491,8.491,0,0,0-2.683.435l-.469.157a4.2,4.2,0,0,1-1.328.216h0A4.2,4.2,0,0,1,5,51.214L3.807,50.023l.215-.215A16.453,16.453,0,0,0,8.207,42.7h0a11.543,11.543,0,0,0,.443-3.167h0a11.541,11.541,0,0,0-.443-3.166h0a20.171,20.171,0,0,0-3.9-7.372L3,27.422H3a9.614,9.614,0,0,1,5.332-1.614H8.46a7.643,7.643,0,0,1,3.42.808h0l1.5-.75A8.192,8.192,0,0,1,17.04,25h0a5.438,5.438,0,0,1,4.525,2.422Z" transform="translate(-0.386 -4.049)" fill="#ffe1ae"/>
      <path id="Trazado_896856" data-name="Trazado 896856" d="M21.529,50.83l-.437-.546a22.256,22.256,0,0,1-4.02-7.788,10.038,10.038,0,0,1-.387-2.76h0a10.045,10.045,0,0,1,.64-3.529,31.861,31.861,0,0,1,4.952-8.716l.058-.07A5.439,5.439,0,0,0,17.812,25a8.191,8.191,0,0,0-3.66.864l-1.5.751a7.647,7.647,0,0,0-1.974-.658A9.606,9.606,0,0,0,7,27.422l1.308,1.569a20.171,20.171,0,0,1,3.9,7.372,11.535,11.535,0,0,1,0,6.332,16.453,16.453,0,0,1-4.186,7.113l-.215.215L9,51.214a4.2,4.2,0,0,0,1.372.914l.165-.056a8.485,8.485,0,0,1,4.741-.182l1.677.419a4.5,4.5,0,0,0,4.278-1.185Z" transform="translate(-1.157 -4.049)" fill="#ffeacd"/>
      <path id="Trazado_896857" data-name="Trazado 896857" d="M13.614,25.265l-.849-2.548A14.923,14.923,0,0,1,12,18h4.036a26.971,26.971,0,0,0-2.322,6.768Z" transform="translate(-2.121 -2.699)" fill="#916658"/>
      <path id="Trazado_896858" data-name="Trazado 896858" d="M42.959,43.821,56.714,40l.807,3.229L42.992,46.458" transform="translate(-8.09 -6.941)" fill="#188d47"/>
      <path id="Trazado_896859" data-name="Trazado 896859" d="M42.959,50.636l13.755,3.821.807-3.229L42.992,48" transform="translate(-8.09 -8.483)" fill="#19ad58"/>
      <path id="Trazado_896860" data-name="Trazado 896860" d="M9.2,30.63l1.147-.484a3.935,3.935,0,0,1,4.3.847l.462.465a8.484,8.484,0,0,1,4.376-3.342l2.082-.694A5.439,5.439,0,0,0,17.04,25a8.191,8.191,0,0,0-3.66.864l-1.5.751a7.643,7.643,0,0,0-3.419-.807H8.332A9.614,9.614,0,0,0,3,27.422l2.125.354A5.757,5.757,0,0,1,9.2,30.63Z" transform="translate(-0.386 -4.049)" fill="#e73844"/>
      <path id="Trazado_896861" data-name="Trazado 896861" d="M15.3,53l-.47.235a5.424,5.424,0,0,1-2.422.572h0A2.757,2.757,0,0,1,10.458,53a3.443,3.443,0,0,1-2.594,1.869L4,55.422l1.191,1.191a4.2,4.2,0,0,0,4.3,1.015l.469-.157a8.485,8.485,0,0,1,4.741-.182l1.677.419a4.5,4.5,0,0,0,4.278-1.185l.3-.295-1.182-.237A7.027,7.027,0,0,1,15.3,53Z" transform="translate(-0.578 -9.448)" fill="#e73844"/>
      <path id="Trazado_896862" data-name="Trazado 896862" d="M30,52.722l4.417.736a5.178,5.178,0,0,0,.858.071h0a5.218,5.218,0,0,0,5.219-5.219V44.219A5.218,5.218,0,0,0,35.274,39h0a5.178,5.178,0,0,0-.858.071L30,39.807" transform="translate(-5.591 -6.748)" fill="#f79b31"/>
      <path id="Trazado_896863" data-name="Trazado 896863" d="M35.275,39a5.178,5.178,0,0,0-.858.071L30,39.807v9.686l4.417.736a5.219,5.219,0,0,0,6.077-5.147v-.864A5.218,5.218,0,0,0,35.274,39Z" transform="translate(-5.591 -6.748)" fill="#fcb732"/>
      <ellipse id="Elipse_11720" data-name="Elipse 11720" cx="1.613" cy="6.128" rx="1.613" ry="6.128" transform="translate(22.798 33.698)" fill="#ec8329"/>
      <path id="Trazado_896864" data-name="Trazado 896864" d="M50.215,36.092l-.807-3.229a.808.808,0,0,0-1-.582l-7.2,2a18.628,18.628,0,0,1-4.943-1.949A28.676,28.676,0,0,0,49.27,26.924a2.422,2.422,0,0,0-1.453-4.359,4.247,4.247,0,0,0-1.89.446l-1.262.631A12.866,12.866,0,0,1,34.5,24.18a23.537,23.537,0,0,1-7.253-4.335l-.022-.019A18.45,18.45,0,0,1,26.94,18l-.618-6.181A4.183,4.183,0,0,0,24.409,8.7V4.807A.807.807,0,0,0,23.6,4H20.373a.807.807,0,0,0-.8.926l.544,3.657a4.183,4.183,0,0,0-2.167,3.651v8.056a6.284,6.284,0,0,0-1.292-.145,9.041,9.041,0,0,0-4,.941,26.153,26.153,0,0,1,1.985-5.424.807.807,0,0,0-.726-1.168H9.879a.807.807,0,0,0-.807.807,15.686,15.686,0,0,0,.807,4.972l.323.962a8.482,8.482,0,0,0-2.128-.284H7.946a10.389,10.389,0,0,0-5.78,1.75.807.807,0,0,0-.173,1.188L3.3,25.458A19.231,19.231,0,0,1,6.4,30.637H3.648a2.648,2.648,0,0,0-.726,5.193l2.223.635a16.3,16.3,0,0,0,2.216.451,10.574,10.574,0,0,1-.315,1.508,15.66,15.66,0,0,1-3.979,6.763l-.216.216a.807.807,0,0,0,0,1.141l1.191,1.191a5.057,5.057,0,0,0,5.123,1.211l.47-.157a7.707,7.707,0,0,1,4.291-.161l1.677.42a5.316,5.316,0,0,0,5.047-1.4l.294-.294A.807.807,0,0,0,21,46.281l-.437-.549a21.34,21.34,0,0,1-3.875-7.507,9.255,9.255,0,0,1-.355-2.537c0-.013,0-.025,0-.038a16.467,16.467,0,0,0,4.611-3.111A26.373,26.373,0,0,0,22.424,35a22.688,22.688,0,0,0-.437,4.513c0,1.189.118,7.009,2.291,7.243v.01l4.417.736a6.028,6.028,0,0,0,6.794-4.345L48.41,46.75a.79.79,0,0,0,.215.031.807.807,0,0,0,.783-.611l.807-3.229a.807.807,0,0,0-.608-.984l-1.645-.366c.178-.034.36-.061.538-.1a3.161,3.161,0,0,0,1.723-5.228A.794.794,0,0,0,50.215,36.092Zm-1.767-.412L35.709,38.511V37.484l12.332-3.426ZM33.934,25.688a14.506,14.506,0,0,0,11.452-.6l1.263-.631a2.619,2.619,0,0,1,1.169-.276.807.807,0,0,1,.484,1.453A27.069,27.069,0,0,1,35.666,30.8l-1.444.193a18.511,18.511,0,0,1-6.251-8.507,25.151,25.151,0,0,0,5.963,3.2ZM21.309,5.614h1.485V8.1a4.159,4.159,0,0,0-.646-.061,4.125,4.125,0,0,0-.471.048ZM12.643,16.108a27.839,27.839,0,0,0-1.28,3.509,14.1,14.1,0,0,1-.654-3.509ZM8.074,22.565a6.865,6.865,0,0,1,3.058.722c.012.006.027,0,.04.009a.792.792,0,0,0,.321.076h.05a.8.8,0,0,0,.289-.081.035.035,0,0,0,.022,0l1.5-.751a7.418,7.418,0,0,1,3.3-.778A4.621,4.621,0,0,1,19.8,22.984l-.951.316a9.328,9.328,0,0,0-4.213,2.884,4.8,4.8,0,0,0-4.985-.829l-.521.218a6.513,6.513,0,0,0-3.891-2.564,8.767,8.767,0,0,1,2.709-.444ZM3.364,34.279a1.033,1.033,0,0,1,.283-2.027H6.957c.028.1.061.189.089.285a10.665,10.665,0,0,1,.4,2.765,14.757,14.757,0,0,1-1.865-.388Zm12.629,13.2-1.675-.419a9.283,9.283,0,0,0-5.192.2l-.47.156a3.423,3.423,0,0,1-3.471-.819l-.05-.05L7.4,46.222a4.253,4.253,0,0,0,2.683-1.509,4.924,4.924,0,0,0,4.39-.135,7.763,7.763,0,0,0,4.041,2.631,3.728,3.728,0,0,1-2.522.268Zm2.369-2.014A6.162,6.162,0,0,1,15.394,43.1a.807.807,0,0,0-1.032-.274l-.47.235a4.625,4.625,0,0,1-2.064.484,1.937,1.937,0,0,1-1.378-.571.807.807,0,0,0-1.292.211A2.638,2.638,0,0,1,7.173,44.62l-1.664.237A17.291,17.291,0,0,0,8.6,38.871a12.293,12.293,0,0,0,.475-3.39A12.312,12.312,0,0,0,8.6,32.09a20.841,20.841,0,0,0-3.975-7.563A4.924,4.924,0,0,1,8.1,26.977a.807.807,0,0,0,1.015.349l1.146-.484a3.167,3.167,0,0,1,3.422.673l.462.462a.807.807,0,0,0,.574.24.679.679,0,0,0,.081,0,.807.807,0,0,0,.592-.355,7.709,7.709,0,0,1,3.623-2.9,32.591,32.591,0,0,0-3.6,6.917,10.864,10.864,0,0,0-.273,6.793,22.933,22.933,0,0,0,3.222,6.794Zm-1.811-11.72a9.137,9.137,0,0,1,.373-1.3,30.977,30.977,0,0,1,2.133-4.53,25.935,25.935,0,0,0,1.135,3.079A14.825,14.825,0,0,1,16.552,33.744Zm3.673-7.706c.484-.715.987-1.414,1.528-2.09l.058-.073a.807.807,0,0,0,.04-.951,6.228,6.228,0,0,0-2.278-2.054c0-.147-.008-.294-.008-.441v-8.2a2.583,2.583,0,0,1,5.152-.257l.618,6.181A20.265,20.265,0,0,0,38.311,35.086l-2.825.785a6.032,6.032,0,0,0-5.8-4.426,5.954,5.954,0,0,0-.99.081l-4.418.736v.01a1.585,1.585,0,0,0-1.149.839,24.278,24.278,0,0,1-2.9-7.075Zm4.184,8.048a14.106,14.106,0,0,1,.807,5.431,14.106,14.106,0,0,1-.807,5.431,14.106,14.106,0,0,1-.807-5.431A14.106,14.106,0,0,1,24.409,34.086Zm9.686,7.477a4.413,4.413,0,0,1-5.136,4.352l-3-.5a17.786,17.786,0,0,0,.874-5.9,17.786,17.786,0,0,0-.874-5.9l3-.5a4.412,4.412,0,0,1,5.135,4.352Zm13.947,3.412L35.709,41.549V40.522l12.738,2.831Zm.14-5.063c-1.479.3-2.987.54-4.5.726l-5.062-1.122L48.9,37.232a1.543,1.543,0,0,1-.718,2.68Z"/>
    </g>
  </g>
</svg>
