<svg id="Icons" xmlns="http://www.w3.org/2000/svg" width="77" height="76.064" viewBox="0 0 77 76.064">
  <g id="Grupo_1105510" data-name="Grupo 1105510">
    <path id="Trazado_895327" data-name="Trazado 895327" d="M158.99,72.333c2.039.673,2.27,1.67,2.62,3.178a.811.811,0,0,0,1.58,0c.581-2.5,1.436-2.787,2.62-3.178a.812.812,0,0,0,0-1.54c-1.137-.375-2.025-.617-2.62-3.178a.812.812,0,0,0-1.58,0c-.582,2.5-1.392,2.772-2.62,3.178A.812.812,0,0,0,158.99,72.333Z" transform="translate(-110.653 -47.563)"/>
    <path id="Trazado_895328" data-name="Trazado 895328" d="M73.736,50.966h3.7V82.1h-3.7Z" transform="translate(-51.785 -36.427)" fill="#00bf68"/>
    <path id="Trazado_895329" data-name="Trazado 895329" d="M73.736,50.966h3.7V53.1h-3.7Z" transform="translate(-51.785 -36.427)" fill="#139c6e"/>
    <path id="Trazado_895330" data-name="Trazado 895330" d="M73.736,119.588h3.7v2.132h-3.7Z" transform="translate(-51.785 -84.121)" fill="#139c6e"/>
    <g id="Grupo_1105509" data-name="Grupo 1105509" transform="translate(0.764 0.763)">
      <path id="Trazado_895331" data-name="Trazado 895331" d="M79.786,17.323v2.244h9.058A11.531,11.531,0,0,0,100.375,8.036a2.244,2.244,0,0,0-2.244-2.244H91.317A11.531,11.531,0,0,0,79.786,17.323Z" transform="translate(-56.754 -5.792)" fill="#00bf68"/>
      <path id="Trazado_895332" data-name="Trazado 895332" d="M32.862,17.323v2.244H23.8A11.531,11.531,0,0,1,12.273,8.036a2.244,2.244,0,0,1,2.244-2.244h6.814A11.531,11.531,0,0,1,32.862,17.323Z" transform="translate(-9.83 -5.792)" fill="#00bf68"/>
      <path id="Trazado_895333" data-name="Trazado 895333" d="M79.786,85.95v2.244h9.058a11.531,11.531,0,0,0,11.531-11.531,2.244,2.244,0,0,0-2.244-2.244H91.317A11.531,11.531,0,0,0,79.786,85.95Z" transform="translate(-56.754 -53.49)" fill="#00bf68"/>
      <path id="Trazado_895334" data-name="Trazado 895334" d="M32.862,85.95v2.244H23.8A11.531,11.531,0,0,1,12.273,76.663a2.244,2.244,0,0,1,2.244-2.244h6.814A11.531,11.531,0,0,1,32.862,85.95Z" transform="translate(-9.83 -53.49)" fill="#00bf68"/>
      <path id="Trazado_895335" data-name="Trazado 895335" d="M4.262,153.049H79.735v8.411H4.262Z" transform="translate(-4.262 -108.141)" fill="#00bf68"/>
    </g>
    <path id="Trazado_895336" data-name="Trazado 895336" d="M179.243,153.049v6.92a16.323,16.323,0,0,1-.936,1.491H149.454l.293-1.092a16.888,16.888,0,0,1-2.315-7.319Z" transform="translate(-103.006 -107.378)" fill="#139c6e"/>
    <path id="Trazado_895337" data-name="Trazado 895337" d="M4.262,180.629H79.735v21.982H4.262Z" transform="translate(-3.498 -126.547)" fill="#f0c020"/>
    <path id="Trazado_895338" data-name="Trazado 895338" d="M181.483,180.629a17.014,17.014,0,0,1-22.592,4.876l-3.05.814a3.05,3.05,0,0,1-3.733-3.736l.521-1.955Z" transform="translate(-106.182 -126.547)" fill="#e8a61e"/>
    <path id="Trazado_895339" data-name="Trazado 895339" d="M168.344,99.912a14.869,14.869,0,0,0-11.552,23.161l-1.059,3.951a.915.915,0,0,0,1.12,1.12l3.951-1.059a14.867,14.867,0,1,0,7.54-27.173Z" transform="translate(-107.746 -70.432)" fill="#efefef"/>
    <circle id="Elipse_11664" data-name="Elipse 11664" cx="1.661" cy="1.661" r="1.661" transform="translate(65.938 45.752) rotate(-67.486)" fill="#72c2e9"/>
    <circle id="Elipse_11665" data-name="Elipse 11665" cx="1.968" cy="1.968" r="1.968" transform="translate(52.42 42.448) rotate(-67.486)" fill="#13bf6d"/>
    <path id="Trazado_895340" data-name="Trazado 895340" d="M206.316,125.638l1.216-1.216a1.985,1.985,0,1,0-2.807-2.807l-1.216,1.216a1.985,1.985,0,0,0,2.807,2.807Z" transform="translate(-141.578 -85.126)" fill="#fc5d3d"/>
    <path id="Trazado_895341" data-name="Trazado 895341" d="M197.127,170.657h1.72a1.984,1.984,0,0,0,0-3.969h-1.72a1.984,1.984,0,0,0,0,3.969Z" transform="translate(-136.167 -116.857)" fill="#fc5d3d"/>
    <path id="Trazado_895342" data-name="Trazado 895342" d="M169.791,78.811a4.008,4.008,0,0,0-1.2,1.351,4.233,4.233,0,0,0-1.272-1.342,4.013,4.013,0,0,0,1.26-1.415,4.156,4.156,0,0,0,1.211,1.406Z" transform="translate(-116.83 -54.803)" fill="#ffc000"/>
    <path id="Trazado_895343" data-name="Trazado 895343" d="M94.144,22.492H88.173a.762.762,0,0,1,0-1.525h5.971a7.692,7.692,0,0,0,6.528-3.6.762.762,0,0,1,1.288.815A9.208,9.208,0,0,1,94.144,22.492Zm8.154-6.787a.762.762,0,0,1-.593-.9,7.6,7.6,0,0,0,.123-.822.763.763,0,0,1,1.518.143,9.233,9.233,0,0,1-.148.987.762.762,0,0,1-.9.593Z" transform="translate(-61.289 -10.242)" fill="#76ffbb"/>
    <path id="Trazado_895344" data-name="Trazado 895344" d="M94.144,91.12H88.172a.762.762,0,1,1,0-1.525h5.972a7.691,7.691,0,0,0,6.528-3.6.762.762,0,1,1,1.288.815,9.207,9.207,0,0,1-7.815,4.314Zm8.154-6.787a.762.762,0,0,1-.593-.9,7.6,7.6,0,0,0,.123-.822.763.763,0,1,1,1.518.143,9.233,9.233,0,0,1-.148.987.762.762,0,0,1-.9.593Z" transform="translate(-61.289 -57.941)" fill="#76ffbb"/>
    <path id="Trazado_895345" data-name="Trazado 895345" d="M35.073,91.12h-.915a.762.762,0,1,1,0-1.525h.915a.762.762,0,1,1,0,1.525Zm-3.965,0H29.1a9.2,9.2,0,0,1-9.2-8.366.762.762,0,1,1,1.518-.144A7.778,7.778,0,0,0,29.1,89.6h2.006a.763.763,0,0,1,0,1.525Z" transform="translate(-14.365 -57.941)" fill="#76ffbb"/>
    <path id="Trazado_895346" data-name="Trazado 895346" d="M35.073,22.493h-.915a.762.762,0,1,1,0-1.525h.915a.762.762,0,1,1,0,1.525Zm-3.965,0H29.1a9.2,9.2,0,0,1-9.2-8.366.762.762,0,1,1,1.518-.144A7.779,7.779,0,0,0,29.1,20.968h2.006a.762.762,0,0,1,0,1.525Z" transform="translate(-14.365 -10.242)" fill="#76ffbb"/>
    <path id="Trazado_895347" data-name="Trazado 895347" d="M17.4,33.178a.761.761,0,0,0,.207-1.058l0,0a.78.78,0,0,0-1.055-.2.762.762,0,0,0-.207,1.058l0,0A.762.762,0,0,0,17.4,33.178Z" transform="translate(-11.806 -23.099)"/>
    <path id="Trazado_895348" data-name="Trazado 895348" d="M2.524,152.074h8.3a.762.762,0,1,0,0-1.525h-8.3a.762.762,0,1,0,0,1.525Z" transform="translate(-1.76 -105.64)"/>
    <circle id="Elipse_11666" data-name="Elipse 11666" cx="0.762" cy="0.762" r="0.762" transform="translate(11.346 44.909)"/>
    <path id="Trazado_895349" data-name="Trazado 895349" d="M22.139,235.579H20.659a.762.762,0,1,0,0,1.525h1.479a.762.762,0,1,0,0-1.525Z" transform="translate(-14.365 -164.739)"/>
    <path id="Trazado_895350" data-name="Trazado 895350" d="M171.8,238.9h-1.48a.762.762,0,1,0,0,1.525h1.48a.762.762,0,1,0,0-1.525Z" transform="translate(-118.382 -167.046)"/>
    <path id="Trazado_895351" data-name="Trazado 895351" d="M200.716,215.92h-1.479a.762.762,0,0,0,0,1.525h1.479a.762.762,0,0,0,0-1.525Z" transform="translate(-138.482 -151.075)"/>
    <path id="Trazado_895352" data-name="Trazado 895352" d="M232.02,227.1h-1.48a.762.762,0,0,0,0,1.525h1.48a.762.762,0,1,0,0-1.525Z" transform="translate(-160.239 -158.849)"/>
    <path id="Trazado_895353" data-name="Trazado 895353" d="M78.738,48.429v0c.012-.26.019-.525.019-.808a15.576,15.576,0,0,0-3.535-9.9.784.784,0,0,0-1.073-.107.761.761,0,0,0-.107,1.073,14.125,14.125,0,0,1,3.19,8.936c0,.244-.006.491-.019.735,0,0,0,.006,0,.009A14.107,14.107,0,0,1,55.242,59.312a.765.765,0,0,0-.624-.1l-3.951,1.059a.152.152,0,0,1-.187-.186l1.059-3.951a.762.762,0,0,0-.1-.624A14.108,14.108,0,0,1,69.574,35.068a.763.763,0,0,0,.7-1.357A15.636,15.636,0,0,0,47.5,47.551c0,.217,0,.433.012.649H28.163V39.52h6.449A12.307,12.307,0,0,0,46.905,27.227,3.01,3.01,0,0,0,43.9,24.221H37.084a12.257,12.257,0,0,0-8.922,3.849V18.591h6.449A12.307,12.307,0,0,0,46.905,6.3,3.01,3.01,0,0,0,43.9,3.291H37.084a12.314,12.314,0,0,0-11.531,8.032A12.314,12.314,0,0,0,14.022,3.291H7.208a3.01,3.01,0,0,0-3.006,3,12.273,12.273,0,0,0,.652,3.968A.763.763,0,0,0,6.3,9.771,10.721,10.721,0,0,1,5.726,6.3h0A1.483,1.483,0,0,1,7.208,4.816h6.814A10.781,10.781,0,0,1,24.791,15.585v1.482H16.5a10.762,10.762,0,0,1-7.06-2.629.783.783,0,0,0-1.073.076.763.763,0,0,0,.076,1.077,12.28,12.28,0,0,0,8.048,3h6.45V28.07a12.256,12.256,0,0,0-8.922-3.85H7.208A3.01,3.01,0,0,0,4.2,27.227,12.307,12.307,0,0,0,16.5,39.52h6.45V48.2H16.916a.762.762,0,1,0,0,1.525H47.643a15.515,15.515,0,0,0,2.335,6.341l-.146.546H2.521a.762.762,0,1,0,0,1.525h22.27v4.472H7.036a5.285,5.285,0,0,0-5.279,5.279.762.762,0,0,0,1.525,0,3.758,3.758,0,0,1,3.754-3.754h6.08a3.787,3.787,0,0,0-.77,2.287v5.89a.762.762,0,0,0,1.525,0V66.42a2.29,2.29,0,0,1,2.287-2.287h8.632v4H22.529A5.3,5.3,0,0,0,18.755,69.7l-2.079,2.079a.762.762,0,0,0,1.078,1.078l2.079-2.079a3.786,3.786,0,0,1,2.7-1.116h2.262v5.233a.762.762,0,0,0,1.525,0V73.08h2.262a3.787,3.787,0,0,1,2.7,1.116l2.079,2.079A.762.762,0,0,0,34.43,75.2l-2.079-2.079a5.3,5.3,0,0,0-3.774-1.563H26.315V64.132h8.632a2.29,2.29,0,0,1,2.287,2.287V69.1a.762.762,0,1,0,1.525,0V66.42a3.787,3.787,0,0,0-.77-2.287h6.081a3.758,3.758,0,0,1,3.754,3.754.762.762,0,0,0,1.525,0,5.285,5.285,0,0,0-5.279-5.279H26.316V58.136H49.423l-.415,1.549a1.677,1.677,0,0,0,2.055,2.054l3.619-.97a15.633,15.633,0,0,0,20.007-2.634h3.305a.762.762,0,1,0,0-1.525H75.915a15.524,15.524,0,0,0,2.822-8.175.069.069,0,0,0,0-.008ZM37.084,25.745H43.9a1.483,1.483,0,0,1,1.482,1.482A10.781,10.781,0,0,1,34.612,38h-8.3V36.514A10.781,10.781,0,0,1,37.084,25.745Zm0-20.929H43.9A1.483,1.483,0,0,1,45.38,6.3,10.781,10.781,0,0,1,34.612,17.066h-8.3V15.585A10.781,10.781,0,0,1,37.084,4.816ZM24.469,18.591h2.168V30.043a12.26,12.26,0,0,0-1.084,2.209,12.282,12.282,0,0,0-1.084-2.209ZM5.726,27.227a1.483,1.483,0,0,1,1.482-1.482h6.814A10.781,10.781,0,0,1,24.791,36.514V38h-8.3A10.781,10.781,0,0,1,5.726,27.227ZM24.469,39.52h2.168V48.2H24.469Z" transform="translate(-1.757 -3.291)"/>
    <path id="Trazado_895354" data-name="Trazado 895354" d="M232.487,109.476a.759.759,0,0,0-.113-1.074.782.782,0,0,0-1.071.116.761.761,0,1,0,1.183.958Z" transform="translate(-161.182 -76.235)"/>
    <path id="Trazado_895355" data-name="Trazado 895355" d="M177.714,156.636a.456.456,0,0,1-.454.455.762.762,0,1,0,0,1.525,1.982,1.982,0,0,0,1.979-1.98.456.456,0,0,1,.456-.455.762.762,0,0,0,0-1.525A1.982,1.982,0,0,0,177.714,156.636Z" transform="translate(-123.207 -108.495)"/>
    <path id="Trazado_895356" data-name="Trazado 895356" d="M219.479,147.247a2.423,2.423,0,1,0-2.423-2.423A2.426,2.426,0,0,0,219.479,147.247Zm0-3.322a.9.9,0,1,1-.9.9A.9.9,0,0,1,219.479,143.926Z" transform="translate(-151.397 -99.977)"/>
    <path id="Trazado_895357" data-name="Trazado 895357" d="M175.782,130.014a2.73,2.73,0,1,0,2.73,2.73A2.733,2.733,0,0,0,175.782,130.014Zm0,3.936a1.206,1.206,0,1,1,1.206-1.206A1.207,1.207,0,0,1,175.782,133.95Z" transform="translate(-120.813 -91.368)"/>
    <path id="Trazado_895358" data-name="Trazado 895358" d="M206.337,119.342a2.75,2.75,0,0,0-3.884,0l-1.216,1.216a2.747,2.747,0,1,0,3.885,3.884l1.216-1.216A2.75,2.75,0,0,0,206.337,119.342Zm-1.078,2.806-1.216,1.216a1.222,1.222,0,0,1-1.729-1.728l1.216-1.216a1.222,1.222,0,0,1,1.728,1.728Z" transform="translate(-139.843 -83.392)"/>
    <path id="Trazado_895359" data-name="Trazado 895359" d="M195.39,169.682h1.72a2.747,2.747,0,1,0,0-5.494h-1.72a2.747,2.747,0,1,0,0,5.494Zm0-3.969h1.72a1.222,1.222,0,0,1,0,2.444h-1.72a1.222,1.222,0,1,1,0-2.444Z" transform="translate(-134.429 -115.12)"/>
    <path id="Trazado_895360" data-name="Trazado 895360" d="M199.712,145.147v-.794a.762.762,0,0,0-1.525,0v.794a.762.762,0,0,0,1.525,0Z" transform="translate(-138.282 -100.804)"/>
    <path id="Trazado_895361" data-name="Trazado 895361" d="M209.11,153.546v-.794a.762.762,0,0,0-1.525,0v.794a.762.762,0,0,0,1.525,0Z" transform="translate(-144.814 -106.642)"/>
    <path id="Trazado_895362" data-name="Trazado 895362" d="M191.606,123.2v-.794a.762.762,0,1,0-1.525,0v.794a.762.762,0,1,0,1.525,0Z" transform="translate(-132.648 -85.552)"/>
  </g>
</svg>
