<svg xmlns="http://www.w3.org/2000/svg" width="105" height="105" viewBox="0 0 105 105">
  <g id="Grupo_1106135" data-name="Grupo 1106135" transform="translate(-661.288 -941)">
    <circle id="Elipse_11673" data-name="Elipse 11673" cx="52.5" cy="52.5" r="52.5" transform="translate(661.288 941)" fill="#fdc2bd"/>
    <g id="nutrientes" transform="translate(675.119 954.831)">
      <path id="Trazado_896094" data-name="Trazado 896094" d="M41.353,26A21.353,21.353,0,1,0,62.705,47.353,21.376,21.376,0,0,0,41.353,26Zm0,40.193A18.841,18.841,0,1,1,60.193,47.353,18.862,18.862,0,0,1,41.353,66.193Z" transform="translate(4.097 5.633)"/>
      <path id="Trazado_896095" data-name="Trazado 896095" d="M36.657,20.328A16.328,16.328,0,1,0,20.33,36.657,16.346,16.346,0,0,0,36.657,20.328ZM20.33,34.145A13.816,13.816,0,1,1,34.145,20.328,13.833,13.833,0,0,1,20.33,34.145Z" transform="translate(0)"/>
      <path id="Trazado_896096" data-name="Trazado 896096" d="M51.816,4A13.816,13.816,0,1,0,65.633,17.816,13.833,13.833,0,0,0,51.816,4Zm0,25.121a11.3,11.3,0,1,1,11.3-11.3A11.317,11.317,0,0,1,51.816,29.121Z" transform="translate(8.705)"/>
      <path id="Trazado_896097" data-name="Trazado 896097" d="M49.28,20.048H46.289L50.4,11.817A1.257,1.257,0,0,0,49.28,10H44.256a1.256,1.256,0,0,0,0,2.512h2.992l-4.115,8.231a1.257,1.257,0,0,0,1.123,1.817H49.28A1.256,1.256,0,0,0,49.28,20.048Z" transform="translate(9.985 1.536)"/>
      <path id="Trazado_896098" data-name="Trazado 896098" d="M53.768,13a3.739,3.739,0,0,0-1.617.378A1.256,1.256,0,0,0,50,14.256v6.28a1.256,1.256,0,0,0,2.512,0V16.768a1.256,1.256,0,1,1,2.512,0v3.768a1.256,1.256,0,0,0,2.512,0V16.768A3.773,3.773,0,0,0,53.768,13Z" transform="translate(11.778 2.304)"/>
      <path id="Trazado_896099" data-name="Trazado 896099" d="M13.4,13.512A1.886,1.886,0,0,1,15.28,15.4a1.256,1.256,0,0,0,2.512,0A4.4,4.4,0,0,0,9,15.4v6.28a4.4,4.4,0,0,0,8.792,0,1.256,1.256,0,0,0-2.512,0,1.884,1.884,0,0,1-3.768,0V15.4A1.886,1.886,0,0,1,13.4,13.512Z" transform="translate(1.28 1.792)"/>
      <path id="Trazado_896100" data-name="Trazado 896100" d="M25.792,22.536v-6.28a1.24,1.24,0,0,0-2.278-.688A4.347,4.347,0,0,0,21.4,15,4.4,4.4,0,0,0,17,19.4v1.256a4.381,4.381,0,0,0,6.942,3.57,2.5,2.5,0,0,0,1.85.826A1.256,1.256,0,0,0,25.792,22.536Zm-4.4,0a1.886,1.886,0,0,1-1.884-1.884V19.4a1.884,1.884,0,0,1,3.768,0v1.256A1.886,1.886,0,0,1,21.4,22.536Z" transform="translate(3.328 2.816)"/>
      <path id="Trazado_896101" data-name="Trazado 896101" d="M38.8,35.526l-5.259,7.36-5.259-7.36a1.256,1.256,0,0,0-2.277.73V51.328a1.256,1.256,0,0,0,2.512,0V40.176l4,5.6a1.3,1.3,0,0,0,2.044,0l4-5.6V51.328a1.256,1.256,0,0,0,2.512,0V36.256A1.257,1.257,0,0,0,38.8,35.526Z" transform="translate(5.633 7.937)"/>
      <path id="Trazado_896102" data-name="Trazado 896102" d="M46.514,41.568A4.347,4.347,0,0,0,44.4,41,4.4,4.4,0,0,0,40,45.4v1.256a4.4,4.4,0,0,0,4.4,4.4H46.28v1.884a1.884,1.884,0,1,1-3.768,0,1.256,1.256,0,0,0-2.512,0,4.4,4.4,0,0,0,8.792,0V42.256A1.24,1.24,0,0,0,46.514,41.568Zm-4,5.084V45.4a1.884,1.884,0,0,1,3.768,0v3.14H44.4A1.886,1.886,0,0,1,42.512,46.652Z" transform="translate(9.217 9.473)"/>
    </g>
  </g>
</svg>
