<svg xmlns="http://www.w3.org/2000/svg" width="62" height="62" viewBox="0 0 62 62">
  <g id="Grupo_1106626" data-name="Grupo 1106626" transform="translate(-192.051 -8054)">
    <rect id="Rectángulo_403103" data-name="Rectángulo 403103" width="62" height="62" transform="translate(192.051 8054)" fill="none"/>
    <g id="agua_1_" data-name="agua (1)" transform="translate(200.051 8062)">
      <path id="Trazado_895978" data-name="Trazado 895978" d="M36.493,308.419c6.045,0,8.646.8,8.646,2,0,2.322-4.42.8-4.42,3.043,0,2.168,10.4.721,10.531,3.123.08,1.473-2.726,1.813-6.435,1.922-4.128.121-8.906-.48-8.971,1.441-.068,2,4.16.759,4.16,3.082,0,3.565-21.255,3.485-21.255,0,0-2.322,4.228-1.081,4.16-3.082-.065-1.922-4.843-1.32-8.971-1.441-3.709-.109-6.515-.449-6.435-1.922.13-2.4,10.531-.955,10.531-3.123,0-2.242-4.42-.721-4.42-3.043,0-1.2,2.6-2,8.646-2Z" transform="translate(-6.841 -281.27)" fill="#baeefc"/>
      <path id="Trazado_895979" data-name="Trazado 895979" d="M248.351,424.486c.037-1.1,1.609-1.372,3.72-1.428-3.4-.029-6.572-.135-6.625,1.428-.068,2,4.16.759,4.16,3.082,0,1.609-4.332,2.476-9.085,2.621,5.727.174,11.99-.686,11.99-2.621C252.511,425.246,248.283,426.486,248.351,424.486Z" transform="translate(-219.349 -385.806)" fill="#a2e1f8"/>
      <path id="Trazado_895980" data-name="Trazado 895980" d="M310.981,313.464c0-2.242,4.42-.721,4.42-3.043,0-1.2-2.6-2-8.646-2h-2.9c6.045,0,8.646.8,8.646,2,0,2.322-4.42.8-4.42,3.043,0,2.168,10.4.721,10.531,3.123.08,1.473-2.726,1.813-6.435,1.922l-.237.006c1.032.009,2.107.024,3.142-.006,3.709-.109,6.515-.449,6.435-1.922C321.382,314.185,310.981,315.632,310.981,313.464Z" transform="translate(-277.104 -281.27)" fill="#a2e1f8"/>
      <path id="Trazado_895981" data-name="Trazado 895981" transform="translate(0)"/>
      <path id="Trazado_895982" data-name="Trazado 895982" d="M181.284,120.473l-6.236,10.8a7.2,7.2,0,1,0,12.473,0Z" transform="translate(-158.75 -109.868)" fill="#82d5f2"/>
      <path id="Trazado_895983" data-name="Trazado 895983" d="M308.663,42.453l-2.783,4.82a3.213,3.213,0,1,0,5.565,0Z" transform="translate(-278.558 -38.716)" fill="#baeefc"/>
      <path id="Trazado_895984" data-name="Trazado 895984" d="M180.71,7.453l-1.944,3.367a2.245,2.245,0,1,0,3.888,0Z" transform="translate(-162.752 -6.797)" fill="#82d5f2"/>
      <path id="Trazado_895985" data-name="Trazado 895985" d="M45.067,138.4c-.1-1.807-3.02-2.04-6.114-2.287-1.152-.092-2.239-.179-3.1-.339-.366-.068-1.47-.136-1.263-.739.168-.489,1.178-.488,1.582-.557,1.1-.189,2.467-.48,2.744-1.752.337-1.551-1.287-2.242-2.513-2.548a28.208,28.208,0,0,0-6.138-.567,7.786,7.786,0,0,0-.921-5.416l-6.236-10.8a.669.669,0,0,0-1.143,0l-1.549,2.683a.661.661,0,0,0,1.143.66l.977-1.693,5.665,9.812a6.541,6.541,0,1,1-11.329,0l2.858-4.95a.661.661,0,0,0-1.143-.66l-2.858,4.95a7.785,7.785,0,0,0-.921,5.416,28.2,28.2,0,0,0-6.138.567c-1.227.306-2.848,1-2.513,2.548C6.431,134,7.8,134.286,8.9,134.475c.351.06,1.575.136,1.616.685.034.454-.994.555-1.3.612-.863.161-1.951.248-3.1.339C3.022,136.358.1,136.591,0,138.4a1.645,1.645,0,0,0,.445,1.227c.942,1.024,3.235,1.291,6.63,1.391.939.028,1.906.018,2.842.009a28.78,28.78,0,0,1,4.158.138c.37.057,1.485.206,1.315.8-.12.421-1.1.516-1.409.583-1.09.238-2.736.6-2.736,2.331,0,1.193,1.267,2.051,3.874,2.624a36.75,36.75,0,0,0,7.5.68,35.806,35.806,0,0,0,7.393-.673c2.56-.57,3.8-1.43,3.8-2.631,0-1.734-1.647-2.093-2.736-2.331-.322-.07-1.295-.162-1.406-.6-.152-.589.95-.734,1.313-.79a28.807,28.807,0,0,1,4.158-.138c.935.009,1.9.018,2.842-.009a.661.661,0,0,0-.039-1.32c-.913.027-1.868.018-2.79.009a29.438,29.438,0,0,0-4.373.153c-1.012.157-2.269.569-2.433,1.74-.21,1.495,1.276,1.984,2.448,2.24,1.38.3,1.7.5,1.7,1.041,0,.251-.579.854-2.77,1.342a34.475,34.475,0,0,1-7.106.641,35.94,35.94,0,0,1-7.221-.649c-2.244-.493-2.837-1.088-2.837-1.334,0-.545.317-.74,1.7-1.041,1.172-.256,2.658-.745,2.448-2.24-.165-1.171-1.421-1.583-2.433-1.74a29.484,29.484,0,0,0-4.373-.153c-.923.009-1.877.018-2.79-.009-1.352-.04-4.943-.145-5.7-.965a.323.323,0,0,1-.1-.261c.006-.12.279-.382,1.262-.606a28.271,28.271,0,0,1,3.639-.437,28.278,28.278,0,0,0,3.558-.422c.827-.182,1.9-.532,2.06-1.5.264-1.61-1.489-2.124-2.715-2.335-.417-.072-1.741-.161-1.688-.851.042-.55,1.168-.77,1.552-.866a28.151,28.151,0,0,1,6.2-.53,8.076,8.076,0,0,0,.539,1.127,7.861,7.861,0,0,0,13.616,0,8.076,8.076,0,0,0,.539-1.127,28.151,28.151,0,0,1,6.2.53c.388.1,1.519.317,1.552.866.043.693-1.272.779-1.688.851-1.113.191-2.488.5-2.712,1.82-.215,1.27,1.04,1.786,2.056,2.011a28.278,28.278,0,0,0,3.558.422,28.276,28.276,0,0,1,3.639.437c.982.224,1.255.486,1.262.606.023.432-.874.8-2.461,1a.661.661,0,0,0,.17,1.309C42.473,140.652,45.17,140.3,45.067,138.4Z" transform="translate(0 -103.117)"/>
      <path id="Trazado_895986" data-name="Trazado 895986" d="M253.681,303.475a.66.66,0,1,0-1.143-.66,3.86,3.86,0,0,1-3.378,1.95.66.66,0,1,0,0,1.32A5.167,5.167,0,0,0,253.681,303.475Z" transform="translate(-226.626 -275.858)"/>
      <path id="Trazado_895987" data-name="Trazado 895987" d="M301.809,46a3.873,3.873,0,0,0,3.354-5.81l-2.783-4.82a.669.669,0,0,0-1.143,0l-2.783,4.82A3.873,3.873,0,0,0,301.809,46Zm-2.211-5.15,2.211-3.829,2.211,3.829a2.553,2.553,0,1,1-4.422,0Z" transform="translate(-271.704 -31.965)"/>
      <path id="Trazado_895988" data-name="Trazado 895988" d="M173.859,8.1a2.9,2.9,0,0,0,2.516-4.357L174.43.372a.669.669,0,0,0-1.143,0l-1.944,3.367A2.9,2.9,0,0,0,173.859,8.1Zm-1.372-3.7,1.372-2.377L175.231,4.4a1.584,1.584,0,1,1-2.744,0Z" transform="translate(-155.901 -0.046)"/>
    </g>
  </g>
</svg>
