<svg xmlns="http://www.w3.org/2000/svg" width="62" height="62" viewBox="0 0 62 62">
  <g id="Grupo_1106629" data-name="Grupo 1106629" transform="translate(-192.051 -8138)">
    <rect id="Rectángulo_403104" data-name="Rectángulo 403104" width="62" height="62" transform="translate(192.051 8138)" fill="none"/>
    <g id="cemento" transform="translate(147.6 8143)">
      <g id="Grupo_1106627" data-name="Grupo 1106627" transform="translate(56.206 0.756)">
        <path id="Trazado_897072" data-name="Trazado 897072" d="M100.2,32.544q0,8.8-.548,17.6c-.107,1.713,2.3,2.24,2.212,4.186a2.382,2.382,0,0,1-2.374,2.117,129.061,129.061,0,0,1-17.08,1.137,129.043,129.043,0,0,1-17.08-1.138,2.382,2.382,0,0,1-2.374-2.117c-.083-1.945,2.319-2.473,2.212-4.186q-.551-8.8-.548-17.6t.548-17.6c.107-1.713-2.3-2.24-2.212-4.186a2.382,2.382,0,0,1,2.374-2.117,128.8,128.8,0,0,1,34.159,0,2.382,2.382,0,0,1,2.374,2.117c.083,1.945-2.319,2.473-2.212,4.186Q100.2,23.742,100.2,32.544Z" transform="translate(-62.951 -7.5)" fill="#ffe09c"/>
        <path id="Trazado_897073" data-name="Trazado 897073" d="M162.338,258.757l-3.944,7.887a1.616,1.616,0,0,0,1.889,2.276l10.352-2.958a1.616,1.616,0,0,0,.541-2.834l-6.409-4.93A1.616,1.616,0,0,0,162.338,258.757Z" transform="translate(-148.618 -232.632)" fill="#ffd18d"/>
        <path id="Trazado_897074" data-name="Trazado 897074" d="M274.207,151.576a1.677,1.677,0,0,0-2.15-.1l-5.371,3.906a1.616,1.616,0,0,0-.356,2.257h0a1.616,1.616,0,0,0,2.257.356l5.441-3.957A1.617,1.617,0,0,0,274.207,151.576Z" transform="translate(-245.555 -136.66)" fill="#ffd18d"/>
        <path id="Trazado_897075" data-name="Trazado 897075" d="M170.781,291.258a1.616,1.616,0,0,0,.541-2.834l-3.159-2.43-1.6,1.824,1.377,1.06a.407.407,0,0,1-.136.712l-9.366,2.676a1.607,1.607,0,0,0,2,1.951Z" transform="translate(-148.763 -257.927)" fill="#fbbd80"/>
        <path id="Trazado_897076" data-name="Trazado 897076" d="M310.746,151.576a1.677,1.677,0,0,0-2.15-.1l-1.941,1.415a1.676,1.676,0,0,1,2.15.1,1.615,1.615,0,0,1-.162,2.449l1.924-1.4A1.617,1.617,0,0,0,310.746,151.576Z" transform="translate(-282.094 -136.66)" fill="#fbbd80"/>
        <path id="Trazado_897077" data-name="Trazado 897077" d="M100.2,41.747q0-8.8-.548-17.6c-.107-1.713,2.3-2.24,2.212-4.186a2.382,2.382,0,0,0-2.374-2.117c-.3-.04-.606-.068-.909-.106l.393.584a2.22,2.22,0,0,1,.48,1.381c-.016.149-.237.4-.574.768A4.965,4.965,0,0,0,97.231,24.3c.362,5.771.544,11.643.543,17.453s-.181,11.68-.543,17.451a4.1,4.1,0,0,0,.681,2.543,1.137,1.137,0,0,1-.036,1.269h0a1.164,1.164,0,0,1-.816.486,126.941,126.941,0,0,1-14.669.87,131.425,131.425,0,0,1-16.756-1.119,18.8,18.8,0,0,1-2.464-.525l-.081-.021a2.073,2.073,0,0,0-.136.834,2.382,2.382,0,0,0,2.374,2.117,129.023,129.023,0,0,0,17.08,1.138,129.061,129.061,0,0,0,17.08-1.137,2.382,2.382,0,0,0,2.374-2.117c.083-1.945-2.319-2.473-2.212-4.186Q100.2,50.55,100.2,41.747Z" transform="translate(-62.953 -16.704)" fill="#ffd18d"/>
      </g>
      <g id="Grupo_1106628" data-name="Grupo 1106628" transform="translate(55.45 0)">
        <path id="Trazado_897078" data-name="Trazado 897078" d="M75.673,51.6h-.022a130.4,130.4,0,0,1-17.168-1.144c-1.832-.248-2.964-1.308-3.029-2.834a3.654,3.654,0,0,1,1.377-2.789c.554-.565.865-.907.836-1.382-.366-5.835-.55-11.774-.549-17.651s.183-11.815.549-17.651c.03-.474-.282-.817-.836-1.382a3.654,3.654,0,0,1-1.377-2.789c.065-1.527,1.2-2.586,3.028-2.834Q59.67.986,60.856.849a.756.756,0,0,1,.173,1.5q-1.173.135-2.347.291c-1.107.15-1.685.621-1.719,1.4-.027.639.342,1.05.946,1.666a3.3,3.3,0,0,1,1.265,2.534c-.364,5.8-.547,11.71-.546,17.556s.182,11.753.546,17.556A3.3,3.3,0,0,1,57.91,45.89c-.6.617-.974,1.027-.946,1.666.033.779.612,1.25,1.72,1.4a129.157,129.157,0,0,0,16.978,1.131,128.649,128.649,0,0,0,16.98-1.131c1.107-.15,1.685-.621,1.719-1.4.027-.639-.342-1.05-.946-1.666a3.3,3.3,0,0,1-1.265-2.534c.364-5.8.547-11.71.546-17.556s-.182-11.753-.546-17.556a3.3,3.3,0,0,1,1.265-2.534c.6-.617.974-1.027.946-1.666-.033-.779-.612-1.25-1.72-1.4A128.887,128.887,0,0,0,75.673,1.512h-.024c-3.807,0-7.668.174-11.476.517A.756.756,0,1,1,64.037.523C67.895.176,71.8,0,75.662,0A130.413,130.413,0,0,1,92.841,1.144c1.832.248,2.964,1.308,3.029,2.834a3.654,3.654,0,0,1-1.377,2.789c-.554.565-.865.907-.836,1.382.366,5.835.55,11.774.549,17.651s-.183,11.815-.549,17.651c-.03.474.282.817.836,1.382a3.654,3.654,0,0,1,1.377,2.789c-.065,1.527-1.2,2.586-3.028,2.834A130.453,130.453,0,0,1,75.673,51.6Z" transform="translate(-55.45 0)"/>
        <path id="Trazado_897079" data-name="Trazado 897079" d="M153.071,263a2.375,2.375,0,0,1-2.106-3.435l3.944-7.887a2.372,2.372,0,0,1,3.567-.819l.213.164a.756.756,0,1,1-.922,1.2l-.213-.164a.86.86,0,0,0-1.293.3l-3.944,7.888a.86.86,0,0,0,1.005,1.211l10.352-2.958a.86.86,0,0,0,.288-1.508L161,254.7a.756.756,0,1,1,.922-1.2l2.965,2.281a2.372,2.372,0,0,1-.794,4.16L153.738,262.9A2.425,2.425,0,0,1,153.071,263Z" transform="translate(-141.109 -225.131)"/>
        <path id="Trazado_897080" data-name="Trazado 897080" d="M217.074,219.548a.756.756,0,0,1-.454-1.361l2.929-2.2v-4.439a4,4,0,0,1,1.642-3.225.756.756,0,1,1,.889,1.223,2.483,2.483,0,0,0-1.02,2v4.817a.756.756,0,0,1-.3.6l-3.231,2.424A.753.753,0,0,1,217.074,219.548Z" transform="translate(-200.105 -187.201)"/>
        <path id="Trazado_897081" data-name="Trazado 897081" d="M266.368,143.636a2.3,2.3,0,0,1,1.635.659,2.373,2.373,0,0,1-.266,3.613l-5.441,3.957a2.354,2.354,0,0,1-1.393.454,2.371,2.371,0,0,1-1.4-4.289l5.371-3.906A2.555,2.555,0,0,1,266.368,143.636Zm-5.466,7.17a.852.852,0,0,0,.5-.165l5.441-3.957a.861.861,0,0,0,.092-1.316.8.8,0,0,0-.571-.221,1.031,1.031,0,0,0-.6.2l-5.371,3.906a.861.861,0,0,0-.19,1.2A.852.852,0,0,0,260.9,150.806Z" transform="translate(-238.064 -129.16)"/>
        <path id="Trazado_897082" data-name="Trazado 897082" d="M140.355,42.547a.762.762,0,0,1-.1-.007,98.75,98.75,0,0,0-27.283,0,.756.756,0,1,1-.208-1.5,100.261,100.261,0,0,1,27.7,0,.756.756,0,0,1-.1,1.5Z" transform="translate(-106.397 -36.042)"/>
        <path id="Trazado_897083" data-name="Trazado 897083" d="M126.619,449.918h-.02a100.962,100.962,0,0,1-13.841-.961.756.756,0,0,1,.208-1.5,98.751,98.751,0,0,0,27.283,0,.756.756,0,0,1,.208,1.5A100.948,100.948,0,0,1,126.619,449.918Z" transform="translate(-106.397 -402.358)"/>
      </g>
    </g>
  </g>
</svg>
