<svg xmlns="http://www.w3.org/2000/svg" width="62" height="62" viewBox="0 0 62 62">
  <g id="Grupo_1106632" data-name="Grupo 1106632" transform="translate(-192.051 -8298)">
    <rect id="Rectángulo_403106" data-name="Rectángulo 403106" width="62" height="62" transform="translate(192.051 8298)" fill="none"/>
    <g id="Layer_2" data-name="Layer 2" transform="translate(201.051 8307)">
      <g id="Style09">
        <g id="_10" data-name="10">
          <g id="Calendar">
            <g id="Paper" transform="translate(0 3.019)">
              <rect id="Rectángulo_403109" data-name="Rectángulo 403109" width="43.288" height="40.132" rx="8" transform="translate(0.451 0.451)" fill="#fff"/>
              <path id="Trazado_897078" data-name="Trazado 897078" d="M39.23,74.507H4.96A4.966,4.966,0,0,1,0,69.546V38.433a4.966,4.966,0,0,1,4.96-4.96H39.23a4.966,4.966,0,0,1,4.96,4.96V69.546a4.966,4.966,0,0,1-4.96,4.96ZM4.96,34.375A4.063,4.063,0,0,0,.9,38.433V69.546A4.063,4.063,0,0,0,4.96,73.6H39.23a4.063,4.063,0,0,0,4.058-4.058V38.433a4.063,4.063,0,0,0-4.058-4.058Z" transform="translate(0 -33.473)"/>
              <path id="Trazado_897079" data-name="Trazado 897079" d="M9.509,38.472h34.27a4.509,4.509,0,0,1,4.509,4.509V47.49H5V42.981A4.509,4.509,0,0,1,9.509,38.472Z" transform="translate(-4.549 -38.021)" fill="#ff4244"/>
              <path id="Trazado_897080" data-name="Trazado 897080" d="M44.19,43.393H0v-4.96a4.966,4.966,0,0,1,4.96-4.96H39.23a4.966,4.966,0,0,1,4.96,4.96ZM.9,42.491H43.288V38.433a4.063,4.063,0,0,0-4.058-4.058H4.96A4.063,4.063,0,0,0,.9,38.433Z" transform="translate(0 -33.473)"/>
            </g>
            <g id="Holder" transform="translate(6.755)">
              <circle id="Elipse_11756" data-name="Elipse 11756" cx="2.706" cy="2.706" r="2.706" transform="translate(24.818 4.399)" fill="#fff"/>
              <path id="Trazado_897081" data-name="Trazado 897081" d="M348.257,50.093a3.156,3.156,0,1,1,3.156-3.156A3.156,3.156,0,0,1,348.257,50.093Zm0-5.411a2.255,2.255,0,1,0,2.255,2.255A2.255,2.255,0,0,0,348.257,44.682Z" transform="translate(-320.732 -39.832)"/>
              <rect id="Rectángulo_403110" data-name="Rectángulo 403110" width="2.706" height="8.117" rx="1.353" transform="translate(26.171 0.451)" fill="#3b4c53"/>
              <path id="Trazado_897082" data-name="Trazado 897082" d="M361.9,9.018a1.806,1.806,0,0,1-1.8-1.8V1.8a1.8,1.8,0,1,1,3.607,0V7.215a1.806,1.806,0,0,1-1.8,1.8ZM361.9.9a.9.9,0,0,0-.9.9V7.215a.9.9,0,0,0,1.8,0V1.8a.9.9,0,0,0-.9-.9Z" transform="translate(-334.38)"/>
              <circle id="Elipse_11757" data-name="Elipse 11757" cx="2.706" cy="2.706" r="2.706" transform="translate(16.696 4.399)" fill="#fff"/>
              <path id="Trazado_897083" data-name="Trazado 897083" d="M258.189,50.093a3.156,3.156,0,1,1,3.156-3.156A3.156,3.156,0,0,1,258.189,50.093Zm0-5.411a2.255,2.255,0,1,0,2.255,2.255A2.255,2.255,0,0,0,258.189,44.682Z" transform="translate(-238.788 -39.832)"/>
              <rect id="Rectángulo_403111" data-name="Rectángulo 403111" width="2.706" height="8.117" rx="1.353" transform="translate(18.049 0.451)" fill="#3b4c53"/>
              <path id="Trazado_897084" data-name="Trazado 897084" d="M271.837,9.018a1.806,1.806,0,0,1-1.8-1.8V1.8a1.8,1.8,0,0,1,3.607,0V7.215A1.806,1.806,0,0,1,271.837,9.018Zm0-8.117a.9.9,0,0,0-.9.9V7.215a.9.9,0,1,0,1.8,0V1.8A.9.9,0,0,0,271.837.9Z" transform="translate(-252.435)"/>
              <circle id="Elipse_11758" data-name="Elipse 11758" cx="2.706" cy="2.706" r="2.706" transform="translate(8.573 4.399)" fill="#fff"/>
              <path id="Trazado_897085" data-name="Trazado 897085" d="M168.123,50.093a3.156,3.156,0,1,1,3.156-3.156A3.156,3.156,0,0,1,168.123,50.093Zm0-5.411a2.255,2.255,0,1,0,2.255,2.255A2.255,2.255,0,0,0,168.123,44.682Z" transform="translate(-156.844 -39.832)"/>
              <rect id="Rectángulo_403112" data-name="Rectángulo 403112" width="2.706" height="8.117" rx="1.353" transform="translate(9.926 0.451)" fill="#3b4c53"/>
              <path id="Trazado_897086" data-name="Trazado 897086" d="M181.771,9.018a1.806,1.806,0,0,1-1.8-1.8V1.8a1.8,1.8,0,0,1,3.607,0V7.215a1.806,1.806,0,0,1-1.8,1.8Zm0-8.117a.9.9,0,0,0-.9.9V7.215a.9.9,0,1,0,1.8,0V1.8A.9.9,0,0,0,181.771.9Z" transform="translate(-170.492)"/>
              <circle id="Elipse_11759" data-name="Elipse 11759" cx="2.706" cy="2.706" r="2.706" transform="translate(0.451 4.399)" fill="#fff"/>
              <path id="Trazado_897087" data-name="Trazado 897087" d="M78.056,50.093a3.156,3.156,0,1,1,3.156-3.156A3.156,3.156,0,0,1,78.056,50.093Zm0-5.411a2.255,2.255,0,1,0,2.255,2.255A2.255,2.255,0,0,0,78.056,44.682Z" transform="translate(-74.9 -39.832)"/>
              <rect id="Rectángulo_403113" data-name="Rectángulo 403113" width="2.706" height="8.117" rx="1.353" transform="translate(1.804 0.451)" fill="#3b4c53"/>
              <path id="Trazado_897088" data-name="Trazado 897088" d="M91.7,9.018a1.806,1.806,0,0,1-1.8-1.8V1.8a1.8,1.8,0,0,1,3.607,0V7.215a1.806,1.806,0,0,1-1.8,1.8ZM91.7.9a.9.9,0,0,0-.9.9V7.215a.9.9,0,0,0,1.8,0V1.8A.9.9,0,0,0,91.7.9Z" transform="translate(-88.547)"/>
            </g>
          </g>
          <g id="_10-2" data-name="10" transform="translate(10.01 17.922)">
            <path id="Trazado_897089" data-name="Trazado 897089" d="M86.593,223.064V209.1a12.03,12.03,0,0,1-3.766.893v-3.428a9.216,9.216,0,0,0,4.929-2.844h3.455v19.345Z" transform="translate(-82.376 -203.269)" fill="#ff4244"/>
            <path id="Trazado_897091" data-name="Trazado 897091" d="M86.593,223.064V209.1a12.03,12.03,0,0,1-3.766.893v-3.428a9.216,9.216,0,0,0,4.929-2.844h3.455v19.345Z" transform="translate(-67.496 -203.269)" fill="#ff4244"/>
            <path id="Trazado_897090" data-name="Trazado 897090" d="M87.113,218.97H81.594V205.226a13.349,13.349,0,0,1-3.3.671l-.464.013v-4.255l.355-.077a8.738,8.738,0,0,0,4.683-2.7l.135-.158h4.113Zm-4.617-.9h3.716V199.625h-2.8a9.73,9.73,0,0,1-4.681,2.75v2.583a11.66,11.66,0,0,0,3.115-.808l.651-.323Z" transform="translate(-77.828 -198.724)"/>
            <path id="Trazado_897092" data-name="Trazado 897092" d="M87.113,218.97H81.594V205.226a13.349,13.349,0,0,1-3.3.671l-.464.013v-4.255l.355-.077a8.738,8.738,0,0,0,4.683-2.7l.135-.158h4.113Zm-4.617-.9h3.716V199.625h-2.8a9.73,9.73,0,0,1-4.681,2.75v2.583a11.66,11.66,0,0,0,3.115-.808l.651-.323Z" transform="translate(-62.948 -198.724)"/>
          </g>
        </g>
      </g>
    </g>
  </g>
</svg>
