<svg xmlns="http://www.w3.org/2000/svg" width="62" height="62" viewBox="0 0 62 62">
  <g id="Grupo_1106625" data-name="Grupo 1106625" transform="translate(-192.051 -8458)">
    <g id="Fertilizer" transform="translate(170.066 8462)">
      <g id="Filled" transform="translate(32.827 0.841)">
        <path id="Trazado_897048" data-name="Trazado 897048" d="M80.214,184.785l-1.489-2.522s.745-2.522.745-13.45c0-3.875-2.234-16.813-2.234-16.813H42.979s-2.234,12.938-2.234,16.813c0,10.928.745,13.45.745,13.45L40,184.785a1.777,1.777,0,0,0,2.664,1.681s10,2.522,17.443,2.522,17.443-2.522,17.443-2.522A1.777,1.777,0,0,0,80.214,184.785Z" transform="translate(-40 -136.869)" fill="#66bb6a"/>
        <path id="Trazado_897049" data-name="Trazado 897049" d="M163.5,175.972c0-3.278-1.8-13.043-2.361-15.972h-4.559a42.074,42.074,0,0,1-28.364,34.815,87.766,87.766,0,0,0,13.428,1.332c8.406,0,19.689-2.522,19.689-2.522a2,2,0,0,0,3.008-1.681l-1.681-2.522S163.5,186.9,163.5,175.972Z" transform="translate(-124.125 -144.028)" fill="#49ad4d"/>
        <rect id="Rectángulo_403099" data-name="Rectángulo 403099" width="23.402" height="21.016" rx="10.508" transform="translate(8.406 24.378)" fill="#e2dbd5"/>
        <path id="Trazado_897050" data-name="Trazado 897050" d="M247.007,280.732a10.468,10.468,0,0,0-2.635-6.959,42.191,42.191,0,0,1-14.389,17.467H236.5A10.508,10.508,0,0,0,247.007,280.732Z" transform="translate(-213.664 -245.846)" fill="#d9d1cc"/>
        <path id="Trazado_897051" data-name="Trazado 897051" d="M219.462,360a4.2,4.2,0,0,0-4.2,4.2h8.406A4.2,4.2,0,0,0,219.462,360Z" transform="translate(-199.422 -323.012)" fill="#f09b73"/>
        <path id="Trazado_897052" data-name="Trazado 897052" d="M103.063,8C97.169,8,88,21.45,88,21.45h30.127S108.958,8,103.063,8Z" transform="translate(-82.956 -8)" fill="#f09b73"/>
        <g id="Grupo_1106623" data-name="Grupo 1106623" transform="translate(0 13.45)">
          <rect id="Rectángulo_403100" data-name="Rectángulo 403100" width="40.214" height="3.363" rx="1.681" fill="#81c784"/>
          <rect id="Rectángulo_403101" data-name="Rectángulo 403101" width="40.214" height="3.363" rx="1.681" transform="translate(0 3.363)" fill="#81c784"/>
          <path id="Trazado_897053" data-name="Trazado 897053" d="M190.9,284.282a4.1,4.1,0,0,1-4.115.335c-2.11-1.132-3.527-4.433-3.527-4.433s3.533-.647,5.644.485A4.1,4.1,0,0,1,190.9,284.282Z" transform="translate(-170.271 -264.869)" fill="#81c784"/>
        </g>
        <path id="Trazado_897054" data-name="Trazado 897054" d="M255.26,284.282a4.1,4.1,0,0,0,4.115.335c2.11-1.132,3.527-4.433,3.527-4.433s-3.533-.647-5.644.485A4.1,4.1,0,0,0,255.26,284.282Z" transform="translate(-235.744 -251.419)" fill="#66bb6a"/>
        <path id="Trazado_897055" data-name="Trazado 897055" d="M247.516,30.641a19.362,19.362,0,0,1-7.809,11.071h19.365S253.313,34.5,247.516,30.641Z" transform="translate(-223.902 -28.262)" fill="#e58b6c"/>
        <path id="Trazado_897056" data-name="Trazado 897056" d="M238.764,363.526a8.438,8.438,0,0,1-3.864,3.833h6.342a4.2,4.2,0,0,0-2.478-3.833Z" transform="translate(-217.136 -326.168)" fill="#e58b6c"/>
        <circle id="Elipse_11742" data-name="Elipse 11742" cx="1.681" cy="1.681" r="1.681" transform="translate(15.478 2.522)" fill="#f2bba5"/>
        <circle id="Elipse_11743" data-name="Elipse 11743" cx="0.841" cy="0.841" r="0.841" transform="translate(18.526 6.725)" fill="#f2bba5"/>
        <circle id="Elipse_11744" data-name="Elipse 11744" cx="1.681" cy="1.681" r="1.681" transform="translate(2.522 22.697)" fill="#c8e6c9"/>
        <circle id="Elipse_11745" data-name="Elipse 11745" cx="0.841" cy="0.841" r="0.841" transform="translate(5.884 26.9)" fill="#c8e6c9"/>
      </g>
      <g id="Outline" transform="translate(31.985)">
        <path id="Trazado_897057" data-name="Trazado 897057" d="M72.443,246.537c.21-1.1.691-4.557.691-13.292a73.456,73.456,0,0,0-.917-8.542.763.763,0,0,0-.859-.694.835.835,0,0,0-.618.965,73.471,73.471,0,0,1,.9,8.271c0,10.5-.705,13.166-.71,13.184a.93.93,0,0,0,.087.732l1.353,2.28a1.028,1.028,0,0,1-1.576.7.675.675,0,0,0-.5-.069c-.1.025-10.05,2.5-17.361,2.5s-17.261-2.477-17.36-2.5a.674.674,0,0,0-.5.068,1.029,1.029,0,0,1-1.576-.7c2.758-5.019.73,1.858.73-16.2a73.38,73.38,0,0,1,.9-8.271.835.835,0,0,0-.618-.965.763.763,0,0,0-.859.694,73.4,73.4,0,0,0-.917,8.542c0,8.734.481,12.2.691,13.292l-1.314,2.214a2.562,2.562,0,0,0,1.019,2.8,2.4,2.4,0,0,0,2.357.224c1.607.391,10.521,2.483,17.447,2.483s15.84-2.092,17.446-2.483a2.4,2.4,0,0,0,2.357-.224,2.562,2.562,0,0,0,1.019-2.8Z" transform="translate(-31.985 -200.461)"/>
        <path id="Trazado_897058" data-name="Trazado 897058" d="M71.65,128H34.243c-1.945,0-2.955,2.594-1.672,4.2-1.283,1.609-.275,4.2,1.672,4.2H71.65c1.945,0,2.955-2.594,1.672-4.2C74.6,130.595,73.6,128,71.65,128Zm-25.437,5.044H71.65a.846.846,0,0,1,0,1.681H34.243a.846.846,0,0,1,0-1.681h5.985a.846.846,0,0,0,0-1.681H34.243a.846.846,0,0,1,0-1.681H71.65a.846.846,0,0,1,0,1.681H46.213a.846.846,0,0,0,0,1.681Z" transform="translate(-31.997 -114.55)"/>
        <path id="Trazado_897059" data-name="Trazado 897059" d="M190.465,286.262a.841.841,0,1,0,0-1.681h-1.837a5.055,5.055,0,0,0-4.1-4.091v-2.013a4.518,4.518,0,0,0,3.647-.272c2.343-1.256,3.84-4.7,3.9-4.842a.841.841,0,0,0-.621-1.158c-.156-.029-3.85-.685-6.192.571a4.374,4.374,0,0,0-1.563,1.4,4.373,4.373,0,0,0-1.564-1.4c-2.343-1.256-6.036-.6-6.192-.571a.841.841,0,0,0-.621,1.158c.063.146,1.56,3.586,3.9,4.842a4.514,4.514,0,0,0,3.621.28v1.995a5.055,5.055,0,0,0-4.151,4.1h-1.681a.841.841,0,1,0,0,1.681Zm-.452-12.537c-1.328,2.364-3.046,4.137-5.45,2.958,0-.05-.009-.1-.015-.158C184.959,273.93,187.392,273.529,190.013,273.725Zm-7.174,2.958c-2.406,1.18-4.12-.591-5.45-2.958,2.622-.2,5.054.2,5.465,2.8C182.848,276.582,182.843,276.634,182.839,276.683Zm-2.423,7.9a3.365,3.365,0,0,1,6.492,0Z" transform="translate(-162.784 -243.426)"/>
        <path id="Trazado_897060" data-name="Trazado 897060" d="M127.677,254.7c5.195,0,9.406-5.081,9.406-11.349S132.872,232,127.677,232h-6.271c-5.195,0-9.406,5.081-9.406,11.349s4.211,11.349,9.406,11.349Zm-14.283-11.349c0-5.337,3.589-9.661,8.013-9.667h6.271c4.425,0,8.013,4.328,8.013,9.667s-3.587,9.667-8.013,9.667h-6.271C116.983,253.01,113.4,248.685,113.394,243.349Z" transform="translate(-103.592 -207.622)"/>
        <path id="Trazado_897061" data-name="Trazado 897061" d="M109.065,11.5c4.872-6.331,9.05-9.817,11.762-9.817s6.889,3.487,11.762,9.817a.622.622,0,0,0,.99.047.963.963,0,0,0,.04-1.188C129.982,5.632,124.811,0,120.827,0s-9.155,5.632-12.792,10.358a.963.963,0,0,0,.04,1.188A.622.622,0,0,0,109.065,11.5Z" transform="translate(-99.878)"/>
        <circle id="Elipse_11746" data-name="Elipse 11746" cx="0.841" cy="0.841" r="0.841" transform="translate(10.427 16.813)"/>
        <circle id="Elipse_11747" data-name="Elipse 11747" cx="0.841" cy="0.841" r="0.841" transform="translate(16.385 6.725)"/>
        <circle id="Elipse_11748" data-name="Elipse 11748" cx="0.841" cy="0.841" r="0.841" transform="translate(18.619 3.363)"/>
        <circle id="Elipse_11749" data-name="Elipse 11749" cx="0.841" cy="0.841" r="0.841" transform="translate(20.109 5.884)"/>
        <circle id="Elipse_11750" data-name="Elipse 11750" cx="0.841" cy="0.841" r="0.841" transform="translate(22.343 4.203)"/>
        <circle id="Elipse_11751" data-name="Elipse 11751" cx="0.841" cy="0.841" r="0.841" transform="translate(23.832 7.566)"/>
        <circle id="Elipse_11752" data-name="Elipse 11752" cx="0.841" cy="0.841" r="0.841" transform="translate(26.811 10.088)"/>
        <circle id="Elipse_11753" data-name="Elipse 11753" cx="0.841" cy="0.841" r="0.841" transform="translate(21.598 10.088)"/>
        <circle id="Elipse_11754" data-name="Elipse 11754" cx="0.841" cy="0.841" r="0.841" transform="translate(17.875 10.088)"/>
        <circle id="Elipse_11755" data-name="Elipse 11755" cx="0.841" cy="0.841" r="0.841" transform="translate(13.406 10.088)"/>
      </g>
    </g>
    <rect id="Rectángulo_403108" data-name="Rectángulo 403108" width="62" height="62" transform="translate(192.051 8458)" fill="none"/>
  </g>
</svg>
