<svg xmlns="http://www.w3.org/2000/svg" width="86" height="86" viewBox="0 0 86 86">
  <g id="Grupo_1106634" data-name="Grupo 1106634" transform="translate(-284.051 -9556)">
    <circle id="Elipse_11690" data-name="Elipse 11690" cx="43" cy="43" r="43" transform="translate(284.051 9556)" fill="#a8d549"/>
    <g id="tierra_4_" data-name="tierra (4)" transform="translate(295.051 9567)">
      <circle id="Elipse_11760" data-name="Elipse 11760" cx="2" cy="2" r="2" transform="translate(16 22)" fill="#976949"/>
      <path id="Trazado_897093" data-name="Trazado 897093" d="M18,22a1.988,1.988,0,0,0-1.723,3H17a2,2,0,0,0,2-2v-.723A1.987,1.987,0,0,0,18,22Z" fill="#c18e5c"/>
      <circle id="Elipse_11761" data-name="Elipse 11761" cx="2" cy="2" r="2" transform="translate(28 12)" fill="#976949"/>
      <path id="Trazado_897094" data-name="Trazado 897094" d="M30,12a1.988,1.988,0,0,0-1.723,3H29a2,2,0,0,0,2-2v-.723A1.987,1.987,0,0,0,30,12Z" fill="#c18e5c"/>
      <path id="Trazado_897095" data-name="Trazado 897095" d="M60.854,43.764A11.42,11.42,0,0,0,52.5,38.457a11.589,11.589,0,0,1-4.627-1.6l-3.151-1.919A18.948,18.948,0,0,0,38.873,32.6l-1.2-.259a15.227,15.227,0,0,0-9.075.825,14.073,14.073,0,0,1-5.427,1.086,14.032,14.032,0,0,0-7.643,2.255l-1.036.673A9.2,9.2,0,0,1,11.24,38.5a9.111,9.111,0,0,0-5.3,3.146L4,44H61Z" fill="#976949"/>
      <path id="Trazado_897096" data-name="Trazado 897096" d="M38.873,32.6a18.948,18.948,0,0,1,5.844,2.332l2.751,1.675L50,35l-8-8-4.053,5.4Z" fill="#88929f"/>
      <path id="Trazado_897097" data-name="Trazado 897097" d="M44.032,24.129H57.467v4.243H44.032Z" transform="translate(-3.697 43.574) rotate(-45)" fill="#a0a8b2"/>
      <g id="Grupo_1106633" data-name="Grupo 1106633">
        <path id="Trazado_897098" data-name="Trazado 897098" d="M21.447,40.9A14.509,14.509,0,0,0,27.9,34.447l.622-1.247a14,14,0,0,1-2.655.794A12.484,12.484,0,0,1,20.553,39.1Z" fill="#c18e5c"/>
        <path id="Trazado_897099" data-name="Trazado 897099" d="M35.155,35.045a10.1,10.1,0,0,0,5.889,3.584,8.034,8.034,0,0,1,2.894,1.2l1.507,1.005,1.11-1.664-1.507-1.005a10.04,10.04,0,0,0-3.611-1.495,8.122,8.122,0,0,1-4.743-2.9l-1.5-1.745a15.246,15.246,0,0,0-2.555.094Z" fill="#c18e5c"/>
        <path id="Trazado_897100" data-name="Trazado 897100" d="M28,39h2v2H28Z" fill="#c18e5c"/>
        <path id="Trazado_897101" data-name="Trazado 897101" d="M33,37h2v2H33Z" fill="#c18e5c"/>
        <path id="Trazado_897102" data-name="Trazado 897102" d="M15,40h2v2H15Z" fill="#c18e5c"/>
      </g>
      <path id="Trazado_897103" data-name="Trazado 897103" d="M58,24l-5-5,2-4,7,7Z" fill="#b3b9c1"/>
      <circle id="Elipse_11762" data-name="Elipse 11762" cx="2" cy="2" r="2" transform="translate(30 25)" fill="#976949"/>
      <path id="Trazado_897104" data-name="Trazado 897104" d="M2,44H62v8H2Z" fill="#88929f"/>
      <path id="Trazado_897105" data-name="Trazado 897105" d="M2,44v6H57a3,3,0,0,0,3-3V44Z" fill="#a0a8b2"/>
      <path id="Trazado_897106" data-name="Trazado 897106" d="M57,47h2v2H57Z" fill="#b3b9c1"/>
      <path id="Trazado_897107" data-name="Trazado 897107" d="M5,47H7v2H5Z" fill="#b3b9c1"/>
      <path id="Trazado_897108" data-name="Trazado 897108" d="M32,25a1.988,1.988,0,0,0-1.723,3H31a2,2,0,0,0,2-2v-.723A1.987,1.987,0,0,0,32,25Z" fill="#c18e5c"/>
      <path id="Trazado_897109" data-name="Trazado 897109" d="M62,43h-.461a12.345,12.345,0,0,0-8.923-5.535,10.713,10.713,0,0,1-3.191-.914l1.112-.707a1,1,0,0,0,.17-1.551L48.914,32.5,57,24.414l.293.293A1,1,0,0,0,58,25a1.011,1.011,0,0,0,.447-.105l4-2a1,1,0,0,0,.26-1.6l-7-7a1,1,0,0,0-1.6.26l-2,4a1,1,0,0,0,.188,1.154l.293.293L44.5,28.086l-1.793-1.793A1,1,0,0,0,41.2,26.4l-3.677,4.9a16.126,16.126,0,0,0-9.309.944,12.994,12.994,0,0,1-5.042,1.009,14.992,14.992,0,0,0-8.188,2.416l-1.036.673a8.171,8.171,0,0,1-2.9,1.17A10.132,10.132,0,0,0,5.162,41L3.527,43H2a1,1,0,0,0-1,1v8a1,1,0,0,0,1,1H62a1,1,0,0,0,1-1V44a1,1,0,0,0-1-1ZM55.274,16.688l5.038,5.038L58.2,22.783,54.22,18.8ZM54,21.414,55.586,23,47.5,31.086,45.914,29.5ZM42.108,28.522l6.3,6.3-.955.608-2.219-1.352a19.913,19.913,0,0,0-5.571-2.3ZM6.708,42.277a8.135,8.135,0,0,1,4.723-2.8,10.131,10.131,0,0,0,3.607-1.456l1.036-.672a12.981,12.981,0,0,1,7.1-2.094,15.271,15.271,0,0,0,2-.148,12.483,12.483,0,0,1-4.618,4l.894,1.79a14.509,14.509,0,0,0,6.42-6.4c.376-.123.75-.25,1.117-.4a14.157,14.157,0,0,1,4.562-1.06l1.609,2.012a10.1,10.1,0,0,0,5.889,3.584,8.034,8.034,0,0,1,2.894,1.2l1.507,1.005,1.11-1.664-1.507-1.005a10.04,10.04,0,0,0-3.611-1.495A8.088,8.088,0,0,1,36.72,33.8l-.549-.686c.432.053.864.12,1.294.213l1.2.26a17.919,17.919,0,0,1,5.535,2.2l3.152,1.921a12.675,12.675,0,0,0,5.026,1.739A10.406,10.406,0,0,1,59.045,43H6.115ZM61,51H3V45H61Z"/>
      <path id="Trazado_897110" data-name="Trazado 897110" d="M57,47h2v2H57Z"/>
      <path id="Trazado_897111" data-name="Trazado 897111" d="M5,47H7v2H5Z"/>
      <path id="Trazado_897112" data-name="Trazado 897112" d="M28,39h2v2H28Z"/>
      <path id="Trazado_897113" data-name="Trazado 897113" d="M33,37h2v2H33Z"/>
      <path id="Trazado_897114" data-name="Trazado 897114" d="M15,40h2v2H15Z"/>
      <path id="Trazado_897115" data-name="Trazado 897115" d="M21,24a3,3,0,1,0-3,3A3,3,0,0,0,21,24Zm-4,0a1,1,0,1,1,1,1A1,1,0,0,1,17,24Z"/>
      <path id="Trazado_897116" data-name="Trazado 897116" d="M29,27a3,3,0,1,0,3-3A3,3,0,0,0,29,27Zm4,0a1,1,0,1,1-1-1A1,1,0,0,1,33,27Z"/>
      <path id="Trazado_897117" data-name="Trazado 897117" d="M30,11a3,3,0,1,0,3,3,3,3,0,0,0-3-3Zm0,4a1,1,0,1,1,1-1A1,1,0,0,1,30,15Z"/>
    </g>
  </g>
</svg>
