<svg xmlns="http://www.w3.org/2000/svg" width="79" height="79" viewBox="0 0 79 79">
  <g id="Grupo_1106232" data-name="Grupo 1106232" transform="translate(-866.051 -1109)">
    <circle id="Elipse_11677" data-name="Elipse 11677" cx="39.5" cy="39.5" r="39.5" transform="translate(866.051 1109)" fill="#edf6db"/>
    <g id="estiercol" transform="translate(877.051 1112.976)">
      <path id="Trazado_896895" data-name="Trazado 896895" d="M60.571,175.843h-1.49a12.606,12.606,0,0,0-8.617-21.2.465.465,0,0,1-.425-.356,8.155,8.155,0,0,0-3.2-4.785c-3.2-2.207-6.822-1.074-7.843-.681a.47.47,0,0,1-.493-.1,15.028,15.028,0,0,0-16.292-3.06A15.111,15.111,0,0,0,13.6,161.946a.466.466,0,0,1-.29.506c-5.694,2.262-6.807,9.011-3.2,13.391h-.2a1.876,1.876,0,0,0-1.876,1.876v2.345a1.876,1.876,0,0,0,1.876,1.876H60.571a1.876,1.876,0,0,0,1.876-1.876v-2.345A1.876,1.876,0,0,0,60.571,175.843Z" transform="translate(-7.095 -120.444)" fill="#c79a83"/>
      <path id="Trazado_896896" data-name="Trazado 896896" d="M62.447,413.9v2.345a1.876,1.876,0,0,1-1.876,1.876H9.913a1.876,1.876,0,0,1-1.876-1.876V413.9a1.876,1.876,0,0,1,1.876-1.876H60.571A1.876,1.876,0,0,1,62.447,413.9Z" transform="translate(-7.095 -356.626)" fill="#ffd9ad"/>
      <ellipse id="Elipse_11724" data-name="Elipse 11724" cx="5.057" cy="3.173" rx="5.057" ry="3.173" transform="translate(35.571 45.239) rotate(-45)" fill="#befa91"/>
      <path id="Trazado_896897" data-name="Trazado 896897" d="M343.5,279.318a.752.752,0,0,1-1.086.957,2.367,2.367,0,0,0-1.329-.405,6.038,6.038,0,0,0-2.292.449.752.752,0,0,1-.685-1.331,6.03,6.03,0,0,1,3.28-.964A2.248,2.248,0,0,1,343.5,279.318Z" transform="translate(-298.154 -238.339)" fill="#daffbf"/>
      <path id="Trazado_896898" data-name="Trazado 896898" d="M43.568,153.706c-2.291-1.837-8.191-5.555-15.488-2.363a15.1,15.1,0,0,0-8.725,15.342,1.86,1.86,0,0,1-1,1.825,8.05,8.05,0,0,0-4.307,5.778,1.88,1.88,0,0,1-1.847,1.551H10.117c-3.6-4.38-2.487-11.123,3.2-13.392a.467.467,0,0,0,.29-.506,15.112,15.112,0,0,1,8.606-16.282,15.01,15.01,0,0,1,16.293,3.06.468.468,0,0,0,.491.1c1.02-.392,4.646-1.527,7.844.681C49.969,151.656,46.213,155.826,43.568,153.706Z" transform="translate(-7.102 -120.438)" fill="#e0b7a3"/>
      <path id="Trazado_896899" data-name="Trazado 896899" d="M60.6,414.017H13.2a1.876,1.876,0,0,0-1.876,1.876v.845a1.415,1.415,0,0,1-1.385,1.421,1.876,1.876,0,0,1-1.9-1.876V413.9a1.876,1.876,0,0,1,1.876-1.876H60.571A1,1,0,1,1,60.6,414.017Z" transform="translate(-7.095 -356.626)" fill="#ffebd2"/>
      <g id="Grupo_1106231" data-name="Grupo 1106231" transform="translate(0 8.024)">
        <path id="Trazado_896900" data-name="Trazado 896900" d="M81.118,142.724c5.42-5.96,14.5-5.648,20.016-.188a.938.938,0,0,0,1.052.185c.039-.018,3.926-1.764,7.189.489a7.232,7.232,0,0,1,2.886,4.53.938.938,0,0,0,.892.76,12.162,12.162,0,0,1,3.224.538.931.931,0,0,0,.436.145,11.581,11.581,0,0,1,6.985,15.145.938.938,0,1,0,1.754.667,13.456,13.456,0,0,0-7.565-17.374,7.886,7.886,0,0,1,3.639-4.684.938.938,0,1,0-.943-1.622,9.855,9.855,0,0,0-1.731,1.281,9.629,9.629,0,0,0-2.312-1.853.938.938,0,1,0-.936,1.626A7.84,7.84,0,0,1,117.7,144a9.691,9.691,0,0,0-1.492,3.039,14.036,14.036,0,0,0-2.271-.376c-1.39-4.941-6.283-7.84-11.923-5.888a15.663,15.663,0,0,0-22.28.683.938.938,0,0,0,1.388,1.263Z" transform="translate(-70.165 -121.401)"/>
        <path id="Trazado_896901" data-name="Trazado 896901" d="M53.476,229.058H8a.938.938,0,1,0,0,1.876H53.476a.939.939,0,0,1,.938.938v2.345a.939.939,0,0,1-.938.938H2.819a.939.939,0,0,1-.938-.938v-2.345a.939.939,0,0,1,.938-.938h.2a.936.936,0,0,0,.724-1.534C.556,225.362,1.5,219.257,6.885,217.356A.938.938,0,0,0,7.5,216.3a14.516,14.516,0,0,1,.61-7.6,7.018,7.018,0,0,1,2.4,2.164.938.938,0,1,0,1.54-1.072,9.691,9.691,0,0,0-8.643-3.96.938.938,0,1,0,.086,1.874,9.619,9.619,0,0,1,2.877.3,16.359,16.359,0,0,0-.835,7.876,9.284,9.284,0,0,0-4.074,13.535A2.816,2.816,0,0,0,0,231.872v2.345a2.818,2.818,0,0,0,2.814,2.814H53.477a2.818,2.818,0,0,0,2.814-2.814v-2.345A2.818,2.818,0,0,0,53.476,229.058Z" transform="translate(0 -182.622)"/>
        <path id="Trazado_896902" data-name="Trazado 896902" d="M134.37,214.932a.938.938,0,0,0,.627-.812A5.539,5.539,0,0,1,140.256,209a.938.938,0,1,0-.146-1.87,7.84,7.84,0,0,0-5.515,2.931,7.363,7.363,0,0,0-1.4,3.338,4.983,4.983,0,0,0-2.244,6.77.938.938,0,1,0,1.669-.858,3.118,3.118,0,0,1,1.752-4.379Z" transform="translate(-115.103 -183.781)"/>
        <path id="Trazado_896903" data-name="Trazado 896903" d="M237.26,300.69a2.954,2.954,0,0,1,1.512-.642.938.938,0,1,0-.247-1.86,4.8,4.8,0,0,0-2.474,1.067c-2.231,1.881-1.623,5.04-1.6,5.174a.938.938,0,0,0,1.839-.37C236.289,304.038,235.88,301.854,237.26,300.69Z" transform="translate(-206.877 -264.156)"/>
        <path id="Trazado_896904" data-name="Trazado 896904" d="M310.477,277.8a.938.938,0,0,0,.93,1.629,7.017,7.017,0,0,0,3.533-6.08,3.327,3.327,0,0,0-3.323-3.323,7,7,0,0,0-7,7,3.335,3.335,0,0,0,.368,1.514,11.567,11.567,0,0,0-.929,2.527.938.938,0,1,0,1.824.439,9.688,9.688,0,0,1,3.849-5.667.938.938,0,0,0-1.08-1.534,11.556,11.556,0,0,0-2.089,1.891,5.128,5.128,0,0,1,5.052-4.29,1.448,1.448,0,0,1,1.447,1.447A5.137,5.137,0,0,1,310.477,277.8Z" transform="translate(-268.382 -239.301)"/>
        <path id="Trazado_896905" data-name="Trazado 896905" d="M208.639,12.715a.938.938,0,0,0,.925-1.1,1.74,1.74,0,0,1,.678-1.9.938.938,0,0,0-1.121-1.5,3.594,3.594,0,0,0-1.406,3.728A.939.939,0,0,0,208.639,12.715Z" transform="translate(-183.294 -8.024)"/>
        <path id="Trazado_896906" data-name="Trazado 896906" d="M219.736,63.12a.938.938,0,0,0-.477,1.238c.558,1.259.853,2.237.48,2.92a1.489,1.489,0,0,1-.361.431.938.938,0,0,0,1.2,1.446,3.356,3.356,0,0,0,.811-.976c.786-1.438.267-3.051-.411-4.581a.938.938,0,0,0-1.238-.478Z" transform="translate(-193.352 -56.588)"/>
        <path id="Trazado_896907" data-name="Trazado 896907" d="M299.045,34.083a1.512,1.512,0,0,0,.743-.273.938.938,0,1,0-.8-1.7c-.149.07-.293.147-.427.228a.938.938,0,0,0,.485,1.742Z" transform="translate(-263.149 -29.209)"/>
        <path id="Trazado_896908" data-name="Trazado 896908" d="M295.3,74.284a.938.938,0,0,0,1.453,1.187,4.258,4.258,0,0,0,.75-1.353c.571-1.716-.143-3.266-.887-4.835a.938.938,0,1,0-1.7.8C295.633,71.589,296.354,72.993,295.3,74.284Z" transform="translate(-260.256 -61.627)"/>
        <path id="Trazado_896909" data-name="Trazado 896909" d="M127.255,38.247a.939.939,0,0,0,.847-1.341c-.5-1.047-.83-1.831-.577-2.38a1.64,1.64,0,0,1,.838-.717.938.938,0,1,0-.8-1.7,3.43,3.43,0,0,0-1.741,1.628c-.639,1.388.04,2.819.586,3.969A.939.939,0,0,0,127.255,38.247Z" transform="translate(-110.838 -29.209)"/>
        <path id="Trazado_896910" data-name="Trazado 896910" d="M141.158,93.285a.938.938,0,0,0-.863,1.008c0,.022,0,.044,0,.066a.938.938,0,1,0,1.874-.1q0-.058-.008-.116A.939.939,0,0,0,141.158,93.285Z" transform="translate(-123.841 -83.284)"/>
      </g>
    </g>
  </g>
</svg>
