<svg xmlns="http://www.w3.org/2000/svg" width="86" height="86" viewBox="0 0 86 86">
  <g id="Grupo_1106668" data-name="Grupo 1106668" transform="translate(-600.051 -9769)">
    <circle id="Elipse_11694" data-name="Elipse 11694" cx="43" cy="43" r="43" transform="translate(600.051 9769)" fill="#a8d549"/>
    <g id="lecheria" transform="translate(608.299 9777.25)">
      <g id="Grupo_1106666" data-name="Grupo 1106666" transform="translate(5.626 10.125)">
        <g id="Grupo_1106662" data-name="Grupo 1106662" transform="translate(40 1.34)">
          <path id="Trazado_897152" data-name="Trazado 897152" d="M100.226,23.675V18.181h-9.95v5.494a17.935,17.935,0,0,1-1.887,8.008A17.935,17.935,0,0,0,86.5,39.69V66.84a3,3,0,0,0,3,3H101a3,3,0,0,0,3-3V39.69a17.935,17.935,0,0,0-1.887-8.008,17.939,17.939,0,0,1-1.887-8.007Z" transform="translate(-86.5 -18.181)" fill="#eaeaf0"/>
          <g id="Grupo_1106661" data-name="Grupo 1106661">
            <path id="Trazado_897153" data-name="Trazado 897153" d="M91.048,18.181H104v4.5H91.048Z" transform="translate(-88.774 -18.181)" fill="#3ba9fd"/>
            <path id="Trazado_897154" data-name="Trazado 897154" d="M86.5,61H104V73.5H86.5Z" transform="translate(-86.5 -39.59)" fill="#3ba9fd"/>
          </g>
        </g>
        <g id="Grupo_1106663" data-name="Grupo 1106663" transform="translate(0)">
          <path id="Trazado_897155" data-name="Trazado 897155" d="M33.264,15.5H8.486L6.5,23.5v45H35.25v-45Z" transform="translate(-6.5 -15.5)" fill="#3ba9fd"/>
          <path id="Trazado_897156" data-name="Trazado 897156" d="M33.264,15.5H8.486L6.5,23.5H35.25Z" transform="translate(-6.5 -15.5)" fill="#eaeaf0"/>
          <path id="Trazado_897157" data-name="Trazado 897157" d="M6.5,57H35.25V76.9H6.5Z" transform="translate(-6.5 -36.248)" fill="#eaeaf0"/>
          <path id="Trazado_897158" data-name="Trazado 897158" d="M35.25,73.9a3,3,0,1,1-6,0c0-2.865,3-5.52,3-5.52S35.25,71.035,35.25,73.9Z" transform="translate(-17.875 -41.94)" fill="#3ba9fd"/>
        </g>
        <g id="Grupo_1106665" data-name="Grupo 1106665" transform="translate(23.125 29.58)">
          <path id="Trazado_897159" data-name="Trazado 897159" d="M78.28,87.98A2.243,2.243,0,0,0,80,90.165V98.08H52.75V81.9c0-2.54,4.25-6.74,9.8-7.24L80,81.9v3.9A2.243,2.243,0,0,0,78.28,87.98Z" transform="translate(-52.75 -74.66)" fill="#ff9800"/>
          <path id="Trazado_897160" data-name="Trazado 897160" d="M78.28,95.22A2.243,2.243,0,0,0,80,97.4v7.915H52.75V89.14H80v3.895A2.242,2.242,0,0,0,78.28,95.22Z" transform="translate(-52.75 -81.9)" fill="#fdd82e"/>
          <circle id="Elipse_11767" data-name="Elipse 11767" cx="1.5" cy="1.5" r="1.5" transform="translate(7.844 5.74)" fill="#fdd82e"/>
          <g id="Grupo_1106664" data-name="Grupo 1106664" transform="translate(3.75 13.074)">
            <circle id="Elipse_11768" data-name="Elipse 11768" cx="1.5" cy="1.5" r="1.5" transform="translate(13.812 4.375)" fill="#ff9800"/>
            <circle id="Elipse_11769" data-name="Elipse 11769" cx="1.5" cy="1.5" r="1.5" fill="#ff9800"/>
          </g>
        </g>
      </g>
      <g id="Grupo_1106667" data-name="Grupo 1106667" transform="translate(4.752 4.75)">
        <path id="Trazado_897161" data-name="Trazado 897161" d="M87.962,46.059a.875.875,0,0,0,1.14-.479c.16-.392.336-.782.524-1.159q.075-.15.147-.3a.875.875,0,1,0-1.579-.753c-.044.091-.088.181-.133.272-.208.416-.4.846-.579,1.278a.875.875,0,0,0,.48,1.14Z" transform="translate(-46.085 -23.81)" fill="#001d38"/>
        <path id="Trazado_897162" data-name="Trazado 897162" d="M64,32.875c0-.014,0-.028,0-.042a18.9,18.9,0,0,0-1.974-8.255,17.092,17.092,0,0,1-1.8-7.618v-.12h.626a.875.875,0,0,0,.875-.875v-4.5a.875.875,0,0,0-.875-.875H47.9a.875.875,0,0,0-.875.875v4.5a.875.875,0,0,0,.875.875h.624v.119a17.05,17.05,0,0,1-.6,4.5.875.875,0,0,0,1.688.462,18.787,18.787,0,0,0,.666-4.962V16.84h8.2v.119a18.844,18.844,0,0,0,1.982,8.4A17.147,17.147,0,0,1,62.222,32H46.529a16.789,16.789,0,0,1,.428-2.937.875.875,0,1,0-1.7-.4,18.68,18.68,0,0,0-.5,4.176c0,.014,0,.027,0,.041v8.455L38.891,38.9a.9.9,0,0,0-.414-.063,13.4,13.4,0,0,0-3.226.709V18.125a.881.881,0,0,0-.024-.2.135.135,0,0,0,0-.014l-1.96-7.9V5.625a.876.876,0,0,0-.875-.875H7.612a.875.875,0,0,0-.875.875v4.393l-1.961,7.9a.135.135,0,0,0,0,.014.882.882,0,0,0-.024.2v45A.876.876,0,0,0,5.627,64h54.5A3.879,3.879,0,0,0,64,60.125V32.9a.055.055,0,0,1,0-.022ZM48.776,12.34h11.2v2.75h-11.2ZM46.5,33.749h15.75V44.5H52.39L46.5,42.055ZM51.61,46.07H40.3a2.368,2.368,0,0,0-4.406,0H29.826c.813-2.035,4.118-4.987,8.6-5.472Zm-14.139.871a.625.625,0,1,1,0,.008Zm-9.594,0V49.9H6.5V31.748H30.157a.875.875,0,1,0,0-1.75H6.5V19h27V40.287C30.194,41.963,27.876,44.727,27.876,46.945ZM8.3,11H31.705l1.55,6.25H6.745ZM31.515,6.5V9.25H8.487V6.5ZM28.751,58.687a.875.875,0,0,0-.875.875V62.25H6.5V51.65H27.876v3.6a.875.875,0,1,0,1.75,0V47.82h6.265a2.368,2.368,0,0,0,4.406,0H55.126v2.412a3.128,3.128,0,0,0,0,5.586V62.25h-25.5V59.562a.876.876,0,0,0-.875-.875ZM60.126,62.25h-3.25V55.21a.875.875,0,0,0-.673-.85,1.372,1.372,0,0,1,0-2.667.875.875,0,0,0,.673-.853V46.945a.869.869,0,0,0-.034-.229c-.005-.018-.011-.035-.017-.053a.859.859,0,0,0-.093-.2l0-.007a.88.88,0,0,0-.15-.167c-.014-.012-.028-.024-.043-.035l-.008-.007h5.725V60.125A2.128,2.128,0,0,1,60.126,62.25Z" transform="translate(-4.752 -4.75)" fill="#001d38"/>
        <path id="Trazado_897163" data-name="Trazado 897163" d="M11.625,70.375a.875.875,0,0,0-.875.875v3.458a.875.875,0,1,0,1.75,0V71.25A.875.875,0,0,0,11.625,70.375Z" transform="translate(-7.751 -37.563)" fill="#001d38"/>
        <path id="Trazado_897164" data-name="Trazado 897164" d="M31.955,66.849a.875.875,0,0,0-1.16,0c-.134.119-3.295,2.953-3.295,6.175a3.875,3.875,0,0,0,7.75,0C35.25,69.8,32.089,66.969,31.955,66.849Zm-.58,8.3a2.127,2.127,0,0,1-2.125-2.125c0-1.712,1.33-3.415,2.125-4.28.8.865,2.125,2.569,2.125,4.28A2.127,2.127,0,0,1,31.375,75.149Z" transform="translate(-16.126 -35.69)" fill="#001d38"/>
        <path id="Trazado_897165" data-name="Trazado 897165" d="M86.125,110.183a2.375,2.375,0,1,0,2.375-2.375A2.375,2.375,0,0,0,86.125,110.183Zm2.375-.625a.625.625,0,1,1-.625.625.625.625,0,0,1,.625-.625Z" transform="translate(-45.439 -56.279)" fill="#001d38"/>
        <circle id="Elipse_11770" data-name="Elipse 11770" cx="0.75" cy="0.75" r="0.75" transform="translate(40.061 45.276)" fill="#001d38"/>
        <circle id="Elipse_11771" data-name="Elipse 11771" cx="0.75" cy="0.75" r="0.75" transform="translate(44.561 48.341)" fill="#001d38"/>
        <circle id="Elipse_11772" data-name="Elipse 11772" cx="0.75" cy="0.75" r="0.75" transform="translate(34.395 37.396)" fill="#001d38"/>
        <circle id="Elipse_11773" data-name="Elipse 11773" cx="0.75" cy="0.75" r="0.75" transform="translate(28.874 38.5)" fill="#001d38"/>
        <circle id="Elipse_11774" data-name="Elipse 11774" cx="0.75" cy="0.75" r="0.75" transform="translate(31.842 54.187)" fill="#001d38"/>
        <circle id="Elipse_11775" data-name="Elipse 11775" cx="0.75" cy="0.75" r="0.75" transform="translate(36.311 50.5)" fill="#001d38"/>
        <path id="Trazado_897166" data-name="Trazado 897166" d="M60.875,103.808a2.375,2.375,0,1,0-2.375-2.375A2.375,2.375,0,0,0,60.875,103.808Zm0-3a.625.625,0,1,1-.625.625.625.625,0,0,1,.625-.625Z" transform="translate(-31.626 -51.904)" fill="#001d38"/>
      </g>
    </g>
  </g>
</svg>
