<svg xmlns="http://www.w3.org/2000/svg" width="79" height="79" viewBox="0 0 79 79">
  <g id="Grupo_1106242" data-name="Grupo 1106242" transform="translate(-1076.051 -1109)">
    <circle id="Elipse_11678" data-name="Elipse 11678" cx="39.5" cy="39.5" r="39.5" transform="translate(1076.051 1109)" fill="#edf6db"/>
    <g id="tierra_2_" data-name="tierra (2)" transform="translate(1056.298 1004.645)">
      <g id="Grupo_1106233" data-name="Grupo 1106233" transform="translate(21.753 122.355)">
        <path id="Trazado_896911" data-name="Trazado 896911" d="M27.547,168.238a.794.794,0,0,1-.787-.9c.027-.2.688-4.877,3.781-7.116a4.21,4.21,0,0,0,1.618-1.668c.38-.7.854-1.567,3.3-3.633a14.167,14.167,0,0,1,4.571-2.655c1.318-.5,1.672-.637,1.893-2.248.4-2.928,2.7-5.867,4.736-8.46.69-.881,1.342-1.713,1.88-2.492A7.01,7.01,0,0,1,53.2,136.19a9.257,9.257,0,0,0,3.361-1.41.813.813,0,0,1,.074-.048,18.482,18.482,0,0,0,5.173-4.117,8.582,8.582,0,0,1,5.449-3.157,4.28,4.28,0,0,1,.929-.1c2.826,0,5.616,2.7,6.808,3.857l.013.013a5.9,5.9,0,0,1,1.229,2.3,8.157,8.157,0,0,0,2.807,4.207,9.888,9.888,0,0,1,3.831,5.664c.1.318.189.618.289.872.534,1.364,3.671,5.138,6.071,5.708,1.884.447,3.09,3.051,4.486,6.067,1.022,2.207,2.078,4.489,3.338,5.663,3.364,3.134,2.429,5.892,2.387,6.008a.794.794,0,0,1-.748.527H27.547Z" transform="translate(-25.958 -126.562)" fill="#733619"/>
        <path id="Trazado_896912" data-name="Trazado 896912" d="M63.981,123.944c2.514,0,5.125,2.539,6.268,3.646,1.258,1.219,1.007,4.221,4.11,6.566s3.272,4.69,3.859,6.191,3.859,5.535,6.627,6.191,4.446,8.724,7.466,11.538,2.181,5.159,2.181,5.159H23.341s.607-4.514,3.459-6.578.627-1.679,4.969-5.337,6.236-1.744,6.739-5.4,4.343-7.513,6.482-10.609,4.857-1.935,7.832-4.1c6.669-3.8,4.869-5.955,10.4-7.189a3.462,3.462,0,0,1,.756-.082m0-1.589a5.07,5.07,0,0,0-1.1.12,9.335,9.335,0,0,0-5.864,3.4,17.571,17.571,0,0,1-4.979,3.962,1.593,1.593,0,0,0-.147.1,8.492,8.492,0,0,1-3.1,1.285,7.765,7.765,0,0,0-5.11,3.193c-.525.759-1.169,1.582-1.852,2.454-2.093,2.673-4.465,5.7-4.9,8.842a2.329,2.329,0,0,1-.344,1.122,3.833,3.833,0,0,1-1.045.492,15.071,15.071,0,0,0-4.8,2.79c-2.372,2-2.984,2.931-3.49,3.861-.232.427-.361.662-1.386,1.4-3.366,2.436-4.074,7.442-4.1,7.653a1.589,1.589,0,0,0,1.575,1.8H94.493a1.589,1.589,0,0,0,1.5-1.054c.122-.341,1.085-3.429-2.594-6.857-1.146-1.068-2.215-3.378-3.159-5.416-1.483-3.2-2.764-5.97-5.023-6.506-2.088-.5-5.052-4.042-5.514-5.224-.088-.226-.172-.5-.269-.815a10.719,10.719,0,0,0-4.112-6.065,7.393,7.393,0,0,1-2.54-3.846,6.477,6.477,0,0,0-1.423-2.594l-.013-.013c-1.367-1.325-4.213-4.081-7.361-4.081Z" transform="translate(-21.753 -122.355)"/>
      </g>
      <path id="Trazado_896913" data-name="Trazado 896913" d="M292.955,171.647h-4.969a7.01,7.01,0,0,0-2.137-3.253c-3.021-2.814-4.7-10.881-7.466-11.538s-6.039-4.689-6.627-6.19-.755-3.847-3.858-6.192-2.852-5.347-4.111-6.565c-1.115-1.082-3.627-3.521-6.082-3.642a8.011,8.011,0,0,1,3.982-1.83c2.728-.607,5.766,2.345,7.025,3.566s1.006,4.22,4.11,6.565,3.272,4.69,3.858,6.192,3.859,5.534,6.627,6.19,4.446,8.724,7.466,11.539S292.955,171.647,292.955,171.647Z" transform="translate(-198.462 -8.411)" opacity="0.2"/>
      <g id="Grupo_1106234" data-name="Grupo 1106234" transform="translate(50.413 142.249)">
        <path id="Trazado_896914" data-name="Trazado 896914" d="M210.6,250.237a.79.79,0,0,1-.378-.1,7.751,7.751,0,0,0-6.936-.339.794.794,0,0,1-.732-1.41,9.349,9.349,0,0,1,8.426.353.794.794,0,0,1-.38,1.493Z" transform="translate(-202.131 -247.559)"/>
      </g>
      <g id="Grupo_1106235" data-name="Grupo 1106235" transform="translate(58.065 154.251)">
        <path id="Trazado_896915" data-name="Trazado 896915" d="M258.763,325.775a.79.79,0,0,1-.378-.1,7.816,7.816,0,0,0-6.934-.34.794.794,0,0,1-.735-1.409,9.35,9.35,0,0,1,8.426.353.795.795,0,0,1-.38,1.493Z" transform="translate(-250.289 -323.096)"/>
      </g>
      <g id="Grupo_1106236" data-name="Grupo 1106236" transform="translate(60.61 133.481)">
        <path id="Trazado_896916" data-name="Trazado 896916" d="M274.778,195.056a.79.79,0,0,1-.378-.1,7.818,7.818,0,0,0-6.934-.34.794.794,0,1,1-.735-1.409,9.349,9.349,0,0,1,8.426.353.795.795,0,0,1-.38,1.493Z" transform="translate(-266.304 -192.377)"/>
      </g>
      <g id="Grupo_1106237" data-name="Grupo 1106237" transform="translate(34.972 155.336)">
        <path id="Trazado_896917" data-name="Trazado 896917" d="M113.425,332.6a.79.79,0,0,1-.378-.1,7.752,7.752,0,0,0-6.936-.339.794.794,0,0,1-.732-1.41,9.351,9.351,0,0,1,8.426.353.795.795,0,0,1-.38,1.493Z" transform="translate(-104.952 -329.924)"/>
      </g>
      <g id="Grupo_1106238" data-name="Grupo 1106238" transform="translate(46.781 149.409)">
        <path id="Trazado_896918" data-name="Trazado 896918" d="M180.7,295.491a1.433,1.433,0,1,1,1.433-1.433A1.435,1.435,0,0,1,180.7,295.491Zm0-1.589a.156.156,0,1,0,.156.156A.156.156,0,0,0,180.7,293.9Z" transform="translate(-179.271 -292.624)"/>
      </g>
      <g id="Grupo_1106239" data-name="Grupo 1106239" transform="translate(65.106 144.166)">
        <path id="Trazado_896919" data-name="Trazado 896919" d="M296.038,262.491a1.433,1.433,0,1,1,1.433-1.433A1.435,1.435,0,0,1,296.038,262.491Zm0-1.589a.156.156,0,1,0,.156.156A.156.156,0,0,0,296.038,260.9Z" transform="translate(-294.605 -259.624)"/>
      </g>
      <g id="Grupo_1106240" data-name="Grupo 1106240" transform="translate(54.252 134.571)">
        <path id="Trazado_896920" data-name="Trazado 896920" d="M227.725,202.1a1.433,1.433,0,1,1,1.433-1.433A1.435,1.435,0,0,1,227.725,202.1Zm0-1.589a.156.156,0,1,0,.156.156A.156.156,0,0,0,227.725,200.513Z" transform="translate(-226.292 -199.235)"/>
      </g>
      <g id="Grupo_1106241" data-name="Grupo 1106241" transform="translate(78.079 149.409)">
        <path id="Trazado_896921" data-name="Trazado 896921" d="M377.683,295.491a1.433,1.433,0,1,1,1.433-1.433A1.435,1.435,0,0,1,377.683,295.491Zm0-1.589a.156.156,0,1,0,.156.156A.156.156,0,0,0,377.683,293.9Z" transform="translate(-376.25 -292.624)"/>
      </g>
    </g>
  </g>
</svg>
