<svg id="Grupo_1106159" data-name="Grupo 1106159" xmlns="http://www.w3.org/2000/svg" width="94.693" height="94.693" viewBox="0 0 94.693 94.693">
  <path id="Trazado_895726" data-name="Trazado 895726" d="M47.346,0h0a47.346,47.346,0,1,1,0,94.693h0A47.346,47.346,0,0,1,47.346,0Z" transform="translate(0)" fill="#a8d549"/>
  <g id="Page-1" transform="translate(17 20)">
    <g id="_049---Planted-Seeds" data-name="049---Planted-Seeds">
      <path id="Path" d="M59,30V52a2.006,2.006,0,0,1-2,2H3a2.006,2.006,0,0,1-2-2V30Z" transform="translate(0 -0.997)" fill="sienna" fill-rule="evenodd"/>
      <path id="Path-2" data-name="Path" d="M56,30V52a2.006,2.006,0,0,1-2,2h3a2.006,2.006,0,0,0,2-2V30Z" transform="translate(0 -0.997)" fill="#783e22" fill-rule="evenodd"/>
      <path id="Path-3" data-name="Path" d="M25,43a5,5,0,0,1-10,0,7.437,7.437,0,0,1,5-7A7.437,7.437,0,0,1,25,43Z" transform="translate(0 -0.997)" fill="#825a2c" fill-rule="evenodd"/>
      <path id="Path-4" data-name="Path" d="M20,36a7.436,7.436,0,0,0-1.5.734A7.131,7.131,0,0,1,22,43a4.985,4.985,0,0,1-3.5,4.746A4.936,4.936,0,0,0,25,43a7.437,7.437,0,0,0-5-7Z" transform="translate(0 -0.997)" fill="#624421" fill-rule="evenodd"/>
      <path id="Path-5" data-name="Path" d="M20,16.05v1.4c-.02.32-.04.51-.04.51s-5.05.61-7.78-2.12S9,7,9,7s6.1.45,8.84,3.18A8.962,8.962,0,0,1,20,16.05Z" transform="translate(0 -0.997)" fill="#60a917" fill-rule="evenodd"/>
      <path id="Path-6" data-name="Path" d="M17.84,10.18C15.1,7.45,9,7,9,7s.015.185.049.488A12.347,12.347,0,0,1,14.84,10.18,8.962,8.962,0,0,1,17,16.05v1.4c-.014.224-.028.379-.035.455a13.589,13.589,0,0,0,3,.055s.02-.19.04-.51v-1.4a8.962,8.962,0,0,0-2.165-5.87Z" transform="translate(0 -0.997)" fill="#549414" fill-rule="evenodd"/>
      <path id="Path-7" data-name="Path" d="M29.93,7.1C29.35,7.03,29,7,29,7s.05.72.23,1.78a7.591,7.591,0,0,1-1.41,2.06c-2.73,2.73-7.78,2.12-7.78,2.12s-.02-.19-.04-.51v-1.4a8.962,8.962,0,0,1,2.16-5.87C24.9,2.45,31,2,31,2a22.807,22.807,0,0,1-1.07,5.1Z" transform="translate(0 -0.997)" fill="#60a917" fill-rule="evenodd"/>
      <path id="Path-8" data-name="Path" d="M31,2a23.585,23.585,0,0,0-3.049.488A22.753,22.753,0,0,1,26.93,7.1C26.35,7.03,26,7,26,7s.05.72.23,1.78a7.591,7.591,0,0,1-1.41,2.06,8.184,8.184,0,0,1-4.785,2.065v.055s5.05.61,7.78-2.12a7.591,7.591,0,0,0,1.41-2.06C29.05,7.72,29,7,29,7s.35.03.93.1A22.807,22.807,0,0,0,31,2Z" transform="translate(0 -0.997)" fill="#549414" fill-rule="evenodd"/>
      <path id="Path-9" data-name="Path" d="M45,43a5,5,0,0,1-10,0,7.437,7.437,0,0,1,5-7A7.437,7.437,0,0,1,45,43Z" transform="translate(0 -0.997)" fill="#825a2c" fill-rule="evenodd"/>
      <path id="Path-10" data-name="Path" d="M40,36a7.436,7.436,0,0,0-1.5.734A7.131,7.131,0,0,1,42,43a4.985,4.985,0,0,1-3.5,4.746A4.936,4.936,0,0,0,45,43a7.437,7.437,0,0,0-5-7Z" transform="translate(0 -0.997)" fill="#624421" fill-rule="evenodd"/>
      <path id="Path-11" data-name="Path" d="M40,16.05v1.4c-.02.32-.04.51-.04.51s-5.05.61-7.78-2.12c-1.79-1.8-2.6-5.04-2.95-7.06C29.05,7.72,29,7,29,7s.35.03.93.1c1.82.25,5.83,1.01,7.91,3.08A8.962,8.962,0,0,1,40,16.05Z" transform="translate(0 -0.997)" fill="#60a917" fill-rule="evenodd"/>
      <path id="Path-12" data-name="Path" d="M37.84,10.18c-2.08-2.07-6.09-2.83-7.91-3.08C29.35,7.03,29,7,29,7s.012.179.047.49a12.35,12.35,0,0,1,5.793,2.69A8.962,8.962,0,0,1,37,16.05v1.4c-.014.224-.028.379-.035.455a13.589,13.589,0,0,0,2.995.055s.02-.19.04-.51v-1.4a8.962,8.962,0,0,0-2.16-5.87Z" transform="translate(0 -0.997)" fill="#549414" fill-rule="evenodd"/>
      <path id="Path-13" data-name="Path" d="M51,2s-.45,6.1-3.18,8.84-7.78,2.12-7.78,2.12-.02-.19-.04-.51v-1.4a8.962,8.962,0,0,1,2.16-5.87C44.9,2.45,51,2,51,2Z" transform="translate(0 -0.997)" fill="#60a917" fill-rule="evenodd"/>
      <path id="Path-14" data-name="Path" d="M47.951,2.488c-.17,1.489-.862,6.075-3.131,8.352a8.184,8.184,0,0,1-4.785,2.065l.005.055s5.05.61,7.78-2.12S51,2,51,2a23.585,23.585,0,0,0-3.049.488Z" transform="translate(0 -0.997)" fill="#549414" fill-rule="evenodd"/>
      <path id="Path-15" data-name="Path" d="M59,24.14V30H1V24.14a1,1,0,0,1,1.14-.99c3,.47,3.7,1.85,7.85,1.85,5,0,5-2,10-2s5,2,10,2,5-2,10-2,5,2,10.01,2c4.16,0,4.86-1.38,7.86-1.85a1,1,0,0,1,1.14.99Z" transform="translate(0 -0.997)" fill="#ff9801" fill-rule="evenodd"/>
      <path id="Path-16" data-name="Path" d="M57.86,23.15a10.426,10.426,0,0,0-1.992.518A.978.978,0,0,1,56,24.14V30h3V24.14a1,1,0,0,0-1.14-.99Z" transform="translate(0 -0.997)" fill="#f57c00" fill-rule="evenodd"/>
      <g id="Grupo_1106158" data-name="Grupo 1106158">
        <path id="Shape" d="M57.709,22.162a13.006,13.006,0,0,0-3.082.91A10.658,10.658,0,0,1,50,24a10.7,10.7,0,0,1-4.64-.93A12.326,12.326,0,0,0,41,22.029v-4.57c.019-.364.028-.871,0-1.461V14.013h.277c1.833,0,5.109-.333,7.25-2.474C51.49,8.582,51.978,2.337,52,2.073A1,1,0,0,0,50.927,1c-.264.019-6.509.507-9.471,3.47a9.311,9.311,0,0,0-2.38,5.6,6.949,6.949,0,0,0-.532-.6c-1.9-1.906-5.162-2.785-7.318-3.177A24.09,24.09,0,0,0,32,2.074,1,1,0,0,0,30.927,1c-.265.019-6.5.512-9.474,3.47a9.265,9.265,0,0,0-2.376,5.6,6.82,6.82,0,0,0-.533-.6C15.582,6.51,9.337,6.022,9.073,6A1,1,0,0,0,8,7.073c.019.264.507,6.509,3.47,9.471,2.141,2.141,5.417,2.474,7.25,2.474H19v3.015a12.31,12.31,0,0,0-4.381,1.043A10.666,10.666,0,0,1,9.99,24a10.636,10.636,0,0,1-4.616-.927,13.059,13.059,0,0,0-3.083-.911A1.977,1.977,0,0,0,.7,22.617,2.007,2.007,0,0,0,0,24.143V52a3,3,0,0,0,3,3H57a3,3,0,0,0,3-3V24.143a2.007,2.007,0,0,0-.7-1.526,1.968,1.968,0,0,0-1.591-.455ZM44.618,24.928A12.555,12.555,0,0,0,50,26a12.518,12.518,0,0,0,5.369-1.07A11.087,11.087,0,0,1,58,24.143V29H41V24.036A10.584,10.584,0,0,1,44.618,24.928ZM21,24.036a10.565,10.565,0,0,1,3.619.893A12.526,12.526,0,0,0,29.99,26a12.519,12.519,0,0,0,5.371-1.071A10.573,10.573,0,0,1,39,24.035V29H21Zm0-6.577c.019-.364.028-.871,0-1.461V14.015h.272c1.834,0,5.116-.333,7.256-2.474.082-.082.159-.174.238-.262a12.1,12.1,0,0,0,2.707,5.26c2.141,2.141,5.417,2.474,7.25,2.474H39v3.015a12.31,12.31,0,0,0-4.381,1.043A10.666,10.666,0,0,1,29.99,24a10.673,10.673,0,0,1-4.629-.929A12.324,12.324,0,0,0,21,22.029ZM42.87,5.887c1.741-1.741,5.158-2.468,6.984-2.741-.273,1.826-1,5.243-2.741,6.984S42.423,12.04,41,12.012v-.821A8.055,8.055,0,0,1,42.87,5.887ZM39,16.191v.821c-1.428.024-4.376-.145-6.113-1.882s-2.468-5.158-2.741-6.984c1.826.273,5.243,1,6.984,2.741A8.055,8.055,0,0,1,39,16.191ZM22.866,5.889c1.745-1.74,5.161-2.468,6.988-2.743a22.251,22.251,0,0,1-.634,2.869L29.073,6A1,1,0,0,0,28,7.073c.006.077.054.67.188,1.534a6.362,6.362,0,0,1-1.078,1.526c-1.734,1.735-4.666,1.915-6.113,1.881v-.931a7.954,7.954,0,0,1,1.869-5.194ZM12.887,15.13c-1.741-1.741-2.468-5.158-2.741-6.984,1.826.273,5.243,1,6.984,2.741a8.055,8.055,0,0,1,1.87,5.3v.821c-1.423.028-4.376-.141-6.113-1.878Zm-8.255,9.8A12.493,12.493,0,0,0,9.99,26a12.519,12.519,0,0,0,5.371-1.071A10.573,10.573,0,0,1,19,24.035V29H2l-.013-4.861a11.174,11.174,0,0,1,2.645.792ZM58,52a1,1,0,0,1-1,1H3a1,1,0,0,1-1-1V31H19v4.318A8.356,8.356,0,0,0,14,43a6,6,0,0,0,12,0,8.356,8.356,0,0,0-5-7.682V31H39v4.318A8.356,8.356,0,0,0,34,43a6,6,0,0,0,12,0,8.356,8.356,0,0,0-5-7.682V31H58ZM20,37.068A6.334,6.334,0,0,1,24,43a4,4,0,0,1-8,0A6.335,6.335,0,0,1,20,37.068Zm20,0A6.334,6.334,0,0,1,44,43a4,4,0,0,1-8,0A6.335,6.335,0,0,1,40,37.068Z" transform="translate(0 -0.997)"/>
        <circle id="Oval" cx="1" cy="1" r="1" transform="translate(5 32.003)"/>
        <circle id="Oval-2" data-name="Oval" cx="1" cy="1" r="1" transform="translate(11 32.003)"/>
        <circle id="Oval-3" data-name="Oval" cx="1" cy="1" r="1" transform="translate(8 36.003)"/>
        <circle id="Oval-4" data-name="Oval" cx="1" cy="1" r="1" transform="translate(5 40.003)"/>
        <circle id="Oval-5" data-name="Oval" cx="1" cy="1" r="1" transform="translate(11 40.003)"/>
        <circle id="Oval-6" data-name="Oval" cx="1" cy="1" r="1" transform="translate(8 44.003)"/>
        <circle id="Oval-7" data-name="Oval" cx="1" cy="1" r="1" transform="translate(5 48.003)"/>
        <circle id="Oval-8" data-name="Oval" cx="1" cy="1" r="1" transform="translate(11 48.003)"/>
        <circle id="Oval-9" data-name="Oval" cx="1" cy="1" r="1" transform="translate(50 44.003)"/>
        <circle id="Oval-10" data-name="Oval" cx="1" cy="1" r="1" transform="translate(47 48.003)"/>
        <circle id="Oval-11" data-name="Oval" cx="1" cy="1" r="1" transform="translate(53 48.003)"/>
        <circle id="Oval-12" data-name="Oval" cx="1" cy="1" r="1" transform="translate(26 32.003)"/>
        <circle id="Oval-13" data-name="Oval" cx="1" cy="1" r="1" transform="translate(32 32.003)"/>
        <circle id="Oval-14" data-name="Oval" cx="1" cy="1" r="1" transform="translate(26 48.003)"/>
        <circle id="Oval-15" data-name="Oval" cx="1" cy="1" r="1" transform="translate(32 48.003)"/>
        <circle id="Oval-16" data-name="Oval" cx="1" cy="1" r="1" transform="translate(29 36.003)"/>
        <circle id="Oval-17" data-name="Oval" cx="1" cy="1" r="1" transform="translate(29 43.003)"/>
        <circle id="Oval-18" data-name="Oval" cx="1" cy="1" r="1" transform="translate(47 32.003)"/>
        <circle id="Oval-19" data-name="Oval" cx="1" cy="1" r="1" transform="translate(53 32.003)"/>
        <circle id="Oval-20" data-name="Oval" cx="1" cy="1" r="1" transform="translate(50 36.003)"/>
        <circle id="Oval-21" data-name="Oval" cx="1" cy="1" r="1" transform="translate(47 40.003)"/>
        <circle id="Oval-22" data-name="Oval" cx="1" cy="1" r="1" transform="translate(53 40.003)"/>
      </g>
    </g>
  </g>
</svg>
