<svg xmlns="http://www.w3.org/2000/svg" width="63" height="63" viewBox="0 0 63 63">
  <g id="Grupo_1106068" data-name="Grupo 1106068" transform="translate(-1019 -715)">
    <g id="Grupo_1098742" data-name="Grupo 1098742" transform="translate(1019.445 715.445)">
      <rect id="Rect치ngulo_400898" data-name="Rect치ngulo 400898" width="63" height="63" rx="31.5" transform="translate(-0.445 -0.445)" fill="#f3d02c" opacity="0.859"/>
      <rect id="Rect치ngulo_400907" data-name="Rect치ngulo 400907" width="63" height="63" rx="31.5" transform="translate(-0.446 -0.445)" fill="none"/>
    </g>
    <g id="tierra-para-macetas" transform="translate(1033.9 725)">
      <path id="Trazado_895873" data-name="Trazado 895873" d="M33.254,47.923a2.948,2.948,0,0,0,2.819-2.084,54.493,54.493,0,0,0,.893-28.318l-1.523-6.428L36.7,8.73A1.078,1.078,0,0,0,35.881,7.1a5.966,5.966,0,0,0-3.152,1.365c-2.312,1.7-5.009,1.594-7.776,1.594h-3.73c-2.767,0-5.5.157-7.793-1.594A6.364,6.364,0,0,0,9.525,7.119,1.085,1.085,0,0,0,8.7,8.747l1.261,2.364L8.439,17.539a54.314,54.314,0,0,0,.893,28.318,2.948,2.948,0,0,0,2.82,2.084h21.1Zm0,0" transform="translate(-5.676 -5.858)" fill="#fe8e46"/>
      <path id="Trazado_895874" data-name="Trazado 895874" d="M16.875,45.756a54.5,54.5,0,0,1-.893-28.318l1.523-6.428-.665-1.261a7.361,7.361,0,0,1-3.31-1.4A6.362,6.362,0,0,0,9.625,7,1.085,1.085,0,0,0,8.8,8.629l1.261,2.364L8.539,17.42a54.321,54.321,0,0,0,.893,28.318,2.947,2.947,0,0,0,2.819,2.084h7.443A2.932,2.932,0,0,1,16.875,45.756Zm0,0" transform="translate(-5.759 -5.774)" fill="#e56823"/>
      <path id="Trazado_895875" data-name="Trazado 895875" d="M27.579,43.291H6.493A4.166,4.166,0,0,1,2.5,40.332a55.664,55.664,0,0,1-.911-28.966L3.008,5.394,1.957,3.433A2.417,2.417,0,0,1,2.01,1.069,2.147,2.147,0,0,1,3.849,0,7.667,7.667,0,0,1,8.507,1.611c1.787,1.366,3.923,1.366,6.41,1.348h4.869c2.522,0,4.711.018,6.549-1.348A6.758,6.758,0,0,1,30.205,0a2.147,2.147,0,0,1,1.839,1.069A2.376,2.376,0,0,1,32.1,3.433L31.046,5.394l1.418,5.971a55.3,55.3,0,0,1-.911,28.966A4.114,4.114,0,0,1,27.579,43.291ZM4.216,2.47,5.39,4.659a1.221,1.221,0,0,1,.1.858L3.971,11.943a52.979,52.979,0,0,0,.858,27.67,1.693,1.693,0,0,0,1.647,1.209H27.561a1.73,1.73,0,0,0,1.647-1.209,52.985,52.985,0,0,0,.858-27.67L28.542,5.516a1.21,1.21,0,0,1,.1-.858L29.8,2.5A5.731,5.731,0,0,0,27.771,3.59c-2.5,1.839-5.306,1.839-8.02,1.821H14.9c-2.679.018-5.464.018-7.916-1.856A5.078,5.078,0,0,0,4.216,2.47Zm0,0" transform="translate(0)"/>
      <path id="Trazado_895876" data-name="Trazado 895876" d="M49.666,110.887a5.455,5.455,0,0,1,7.881,5.2,5.455,5.455,0,0,1-7.881-5.2Zm0,0" transform="translate(-40.879 -90.992)" fill="#7dac51"/>
      <path id="Trazado_895877" data-name="Trazado 895877" d="M104.77,101.255a6.935,6.935,0,0,0-10.017,6.62,6.935,6.935,0,0,0,10.017-6.62Zm0,0" transform="translate(-78.067 -82.919)" fill="#7dac51"/>
      <g id="Grupo_1106067" data-name="Grupo 1106067" transform="translate(7.55 16.379)">
        <path id="Trazado_895878" data-name="Trazado 895878" d="M92.065,104.047a8.121,8.121,0,0,1-3.643-.859,1.275,1.275,0,0,1-.683-1.033A8.153,8.153,0,0,1,99.525,94.38a1.277,1.277,0,0,1,.683,1.034,8.148,8.148,0,0,1-8.143,8.634Zm-1.874-2.767a5.695,5.695,0,0,0,7.548-4.991,5.694,5.694,0,0,0-7.548,4.991Zm0,0" transform="translate(-79.829 -93.526)"/>
        <path id="Trazado_895879" data-name="Trazado 895879" d="M49.326,112.093a6.608,6.608,0,0,1-3.678-1.1,6.714,6.714,0,0,1-2.995-5.972,1.228,1.228,0,0,1,.683-1.033A6.692,6.692,0,0,1,53,110.358a1.23,1.23,0,0,1-.683,1.034A6.764,6.764,0,0,1,49.326,112.093Zm-4.2-6.182A4.188,4.188,0,0,0,47,108.94a4.255,4.255,0,0,0,3.52.525,4.187,4.187,0,0,0-1.874-3.03A4.307,4.307,0,0,0,45.123,105.91Zm0,0" transform="translate(-42.642 -101.572)"/>
        <path id="Trazado_895880" data-name="Trazado 895880" d="M88.933,145.755a1.218,1.218,0,0,1-1.226-1.226v-5.6a1.226,1.226,0,1,1,2.452,0v5.6A1.23,1.23,0,0,1,88.933,145.755Zm0,0" transform="translate(-79.815 -129.963)"/>
        <path id="Trazado_895881" data-name="Trazado 895881" d="M78.128,172.151h-5.8a1.226,1.226,0,1,1,0-2.452h5.8a1.226,1.226,0,1,1,0,2.452Zm0,0" transform="translate(-66.121 -156.359)"/>
      </g>
      <path id="Trazado_895882" data-name="Trazado 895882" d="M145.225,70.639c-.192-1-.438-2.032-.718-3.082l1.7-.455c.28,1.086.543,2.154.735,3.187Zm0,0" transform="translate(-119.118 -55.35)" fill="#fff"/>
      <path id="Trazado_895883" data-name="Trazado 895883" d="M136.488,41.468a28.415,28.415,0,0,0-.98-2.82L137.137,38c.017.053.473,1.173,1.015,2.959Zm0,0" transform="translate(-111.694 -31.345)" fill="#fff"/>
    </g>
  </g>
</svg>
