<svg xmlns="http://www.w3.org/2000/svg" width="295" height="246" viewBox="0 0 295 246">
  <g id="Grupo_1106071" data-name="Grupo 1106071" transform="translate(-705 -715)">
    <rect id="Rect치ngulo_35929" data-name="Rect치ngulo 35929" width="295" height="246" transform="translate(705 715)" fill="#983f37"/>
    <g id="Grupo_1106070" data-name="Grupo 1106070" transform="translate(737 729)">
      <g id="Grupo_1106072" data-name="Grupo 1106072">
        <path id="Trazado_895884" data-name="Trazado 895884" d="M519.412,119.027a36.227,36.227,0,0,1-3.982-15.106c-.432-12.98,6.812-21.936,9.4-24.84a30.3,30.3,0,0,0-5.064,13.447,32.234,32.234,0,0,0,3.845,18.963c-2.919-5.4-2.416-11.589,1.323-15.949,4.573-5.332,11.812-5.39,12.806-5.383-1.508.591-7.464,3.119-9.9,9.177-2.586,6.426-.168,14.235,6.155,19.721l-14.581-.03" transform="translate(-413.723 -63.479)" fill="#9e9569"/>
        <path id="Trazado_895885" data-name="Trazado 895885" d="M633.237,118.248a36.227,36.227,0,0,1-3.982-15.106c-.432-12.98,6.812-21.936,9.4-24.84a30.3,30.3,0,0,0-5.064,13.447,32.235,32.235,0,0,0,3.845,18.963c-2.919-5.4-2.416-11.589,1.323-15.949,4.573-5.332,11.812-5.391,12.806-5.383-1.508.591-7.464,3.119-9.9,9.177-2.586,6.426-.168,14.235,6.155,19.721l-14.582-.03" transform="translate(-505.091 -62.853)" fill="#9e9569"/>
        <path id="Trazado_895886" data-name="Trazado 895886" d="M564.8,113.413a39.735,39.735,0,0,1-8.038-14.277c-3.829-12.532.448-23.035,2.4-27.086a39.789,39.789,0,0,0,1.433,22.792,45.5,45.5,0,0,0,10.818,16.5,22.683,22.683,0,0,1-5.568-13.02,21.723,21.723,0,0,1,3.47-13.212,21.714,21.714,0,0,0,1.117,15.392c3.606,7.789,10.684,11.6,12.886,12.683l-18.517.235" transform="translate(-445.68 -57.835)" fill="#8b865c"/>
        <path id="Trazado_895887" data-name="Trazado 895887" d="M427.393,118.248a31.06,31.06,0,0,1-4.929-15.106c-.535-12.98,8.431-21.936,11.634-24.84a27.238,27.238,0,0,0-6.268,13.447c-1.307,8.936,2.769,16,4.76,18.963-3.613-5.4-2.99-11.589,1.638-15.949,5.66-5.332,14.62-5.391,15.85-5.383-1.866.591-9.238,3.119-12.254,9.177-3.2,6.426-.208,14.235,7.618,19.721l-18.048-.03" transform="translate(-339.095 -62.853)" fill="#8b865c"/>
        <path id="Trazado_895888" data-name="Trazado 895888" d="M342.689,112.9a38.711,38.711,0,0,1-9.949-14.277c-4.74-12.532.554-23.035,2.969-27.086a32.558,32.558,0,0,0,1.774,22.792c3.583,7.861,9.474,13.375,13.389,16.5-1.91-1.783-6.3-6.381-6.892-13.021a18.814,18.814,0,0,1,4.3-13.212,17.879,17.879,0,0,0,1.383,15.392c4.463,7.789,13.224,11.6,15.95,12.683l-22.919.235" transform="translate(-265.561 -57.421)" fill="#8b865c"/>
        <path id="Trazado_895889" data-name="Trazado 895889" d="M188.579,87.865a49.7,49.7,0,0,1-3.982-18,47.559,47.559,0,0,1,9.4-29.6,40.366,40.366,0,0,0-5.064,16.023,44.507,44.507,0,0,0,3.845,22.6c-2.919-6.432-2.416-13.808,1.323-19a15.989,15.989,0,0,1,12.806-6.415,18.983,18.983,0,0,0-9.9,10.935c-2.586,7.658-.168,16.962,6.155,23.5l-14.582-.036" transform="translate(-148.162 -32.323)" fill="#9e9569"/>
        <path id="Trazado_895890" data-name="Trazado 895890" d="M468.523,123.011a.435.435,0,0,1-.433-.406,49.236,49.236,0,0,1,2.5-19.308,48.691,48.691,0,0,1,4.113-8.941.435.435,0,0,1,.75.442,47.8,47.8,0,0,0-4.039,8.78,48.368,48.368,0,0,0-2.459,18.969.435.435,0,0,1-.4.463h-.029" transform="translate(-375.645 -75.569)" fill="#8b865c"/>
        <path id="Trazado_895891" data-name="Trazado 895891" d="M485.376,77.389c-1.182,2.363-5.254,2.721-9.094.8s-6-5.394-4.813-7.758,5.254-2.721,9.094-.8,5.995,5.394,4.813,7.758" transform="translate(-378.191 -54.901)" fill="#efbc73"/>
        <path id="Trazado_895892" data-name="Trazado 895892" d="M302.4,86.937a49.7,49.7,0,0,1-3.982-18,47.559,47.559,0,0,1,9.4-29.6,40.366,40.366,0,0,0-5.064,16.023,44.507,44.507,0,0,0,3.845,22.6c-2.919-6.432-2.416-13.808,1.323-19a15.989,15.989,0,0,1,12.806-6.415,18.983,18.983,0,0,0-9.9,10.935c-2.586,7.658-.168,16.962,6.155,23.5L302.4,86.937" transform="translate(-239.53 -31.578)" fill="#9e9569"/>
        <path id="Trazado_895893" data-name="Trazado 895893" d="M233.969,81.175a50.23,50.23,0,0,1-8.038-17.012,52.271,52.271,0,0,1,2.4-32.275A55.574,55.574,0,0,0,240.581,78.7a29.417,29.417,0,0,1-2.1-31.257,30.151,30.151,0,0,0,14,33.452l-18.517.28" transform="translate(-180.119 -25.597)" fill="#8b865c"/>
        <path id="Trazado_895894" data-name="Trazado 895894" d="M96.56,87.865a41.934,41.934,0,0,1-4.929-18c-.535-15.467,8.431-26.138,11.634-29.6A35.332,35.332,0,0,0,97,56.29a37.244,37.244,0,0,0,4.76,22.6c-3.613-6.432-2.99-13.808,1.638-19,5.66-6.353,14.62-6.423,15.85-6.415-1.866.7-9.238,3.717-12.254,10.935-3.2,7.658-.208,16.962,7.618,23.5L96.56,87.865" transform="translate(-73.534 -32.323)" fill="#8b865c"/>
        <path id="Trazado_895895" data-name="Trazado 895895" d="M13.345,80.991c-3.308-3.682-9.02-9.213-11.438-16.829-4.74-14.933.554-27.448,2.969-32.275A45.728,45.728,0,0,0,6.649,59.045,54.144,54.144,0,0,0,20.039,78.7a26.582,26.582,0,0,1-6.891-15.515,25.186,25.186,0,0,1,4.3-15.743,24.979,24.979,0,0,0,1.383,18.34c4.463,9.281,13.224,13.816,15.95,15.112-7.64.093-13.791,0-21.431.1" transform="translate(0 -25.596)" fill="#8b865c"/>
        <path id="Trazado_895896" data-name="Trazado 895896" d="M49.074,90.284a.435.435,0,0,1-.434-.408,56.021,56.021,0,0,1,2.5-20.628,53.815,53.815,0,0,1,4.109-9.553.435.435,0,1,1,.762.42,52.931,52.931,0,0,0-4.042,9.4,55.151,55.151,0,0,0-2.461,20.309.435.435,0,0,1-.407.461h-.028" transform="translate(-38.952 -47.736)" fill="#8b865c"/>
        <path id="Trazado_895897" data-name="Trazado 895897" d="M68.174,33.284c-1.182,2.363-5.254,2.721-9.094.8s-6-5.394-4.813-7.758,5.254-2.721,9.094-.8,5.995,5.394,4.813,7.758" transform="translate(-43.301 -19.498)" fill="#efbc73"/>
        <path id="Trazado_895898" data-name="Trazado 895898" d="M1002.287,112.9a38.71,38.71,0,0,1-9.949-14.277c-4.74-12.532.554-23.035,2.969-27.086a32.558,32.558,0,0,0,1.774,22.792c3.582,7.861,9.474,13.375,13.389,16.5-1.91-1.783-6.3-6.381-6.892-13.021a18.815,18.815,0,0,1,4.3-13.212,17.879,17.879,0,0,0,1.383,15.392c4.463,7.789,13.224,11.6,15.95,12.683l-22.919.235" transform="translate(-795.024 -57.421)" fill="#8b865c"/>
        <path id="Trazado_895899" data-name="Trazado 895899" d="M848.177,87.865a49.7,49.7,0,0,1-3.982-18,47.559,47.559,0,0,1,9.4-29.6A40.367,40.367,0,0,0,848.53,56.29a44.506,44.506,0,0,0,3.845,22.6c-2.919-6.432-2.416-13.808,1.323-19A15.989,15.989,0,0,1,866.5,53.467,18.983,18.983,0,0,0,856.6,64.4c-2.586,7.658-.168,16.962,6.155,23.5l-14.582-.036" transform="translate(-677.624 -32.323)" fill="#9e9569"/>
        <path id="Trazado_895900" data-name="Trazado 895900" d="M962,86.937a49.7,49.7,0,0,1-3.983-18,47.56,47.56,0,0,1,9.4-29.6,40.367,40.367,0,0,0-5.064,16.023,44.507,44.507,0,0,0,3.845,22.6c-2.919-6.432-2.416-13.808,1.323-19a15.989,15.989,0,0,1,12.806-6.415,18.984,18.984,0,0,0-9.9,10.935c-2.586,7.658-.168,16.962,6.155,23.5L962,86.937" transform="translate(-768.992 -31.578)" fill="#9e9569"/>
        <path id="Trazado_895901" data-name="Trazado 895901" d="M893.567,80.562a50.232,50.232,0,0,1-8.038-17.012,52.271,52.271,0,0,1,2.4-32.275,55.574,55.574,0,0,0,12.251,46.812,29.417,29.417,0,0,1-2.1-31.257A30.5,30.5,0,0,0,899.2,65.17a32.615,32.615,0,0,0,12.886,15.6c-6.172.093-12.345-.3-18.517-.207" transform="translate(-709.582 -25.105)" fill="#8b865c"/>
        <path id="Trazado_895902" data-name="Trazado 895902" d="M756.158,86.937a41.936,41.936,0,0,1-4.929-18c-.535-15.467,8.431-26.138,11.634-29.6a35.334,35.334,0,0,0-6.268,16.023,37.244,37.244,0,0,0,4.76,22.6c-3.613-6.432-2.99-13.808,1.638-19,5.66-6.353,14.62-6.423,15.85-6.415-1.866.7-9.238,3.717-12.254,10.935-3.2,7.658-.208,16.962,7.618,23.5l-18.048-.036" transform="translate(-602.997 -31.578)" fill="#8b865c"/>
        <path id="Trazado_895903" data-name="Trazado 895903" d="M671.454,80.562a46.938,46.938,0,0,1-9.949-17.012c-4.74-14.933.554-27.448,2.969-32.275a45.728,45.728,0,0,0,1.774,27.158,54.141,54.141,0,0,0,13.39,19.655,26.58,26.58,0,0,1-6.892-15.515,25.186,25.186,0,0,1,4.3-15.743,24.978,24.978,0,0,0,1.383,18.34c4.463,9.281,13.224,13.816,15.95,15.112l-22.919.28" transform="translate(-529.463 -25.105)" fill="#8b865c"/>
        <path id="Trazado_895904" data-name="Trazado 895904" d="M708.672,90.284a.435.435,0,0,1-.434-.408,56.022,56.022,0,0,1,2.5-20.628,53.809,53.809,0,0,1,4.109-9.553.435.435,0,1,1,.762.42,52.935,52.935,0,0,0-4.042,9.4,55.153,55.153,0,0,0-2.461,20.309.435.435,0,0,1-.407.461h-.028" transform="translate(-568.414 -47.736)" fill="#8b865c"/>
        <path id="Trazado_895905" data-name="Trazado 895905" d="M727.772,33.284c-1.182,2.363-5.254,2.721-9.094.8s-6-5.394-4.813-7.758,5.254-2.721,9.094-.8,5.995,5.394,4.813,7.758" transform="translate(-572.763 -19.498)" fill="#efbc73"/>
        <rect id="Rect치ngulo_403045" data-name="Rect치ngulo 403045" width="216.62" height="57.949" transform="translate(13.345 159.133)" fill="#b77250"/>
        <path id="Trazado_895906" data-name="Trazado 895906" d="M818.216,911.639a.434.434,0,0,1-.168-.034l-10-4.2a.435.435,0,0,1-.255-.5l2.181-9.327a.435.435,0,0,1,.328-.325l8.452-1.9a.44.44,0,0,1,.244.016l8,2.91,10.33-2.92a.435.435,0,0,1,.336.042l6.973,4.04a.436.436,0,0,1,.184.542l-3.8,9.247a.435.435,0,0,1-.4.269H828.824L818.3,911.63a.445.445,0,0,1-.086.009m-9.492-4.89,9.536,4,10.434-2.112a.453.453,0,0,1,.086-.008h11.542L843.87,900l-6.485-3.757L827.1,899.156a.438.438,0,0,1-.267-.01l-8.01-2.915-8.062,1.814Z" transform="translate(-648.41 -718.697)" fill="#d3bba3"/>
        <path id="Trazado_895907" data-name="Trazado 895907" d="M835.434,990.272a.436.436,0,0,1-.245-.075l-8.4-5.716a.436.436,0,0,1-.189-.391l.586-8.228a.44.44,0,0,1,.051-.175l5.7-10.63a.435.435,0,0,1,.3-.221L843.8,962.7a.435.435,0,0,1,.521.429l-.053,9.806a.436.436,0,0,1-.181.351l-4.735,3.4,2.485,7.781a.436.436,0,0,1-.128.46l-5.988,5.24a.434.434,0,0,1-.286.107m-7.947-6.37,7.914,5.386,5.52-4.831-2.494-7.811a.435.435,0,0,1,.161-.485l4.812-3.455.049-9.049-9.84,1.992-5.56,10.368Z" transform="translate(-663.515 -772.756)" fill="#d3bba3"/>
        <path id="Trazado_895908" data-name="Trazado 895908" d="M907.915,948.708a.433.433,0,0,1-.253-.081l-7.958-5.7a.435.435,0,0,1-.109-.6l6.586-9.892-3.932-1.116a.435.435,0,0,1-.316-.421l.052-9.766-1.794-10.29a.435.435,0,1,1,.857-.15l1.8,10.328a.444.444,0,0,1,.006.077l-.051,9.474,3.883,1.1,7.2-10.82a.436.436,0,0,1,.32-.192.446.446,0,0,1,.351.127l6.738,6.813,8.048-4.621v-8.732l-11.366-1.973a.435.435,0,0,1,.149-.857l11.727,2.035a.435.435,0,0,1,.361.429v9.35a.435.435,0,0,1-.218.377l-8.558,4.913a.435.435,0,0,1-.526-.071l-6.6-6.672-6.753,10.142,7.439,2.11a.435.435,0,0,1,.316.418v7.64a.435.435,0,0,1-.147.326L908.2,948.6a.436.436,0,0,1-.288.109m-7.362-6.241,7.334,5.25,6.566-5.813v-7.115l-7.392-2.1Z" transform="translate(-722.051 -730.734)" fill="#d3bba3"/>
        <path id="Trazado_895909" data-name="Trazado 895909" d="M983.557,1019.416a.437.437,0,0,1-.268-.092l-7.924-6.173a.435.435,0,0,1-.168-.343v-7.64a.434.434,0,0,1,.128-.308l6.339-6.305a.465.465,0,0,1,.313-.127.435.435,0,0,1,.309.136l8.558,9.033a.434.434,0,0,1,.052.531l-6.973,11.086a.436.436,0,0,1-.293.2.461.461,0,0,1-.075.006m-7.489-6.821,7.377,5.747,6.537-10.393-8.019-8.464-5.895,5.864Z" transform="translate(-782.796 -801.442)" fill="#d3bba3"/>
        <path id="Trazado_895910" data-name="Trazado 895910" d="M975.057,860.6a.434.434,0,0,1-.431-.378l-1.093-8.271-4.719-5.479-5.3-.656-6.821,8.546a.435.435,0,0,1-.68-.543l6.973-8.736a.439.439,0,0,1,.394-.16l5.7.707a.433.433,0,0,1,.276.148l4.56,5.3,2.528-3.371,3.337-4.132a.438.438,0,0,1,.448-.148l5.815,1.512a.435.435,0,0,1,.317.506l-1.224,6.121.487,4.437a.436.436,0,0,1-.269.451l-10.143,4.12a.435.435,0,0,1-.164.032m-.655-8.715,1.012,7.666,9.317-3.785-.458-4.177a.434.434,0,0,1,.006-.133l1.156-5.783-5.145-1.338-3.152,3.9Z" transform="translate(-767.323 -677.004)" fill="#d3bba3"/>
        <path id="Trazado_895911" data-name="Trazado 895911" d="M1069.919,944.163a.435.435,0,0,1-.364-.2l-3.641-5.547-5.415,1.128a.427.427,0,0,1-.326-.061l-9.271-6.022a.435.435,0,0,1-.008-.725l9.393-6.388-9.4-6.847a.435.435,0,0,1,.153-.774l12.833-3.13,3.843-5.657-6.65-3.886a.435.435,0,0,1,.439-.751l7.052,4.121a.435.435,0,0,1,.14.62l-4.2,6.18a.433.433,0,0,1-.257.179l-12.084,2.947,9.146,6.658a.435.435,0,0,1-.011.711l-9.364,6.367,8.572,5.568,5.53-1.152a.429.429,0,0,1,.452.187l3.8,5.8a.435.435,0,0,1-.363.674" transform="translate(-843.405 -726.647)" fill="#d3bba3"/>
        <path id="Trazado_895912" data-name="Trazado 895912" d="M1106.412,894.875a.435.435,0,0,1-.394-.619l3.606-7.727-8.44-3.252a.435.435,0,0,1,.014-.818l9.592-3.317.8-7.244-3.328-5.359a.434.434,0,0,1-.057-.312l1.562-8.045-1.857-5.174-5.668-1.083a.435.435,0,0,1,.163-.855l5.912,1.13a.436.436,0,0,1,.328.28l1.981,5.52a.437.437,0,0,1,.017.23l-1.552,7.994,3.317,5.342a.434.434,0,0,1,.063.277l-.845,7.667a.436.436,0,0,1-.291.364l-8.727,3.018,7.764,2.991a.435.435,0,0,1,.238.59l-3.8,8.149a.435.435,0,0,1-.394.251" transform="translate(-883.702 -683.153)" fill="#d3bba3"/>
        <path id="Trazado_895913" data-name="Trazado 895913" d="M778.449,887.347h-.024l-11.22-.621a.429.429,0,0,1-.147-.035l-11.838-5.078a.435.435,0,0,1-.173-.666l7.111-9.194-10.444-2.1a.435.435,0,0,1-.349-.427v-8.989a.434.434,0,0,1,.144-.323l7.976-7.184a.433.433,0,0,1,.373-.1l9.984,1.9a.435.435,0,0,1,.271.173l3.515,4.881L779.605,854a.436.436,0,0,1,.162-.1l8.663-2.82a.44.44,0,0,1,.135-.021H799.13a.435.435,0,0,1,0,.87h-10.5l-8.506,2.768-6.269,5.851a.445.445,0,0,1-.339.115.435.435,0,0,1-.311-.179l-3.7-5.141-9.6-1.829-7.672,6.91v8.439l10.782,2.17a.435.435,0,0,1,.258.692l-7.2,9.3,11.251,4.827,11.143.617a.435.435,0,0,1-.024.869" transform="translate(-603.124 -683.153)" fill="#d3bba3"/>
        <path id="Trazado_895914" data-name="Trazado 895914" d="M253.944,919.049a.454.454,0,0,1-.086-.009l-9.972-2.019H232.713a.435.435,0,0,1-.4-.269l-3.605-8.765a.435.435,0,0,1,.184-.542l6.61-3.829a.435.435,0,0,1,.336-.042l9.784,2.766,7.575-2.756a.426.426,0,0,1,.244-.016l8.012,1.8a.435.435,0,0,1,.328.326l2.067,8.841a.434.434,0,0,1-.255.5l-9.478,3.978a.438.438,0,0,1-.168.034m-20.94-2.9H243.93a.455.455,0,0,1,.086.008l9.883,2,9.016-3.783-1.921-8.218-7.621-1.715-7.587,2.76a.441.441,0,0,1-.267.01l-9.742-2.754-6.122,3.547Z" transform="translate(-183.557 -725.29)" fill="#d3bba3"/>
        <path id="Trazado_895915" data-name="Trazado 895915" d="M312.246,993.585a.436.436,0,0,1-.287-.108l-5.676-4.968a.435.435,0,0,1-.128-.459l2.35-7.361-4.475-3.213a.435.435,0,0,1-.181-.351l-.05-9.3a.435.435,0,0,1,.521-.428l10.014,2.027a.436.436,0,0,1,.3.221l5.4,10.077a.44.44,0,0,1,.051.175l.555,7.8a.436.436,0,0,1-.189.391l-7.962,5.419a.437.437,0,0,1-.245.075m-5.175-5.542,5.208,4.558,7.477-5.088-.531-7.457-5.263-9.815-9.29-1.881.046,8.539,4.552,3.268a.435.435,0,0,1,.161.486Z" transform="translate(-243.861 -776.531)" fill="#d3bba3"/>
        <path id="Trazado_895916" data-name="Trazado 895916" d="M193.5,954.189a.436.436,0,0,1-.288-.109l-6.61-5.852a.436.436,0,0,1-.147-.326v-7.242a.435.435,0,0,1,.316-.418l7.022-1.992-6.368-9.565-6.235,6.3a.434.434,0,0,1-.526.071l-8.112-4.657a.435.435,0,0,1-.218-.377v-8.863a.435.435,0,0,1,.361-.429l11.116-1.93a.435.435,0,1,1,.149.857L173.2,921.529v8.245l7.6,4.365,6.374-6.446a.435.435,0,0,1,.671.064L194.668,938l3.648-1.035L198.268,928a.424.424,0,0,1,.006-.077l1.707-9.79a.435.435,0,0,1,.857.15l-1.7,9.752.05,9.256a.434.434,0,0,1-.316.421l-3.7,1.049,6.226,9.351a.436.436,0,0,1-.109.6l-7.543,5.4a.434.434,0,0,1-.253.081m-6.175-6.483,6.2,5.492,6.919-4.954L194.3,939.01l-6.975,1.978Z" transform="translate(-138.33 -736.701)" fill="#d3bba3"/>
        <path id="Trazado_895917" data-name="Trazado 895917" d="M179.374,1021.215a.434.434,0,0,1-.368-.2L172.4,1010.5a.434.434,0,0,1,.052-.531l8.112-8.562a.435.435,0,0,1,.622-.009l6.009,5.977a.435.435,0,0,1,.128.308v7.242a.435.435,0,0,1-.168.343l-7.511,5.852a.437.437,0,0,1-.268.092m-6.062-10.89,6.174,9.816,6.964-5.425v-6.849l-5.565-5.535Z" transform="translate(-138.33 -803.727)" fill="#d3bba3"/>
        <path id="Trazado_895918" data-name="Trazado 895918" d="M130.782,870.666a.438.438,0,0,1-.164-.032L121,866.728a.436.436,0,0,1-.269-.451l.461-4.2-1.16-5.8a.435.435,0,0,1,.317-.506l5.512-1.433a.432.432,0,0,1,.448.148l3.155,3.906,2.389,3.185,4.3-5a.434.434,0,0,1,.276-.148l5.408-.67a.439.439,0,0,1,.394.16l6.61,8.281a.435.435,0,0,1-.68.543l-6.458-8.091-5,.619-4.463,5.183-1.035,7.833a.436.436,0,0,1-.431.378m-9.146-4.62,8.788,3.57.954-7.228-2.6-3.463-2.969-3.675-4.843,1.259,1.092,5.461a.434.434,0,0,1,.006.133Z" transform="translate(-96.347 -685.769)" fill="#d3bba3"/>
        <path id="Trazado_895919" data-name="Trazado 895919" d="M82.539,949.884a.435.435,0,0,1-.363-.674l3.605-5.493a.432.432,0,0,1,.452-.187l5.232,1.09,8.089-5.254-8.848-6.016a.435.435,0,0,1-.011-.711l8.63-6.283-11.407-2.782a.436.436,0,0,1-.257-.178l-3.981-5.859a.435.435,0,0,1,.14-.62l6.685-3.906a.435.435,0,1,1,.439.751l-6.283,3.671,3.625,5.335,12.155,2.964a.435.435,0,0,1,.153.774l-8.889,6.471,8.878,6.037a.436.436,0,0,1-.008.725l-8.788,5.708a.428.428,0,0,1-.326.061l-5.118-1.066L82.9,949.687a.435.435,0,0,1-.364.2" transform="translate(-65.906 -732.83)" fill="#d3bba3"/>
        <path id="Trazado_895920" data-name="Trazado 895920" d="M79.116,903.161a.435.435,0,0,1-.394-.251l-3.605-7.725a.436.436,0,0,1,.238-.59l7.3-2.813-8.214-2.841a.436.436,0,0,1-.29-.364l-.8-7.268a.437.437,0,0,1,.063-.277l3.14-5.056-1.469-7.569a.436.436,0,0,1,.017-.23l1.878-5.233a.435.435,0,0,1,.328-.28l5.6-1.071a.435.435,0,0,1,.163.855l-5.361,1.024-1.753,4.887,1.479,7.619a.434.434,0,0,1-.057.312l-3.15,5.073.755,6.845,9.079,3.14a.435.435,0,0,1,.014.817L76.1,895.24l3.408,7.3a.435.435,0,0,1-.394.619" transform="translate(-58.877 -691.6)" fill="#d3bba3"/>
        <path id="Trazado_895921" data-name="Trazado 895921" d="M248.712,896.024a.435.435,0,0,1-.024-.869l10.559-.584,10.634-4.562-6.8-8.8a.435.435,0,0,1,.258-.692l10.2-2.053V870.5l-7.256-6.536-9.082,1.73-3.5,4.866a.435.435,0,0,1-.311.179.439.439,0,0,1-.339-.115l-5.938-5.543-8.055-2.621h-9.946a.435.435,0,0,1,0-.87h10.015a.445.445,0,0,1,.135.021l8.212,2.673a.441.441,0,0,1,.162.1l5.648,5.271,3.317-4.606a.436.436,0,0,1,.272-.173l9.464-1.8a.44.44,0,0,1,.372.1l7.561,6.81a.435.435,0,0,1,.144.323v8.52a.435.435,0,0,1-.349.427l-9.864,1.985,6.718,8.687a.435.435,0,0,1-.173.666L259.519,895.4a.432.432,0,0,1-.147.035l-10.636.588h-.024" transform="translate(-183.557 -691.599)" fill="#d3bba3"/>
        <path id="Trazado_895922" data-name="Trazado 895922" d="M472.89,881.934a.436.436,0,0,1-.177-.038l-16.377-7.311a.435.435,0,0,1-.148-.686l6.49-7.326a.436.436,0,0,1,.326-.147h9.888a.435.435,0,0,1,.376.216l4.269,7.326a.435.435,0,0,1,0,.438l-4.269,7.311a.435.435,0,0,1-.376.216m-15.658-7.9,15.48,6.91,3.945-6.755L472.64,867.3H463.2Z" transform="translate(-366.096 -695.485)" fill="#d3bba3"/>
        <path id="Trazado_895923" data-name="Trazado 895923" d="M552.244,866.745a.434.434,0,0,1-.2-.05l-8.452-4.454a.435.435,0,0,1-.173-.166l-4.269-7.326a.435.435,0,0,1,.287-.645l14.619-3.031a.436.436,0,0,1,.246.021l7.823,3.031a.435.435,0,0,1,.112.747l-4.383,3.454.949,4.784a.435.435,0,0,1-.23.473l-6.128,3.117a.433.433,0,0,1-.2.047m-8.139-5.216,8.142,4.291,5.633-2.865-.937-4.722a.435.435,0,0,1,.157-.426l3.994-3.147-6.992-2.709-13.9,2.882Z" transform="translate(-432.728 -683.153)" fill="#d3bba3"/>
        <path id="Trazado_895924" data-name="Trazado 895924" d="M635.848,883.127a.435.435,0,0,1-.36-.191l-4.86-7.166a.432.432,0,0,1-.067-.16l-1-5.045a.434.434,0,0,1,.158-.426l4.593-3.618a.436.436,0,0,1,.4-.073l11.41,3.618a.435.435,0,0,1,.3.5l-1.268,6.512a.435.435,0,0,1-.192.283l-8.875,5.7a.435.435,0,0,1-.235.069m-4.451-7.772,4.573,6.742,8.361-5.369,1.158-5.949-10.821-3.432-4.2,3.311Zm13.325,1.638h0Z" transform="translate(-505.344 -695.486)" fill="#d3bba3"/>
        <path id="Trazado_895925" data-name="Trazado 895925" d="M395.23,926.051a.433.433,0,0,1-.168-.034l-10.035-4.209a.435.435,0,1,1,.336-.8l9.775,4.1,7.877-7.413-7.483-8.614a.435.435,0,0,1,.306-.72l9.874-.513,2.607-6.5a.435.435,0,0,1,.14-.184l6.92-5.283a.436.436,0,0,1,.528,0l6.85,5.216,7.658,1.17,8.714-5.22a.435.435,0,0,1,.64.247L441.807,904l10.885-.888,4.206-6.66-8.862-4.35a.435.435,0,0,1-.235-.474l1.268-6.512a.435.435,0,0,1,.536-.338l8.029,2.087a.435.435,0,1,1-.219.842l-7.581-1.97-1.116,5.731,9,4.417a.435.435,0,0,1,.176.623l-4.58,7.254a.437.437,0,0,1-.332.2l-11.451.934a.432.432,0,0,1-.452-.307l-1.979-6.52-8.37,5.015a.432.432,0,0,1-.289.057l-7.923-1.21a.439.439,0,0,1-.2-.084l-6.674-5.082-6.561,5.009-2.666,6.651a.435.435,0,0,1-.381.273l-9.261.482,7.172,8.256a.436.436,0,0,1-.03.6l-8.387,7.893a.436.436,0,0,1-.3.118" transform="translate(-308.849 -710.206)" fill="#d3bba3"/>
        <path id="Trazado_895926" data-name="Trazado 895926" d="M683.457,1001.815a.435.435,0,0,1-.418-.317l-2.322-8.272a.435.435,0,0,1,.2-.5l7.445-4.235,1.7-10.46a.435.435,0,0,1,.647-.306l8.172,4.735a.435.435,0,0,1,.188.531l-3.536,9.273,2.077,6.03,12.214-2.577a.435.435,0,1,1,.18.851l-12.589,2.656h0l-.011,0-13.871,2.577a.483.483,0,0,1-.08.007m-1.811-8.5,2.123,7.562,12.986-2.412-2.089-6.065a.433.433,0,0,1,0-.3l3.46-9.074-7.306-4.233-1.635,10.042a.435.435,0,0,1-.214.308Z" transform="translate(-546.401 -784.781)" fill="#d3bba3"/>
        <path id="Trazado_895927" data-name="Trazado 895927" d="M603.9,995.91a.433.433,0,0,1-.308-.127l-6.109-6.114a.436.436,0,0,1-.119-.223l-1.4-7.085A.434.434,0,0,1,596,982.1l3.64-8.316a.436.436,0,0,1,.467-.255l10.989,1.752a.435.435,0,0,1,.345.564l-2.256,6.916,4.3,6.785a.435.435,0,0,1-.139.6l-9.213,5.694a.434.434,0,0,1-.228.065m-5.708-6.763,5.772,5.777,8.546-5.283-4.174-6.586a.435.435,0,0,1-.046-.368l2.161-6.626L600.3,974.443l-3.451,7.883Z" transform="translate(-478.379 -781.454)" fill="#d3bba3"/>
        <path id="Trazado_895928" data-name="Trazado 895928" d="M500.339,1006.034a.441.441,0,0,1-.148-.026l-9.631-3.493a.435.435,0,0,1,.3-.818l9.545,3.462,11.13-.723a.435.435,0,1,1,.056.868l-11.221.729h-.028" transform="translate(-393.545 -804.047)" fill="#d3bba3"/>
        <path id="Trazado_895929" data-name="Trazado 895929" d="M490.6,1032.71a.434.434,0,0,1-.207-.052l-12.025-6.505a.435.435,0,0,1,.014-.772l12.025-5.964a.435.435,0,1,1,.387.779l-11.273,5.591,11.091,6,12.417-6.017a.435.435,0,0,1,.379.783l-12.617,6.114a.436.436,0,0,1-.19.043" transform="translate(-383.803 -818.253)" fill="#d3bba3"/>
        <path id="Trazado_895930" data-name="Trazado 895930" d="M284.258,610.935S266.57,606,256.8,606.07c-11.572.083-22.766,5.351-35.951,5.351-9.9,0-20.979-4.153-31.818-3.891-8.711.21-25.975,3.235-34.687,3.4-10.052.2-30.089-2.514-40.143-2.432-7.919.064-23.671,2.128-31.585,2.432-3.741.144-14.974,0-14.974,0V551.978h216.62Z" transform="translate(-54.293 -443.075)" fill="#363e44"/>
        <path id="Trazado_895931" data-name="Trazado 895931" d="M284.258,357.28s-9.553,1.792-15.211,1.459c-6.814-.4-12.247-2.671-23.824-2.432-11.088.229-17.356,5.069-30.244,4.864-12.477-.2-16.976-6.633-28.545-6.81-13.47-.206-25.133,9.148-34.977,9.148-8.286,0-14.5-7.4-24.8-7.688-10.744-.306-21.735,6.81-32.347,6.323-10.941-.5-26.676-4.864-26.676-4.864V305.428h216.62Z" transform="translate(-54.293 -245.169)" fill="#efbc73"/>
        <path id="Trazado_895932" data-name="Trazado 895932" d="M284.258,300.426H271.535c-3.209,0-7.607-2.509-12.836-2.432-5.705.084-12.678,3.895-19.017,3.891-7.673,0-17.274-4.441-24.7-4.378-6.488.055-17.206,5.351-25.952,5.351-11.143,0-21.883-6.964-34.687-6.81-10.694.128-19.568,4.338-30.01,4.378-7.626.029-11.719-2.352-18.243-2.432-6.084-.074-10.457,2.4-16.522,2.432-4.872.029-6.957-4.613-12.954-4.864-4.244-.178-8.973,4.864-8.973,4.864V280.773h216.62Z" transform="translate(-54.293 -225.378)" fill="#84524d"/>
        <path id="Trazado_895933" data-name="Trazado 895933" d="M92.473,298.036c-.421.56-1.455.492-2.31-.151s-1.206-1.618-.785-2.178,1.455-.492,2.31.152,1.206,1.618.785,2.177" transform="translate(-71.602 -237.061)" fill="#b77250"/>
        <path id="Trazado_895934" data-name="Trazado 895934" d="M242.44,337.379a.638.638,0,1,1-.638-.638.638.638,0,0,1,.638.638" transform="translate(-193.584 -270.304)" fill="#b77250"/>
        <path id="Trazado_895935" data-name="Trazado 895935" d="M370.074,304.791a1.639,1.639,0,1,1-1.639-1.639,1.639,1.639,0,0,1,1.639,1.639" transform="translate(-294.428 -243.342)" fill="#b77250"/>
        <path id="Trazado_895936" data-name="Trazado 895936" d="M529.872,318.223c.24.293-.041.92-.628,1.4s-1.257.634-1.5.341.041-.919.628-1.4,1.256-.634,1.5-.341" transform="translate(-423.557 -255.32)" fill="#b77250"/>
        <path id="Trazado_895937" data-name="Trazado 895937" d="M688.7,352.785a1.44,1.44,0,1,1-1.44-1.44,1.44,1.44,0,0,1,1.44,1.44" transform="translate(-550.513 -282.026)" fill="#b77250"/>
        <path id="Trazado_895938" data-name="Trazado 895938" d="M761.458,297.993a1.268,1.268,0,1,1-1.268-1.268,1.268,1.268,0,0,1,1.268,1.268" transform="translate(-609.19 -238.183)" fill="#b77250"/>
        <path id="Trazado_895939" data-name="Trazado 895939" d="M919.747,353.1c-.346.716-1.479.884-2.529.376s-1.621-1.5-1.275-2.216,1.479-.884,2.529-.376,1.621,1.5,1.275,2.216" transform="translate(-735.151 -281.417)" fill="#b77250"/>
        <path id="Trazado_895940" data-name="Trazado 895940" d="M976.616,303.373c.1.443-.575.962-1.5,1.161s-1.747,0-1.842-.442.575-.962,1.5-1.161,1.747,0,1.842.442" transform="translate(-781.247 -243.102)" fill="#b77250"/>
        <path id="Trazado_895941" data-name="Trazado 895941" d="M1099.664,311.267a1.69,1.69,0,1,1-1.69-1.69,1.69,1.69,0,0,1,1.69,1.69" transform="translate(-879.992 -248.499)" fill="#b77250"/>
        <path id="Trazado_895943" data-name="Trazado 895943" d="M177.037,444.319h-.116a16.583,16.583,0,0,1-6.766-1.783c-4.99-2.414-7.966-6.232-6.777-8.691s6.03-2.495,11.02-.081a16.589,16.589,0,0,1,5.6,4.2c1.354,1.67,1.772,3.266,1.179,4.493-.583,1.205-2.05,1.865-4.138,1.865m-9.548-11.47c-1.645,0-2.882.454-3.327,1.374-.945,1.953,1.973,5.4,6.372,7.529a15.7,15.7,0,0,0,6.4,1.7c1.766.009,3.029-.48,3.461-1.374s.042-2.193-1.071-3.566a17.347,17.347,0,0,0-11.831-5.66" transform="translate(-130.935 -346.749)" fill="#b77250"/>
        <path id="Trazado_895944" data-name="Trazado 895944" d="M390,472.981a3.291,3.291,0,1,1-3.291-3.291A3.291,3.291,0,0,1,390,472.981" transform="translate(-307.769 -377.023)" fill="#84524d"/>
        <path id="Trazado_895945" data-name="Trazado 895945" d="M547.951,433.254c0,1.171-1.491,2.12-3.33,2.12s-3.33-.949-3.33-2.12,1.491-2.12,3.33-2.12,3.33.949,3.33,2.12" transform="translate(-434.498 -346.073)" fill="#84524d"/>
        <path id="Trazado_895946" data-name="Trazado 895946" d="M713.169,494.281a7.009,7.009,0,0,1-2.278-.356,3.247,3.247,0,0,1-2.327-2.26c-.44-2.043,1.733-4.185,4.946-4.877a7.955,7.955,0,0,1,4.188.148,3.246,3.246,0,0,1,2.327,2.26c.44,2.043-1.733,4.185-4.946,4.877a9.114,9.114,0,0,1-1.91.208m2.254-6.832a8.247,8.247,0,0,0-1.73.189c-2.645.57-4.6,2.329-4.279,3.843a2.425,2.425,0,0,0,1.761,1.621,7.055,7.055,0,0,0,3.721.12c2.645-.57,4.6-2.329,4.279-3.843a2.426,2.426,0,0,0-1.761-1.621,6.117,6.117,0,0,0-1.991-.31" transform="translate(-568.723 -390.58)" fill="#b77250"/>
        <path id="Trazado_895947" data-name="Trazado 895947" d="M920.7,433.284a12.113,12.113,0,0,1-2.626-.309,10.609,10.609,0,0,1-3.622-1.485c-1.03-.715-1.506-1.515-1.34-2.252s.939-1.255,2.177-1.46a11.741,11.741,0,0,1,7.53,1.7c1.03.715,1.506,1.515,1.341,2.252s-.939,1.255-2.176,1.46a7.9,7.9,0,0,1-1.283.1m-4.127-4.733a7.074,7.074,0,0,0-1.144.087c-.84.138-1.389.435-1.469.792s.289.86.988,1.345a10.89,10.89,0,0,0,6.893,1.553c.84-.138,1.389-.435,1.469-.792s-.289-.86-.988-1.345a9.724,9.724,0,0,0-3.317-1.351,11.226,11.226,0,0,0-2.432-.288" transform="translate(-732.936 -343.302)" fill="#b77250"/>
        <path id="Trazado_895948" data-name="Trazado 895948" d="M1077.817,505.149c0,1.158-1.487,2.1-3.322,2.1s-3.322-.939-3.322-2.1,1.487-2.1,3.322-2.1,3.322.939,3.322,2.1" transform="translate(-859.835 -403.802)" fill="#84524d"/>
        <path id="Trazado_895949" data-name="Trazado 895949" d="M174.5,668.526a2.311,2.311,0,1,1-2.311-2.311,2.311,2.311,0,0,1,2.311,2.311" transform="translate(-136.364 -534.774)" fill="#b77250"/>
        <path id="Trazado_895950" data-name="Trazado 895950" d="M293.881,615.228a1.49,1.49,0,1,1-1.49-1.49,1.49,1.49,0,0,1,1.49,1.49" transform="translate(-233.508 -492.651)" fill="#b77250"/>
        <path id="Trazado_895951" data-name="Trazado 895951" d="M342.039,735.7a2.007,2.007,0,1,1-2.007-2.007,2.007,2.007,0,0,1,2.007,2.007" transform="translate(-271.333 -588.935)" fill="#b77250"/>
        <path id="Trazado_895952" data-name="Trazado 895952" d="M150.15,811.644a.845.845,0,1,1-.845-.845.845.845,0,0,1,.845.845" transform="translate(-119.17 -650.832)" fill="#b77250"/>
        <path id="Trazado_895953" data-name="Trazado 895953" d="M496.055,790.1a1.788,1.788,0,1,1-1.788-1.788,1.788,1.788,0,0,1,1.788,1.788" transform="translate(-395.315 -632.779)" fill="#b77250"/>
        <path id="Trazado_895954" data-name="Trazado 895954" d="M505.558,655.371a2.007,2.007,0,1,1-2.007-2.007,2.007,2.007,0,0,1,2.007,2.007" transform="translate(-402.591 -524.458)" fill="#b77250"/>
        <path id="Trazado_895955" data-name="Trazado 895955" d="M687.549,718.607a2.322,2.322,0,1,1-2.322-2.322,2.322,2.322,0,0,1,2.322,2.322" transform="translate(-548.171 -574.965)" fill="#b77250"/>
        <path id="Trazado_895956" data-name="Trazado 895956" d="M840.665,641.577a2.4,2.4,0,1,1-2.4-2.4,2.4,2.4,0,0,1,2.4,2.4" transform="translate(-670.947 -513.068)" fill="#b77250"/>
        <path id="Trazado_895957" data-name="Trazado 895957" d="M886.5,779.908a3.381,3.381,0,1,1-3.381-3.381,3.381,3.381,0,0,1,3.381,3.381" transform="translate(-706.169 -623.322)" fill="#b77250"/>
        <path id="Trazado_895958" data-name="Trazado 895958" d="M1018.24,691.47a1.827,1.827,0,1,1-1.827-1.827,1.827,1.827,0,0,1,1.827,1.827" transform="translate(-814.413 -553.58)" fill="#b77250"/>
        <path id="Trazado_895959" data-name="Trazado 895959" d="M1131.71,614.482a.745.745,0,1,1-.745-.745.745.745,0,0,1,.745.745" transform="translate(-907.233 -492.65)" fill="#b77250"/>
        <path id="Trazado_895960" data-name="Trazado 895960" d="M1115.207,789.2a.894.894,0,1,1-.894-.894.894.894,0,0,1,.894.894" transform="translate(-893.747 -632.779)" fill="#b77250"/>
      </g>
    </g>
  </g>
</svg>
